
<svg width="357" height="228" viewBox="0 0 357 228" fill="none" xmlns="http://www.w3.org/2000/svg">
<g clip-path="url(#clip0_1923_28660)">
<path d="M261.055 77.9818C262.617 57.1416 258.643 30.1019 242.95 15.6312C233.225 6.69528 208.92 6.55614 208.92 6.55614C140.057 1.94903 128.291 125.63 175.231 144.074C179.189 144.677 215.862 167.202 224.876 168.764C221.026 162.379 233.102 145.403 242.935 131.721C251.299 120.064 259.416 100.229 261.071 77.9509L261.055 77.9818Z" fill="url(#paint0_linear_1923_28660)"/>
<path d="M177.983 43.3359C177.983 43.3359 116.912 64.7791 178.122 183.868L185.837 172.026C185.837 172.026 167.531 112.041 176.653 89.0515C183.162 72.6792 177.334 61.9344 177.983 43.3359Z" fill="url(#paint1_linear_1923_28660)"/>
<path d="M203.479 184.549C205.071 184.549 225.696 184.1 226.376 183.25C263.761 135.401 266.591 85.2948 256.433 67.6548C222.372 8.45805 221.352 22.2794 221.352 22.2794C213.652 49.6129 216.775 68.1804 226.593 83.7488C240.168 105.285 215.105 161.142 203.509 184.549H203.479Z" fill="url(#paint2_linear_1923_28660)"/>
<path d="M263.004 152.716C257.345 150.258 252.243 140.147 250.697 139.977C245.254 139.451 225.712 133.36 223.439 126.156C220.609 117.173 223.995 105.625 223.995 105.625L190.012 103.939C193.831 110.278 193.692 117.003 193.537 123.837C193.367 131.335 170.716 137.89 162.862 138.74C158.564 139.219 145.731 147.521 143.644 154.85C140.706 165.161 138.403 164.002 139.284 177.545L276.068 164.528C275.233 156.999 273.687 157.339 263.019 152.685L263.004 152.716Z" fill="#F7D4AB"/>
<path d="M240.152 134.334C241.327 133.855 240.786 133.654 241.976 132.927C228.695 129.078 226.484 128.49 225.541 127.857C224.521 127.176 223.547 123.899 223.176 120.065C223.021 118.395 222.774 114.236 222.712 112.041C222.248 112.597 193.274 111.546 192.161 109.923L188.79 109.954C188.79 109.954 189.424 119.431 188.203 128.119C187.878 129.665 178.493 131.845 172.324 133.128C172.773 133.469 174.35 134.535 174.705 134.721C179.977 135.247 184.508 135.849 186.672 135.478C189.3 135.03 193.722 133.02 196.938 131.552C214.301 123.636 219.728 121.023 219.728 121.023C220.547 128.382 226.021 133.252 225.727 133.175C230.102 134.226 235.421 134.443 240.152 134.303V134.334Z" fill="url(#paint3_linear_1923_28660)"/>
<path d="M212.461 145.032C212.461 145.032 210.668 140.085 204.561 142.002C204.561 142.002 210.807 143.1 212.461 145.032Z" fill="url(#paint4_linear_1923_28660)"/>
<path d="M212.678 140.796C212.678 140.796 214.425 136.313 216.868 135.694C219.311 135.091 239.302 134.55 242.456 133.947C242.456 133.947 237.369 136.189 230.458 136.977C223.547 137.766 218.105 136.575 212.678 140.781V140.796Z" fill="url(#paint5_linear_1923_28660)"/>
<path d="M204.081 140.765C204.081 140.765 202.396 137.318 199.412 136.328C196.412 135.323 173.545 133.916 169.448 134.318C169.448 134.318 198.299 137.194 204.097 140.765H204.081Z" fill="url(#paint6_linear_1923_28660)"/>
<path d="M188.311 126.96C188.311 126.96 188.45 108.686 187.847 105.439C187.847 105.439 221.908 106.661 223.454 106.784C222.82 110.588 222.774 115.334 222.774 115.334C222.774 115.334 208.256 133.268 188.296 126.96H188.311Z" fill="url(#paint7_linear_1923_28660)"/>
<path d="M169.448 72.5557C170.871 84.0271 171.273 92.7466 171.273 92.7466C166.65 92.7466 165.738 87.8302 163.944 83.5014C161.177 76.8845 159.692 69.7419 166.959 69.1235C168.181 69.0153 169.448 72.5711 169.448 72.5711V72.5557Z" fill="#F0C499"/>
<path d="M168.598 88.8965C168.598 88.8965 166.341 86.3611 167.037 81.3675C168.676 69.5869 161.162 68.7829 162.878 76.8222C162.878 76.8222 163.914 73.019 164.872 74.1631C166.047 75.5545 163.62 76.312 164.872 82.4187C165.506 85.5726 168.629 88.912 168.629 88.912L168.598 88.8965Z" fill="url(#paint8_linear_1923_28660)"/>
<path d="M211.58 20.7949C189.811 16.9144 174.427 37.3836 170.33 61.9961C168.026 75.8174 168.737 87.9845 175.71 98.1418C178.524 102.254 182.034 104.249 186.085 107.511C188.667 109.582 192.702 114.004 195.454 116.153C197.959 118.116 200.695 119.693 204.066 119.817C214.317 120.219 221.042 112.133 224.011 109.211C234.37 98.9612 243.863 95.158 241.822 66.5877C240.214 44.1396 225.85 21.2896 211.58 20.7949V20.7949Z" fill="#F7D4AB"/>
<path d="M210.977 78.214C211.905 66.8508 211.425 57.1418 223.578 54.8537C234.926 52.7202 238.374 59.7237 239.41 61.3934C242.1 65.7222 241.899 76.7298 241.899 76.7298C241.899 76.7298 230.551 86.7634 210.961 78.1985L210.977 78.214Z" fill="url(#paint9_linear_1923_28660)"/>
<path d="M217.826 85.3102C219.063 91.8035 223.067 97.3846 228.479 99.6572C235.56 102.641 240.739 92.9784 241.976 81.0432C242.657 74.4727 233.658 69.6027 227.953 70.8241C222.248 72.0454 216.589 78.817 217.826 85.3102V85.3102Z" fill="url(#paint10_radial_1923_28660)"/>
<path d="M201.561 79.2957C200.185 70.2979 202.551 56.5539 186.502 55.348C181.493 54.9615 177.442 56.4302 174.86 58.5019C168.846 63.2791 172.34 75.8945 172.34 75.8945C172.34 75.8945 181.725 87.5823 201.561 79.3112V79.2957Z" fill="url(#paint11_linear_1923_28660)"/>
<path d="M193.119 85.4188C191.79 90.9689 187.971 100.879 182.637 100.029C175.757 98.9464 170.577 94.9267 170.345 81.3837C170.237 75.6325 178.493 71.5201 183.704 72.927C188.93 74.3493 194.434 79.8686 193.104 85.4342L193.119 85.4188Z" fill="url(#paint12_radial_1923_28660)"/>
<path d="M234.648 76.8691C232.7 77.3947 231.355 78.7088 231.618 79.8374C231.881 80.9505 233.674 81.4453 235.607 80.9351C237.539 80.4094 238.915 79.0953 238.637 77.9667C238.374 76.8536 236.581 76.3589 234.648 76.8691Z" fill="url(#paint13_linear_1923_28660)"/>
<path d="M176.468 77.0853C174.519 76.6987 172.788 77.2708 172.571 78.3994C172.37 79.5279 173.777 80.7648 175.71 81.1667C177.658 81.5532 179.405 80.9812 179.606 79.8526C179.807 78.724 178.4 77.4872 176.452 77.0853H176.468Z" fill="url(#paint14_linear_1923_28660)"/>
<path d="M188.141 94.6787C187.182 94.3695 186.657 93.6119 187.059 92.8698C187.399 92.2205 191.403 95.0188 192.949 97.2296C190.862 95.699 189.099 94.9724 188.141 94.6787Z" fill="url(#paint15_linear_1923_28660)"/>
<path d="M223.655 94.3854C224.583 93.9989 225.062 93.2104 224.598 92.5147C224.196 91.8963 220.408 94.9883 219.048 97.2919C221.027 95.6222 222.728 94.7719 223.655 94.3854Z" fill="url(#paint16_linear_1923_28660)"/>
<path d="M196.66 102.1C198.454 105.918 208.349 111.237 215.631 102.007C215.631 102.007 205.272 106.614 196.66 102.1V102.1Z" fill="#F0C499"/>
<path d="M204.993 95.5752C195.686 95.467 190.259 94.0756 188.063 93.6118C188.125 93.72 188.156 93.7818 188.218 93.8746C189.393 94.4002 190.723 94.7249 192.454 95.9617C193.629 96.7966 194.789 102.486 206.354 102.347C212.678 102.269 216.496 100.12 220.223 95.838C221.382 94.493 222.511 94.091 223.408 93.5499C223.423 93.4417 223.469 93.3953 223.5 93.2871C220.965 93.9983 215.878 95.6989 204.978 95.5907L204.993 95.5752Z" fill="#961B27"/>
<path d="M215.43 96.5807C208.952 98.0339 200.108 97.8639 196.908 97.2764C195.037 96.457 195.238 98.8069 195.238 98.8069C199.319 102.95 202.566 102.162 205.844 102.255C209.075 102.347 213.899 101.049 216.76 98.5132C217.038 97.7556 216.342 96.3951 215.445 96.5807H215.43V96.5807Z" fill="url(#paint17_linear_1923_28660)"/>
<path d="M218.306 94.1846C218.306 94.1846 216.203 95.2049 211.209 95.746C206.2 96.2871 204.081 95.9779 199.551 95.7615C197.48 95.6687 196.212 95.3595 193.614 94.7566C193.614 94.7566 194.094 95.3441 194.403 96.0398C194.805 96.9365 196.753 99.9976 206.076 99.8893C213.095 99.7966 216.775 97.3075 217.27 95.8233C217.563 94.9267 218.228 94.5092 218.275 94.2155H218.29L218.306 94.1846Z" fill="url(#paint18_linear_1923_28660)"/>
<path d="M206.988 101.93C192.764 101.93 197.696 96.1325 188.234 93.8753C188.296 93.8753 190.414 95.0193 192.903 97.8794C195.655 101.033 198.021 106.011 206.014 105.934C213.204 105.857 217.162 100.647 219.465 97.7867C222.094 94.5091 223.408 93.5352 223.47 93.5352C215.739 95.6377 218.306 101.574 206.988 101.93Z" fill="#F86D78"/>
<path d="M198.562 100.631C196.382 99.518 194.418 97.1526 194.016 96.8434C194.542 97.5236 197.634 105.022 205.627 104.852C214.889 104.651 216.558 98.4667 218.213 96.627C217.424 97.4463 215.461 99.6571 213.049 100.477C211.456 101.018 208.781 101.667 205.782 101.806C203.865 101.899 200.68 101.512 198.562 100.616V100.631Z" fill="url(#paint19_linear_1923_28660)"/>
<path d="M212.771 101.404C212.894 101.714 212.013 102.811 210.127 103.337C207.699 104.017 205.782 103.368 205.643 103.043C205.519 102.734 208.735 102.502 209.678 102.177C210.606 101.868 212.647 101.095 212.771 101.42V101.404Z" fill="#FF9AA2"/>
<path d="M188.373 94.4161C188.93 94.6635 189.363 94.246 191.604 95.05C191.604 95.05 187.801 93.0865 187.554 93.1947C187.384 93.2875 187.554 94.0296 188.388 94.4161H188.373Z" fill="#961B27"/>
<path d="M223.47 94.1066C222.913 94.3849 222.295 93.9675 220.331 94.8487C220.331 94.8487 223.949 92.6843 224.258 92.8852C224.413 92.9935 224.274 93.7201 223.47 94.1221V94.1066Z" fill="#961B27"/>
<path d="M193.846 94.973L194.449 96.0706C194.449 96.0706 198.484 98.2196 206.756 98.1887C212.724 98.1732 217.254 95.9006 217.254 95.9006L217.718 94.8184L193.815 94.9884L193.846 94.973Z" fill="url(#paint20_linear_1923_28660)"/>
<path d="M211.255 94.1687C208.488 93.9522 208.179 94.416 206.184 94.416C204.252 94.416 202.69 93.8749 200.294 94.0759C197.186 94.3542 193.367 94.6016 188.837 93.6585C188.837 93.6585 190.522 94.6943 198.871 96.2867C201.36 96.766 203.556 97.2298 206.122 97.1834C209.184 97.1834 211.704 96.565 214.069 96.163C218.074 95.4828 222.82 93.5039 222.836 93.4111C220.687 94.0141 214.317 94.3851 211.271 94.1687H211.255Z" fill="#F86D78"/>
<path d="M197 94.9726C197.093 94.6943 201.221 94.3232 201.901 94.3232C202.581 94.3232 204.854 94.7097 205.674 94.7097C206.493 94.7097 208.982 94.5551 209.678 94.4005C210.374 94.2459 215.399 94.6788 215.352 95.0344C215.306 95.39 207.993 96.2712 207.142 96.3331C206.277 96.4258 196.799 95.8074 197.031 94.9571L197 94.9726Z" fill="url(#paint21_linear_1923_28660)"/>
<path d="M205.906 110.386C203.2 110.185 200.912 110.834 200.788 111.839C200.649 112.844 202.736 113.818 205.442 114.004C208.132 114.189 210.421 113.555 210.56 112.551C210.699 111.546 208.596 110.572 205.906 110.402V110.386Z" fill="url(#paint22_linear_1923_28660)"/>
<path d="M172.154 73.7148C172.154 73.7148 167.995 92.6535 181.817 103.259C188.295 108.253 190.166 111.221 193.614 114.576C193.614 114.576 185.018 107.031 179.838 103.367C177.334 101.605 164.918 92.9318 172.154 73.7148V73.7148Z" fill="#F0C499"/>
<path d="M194.99 115.782C194.99 115.782 203.447 127.655 217.471 115.271C217.471 115.271 206.2 124.578 194.99 115.782Z" fill="url(#paint23_linear_1923_28660)"/>
<path d="M242.549 80.2241C242.549 80.2241 242.379 61.7802 238.977 49.4121C235.174 35.5444 229.499 24.7532 218.182 22.2487C218.182 22.2487 187.538 13.3127 177.473 38.3736C166.82 64.8413 169.108 78.4925 169.804 84.6766C169.804 84.6766 172.262 69.4175 175.509 64.7021C175.509 64.7021 185.265 56.0135 192.609 44.6194C207.313 21.7694 222.001 25.3716 226.979 32.6533C235.035 44.4803 238.544 60.9608 242.564 80.2086L242.549 80.2241Z" fill="#F0C499"/>
<path d="M241.729 72.54C240.307 84.0114 239.905 92.7309 239.905 92.7309C244.528 92.7309 245.44 87.8146 247.233 83.4857C250.001 76.8688 251.624 69.7726 245.347 69.3861C244.126 69.3088 241.729 72.54 241.729 72.54V72.54Z" fill="#F0C499"/>
<path d="M242.549 88.8809C242.549 88.8809 244.806 86.3454 244.11 81.3518C242.471 69.5712 249.985 68.7673 248.269 76.8066C248.269 76.8066 247.233 73.0034 246.275 74.1474C245.1 75.5388 247.527 76.2964 246.275 82.4031C245.641 85.557 242.518 88.8964 242.518 88.8964L242.549 88.8809Z" fill="url(#paint24_linear_1923_28660)"/>
<path d="M227.025 54.2047C227.025 54.2047 231.478 52.2722 238.405 56.6165C242.44 59.1365 239.904 70.4069 239.904 70.4069C239.904 70.4069 240.693 56.0754 227.025 54.1893V54.2047Z" fill="#F7D4AB"/>
<path d="M240.276 54.3438C240.276 54.3438 241.466 72.5712 242.379 76.9155L243.09 70.3913C243.09 70.3913 241.296 56.6164 240.276 54.3438V54.3438Z" fill="url(#paint25_linear_1923_28660)"/>
<path d="M170.685 58.0537C170.685 58.0537 170.129 71.7823 168.892 76.9305L167.763 67.6854L170.685 58.0692V58.0537Z" fill="url(#paint26_linear_1923_28660)"/>
<path d="M153.74 37.1824C172.417 -2.65829 207.297 -4.74541 220.625 8.1174C221.351 12.2298 222.867 18.3984 215.724 24.0413C199.659 11.4568 191.419 44.6187 177.334 52.9363C166.975 59.0585 161.656 74.7814 146.566 93.4417C142.268 68.1335 150.246 44.6033 153.709 37.2133H153.725L153.74 37.1824Z" fill="url(#paint27_linear_1923_28660)"/>
<path d="M147.2 77.2091C148.328 68.1494 150.416 52.4111 171.412 28.7107C181.539 17.3939 194.758 9.21551 205.72 10.6533C211.07 11.2562 214.626 14.0545 216.404 16.1571C218.259 18.2442 219.357 19.8057 219.419 19.8366C219.171 19.6665 213.868 14.6575 205.736 16.1107C197.742 17.3785 188.543 25.6341 179.374 35.6678C161.084 55.534 146.86 76.7298 147.2 77.2245V77.2091Z" fill="url(#paint28_linear_1923_28660)"/>
<path d="M256.695 48.2679C256.695 48.407 251.037 38.0797 240.925 27.5204C235.962 22.3568 230.628 18.77 226.222 18.3835C221.815 17.9197 219.542 19.7285 219.403 19.8368C219.604 19.6512 221.212 17.0694 226.237 16.5438C231.247 15.9717 237.848 19.2647 242.981 24.5676C253.371 35.1577 256.711 48.3452 256.695 48.2679V48.2679Z" fill="url(#paint29_linear_1923_28660)"/>
<path d="M220.084 7.40643C220.084 7.40643 232.437 5.7522 245.393 17.1154C254.531 25.1237 260.159 40.3365 260.592 56.3531C260.592 56.3531 257.206 33.3485 244.729 20.2074C237.787 12.8948 225.201 7.93208 220.006 8.64324C220.006 8.64324 206.091 0.480305 187.77 5.84496C172.371 10.3439 152.549 25.7421 146.025 66.4331C146.025 66.4331 151.127 3.04668 200.34 0.696746C212.832 0.109262 220.068 7.40643 220.068 7.40643H220.084V7.40643Z" fill="url(#paint30_linear_1923_28660)"/>
<path d="M242.27 77.7196C242.27 77.7196 240.771 72.5714 237.369 70.9326C245.192 82.806 237.014 95.8852 230.674 101.915C223.686 108.563 220.795 112.35 219.682 113.479C220.687 112.551 230.01 103.94 232.669 101.961C235.127 100.121 244.62 90.1959 242.27 77.7351V77.7196Z" fill="url(#paint31_linear_1923_28660)"/>
<path d="M219.759 55.1164C216.945 56.4305 214.904 60.1254 217.378 59.337C219.836 58.533 228.865 55.1164 230.844 55.0854C233.921 55.0081 238.436 56.616 239.642 57.3426C239.642 57.3426 234.169 53.1065 230.767 52.7664C227.397 52.4108 221.274 54.4206 219.759 55.1164Z" fill="url(#paint32_linear_1923_28660)"/>
<path d="M191.79 55.1166C190.228 54.4673 183.564 52.4729 180.209 52.9677C176.854 53.4779 171.582 58.0231 171.582 58.0231C172.742 57.2347 177.473 55.2094 180.256 55.2867C182.235 55.3485 191.434 58.2859 193.908 58.9817C196.397 59.6619 194.681 56.3071 191.805 55.1321L191.79 55.1166Z" fill="url(#paint33_linear_1923_28660)"/>
<path d="M183.472 61.3164C180.735 61.5483 174.906 62.5223 174.999 67.6396C175.092 74.1019 181.864 75.6479 184.879 75.6634C188.729 75.6943 191.388 74.5812 193.661 73.8855C195.346 73.3753 196.243 73.2052 197.109 73.0197C196.861 68.057 194.805 61.3164 183.487 61.3164H183.472Z" fill="url(#paint34_linear_1923_28660)"/>
<path d="M190.182 65.2275C191.326 66.2788 192.671 68.1804 192.748 69.9429C192.841 71.9527 192.068 73.0658 190.738 74.3026C192.454 73.8388 194.109 72.9885 196.583 72.6484C196.583 72.6484 194.202 67.5929 190.182 65.243V65.2275Z" fill="url(#paint35_linear_1923_28660)"/>
<path d="M190.506 65.9541C191.62 66.8044 192.393 68.0103 192.655 69.3708C194.634 70.5303 195.887 71.9372 196.583 72.6329C196.583 72.6329 194.186 67.732 190.506 65.9541Z" fill="#DDDDDD"/>
<path d="M185.513 64.2067C182.714 64.4541 179.344 65.8764 175.247 69.2312C175.247 69.2312 177.581 74.0702 184.183 74.9206C182.622 73.9002 181.524 72.5861 181.416 70.4835C181.276 67.577 183.024 65.0106 185.497 64.1758L185.513 64.2067Z" fill="url(#paint36_linear_1923_28660)"/>
<path d="M192.655 69.2312C188.728 66.5876 184.492 66.5566 181.276 67.6698C180.828 68.5665 180.627 69.5714 180.673 70.6381C180.797 72.6634 181.972 73.9311 183.595 74.936C186.131 75.3534 190.274 74.5186 190.738 74.2867C192.145 73.1117 192.903 71.8904 192.748 69.9269C192.733 69.6487 192.702 69.4786 192.655 69.2312Z" fill="url(#paint37_linear_1923_28660)"/>
<path d="M176.313 69.402L177.102 70.8243C177.102 70.8243 178.617 69.5875 180.936 68.6135C181.384 67.2685 182.343 66.1244 183.611 65.4287C180.673 65.9698 177.921 67.3612 176.313 69.3865V69.402Z" fill="#DDDDDD"/>
<path d="M190.506 65.9539C190.012 65.7065 189.486 65.5364 188.929 65.4128C187.213 65.0726 185.389 65.1036 183.611 65.4282C182.343 66.1239 181.307 67.2525 180.89 68.613C182.606 67.9018 184.755 67.3453 187.059 67.5617C189.362 67.7782 191.218 68.5048 192.686 69.3706C192.47 67.9946 191.62 66.8042 190.506 65.9539Z" fill="url(#paint38_linear_1923_28660)"/>
<path d="M186.533 65.8147C184.446 65.9693 182.869 67.7163 183.008 69.7415C183.163 71.7513 184.987 73.251 187.074 73.0964C189.162 72.9418 190.739 71.1948 190.584 69.1695C190.445 67.1597 188.605 65.6601 186.518 65.8147H186.533Z" fill="url(#paint39_radial_1923_28660)"/>
<path d="M187.6 68.0414C187.089 67.7786 186.455 68.0105 186.193 68.5362C185.93 69.0773 186.131 69.7111 186.641 69.974C187.151 70.2368 187.785 70.0049 188.048 69.4792C188.311 68.9381 188.11 68.3043 187.6 68.0569V68.0414Z" fill="white"/>
<path d="M191.079 69.479C190.367 69.1234 189.517 69.4017 189.161 70.0974C188.821 70.7776 189.1 71.6279 189.795 71.9835C190.507 72.3391 191.357 72.0608 191.712 71.3497C192.053 70.6694 191.774 69.8191 191.079 69.479Z" fill="white"/>
<path d="M179.406 64.4238C175.865 66.1863 172.742 64.6557 172.696 64.6248C172.711 64.764 172.232 68.7372 175.138 69.7266C175.138 69.7885 175.169 69.9276 175.231 70.1441C173.979 70.0513 173.639 70.7316 173.314 71.0871C173.314 71.1026 174.504 70.4533 177.117 72.3549C178.818 73.5762 181.524 74.9367 184.338 75.0295C180.503 73.5608 178.633 72.6641 176.638 69.5875C179.746 66.9593 183.503 65.9389 187.183 66.1399C192.532 66.4336 196.567 72.6332 196.567 72.6332C194.836 65.8925 189.455 60.3887 179.39 64.4393L179.406 64.4238Z" fill="url(#paint40_linear_1923_28660)"/>
<path d="M189.409 61.8881C185.713 60.6203 182.018 61.2078 179.22 62.1818C179.22 62.1818 185.188 61.0687 189.177 62.5838C193.181 64.1143 194.82 65.7685 194.82 65.7685C194.82 65.7685 193.104 63.1249 189.409 61.8726V61.8881Z" fill="url(#paint41_linear_1923_28660)"/>
<path d="M187.909 65.5676C179.235 64.6864 176.638 69.5563 176.638 69.5563C178.787 67.8866 182.729 65.6913 187.631 66.1551C192.563 66.6189 196.582 72.6174 196.582 72.6174C196.582 72.6174 194.402 66.2014 187.924 65.5521L187.909 65.5676Z" fill="#391B13"/>
<path d="M198.593 87.4434C198.593 87.4434 204.592 91.4166 205.921 91.2465C207.251 91.0765 212.817 87.4434 212.817 87.4434H198.577H198.593Z" fill="url(#paint42_linear_1923_28660)"/>
<path d="M205.735 81.5378C201.963 81.646 200.881 82.5891 201.174 83.594C201.855 86.0212 203.463 86.485 205.813 86.485C208.302 86.485 210.235 85.9285 210.621 83.3003C210.729 82.5273 209.539 81.4451 205.751 81.5378H205.735Z" fill="url(#paint43_linear_1923_28660)"/>
<path d="M208.287 88.0779C208.287 88.0779 212.229 85.1559 212.987 85.9135C215.229 88.1861 208.287 88.0779 208.287 88.0779Z" fill="url(#paint44_linear_1923_28660)"/>
<path d="M203.633 88.077C203.633 88.077 199.443 85.5261 198.639 86.2218C196.32 88.1852 203.633 88.077 203.633 88.077Z" fill="url(#paint45_linear_1923_28660)"/>
<path d="M198.593 87.4438C198.593 87.4438 198.191 86.4389 199.768 86.5471C200.912 86.6244 201.824 89.0362 205.89 88.9125C210.235 88.7888 210.823 86.6244 211.936 86.5626C212.956 86.5162 212.848 87.4593 212.848 87.4593C212.848 87.4593 214.904 86.408 214.131 85.4649C212.724 83.7488 212.291 87.2737 205.813 87.181C198.778 87.0882 197.974 83.6715 197.031 85.8514C196.629 86.7481 197.387 87.0109 198.624 87.4593L198.593 87.4438Z" fill="#F0C499"/>
<path d="M227.613 60.9297C216.28 60.9297 214.224 67.6548 213.992 72.633C214.858 72.8185 215.754 72.9886 217.44 73.4988C219.712 74.1945 222.372 75.323 226.221 75.2767C229.252 75.2612 236.008 73.7152 236.101 67.2529C236.163 62.1356 230.365 61.1616 227.628 60.9297H227.613Z" fill="url(#paint46_linear_1923_28660)"/>
<path d="M214.502 72.246C216.976 72.6016 218.615 73.4365 220.346 73.9003C219.017 72.6789 218.244 71.5658 218.336 69.5405C218.429 67.7935 219.774 65.8765 220.903 64.8252C216.898 67.1751 214.502 72.2306 214.502 72.2306V72.246Z" fill="url(#paint47_linear_1923_28660)"/>
<path d="M214.502 72.2461C215.213 71.5659 216.481 70.159 218.429 68.9841C218.676 67.6236 219.449 66.4177 220.578 65.5674C216.914 67.3298 214.502 72.2461 214.502 72.2461V72.2461Z" fill="#DDDDDD"/>
<path d="M229.669 70.1284C229.561 72.2309 228.448 73.545 226.902 74.5654C233.519 73.7151 235.838 68.8761 235.838 68.8761C231.757 65.5058 228.371 64.0989 225.572 63.8516C228.062 64.6864 229.809 67.2528 229.654 70.1593L229.669 70.1284Z" fill="url(#paint48_linear_1923_28660)"/>
<path d="M218.429 68.8448C218.383 69.0922 218.367 69.2622 218.336 69.5405C218.197 71.5039 218.939 72.7098 220.346 73.9002C220.81 74.1321 224.969 74.967 227.489 74.5496C229.113 73.5447 230.288 72.2924 230.412 70.2671C230.473 69.2158 230.257 68.18 229.809 67.2988C226.593 66.2011 222.356 66.2166 218.429 68.8603V68.8448Z" fill="url(#paint49_linear_1923_28660)"/>
<path d="M227.489 65.0576C228.757 65.7533 229.716 66.8819 230.164 68.2424C232.483 69.2009 233.998 70.4532 233.998 70.4532L234.787 69.0309C233.179 67.0056 230.427 65.6296 227.489 65.0731V65.0576Z" fill="#DDDDDD"/>
<path d="M227.489 65.0569C225.711 64.7168 223.871 64.7013 222.171 65.0414C221.614 65.1497 221.104 65.3352 220.594 65.5825C219.48 66.4329 218.645 67.6233 218.414 68.9992C219.867 68.1489 221.738 67.4068 224.041 67.1904C226.345 66.9739 228.494 67.546 230.21 68.2417C229.808 66.8657 228.773 65.7526 227.489 65.0569Z" fill="url(#paint50_linear_1923_28660)"/>
<path d="M224.552 65.4279C222.465 65.2733 220.625 66.773 220.486 68.7828C220.331 70.7926 221.908 72.5551 223.995 72.7097C226.082 72.8643 227.922 71.3646 228.062 69.3548C228.216 67.345 226.639 65.5825 224.536 65.4279H224.552Z" fill="url(#paint51_radial_1923_28660)"/>
<path d="M225.201 67.5617C224.706 67.2834 224.057 67.4535 223.748 67.9636C223.439 68.4738 223.593 69.1232 224.088 69.386C224.567 69.6643 225.232 69.4942 225.541 68.984C225.851 68.4738 225.696 67.84 225.201 67.5617Z" fill="white"/>
<path d="M228.618 69.0927C227.938 68.6907 227.056 68.9226 226.685 69.5874C226.283 70.2676 226.531 71.1334 227.211 71.5199C227.891 71.9219 228.773 71.69 229.144 71.0252C229.546 70.3604 229.298 69.4792 228.618 69.0927Z" fill="white"/>
<path d="M238.389 64.2384C238.389 64.2384 235.204 65.7998 231.679 64.0374C221.614 60.0023 216.234 65.4906 214.502 72.2313C214.502 72.2313 218.568 66.0317 223.887 65.738C227.582 65.537 231.324 66.5574 234.431 69.1856C232.437 72.2622 230.581 73.1589 226.732 74.6276C229.53 74.5348 232.267 73.1743 233.952 71.953C236.565 70.0668 237.755 70.7162 237.755 70.6852C237.415 70.3297 237.075 69.6494 235.838 69.7422C235.9 69.5257 235.931 69.3866 235.931 69.3248C238.853 68.3198 238.343 64.3621 238.374 64.2229L238.389 64.2384Z" fill="url(#paint52_linear_1923_28660)"/>
<path d="M221.676 61.5017C217.981 62.7694 216.265 65.3977 216.265 65.3977C216.265 65.3977 217.888 63.728 221.908 62.2129C225.912 60.6823 231.865 61.8109 231.865 61.8109C229.066 60.8369 225.356 60.2649 221.676 61.5172V61.5017Z" fill="url(#paint53_linear_1923_28660)"/>
<path d="M223.176 65.181C216.698 65.8303 214.518 72.2463 214.518 72.2463C214.518 72.2463 218.553 66.2632 223.47 65.784C228.386 65.3202 232.329 67.5 234.462 69.1852C234.462 69.1852 231.865 64.3153 223.191 65.1965L223.176 65.181Z" fill="#391B13"/>
<path d="M216.388 195.541C214.085 206.084 209.122 218.236 198.206 225.734C201.561 224.791 204.715 223.106 207.622 220.632C213.049 216.072 216.095 210.259 216.759 203.193C217.007 200.519 216.899 197.952 216.404 195.51L216.388 195.541Z" fill="white"/>
<path d="M175.664 178.689C180.828 177.545 185.373 175.938 189.084 173.928C184.198 174.144 179.714 175.721 175.664 178.689Z" fill="white"/>
<path d="M197.681 174.654C200.773 177.143 204.654 179.416 209.168 181.379C205.921 178.009 202.087 175.783 197.681 174.654Z" fill="white"/>
<path d="M166.805 189.295C165.63 191.877 164.872 194.675 164.594 197.721C163.929 204.786 165.846 211.047 170.33 216.52C172.943 219.705 175.989 222.055 179.436 223.616C169.541 213.938 166.975 200.395 166.82 189.295H166.805Z" fill="white"/>
<path d="M213.683 195.139C214.379 191.954 214.827 188.939 215.09 186.296C212.322 185.476 209.771 184.487 207.375 183.435C203.262 181.642 199.737 179.57 196.892 177.298C195.732 176.37 194.666 175.412 193.769 174.407L193.274 174.36C192.238 175.149 191.048 175.86 189.764 176.556C186.378 178.38 182.25 179.849 177.535 180.885C175.2 181.395 172.711 181.812 170.113 182.09C169.912 184.502 169.789 187.223 169.82 190.13C169.959 200.241 172.309 212.578 181.307 221.39C183.379 223.4 185.76 225.286 188.605 226.863C191.836 225.781 194.635 224.297 197.124 222.596C207.081 215.763 211.596 204.724 213.683 195.108V195.139ZM196.258 217.54C195.068 218.375 193.8 219.117 192.486 219.767C191.79 220.107 191.079 220.416 190.337 220.679C189.996 220.803 189.502 221.081 189.146 221.065C188.821 221.034 188.388 220.679 188.095 220.509C185.59 218.978 183.302 217.061 181.431 214.789C181.091 214.371 180.735 213.923 180.411 213.474C177.628 209.609 175.958 205.018 175.138 200.364C174.875 198.849 174.69 197.319 174.582 195.773C174.365 192.742 174.427 189.681 174.69 186.651C174.705 186.435 174.891 186.234 175.107 186.203C176.793 186.017 178.462 185.754 180.117 185.414C181.369 185.167 182.606 184.858 183.827 184.487C184.972 184.131 186.085 183.745 187.182 183.312C187.337 183.25 187.492 183.188 187.646 183.126C188.713 182.678 189.734 182.152 190.739 181.565C191.187 181.302 191.604 181.024 192.037 180.714C192.285 180.544 192.47 180.343 192.779 180.359C192.888 180.359 193.027 180.374 193.135 180.39C193.29 180.39 193.398 180.483 193.475 180.56C194.233 181.379 195.083 182.152 195.964 182.848C199.891 185.925 204.623 187.934 209.369 189.372C209.586 189.434 209.709 189.681 209.694 189.898C209.647 190.377 209.586 190.841 209.524 191.336C209.137 194.412 208.534 197.489 207.653 200.457C207.189 202.003 206.648 203.534 206.014 205.002C204.53 208.45 202.489 211.712 199.876 214.417C198.763 215.577 197.541 216.628 196.227 217.571L196.258 217.54Z" fill="white"/>
<path d="M155.843 141.384C155.843 141.384 149.566 145.002 144.51 151.82C137.645 161.05 101.868 224.637 101.543 225.209C99.889 228.208 105.656 260.659 111.624 261.834C117.607 262.993 163.14 198.417 171.103 167.295C179.776 133.484 155.827 141.384 155.827 141.384H155.843Z" fill="#F7D4AB"/>
<path d="M101.745 224.791C101.745 224.791 112.815 250.285 72.1211 221.204L101.745 224.791Z" fill="url(#paint54_linear_1923_28660)"/>
<path d="M139.701 180.9C139.701 180.9 143.195 173.139 151.204 155.993C151.575 155.205 142.623 186.094 142.623 186.094L139.701 180.884V180.9Z" fill="url(#paint55_linear_1923_28660)"/>
<path d="M270.007 200.379C267.843 201.601 266.977 203.023 265.384 204.971C261.937 209.161 254.005 206.563 251.825 198.23C250.186 191.969 251.191 155.762 262.632 147.599C262.632 147.599 270.301 148.82 275.542 152.252C290.199 161.884 321.895 202.389 323.951 204.739C326.007 207.089 357.409 240.885 355.352 254.011C353.899 263.24 325.945 278.066 319.189 283.014C312.448 287.976 274.104 309.033 274.104 309.033L268.755 295.382C268.755 295.382 306.325 266.1 319.545 246.698C319.545 246.698 275.109 206.069 269.992 200.349H270.007V200.379Z" fill="#F7D4AB"/>
<path d="M181.693 136.221C181.693 136.221 178.818 147.507 200.262 149.393C228.664 151.882 234.014 139.73 234.014 139.73L254.16 144.724C254.16 144.724 225.85 170.434 195.191 165.873C164.532 161.328 158.486 140.596 158.486 140.596L181.663 136.221H181.693Z" fill="url(#paint56_linear_1923_28660)"/>
<path d="M262.292 335.146C250.372 300.036 241.544 278.562 240.322 274.805C238.606 269.471 239.58 252.759 242.471 246.328C245.579 239.386 261.767 210.862 261.767 210.862L260.932 199.282C256.927 164.327 267.719 151.511 272.435 150.119C260.406 145.497 234.988 139.993 234.988 139.993C230.056 150.15 214.796 152.284 198.299 150.676C176.282 148.542 180.503 136.035 180.503 136.035L152.642 143.162C147.123 158.112 148.7 159.473 145.623 173.634C142.685 187.162 139.485 196.561 139.098 208.543C138.774 218.948 152.596 232.321 153.214 257.335C153.771 280.154 146.102 304.519 136.965 338.408C146.829 346.169 213.018 353.08 262.323 335.115H262.308L262.292 335.146Z" fill="#27AE60"/>
<path d="M142.392 186.96C142.392 186.96 133.764 213.196 161.502 215.638C181.972 217.447 227.258 226.77 258.906 183.481C258.906 183.481 257.685 188.692 261.365 198.895C251.114 220.276 217.022 248.769 252.15 303.9C179.823 274.093 152.008 279.195 151.081 277.958C151.39 274.433 156.755 251.274 146.52 232.428C132.806 207.151 142.361 186.945 142.361 186.945L142.392 186.96Z" fill="#27AE60"/>
<path d="M259.355 180.792C259.355 180.792 258.041 199.963 267.147 203.225C267.147 203.225 255.598 216.829 242.425 247.688C241.095 250.795 238.73 267.199 240.353 272.532C241.961 277.866 248.377 293.063 259.618 327.338C256.123 320.196 232.7 267.369 228.912 259.901C226.036 254.181 231.076 236.618 238.668 223.787C246.259 210.955 256.232 194.381 259.37 180.807H259.355V180.792Z" fill="url(#paint57_linear_1923_28660)"/>
<path d="M175.679 168.347C185.358 166.461 215.615 165.61 224.583 172.676C233.535 179.741 238.343 195.819 217.919 197.319C204.02 198.355 178.833 199.329 157.698 195.046C143.087 192.078 149.349 173.464 175.679 168.331V168.347Z" fill="#34B769"/>
<path d="M147.416 164.11C147.416 164.11 139.516 194.582 139.006 197.04C138.418 199.808 135.31 206.038 141.68 224.528C146.829 239.447 151.328 242.261 152.364 255.526C153.833 274.542 144.695 310.007 144.695 310.007C144.695 310.007 165.815 266.317 166.743 251.228C167.439 240.22 144.742 241.426 141.495 204.631C140.629 195 148.39 167.28 147.432 164.11H147.416Z" fill="#27AE60"/>
<path d="M51.3101 223.229L63.4161 207.553L67.0958 209.377L54.3559 225.626L51.3101 223.229V223.229Z" fill="url(#paint58_linear_1923_28660)"/>
<path d="M168.181 137.303C168.181 137.303 156.229 139.019 149.983 141.972C146.721 143.533 102.564 221.529 101.234 223.261C100.245 224.528 65.3954 207.553 65.3954 207.553L50.8311 225.874C50.8311 225.874 87.9068 251.599 89.4838 252.31C91.0454 253.037 110.465 263.89 111.392 261.324C112.32 258.757 144.031 218.545 144.031 218.545C144.031 218.545 145.886 197.226 145.453 192.433C145.02 187.656 168.181 137.287 168.181 137.287V137.303Z" fill="url(#paint59_linear_1923_28660)"/>
<path d="M146.921 180.869C151.653 165.965 159.615 149.933 158.022 152.871C149.148 169.258 139.747 189.697 135.836 208.682C132.496 224.977 112.319 256.685 108.501 257.041C99.4559 257.86 76.96 243.9 76.96 243.9C76.96 243.9 100.43 262.668 110.65 262.591C115.628 262.56 125.369 249.419 129.358 243.482C134.444 236.711 138.016 228.672 143.783 220.493C143.783 213.582 139.593 204.028 146.921 180.884V180.869Z" fill="url(#paint60_linear_1923_28660)"/>
<path d="M143.458 210.537C142.515 209.641 139.918 207.09 138.804 202.127C138.171 212.624 142.268 221.808 131.507 240.406C131.507 240.406 144.417 222.364 144.216 220.756C144.34 221.777 144.386 210.986 143.458 210.506V210.537Z" fill="url(#paint61_linear_1923_28660)"/>
<path d="M225.232 128.026C225.232 128.026 238.714 132.247 239.905 141.028C241.513 152.763 223.578 201.106 222.727 205.265C221.862 209.439 218.677 232.428 218.8 235.814C218.924 239.2 221.908 289.322 222.727 295.691C223.562 302.061 224.366 346.972 228.634 348.488C239.333 352.275 268.446 357.563 268.446 355.769C268.446 338.207 259.556 310.085 257.144 296.944C256.062 291.022 248.578 251.707 249.444 247.688C250.31 243.699 259.633 212.284 259.633 212.284C259.633 212.284 256.294 180.05 258.195 176.463C260.112 172.876 274.522 150.181 274.522 150.181C274.522 150.181 263.761 142.837 227.892 129.263L225.248 128.026H225.232Z" fill="url(#paint62_linear_1923_28660)"/>
<path d="M256.417 203.395C260.205 203.395 257.963 216.938 258.025 217.649C258.025 217.649 251.794 239.03 251.547 239.958C251.284 240.901 249.444 247.688 249.444 247.688C249.444 247.688 256.077 293.326 258.396 302.849C258.396 302.849 249.954 280.247 247.991 272.687C246.027 265.142 242.904 243.544 242.749 240.854C242.595 238.149 252.644 203.395 256.432 203.395H256.417Z" fill="url(#paint63_linear_1923_28660)"/>
<path d="M234.957 140.023L239.92 141.028C239.92 141.028 249.444 158.328 241.142 175.087C232.839 191.846 224.397 215.469 222.635 220.339C220.888 225.224 223.779 289.492 223.779 289.492L219.867 290.265C219.867 290.265 218.259 273.769 217.718 269.022C217.177 264.276 213.559 220.261 214.363 215.453C215.183 210.63 228.525 171.376 232.885 159.287C237.802 145.604 234.942 140.008 234.942 140.008H234.957V140.023Z" fill="#34B769"/>
<path d="M246.151 137.89L257.685 154.03L244.62 155.622L258.226 164.697C258.226 164.697 235.05 203.703 233.782 206.069C232.514 208.434 230.551 214.572 229.7 217.942C228.85 221.281 226.469 258.448 226.469 258.448L223.253 291.579L224.088 242.539C224.088 242.539 226.763 208.28 230.411 196.561C234.06 184.827 246.151 137.89 246.151 137.89V137.89Z" fill="url(#paint64_linear_1923_28660)"/>
<path d="M224.629 126.512C224.629 126.512 233.999 129.774 242.255 133.701C246.677 135.803 258.242 152.392 258.242 152.392L244.636 154.139L256.015 162.348C256.015 162.348 229.639 206.394 227.845 214.99C225.681 225.333 224.15 288.286 222.82 296.495C222.82 296.495 216.357 222.472 217.579 216.397C219.96 204.662 230.551 175.69 230.551 175.69C230.551 175.69 238.266 154.927 238.745 150.289C239.997 138.045 231.618 130.129 225.356 128.119L224.629 126.496V126.512Z" fill="url(#paint65_linear_1923_28660)"/>
<path d="M224.552 126.388C224.552 126.388 224.521 126.388 225.248 128.026C225.65 128.196 232.731 131.814 235.576 137.21C237.895 141.6 239.132 143.332 238.142 150.66C237.462 155.561 235.282 162.348 235.282 162.348C235.282 162.348 240.554 151.139 239.936 145.311C239.302 139.482 236.704 130.716 225.82 128.042L224.567 126.372L224.552 126.388Z" fill="url(#paint66_linear_1923_28660)"/>
<path d="M273.811 149.841C273.811 149.841 278.774 150.676 304.981 181.812C331.203 212.949 358.924 241.535 356.744 253.161C354.564 264.771 293.648 300.747 293.648 300.747L279.47 284.004C279.47 284.004 312.928 251.46 313.5 250.177C314.056 248.878 271.909 201.076 269.544 202.173C267.178 203.255 258.056 217.695 258.056 217.695C258.056 217.695 256.093 178.488 256.108 175.829C256.123 173.17 273.811 149.872 273.811 149.872V149.841Z" fill="url(#paint67_linear_1923_28660)"/>
<path d="M171.257 137.813L179.282 136.375C179.282 136.375 174.195 141.879 171.551 146.61C168.892 151.325 148.514 202.374 148.344 206.796C148.174 211.248 157.59 262.236 158.007 265.25C158.424 268.265 156.631 287.807 156.631 287.807C156.631 287.807 151.22 285.936 150.477 285.132C150.477 285.132 149.936 258.896 149.998 256.531C150.045 254.15 140.35 208.048 141.479 204.631C142.592 201.215 171.273 137.813 171.273 137.813H171.257V137.813Z" fill="#34B769"/>
<path d="M253.232 207.197C253.232 207.197 262.71 183.914 264.147 186.156C288.004 223.276 325.033 246.59 325.033 246.59L313.468 250.145C313.468 250.145 269.451 199.946 268.307 201.585C267.147 203.224 258.056 217.664 258.056 217.664L253.247 207.213H253.232V207.197Z" fill="url(#paint68_linear_1923_28660)"/>
<path d="M146.798 229.847C146.798 229.847 155.688 263.705 155.936 266.24C156.183 268.76 147.03 343.433 145.484 345.164C143.196 347.746 132.96 348.565 132.96 348.565C132.96 348.565 144.525 260.798 144.232 258.294C143.922 255.774 140.985 212.949 140.985 212.949L146.798 229.832V229.847Z" fill="url(#paint69_linear_1923_28660)"/>
<path d="M153.895 148.573L151.22 150.707L159.414 152.531L144.602 156.999C144.602 156.999 141.68 173.031 140.722 178.628C139.748 184.224 135.063 200.906 135.063 200.906L141.696 225.456L145.468 219.55L142.67 188.46L162.908 145.079L153.879 148.558L153.895 148.573Z" fill="url(#paint70_linear_1923_28660)"/>
<path d="M188.45 127.161C188.45 127.161 183.796 127.146 170.082 133.36C166.418 135.03 151.251 149.068 151.251 149.068L160.187 149.918L147.354 154.525C147.354 154.525 144.386 173.278 144.046 174.763C142.793 180.313 136.64 199.159 137.367 201.88C138.093 204.601 140.613 216.953 140.613 216.953L152.256 265.885L152.812 294.594C152.812 294.594 156.09 267.956 155.935 266.225C155.781 264.493 148.112 234.531 145.978 205.435C149.318 195.556 166.82 149.424 171.025 143.332C179.885 130.531 188.465 127.146 188.465 127.146L188.45 127.161Z" fill="url(#paint71_linear_1923_28660)"/>
<path d="M158.084 173.169C158.084 173.169 167.964 149.129 169.046 147.026C173.561 138.261 180.704 133.406 182.822 131.767C185.358 129.804 188.45 128.876 188.45 128.876V127.16C188.45 127.16 184.399 128.505 181.786 130.237C180.812 130.886 172.494 135.818 167.655 145.944C162.274 157.153 158.084 173.169 158.084 173.169V173.169Z" fill="url(#paint72_linear_1923_28660)"/>
<path d="M178.462 136.514L180.457 136.065C180.457 136.065 179.297 142.002 182.915 145.094C186.533 148.186 196.335 150.923 206.354 151.185C216.744 151.464 224.15 149.408 228.571 146.779C232.993 144.151 235.003 139.946 235.003 139.946L237.029 140.441C237.029 140.441 234.74 145.759 229.051 148.48C223.361 151.201 215.198 154.772 201.344 153.025C187.491 151.278 183.935 149.237 180.688 145.944C177.442 142.651 178.462 136.498 178.462 136.498V136.514Z" fill="url(#paint73_linear_1923_28660)"/>
<path d="M269.59 168.037C264.318 157.74 269.528 146.872 277.042 151.974C284.556 157.091 310.686 183.883 328.744 222.58C333.908 233.649 320.303 240.034 301.888 215.159C282.253 188.614 274.337 177.297 269.59 168.052V168.037Z" fill="url(#paint74_linear_1923_28660)"/>
<path d="M61.0973 212.948L65.3801 207.553C65.3801 207.553 97.8638 223.09 101.219 223.26C101.853 228.841 100.539 237.855 95.5137 235.118C84.9693 229.413 61.0664 212.933 61.0664 212.933H61.0819L61.0973 212.948Z" fill="url(#paint75_linear_1923_28660)"/>
<path d="M139.145 158.436C139.145 158.436 147.741 143.657 149.72 142.064C151.683 140.472 161.177 138.555 161.177 138.555C161.177 138.555 152.688 143.038 151.22 144.089C149.751 145.141 139.145 158.436 139.145 158.436Z" fill="url(#paint76_linear_1923_28660)"/>
<path d="M256.958 104.604C266.792 60.4964 242.564 34.2761 237.818 27.9529C232.592 20.9959 223.114 14.75 217.208 22.9593C217.208 22.9593 222.125 20.5939 228.433 26.0204C255.474 58.5021 251.516 78.693 245.27 103.754C238.946 129.093 222.805 133.932 238.714 164.373C232.607 127.361 250.094 135.385 256.958 104.589V104.604Z" fill="url(#paint77_linear_1923_28660)"/>
<path d="M252.165 69.1855C252.165 69.1855 255.273 85.2795 253.464 100.832C251.655 116.323 239.58 125.754 239.58 125.754C239.58 125.754 247.79 116.292 250.65 98.1423C251.794 90.8915 252.181 69.1855 252.181 69.1855H252.165Z" fill="url(#paint78_linear_1923_28660)"/>
<path d="M169.016 126.759C132.141 89.005 170.917 59.1361 186.966 40.3366C192.13 34.2762 200.711 16.6053 212.523 19.7747C215.554 20.594 217.1 22.9285 217.301 23.0831C217.208 23.0058 214.657 21.6144 211.487 21.8463C208.009 22.1091 205.782 23.6861 202.072 28.154C198.237 32.5447 195.655 36.8735 191.063 43.5678C173.407 69.2934 147.107 86.9643 169.016 126.759Z" fill="url(#paint79_linear_1923_28660)"/>
<path d="M57.2627 214.804C58.7779 212.377 59.9066 209.671 59.9529 206.997C52.9336 202.668 48.6509 199.622 47.9088 198.726L35.5244 207.909C35.5244 207.909 43.0849 214.402 49.7795 221.545C53.4747 220.71 56.2114 217.757 57.2627 214.82V214.804Z" fill="#F7D4AB"/>
<path d="M2.00479 167.048C2.00479 167.048 0.798828 165.796 0.798828 164.744C0.798828 164.095 2.25217 162.549 3.21076 162.889C3.79828 163.09 4.1075 163.276 5.12793 164.049L1.98933 167.048H2.00479Z" fill="#FFDEBD"/>
<path d="M16.7235 181.997C16.7235 181.997 8.60645 173.618 4.67934 170.078C0.643991 166.444 0.705835 164.465 1.98911 163.692C3.13323 163.012 5.17409 163.893 6.33367 164.744C14.7909 170.866 23.9129 178.148 23.9129 178.148L32.9731 183.852L16.7235 181.997V181.997Z" fill="#F7D4AB"/>
<path d="M15.9199 181.178L16.9558 182.291L22.3054 180.838L32.3396 183.25L27.6549 180.498C27.6549 180.498 21.4241 179.091 20.1253 179.091C18.8266 179.091 15.9354 181.162 15.9354 181.162L15.9199 181.178Z" fill="url(#paint80_linear_1923_28660)"/>
<path d="M2.4375 163.507C2.4375 163.507 4.75666 162.858 8.90024 166.089C12.9665 169.274 19.9085 174.963 21.532 176.278C19.5529 175.381 16.9864 172.985 11.8533 169.367C7.98803 166.661 3.30332 163.755 2.4375 163.507V163.507Z" fill="url(#paint81_linear_1923_28660)"/>
<path d="M13.7707 179.045C13.7707 179.045 6.11751 171.624 4.66416 170.078C3.21082 168.548 -0.360692 166.337 1.63379 163.94L13.7553 179.029L13.7707 179.045Z" fill="url(#paint82_linear_1923_28660)"/>
<path d="M19.8003 183.405C19.8003 183.405 13.956 179.849 12.0388 180.669C10.1216 181.503 8.03439 183.853 8.28177 185.585C8.52914 187.316 16.6771 190.98 16.6771 190.98C16.6771 190.98 20.6352 194.242 21.702 193.593C22.7688 192.944 27.3917 188.105 26.0929 187.548C24.8097 186.992 19.7848 183.389 19.7848 183.389L19.8003 183.405Z" fill="#F7D4AB"/>
<path d="M10.8023 187.966C9.95195 187.579 8.59137 186.172 8.59137 186.172C8.52953 185.523 9.42627 184.131 11.2352 183.451C13.0442 182.786 16.4301 181.627 16.4301 181.627L18.9194 182.756C18.9194 182.756 11.6527 188.352 10.8023 187.966V187.966Z" fill="url(#paint83_linear_1923_28660)"/>
<path d="M64.0656 207.739C63.71 207.909 48.4036 198.447 47.8624 197.952C47.3213 197.442 44.4146 191.892 43.9044 191.073C43.3942 190.253 33.2053 183.08 33.2053 183.08C33.2053 183.08 21.7641 180.328 20.9137 180.498C20.0634 180.683 11.3588 184.456 10.7249 185.012C10.091 185.569 8.93138 187.749 11.5907 188.784C14.25 189.82 20.6045 188.429 21.5012 187.78C22.398 187.146 24.3616 188.506 24.3152 188.97C24.2688 189.434 15.9507 209.053 15.9507 209.053C15.9507 209.053 23.7431 212.469 26.9281 213.196C30.1131 213.923 37.3643 213.196 38.9877 213.737C40.6112 214.278 51.7741 222.704 51.7741 222.704L64.0811 207.739H64.0656Z" fill="#F7D4AB"/>
<path d="M20.8676 187.796L26.2789 189.465C26.2789 189.465 26.8974 197.783 35.5092 203.364C38.5087 205.296 34.5506 204.678 29.8041 205.111C24.0989 205.652 17.0796 207.043 17.0796 207.043L20.8676 187.765V187.796Z" fill="url(#paint84_linear_1923_28660)"/>
<path d="M17.4351 207.074L22.63 186.96L26.5262 189.001C26.5262 189.001 25.815 194.35 29.7885 198.215C30.9481 199.344 17.4505 207.074 17.4505 207.074H17.4351Z" fill="url(#paint85_linear_1923_28660)"/>
<path d="M16.2754 188.97L22.197 190.81C22.197 190.81 24.5935 189.913 23.8049 188.243C23.2483 187.084 22.1351 187.192 22.1351 187.192L16.2909 188.97H16.2754Z" fill="url(#paint86_linear_1923_28660)"/>
<path d="M16.5845 182.26C16.5845 182.26 19.3829 180.884 20.9136 180.513C22.4442 180.157 32.1074 182.368 33.2051 183.095C34.3029 183.806 42.0025 189.48 42.0025 189.48C42.0025 189.48 33.2979 184.826 32.4785 184.301C31.6436 183.76 22.4597 182.306 21.3929 182.028C20.3261 181.75 16.5999 182.26 16.5999 182.26H16.5845Z" fill="url(#paint87_linear_1923_28660)"/>
<path d="M43.4096 201.183C46.6255 201.539 40.07 190.902 38.9877 190.454C37.9054 190.006 31.3963 189.774 30.2522 190.995C29.108 192.216 31.7055 199.915 43.4096 201.183V201.183Z" fill="url(#paint88_linear_1923_28660)"/>
<path d="M12.3483 197.273C12.3483 197.273 11.0805 196.561 10.6321 195.556C10.1837 194.552 9.96729 192.155 11.3433 190.563C12.7812 188.878 14.1882 188.306 14.1882 188.306C14.1882 188.306 24.2997 191.119 24.5471 192.016C24.7945 192.913 23.5112 197.783 22.0888 197.922C20.6509 198.046 12.3638 197.288 12.3638 197.288L12.3483 197.273Z" fill="#F7D4AB"/>
<path d="M12.3482 197.272C12.3482 197.272 10.3228 196.406 10.3228 194.227L23.6348 195.989C23.6348 195.989 23.0009 197.922 22.0577 197.906C21.563 197.906 12.3327 197.272 12.3327 197.272H12.3482Z" fill="url(#paint89_linear_1923_28660)"/>
<path d="M15.9351 209.069C15.9351 209.069 13.1676 206.456 12.4718 205.791C11.7761 205.142 10.3536 201.648 10.6165 200.581C10.8793 199.514 11.6369 197.597 12.3327 197.273C13.0284 196.948 21.2073 197.103 21.5938 197.474C21.9804 197.829 23.1245 200.133 21.0372 202.684C20.7435 203.055 15.9196 209.084 15.9196 209.084L15.9351 209.069Z" fill="#F7D4AB"/>
<path d="M13.106 203.58C13.106 203.58 20.852 201.987 21.5168 201.972C20.9602 203.038 16.461 208.465 16.461 208.465C16.461 208.465 17.667 204.909 16.5538 204.863C15.456 204.801 13.106 203.58 13.106 203.58V203.58Z" fill="url(#paint90_linear_1923_28660)"/>
<path d="M11.096 200.611C11.096 200.611 15.5643 202.003 22.1662 200.441C22.1662 200.441 21.8415 201.864 21.3931 202.049C19.8315 202.714 14.6985 203.533 13.3843 202.869C12.0701 202.204 11.0806 200.611 11.0806 200.611H11.096Z" fill="url(#paint91_linear_1923_28660)"/>
<path d="M8.5141 186.079C8.5141 186.079 7.52459 185.028 8.74601 183.08C9.96744 181.147 11.5909 180.235 12.5958 180.344C13.5853 180.452 15.0851 181.07 15.0851 181.07C15.0851 181.07 11.6991 181.318 11.2043 181.673C10.7096 182.029 9.25623 183.467 8.82332 184.332C8.14303 185.693 8.5141 186.064 8.5141 186.064V186.079Z" fill="url(#paint92_linear_1923_28660)"/>
<path d="M15.5797 183.142C15.5797 183.142 17.0485 183.544 16.631 184.858C16.3837 185.615 15.9971 185.894 14.6675 186.574C13.6471 187.084 10.8641 187.919 10.8641 187.919C10.8641 187.919 9.22518 187.007 9.99823 185.461C9.99823 185.461 12.9513 183.528 15.5642 183.157L15.5797 183.142Z" fill="#FFDEBD"/>
<path d="M10.4464 188.12C10.4464 188.12 12.3482 190.238 17.0329 189.295C22.0887 188.274 22.2278 187.872 22.2278 187.872C22.2278 187.872 25.15 189.805 25.9694 189.928C25.9694 189.928 26.1704 194.628 30.2367 198.617C30.2367 198.617 26.1085 190.624 27.6083 188.506C27.6083 188.506 24.3769 188.336 22.8772 186.419C22.8772 186.419 15.7032 189.712 10.4155 188.089L10.4464 188.12Z" fill="url(#paint93_linear_1923_28660)"/>
<path d="M29.5718 213.49L38.9721 213.738C39.9926 214.279 50.1969 222.318 50.1969 222.318C50.1969 222.318 43.6414 209.672 42.8838 209.331C42.1107 208.976 29.5718 213.49 29.5718 213.49V213.49Z" fill="url(#paint94_linear_1923_28660)"/>
<path d="M45.2339 193.484C45.2339 193.484 47.8623 197.767 48.4807 198.231C49.0992 198.694 63.4007 207.569 63.4007 207.569C63.4007 207.569 48.8982 202.915 48.156 201.987C47.3984 201.06 45.2339 193.5 45.2339 193.5V193.484Z" fill="url(#paint95_linear_1923_28660)"/>
<path d="M12.3018 205.62C12.3018 205.62 10.6166 202.652 10.5238 201.323C10.4311 199.977 11.3896 198.03 12.2091 197.21C12.5183 196.901 16.3372 197.086 16.3372 197.086C16.3372 197.086 13.2914 198.215 12.6729 198.617C12.0545 199.019 11.3278 201.462 11.266 201.833C11.2041 202.204 12.3173 205.62 12.3173 205.62H12.3018Z" fill="url(#paint96_linear_1923_28660)"/>
<path d="M46.8421 219.705L51.3877 223.261C51.3877 223.261 57.8195 219.226 59.1028 214.263C60.4015 209.316 57.9277 204.895 57.9277 204.895C57.9277 204.895 57.9277 205.528 54.8974 210.615C53.3822 213.166 49.4087 218.778 46.8267 219.69L46.8421 219.705Z" fill="url(#paint97_linear_1923_28660)"/>
<path d="M164.625 184.842C164.161 195.216 165.831 207.723 174.211 217.354C171.289 215.654 168.753 213.319 166.635 210.336C162.677 204.785 161.254 198.632 162.383 191.907C162.816 189.356 163.558 187.006 164.609 184.857L164.625 184.842Z" fill="white"/>
<path d="M206.988 179.014C202.412 176.71 198.562 174.097 195.562 171.33C200.093 172.706 203.896 175.272 206.988 179.014Z" fill="white"/>
<path d="M187.337 169.923C183.812 171.485 179.606 172.66 174.891 173.402C178.771 171.052 182.915 169.893 187.337 169.923Z" fill="white"/>
<path d="M212.678 191.042C213.141 193.732 213.157 196.515 212.678 199.421C211.549 206.162 208.209 211.526 202.643 215.531C199.412 217.865 195.98 219.303 192.346 219.921C204.019 213.304 209.771 201.338 212.678 191.026V191.042Z" fill="white"/>
<path d="M167.253 185.12C167.392 181.997 167.732 179.06 168.119 176.555C170.917 176.447 173.546 176.169 176.066 175.782C180.38 175.102 184.198 174.036 187.399 172.613C188.713 172.026 189.95 171.392 191.048 170.681L191.527 170.758C192.315 171.747 193.243 172.706 194.279 173.649C197 176.169 200.51 178.55 204.684 180.652C206.756 181.704 208.983 182.693 211.348 183.574C210.946 185.862 210.39 188.429 209.632 191.134C206.988 200.519 201.747 211.418 191.125 217.447C188.682 218.823 185.976 219.998 182.931 220.771C180.163 218.978 177.906 216.922 175.989 214.727C168.351 205.961 166.836 194.567 167.253 185.12ZM178.076 210.166C178.988 211.233 179.993 212.237 181.06 213.134C181.632 213.613 182.235 214.077 182.838 214.495C183.132 214.696 183.518 215.067 183.858 215.144C184.183 215.206 184.678 214.974 184.971 214.881C187.708 214.077 190.321 212.825 192.625 211.171C193.073 210.861 193.491 210.521 193.893 210.197C197.464 207.275 200.154 203.41 202.071 199.266C202.69 197.921 203.246 196.545 203.741 195.139C204.684 192.371 205.38 189.511 205.89 186.635C205.921 186.435 205.798 186.187 205.597 186.11C204.066 185.522 202.566 184.873 201.097 184.162C199.984 183.621 198.902 183.033 197.851 182.399C196.861 181.812 195.902 181.163 194.99 180.482C194.851 180.39 194.727 180.281 194.604 180.189C193.722 179.508 192.888 178.782 192.099 177.978C191.743 177.622 191.419 177.251 191.094 176.88C190.909 176.664 190.769 176.432 190.491 176.37C190.398 176.339 190.259 176.339 190.151 176.308C190.012 176.293 189.888 176.308 189.78 176.401C188.852 177.004 187.878 177.483 186.873 177.931C182.42 179.833 177.504 180.56 172.68 180.745C172.463 180.745 172.278 180.946 172.232 181.147C172.17 181.611 172.092 182.059 172.031 182.523C171.629 185.491 171.428 188.475 171.536 191.475C171.598 193.021 171.721 194.582 171.953 196.113C172.494 199.699 173.608 203.209 175.37 206.363C176.128 207.708 177.009 208.991 178.014 210.166H178.029H178.076Z" fill="white"/>
</g>
<defs>
<linearGradient id="paint0_linear_1923_28660" x1="214.704" y1="-31.3211" x2="196.991" y2="70.9126" gradientUnits="userSpaceOnUse">
<stop stop-color="#E0B163"/>
<stop offset="1" stop-color="#A3753D"/>
</linearGradient>
<linearGradient id="paint1_linear_1923_28660" x1="173.136" y1="159.271" x2="158.13" y2="70.8514" gradientUnits="userSpaceOnUse">
<stop stop-color="#E0B163"/>
<stop offset="1" stop-color="#A3753D"/>
</linearGradient>
<linearGradient id="paint2_linear_1923_28660" x1="224.332" y1="251.352" x2="246.404" y2="96.098" gradientUnits="userSpaceOnUse">
<stop stop-color="#E0B163"/>
<stop offset="1" stop-color="#A3753D"/>
</linearGradient>
<linearGradient id="paint3_linear_1923_28660" x1="195.427" y1="114.19" x2="229.985" y2="142.736" gradientUnits="userSpaceOnUse">
<stop stop-color="#F0C499"/>
<stop offset="0.52" stop-color="#F1C69B"/>
<stop offset="0.85" stop-color="#F4CEA4"/>
<stop offset="1" stop-color="#F7D4AB"/>
</linearGradient>
<linearGradient id="paint4_linear_1923_28660" x1="189.095" y1="138.786" x2="214.949" y2="141.685" gradientUnits="userSpaceOnUse">
<stop stop-color="#F0C499"/>
<stop offset="0.52" stop-color="#F1C69B"/>
<stop offset="0.85" stop-color="#F4CEA4"/>
<stop offset="1" stop-color="#F7D4AB"/>
</linearGradient>
<linearGradient id="paint5_linear_1923_28660" x1="209.784" y1="139.621" x2="239.871" y2="136.069" gradientUnits="userSpaceOnUse">
<stop stop-color="#F0C499"/>
<stop offset="0.52" stop-color="#F1C69B"/>
<stop offset="0.85" stop-color="#F4CEA4"/>
<stop offset="1" stop-color="#F7D4AB"/>
</linearGradient>
<linearGradient id="paint6_linear_1923_28660" x1="206.397" y1="143.316" x2="173.561" y2="136.767" gradientUnits="userSpaceOnUse">
<stop stop-color="#F0C499"/>
<stop offset="0.52" stop-color="#F1C69B"/>
<stop offset="0.85" stop-color="#F4CEA4"/>
<stop offset="1" stop-color="#F7D4AB"/>
</linearGradient>
<linearGradient id="paint7_linear_1923_28660" x1="204.524" y1="105.95" x2="210.839" y2="126.274" gradientUnits="userSpaceOnUse">
<stop stop-color="#DBA379"/>
<stop offset="0.49" stop-color="#E3B086"/>
<stop offset="1" stop-color="#F0C499"/>
</linearGradient>
<linearGradient id="paint8_linear_1923_28660" x1="166.161" y1="73.1736" x2="167.388" y2="105.711" gradientUnits="userSpaceOnUse">
<stop stop-color="#DBA379"/>
<stop offset="0.49" stop-color="#E3B086"/>
<stop offset="1" stop-color="#F0C499"/>
</linearGradient>
<linearGradient id="paint9_linear_1923_28660" x1="-1384.43" y1="7406.32" x2="-1374.36" y2="7381.89" gradientUnits="userSpaceOnUse">
<stop stop-color="#F7D4AB"/>
<stop offset="0.52" stop-color="#F5D1A8"/>
<stop offset="0.85" stop-color="#F2C99F"/>
<stop offset="1" stop-color="#F0C499"/>
</linearGradient>
<radialGradient id="paint10_radial_1923_28660" cx="0" cy="0" r="1" gradientUnits="userSpaceOnUse" gradientTransform="translate(-1481.84 465.192) rotate(167.871) scale(13.0615 14.3532)">
<stop stop-color="#F9B38E"/>
<stop offset="0.61" stop-color="#F7C59E"/>
<stop offset="1" stop-color="#F7D4AB"/>
</radialGradient>
<linearGradient id="paint11_linear_1923_28660" x1="1702.08" y1="7258.07" x2="1692.24" y2="7233.22" gradientUnits="userSpaceOnUse">
<stop stop-color="#F7D4AB"/>
<stop offset="0.52" stop-color="#F5D1A8"/>
<stop offset="0.85" stop-color="#F2C99F"/>
<stop offset="1" stop-color="#F0C499"/>
</linearGradient>
<radialGradient id="paint12_radial_1923_28660" cx="0" cy="0" r="1" gradientUnits="userSpaceOnUse" gradientTransform="translate(2299.12 656.851) rotate(15.1091) scale(12.4747 12.7716)">
<stop stop-color="#F9B38E"/>
<stop offset="0.61" stop-color="#F7C59E"/>
<stop offset="1" stop-color="#F7D4AB"/>
</radialGradient>
<linearGradient id="paint13_linear_1923_28660" x1="231.635" y1="79.4509" x2="238.725" y2="78.9043" gradientUnits="userSpaceOnUse">
<stop stop-color="#FFD9B3"/>
<stop offset="1" stop-color="#F7D4AB"/>
</linearGradient>
<linearGradient id="paint14_linear_1923_28660" x1="176.872" y1="79.126" x2="183.982" y2="79.1507" gradientUnits="userSpaceOnUse">
<stop stop-color="#FFD9B3"/>
<stop offset="1" stop-color="#F7D4AB"/>
</linearGradient>
<linearGradient id="paint15_linear_1923_28660" x1="196.239" y1="102.13" x2="191.048" y2="98.9143" gradientUnits="userSpaceOnUse">
<stop stop-color="#F7D4AB"/>
<stop offset="0.52" stop-color="#F5D1A8"/>
<stop offset="0.85" stop-color="#F2C99F"/>
<stop offset="1" stop-color="#F0C499"/>
</linearGradient>
<linearGradient id="paint16_linear_1923_28660" x1="222.617" y1="94.7255" x2="229.969" y2="91.3432" gradientUnits="userSpaceOnUse">
<stop stop-color="#F7D4AB"/>
<stop offset="0.52" stop-color="#F5D1A8"/>
<stop offset="0.85" stop-color="#F2C99F"/>
<stop offset="1" stop-color="#F0C499"/>
</linearGradient>
<linearGradient id="paint17_linear_1923_28660" x1="204.265" y1="99.5181" x2="183.381" y2="100.302" gradientUnits="userSpaceOnUse">
<stop stop-color="#E8D8D7"/>
<stop offset="0.14" stop-color="#EFE4E4"/>
<stop offset="0.39" stop-color="#FAF8F7"/>
<stop offset="0.57" stop-color="white"/>
<stop offset="1" stop-color="#E8D2D1"/>
</linearGradient>
<linearGradient id="paint18_linear_1923_28660" x1="-2017.08" y1="126.79" x2="-1984.19" y2="126.559" gradientUnits="userSpaceOnUse">
<stop stop-color="#E8D8D7"/>
<stop offset="0.04" stop-color="#EBDDDC"/>
<stop offset="0.21" stop-color="#F6F0EF"/>
<stop offset="0.38" stop-color="#FCFBFB"/>
<stop offset="0.57" stop-color="white"/>
<stop offset="0.69" stop-color="#FBF7F7"/>
<stop offset="0.87" stop-color="#F1E3E3"/>
<stop offset="1" stop-color="#E8D2D1"/>
</linearGradient>
<linearGradient id="paint19_linear_1923_28660" x1="191.544" y1="102.301" x2="215.436" y2="100.303" gradientUnits="userSpaceOnUse">
<stop stop-color="#F96E7E"/>
<stop offset="0.03" stop-color="#F9707F"/>
<stop offset="0.25" stop-color="#FD7985"/>
<stop offset="0.53" stop-color="#FF7D88"/>
<stop offset="0.76" stop-color="#FD7985"/>
<stop offset="1" stop-color="#F86D7D"/>
</linearGradient>
<linearGradient id="paint20_linear_1923_28660" x1="184.174" y1="96.318" x2="209.637" y2="96.4086" gradientUnits="userSpaceOnUse">
<stop stop-color="#E8D8D7"/>
<stop offset="0.05" stop-color="#EADCDB"/>
<stop offset="0.31" stop-color="#F6EFEE"/>
<stop offset="0.48" stop-color="#FBF6F6"/>
<stop offset="1" stop-color="#E8D2D1"/>
</linearGradient>
<linearGradient id="paint21_linear_1923_28660" x1="193.621" y1="95.4982" x2="211.838" y2="95.3581" gradientUnits="userSpaceOnUse">
<stop stop-color="#F96E7E"/>
<stop offset="0.03" stop-color="#F9707F"/>
<stop offset="0.25" stop-color="#FD7985"/>
<stop offset="0.53" stop-color="#FF7D88"/>
<stop offset="0.76" stop-color="#FD7985"/>
<stop offset="1" stop-color="#F86D7D"/>
</linearGradient>
<linearGradient id="paint22_linear_1923_28660" x1="206.104" y1="109.258" x2="206.189" y2="114.189" gradientUnits="userSpaceOnUse">
<stop stop-color="#FFD9B3"/>
<stop offset="0.68" stop-color="#FCD7B0"/>
<stop offset="1" stop-color="#F7D4AB"/>
</linearGradient>
<linearGradient id="paint23_linear_1923_28660" x1="206.872" y1="118.039" x2="210.627" y2="144.258" gradientUnits="userSpaceOnUse">
<stop stop-color="#DBA379"/>
<stop offset="0.49" stop-color="#E3B086"/>
<stop offset="1" stop-color="#F0C499"/>
</linearGradient>
<linearGradient id="paint24_linear_1923_28660" x1="243.779" y1="179.261" x2="242.551" y2="211.798" gradientUnits="userSpaceOnUse">
<stop stop-color="#DBA379"/>
<stop offset="0.49" stop-color="#E3B086"/>
<stop offset="1" stop-color="#F0C499"/>
</linearGradient>
<linearGradient id="paint25_linear_1923_28660" x1="241.634" y1="66.5727" x2="233.261" y2="137.136" gradientUnits="userSpaceOnUse">
<stop stop-color="#A3753D"/>
<stop offset="1" stop-color="#E0B163"/>
</linearGradient>
<linearGradient id="paint26_linear_1923_28660" x1="172.131" y1="86.7786" x2="161.499" y2="25.32" gradientUnits="userSpaceOnUse">
<stop stop-color="#A3753D"/>
<stop offset="1" stop-color="#E0B163"/>
</linearGradient>
<linearGradient id="paint27_linear_1923_28660" x1="177.73" y1="-58.7939" x2="192.45" y2="75.7189" gradientUnits="userSpaceOnUse">
<stop stop-color="#E0B163"/>
<stop offset="1" stop-color="#A3753D"/>
</linearGradient>
<linearGradient id="paint28_linear_1923_28660" x1="149.366" y1="37.693" x2="213.744" y2="45.3496" gradientUnits="userSpaceOnUse">
<stop stop-color="#E0B163"/>
<stop offset="1" stop-color="#F4C381"/>
</linearGradient>
<linearGradient id="paint29_linear_1923_28660" x1="268.068" y1="77.7039" x2="221.982" y2="39.8565" gradientUnits="userSpaceOnUse">
<stop stop-color="#E0B163"/>
<stop offset="1" stop-color="#F4C381"/>
</linearGradient>
<linearGradient id="paint30_linear_1923_28660" x1="146.883" y1="33.5495" x2="260.551" y2="33.5495" gradientUnits="userSpaceOnUse">
<stop stop-color="#E0B163"/>
<stop offset="1" stop-color="#F4C381"/>
</linearGradient>
<linearGradient id="paint31_linear_1923_28660" x1="226.499" y1="91.5873" x2="244.662" y2="94.1605" gradientUnits="userSpaceOnUse">
<stop stop-color="#FFD9B3"/>
<stop offset="0.68" stop-color="#FCD7B0"/>
<stop offset="1" stop-color="#F7D4AB"/>
</linearGradient>
<linearGradient id="paint32_linear_1923_28660" x1="216.533" y1="56.0903" x2="239.749" y2="56.0903" gradientUnits="userSpaceOnUse">
<stop stop-color="#956134"/>
<stop offset="0.34" stop-color="#80552B"/>
<stop offset="0.68" stop-color="#744D26"/>
<stop offset="1" stop-color="#704B25"/>
</linearGradient>
<linearGradient id="paint33_linear_1923_28660" x1="172.177" y1="55.9669" x2="195.551" y2="55.9669" gradientUnits="userSpaceOnUse">
<stop stop-color="#704B25"/>
<stop offset="0.32" stop-color="#744D26"/>
<stop offset="0.66" stop-color="#80552B"/>
<stop offset="1" stop-color="#956134"/>
</linearGradient>
<linearGradient id="paint34_linear_1923_28660" x1="195.066" y1="64.0374" x2="175.774" y2="69.7344" gradientUnits="userSpaceOnUse">
<stop stop-color="#F0C499"/>
<stop offset="0.51" stop-color="#E3B086"/>
<stop offset="1" stop-color="#DBA379"/>
</linearGradient>
<linearGradient id="paint35_linear_1923_28660" x1="190.517" y1="69.7574" x2="196.86" y2="69.7574" gradientUnits="userSpaceOnUse">
<stop stop-color="white"/>
<stop offset="0.47" stop-color="#FCFCFC"/>
<stop offset="0.77" stop-color="#F5F3F3"/>
<stop offset="1" stop-color="#ECE7E7"/>
</linearGradient>
<linearGradient id="paint36_linear_1923_28660" x1="178.915" y1="69.5559" x2="184.197" y2="69.5559" gradientUnits="userSpaceOnUse">
<stop stop-color="white"/>
<stop offset="0.47" stop-color="#FCFCFC"/>
<stop offset="0.77" stop-color="#F5F3F3"/>
<stop offset="1" stop-color="#ECE7E7"/>
</linearGradient>
<linearGradient id="paint37_linear_1923_28660" x1="196.025" y1="79.6823" x2="179.375" y2="70.7039" gradientUnits="userSpaceOnUse">
<stop stop-color="#B89C8C"/>
<stop offset="1" stop-color="#715241"/>
</linearGradient>
<linearGradient id="paint38_linear_1923_28660" x1="207.255" y1="83.2692" x2="190.078" y2="76.2953" gradientUnits="userSpaceOnUse">
<stop stop-color="#B89C8C"/>
<stop offset="1" stop-color="#715241"/>
</linearGradient>
<radialGradient id="paint39_radial_1923_28660" cx="0" cy="0" r="1" gradientUnits="userSpaceOnUse" gradientTransform="translate(181.44 77.0081) scale(4.39636 4.36207)">
<stop stop-color="#2A3A3B"/>
<stop offset="1" stop-color="#1C2727"/>
</radialGradient>
<linearGradient id="paint40_linear_1923_28660" x1="173.147" y1="69.0464" x2="196.861" y2="69.0464" gradientUnits="userSpaceOnUse">
<stop stop-color="#391B13"/>
<stop offset="0.34" stop-color="#3D1C14"/>
<stop offset="0.71" stop-color="#492219"/>
<stop offset="1" stop-color="#5A2A1F"/>
</linearGradient>
<linearGradient id="paint41_linear_1923_28660" x1="186.172" y1="61.1151" x2="200.35" y2="76.399" gradientUnits="userSpaceOnUse">
<stop stop-color="#DBA379"/>
<stop offset="0.49" stop-color="#E3B086"/>
<stop offset="1" stop-color="#F0C499"/>
</linearGradient>
<linearGradient id="paint42_linear_1923_28660" x1="206.206" y1="92.9317" x2="206.121" y2="87.2739" gradientUnits="userSpaceOnUse">
<stop stop-color="#F7D4AB"/>
<stop offset="0.52" stop-color="#F5D1A8"/>
<stop offset="0.85" stop-color="#F2C99F"/>
<stop offset="1" stop-color="#F0C499"/>
</linearGradient>
<linearGradient id="paint43_linear_1923_28660" x1="206.375" y1="87.2271" x2="206.163" y2="76.3451" gradientUnits="userSpaceOnUse">
<stop stop-color="#FFD9B3"/>
<stop offset="1" stop-color="#F7D4AB"/>
</linearGradient>
<linearGradient id="paint44_linear_1923_28660" x1="213.395" y1="86.0681" x2="208.44" y2="87.9315" gradientUnits="userSpaceOnUse">
<stop stop-color="#DBA379"/>
<stop offset="0.49" stop-color="#E3B086"/>
<stop offset="1" stop-color="#F0C499"/>
</linearGradient>
<linearGradient id="paint45_linear_1923_28660" x1="198.971" y1="86.2372" x2="204.205" y2="87.8509" gradientUnits="userSpaceOnUse">
<stop stop-color="#DBA379"/>
<stop offset="0.49" stop-color="#E3B086"/>
<stop offset="1" stop-color="#F0C499"/>
</linearGradient>
<linearGradient id="paint46_linear_1923_28660" x1="234.975" y1="63.2951" x2="213.327" y2="69.6889" gradientUnits="userSpaceOnUse">
<stop stop-color="#DBA379"/>
<stop offset="0.49" stop-color="#E3B086"/>
<stop offset="1" stop-color="#F0C499"/>
</linearGradient>
<linearGradient id="paint47_linear_1923_28660" x1="214.659" y1="69.3705" x2="221.014" y2="69.3705" gradientUnits="userSpaceOnUse">
<stop stop-color="white"/>
<stop offset="0.47" stop-color="#FCFCFC"/>
<stop offset="0.77" stop-color="#F5F3F3"/>
<stop offset="1" stop-color="#ECE7E7"/>
</linearGradient>
<linearGradient id="paint48_linear_1923_28660" x1="228.858" y1="69.2008" x2="234.14" y2="69.2008" gradientUnits="userSpaceOnUse">
<stop stop-color="white"/>
<stop offset="0.47" stop-color="#FCFCFC"/>
<stop offset="0.77" stop-color="#F5F3F3"/>
<stop offset="1" stop-color="#ECE7E7"/>
</linearGradient>
<linearGradient id="paint49_linear_1923_28660" x1="231.657" y1="76.1729" x2="215.462" y2="68.4916" gradientUnits="userSpaceOnUse">
<stop stop-color="#B89C8C"/>
<stop offset="1" stop-color="#715241"/>
</linearGradient>
<linearGradient id="paint50_linear_1923_28660" x1="244.32" y1="70.5762" x2="224.895" y2="68.8253" gradientUnits="userSpaceOnUse">
<stop stop-color="#B89C8C"/>
<stop offset="1" stop-color="#715241"/>
</linearGradient>
<radialGradient id="paint51_radial_1923_28660" cx="0" cy="0" r="1" gradientUnits="userSpaceOnUse" gradientTransform="translate(218.907 76.5985) scale(4.39637 4.36207)">
<stop stop-color="#2A3A3B"/>
<stop offset="1" stop-color="#1C2727"/>
</radialGradient>
<linearGradient id="paint52_linear_1923_28660" x1="214.659" y1="68.629" x2="238.395" y2="68.629" gradientUnits="userSpaceOnUse">
<stop stop-color="#5A2A1F"/>
<stop offset="0.29" stop-color="#492219"/>
<stop offset="0.66" stop-color="#3D1C14"/>
<stop offset="1" stop-color="#391B13"/>
</linearGradient>
<linearGradient id="paint53_linear_1923_28660" x1="225.28" y1="61.9964" x2="205.026" y2="81.5672" gradientUnits="userSpaceOnUse">
<stop stop-color="#DBA379"/>
<stop offset="0.49" stop-color="#E3B086"/>
<stop offset="1" stop-color="#F0C499"/>
</linearGradient>
<linearGradient id="paint54_linear_1923_28660" x1="61.8503" y1="203.379" x2="96.7269" y2="217.244" gradientUnits="userSpaceOnUse">
<stop stop-color="#FFD9B3"/>
<stop offset="0.68" stop-color="#FCD7B0"/>
<stop offset="1" stop-color="#F7D4AB"/>
</linearGradient>
<linearGradient id="paint55_linear_1923_28660" x1="139.163" y1="399.32" x2="153.054" y2="160.482" gradientUnits="userSpaceOnUse">
<stop stop-color="#F1F0F5"/>
<stop offset="1" stop-color="#E1E1E5"/>
</linearGradient>
<linearGradient id="paint56_linear_1923_28660" x1="184.208" y1="130.377" x2="282.287" y2="167.173" gradientUnits="userSpaceOnUse">
<stop stop-color="#F0C499"/>
<stop offset="0.52" stop-color="#F1C69B"/>
<stop offset="0.85" stop-color="#F4CEA4"/>
<stop offset="1" stop-color="#F7D4AB"/>
</linearGradient>
<linearGradient id="paint57_linear_1923_28660" x1="242.786" y1="390.555" x2="254.499" y2="189.242" gradientUnits="userSpaceOnUse">
<stop stop-color="#F1F0F5"/>
<stop offset="1" stop-color="#E1E1E5"/>
</linearGradient>
<linearGradient id="paint58_linear_1923_28660" x1="58.4075" y1="226.445" x2="67.4876" y2="204.425" gradientUnits="userSpaceOnUse">
<stop stop-color="#F0C499"/>
<stop offset="0.52" stop-color="#F1C69B"/>
<stop offset="0.85" stop-color="#F4CEA4"/>
<stop offset="1" stop-color="#F7D4AB"/>
</linearGradient>
<linearGradient id="paint59_linear_1923_28660" x1="94.7168" y1="253.748" x2="156.765" y2="103.533" gradientUnits="userSpaceOnUse">
<stop stop-color="#39383C"/>
<stop offset="0.37" stop-color="#333236"/>
<stop offset="1" stop-color="#2F2E31"/>
</linearGradient>
<linearGradient id="paint60_linear_1923_28660" x1="159.389" y1="131.489" x2="78.6306" y2="221.935" gradientUnits="userSpaceOnUse">
<stop stop-color="#272628"/>
<stop offset="1" stop-color="#2F2E31"/>
</linearGradient>
<linearGradient id="paint61_linear_1923_28660" x1="154.49" y1="223.416" x2="128.761" y2="221.82" gradientUnits="userSpaceOnUse">
<stop stop-color="#272628"/>
<stop offset="0.25" stop-color="#2A292C"/>
<stop offset="1" stop-color="#333236"/>
</linearGradient>
<linearGradient id="paint62_linear_1923_28660" x1="245.957" y1="145.62" x2="253.767" y2="368.783" gradientUnits="userSpaceOnUse">
<stop stop-color="#39383C"/>
<stop offset="0.37" stop-color="#333236"/>
<stop offset="1" stop-color="#2F2E31"/>
</linearGradient>
<linearGradient id="paint63_linear_1923_28660" x1="243.7" y1="188.445" x2="275.682" y2="279.449" gradientUnits="userSpaceOnUse">
<stop stop-color="#272628"/>
<stop offset="1" stop-color="#2F2E31"/>
</linearGradient>
<linearGradient id="paint64_linear_1923_28660" x1="231.329" y1="291.501" x2="264.869" y2="132.727" gradientUnits="userSpaceOnUse">
<stop stop-color="#272628"/>
<stop offset="1" stop-color="#2F2E31"/>
</linearGradient>
<linearGradient id="paint65_linear_1923_28660" x1="228.215" y1="241.318" x2="260.196" y2="112.016" gradientUnits="userSpaceOnUse">
<stop stop-color="#3A3A3E"/>
<stop offset="1" stop-color="#39383C"/>
</linearGradient>
<linearGradient id="paint66_linear_1923_28660" x1="224.772" y1="144.383" x2="240.066" y2="144.383" gradientUnits="userSpaceOnUse">
<stop stop-color="#272628"/>
<stop offset="1" stop-color="#2F2E31"/>
</linearGradient>
<linearGradient id="paint67_linear_1923_28660" x1="304.975" y1="146.038" x2="312.721" y2="366.867" gradientUnits="userSpaceOnUse">
<stop stop-color="#39383C"/>
<stop offset="0.37" stop-color="#333236"/>
<stop offset="1" stop-color="#2F2E31"/>
</linearGradient>
<linearGradient id="paint68_linear_1923_28660" x1="279.546" y1="176.277" x2="313.337" y2="272.43" gradientUnits="userSpaceOnUse">
<stop stop-color="#272628"/>
<stop offset="1" stop-color="#2F2E31"/>
</linearGradient>
<linearGradient id="paint69_linear_1923_28660" x1="133.904" y1="280.773" x2="156.703" y2="280.773" gradientUnits="userSpaceOnUse">
<stop stop-color="#38373B"/>
<stop offset="1" stop-color="#333236"/>
</linearGradient>
<linearGradient id="paint70_linear_1923_28660" x1="147.29" y1="228.687" x2="154.866" y2="140.031" gradientUnits="userSpaceOnUse">
<stop stop-color="#272628"/>
<stop offset="1" stop-color="#2F2E31"/>
</linearGradient>
<linearGradient id="paint71_linear_1923_28660" x1="143.565" y1="303.514" x2="212.058" y2="49.3952" gradientUnits="userSpaceOnUse">
<stop stop-color="#3A3A3E"/>
<stop offset="1" stop-color="#39383C"/>
</linearGradient>
<linearGradient id="paint72_linear_1923_28660" x1="158.802" y1="150.18" x2="188.937" y2="150.18" gradientUnits="userSpaceOnUse">
<stop stop-color="#272628"/>
<stop offset="1" stop-color="#2F2E31"/>
</linearGradient>
<linearGradient id="paint73_linear_1923_28660" x1="208.135" y1="138.848" x2="207.204" y2="161.185" gradientUnits="userSpaceOnUse">
<stop stop-color="#F1F0F5"/>
<stop offset="1" stop-color="#E1E1E5"/>
</linearGradient>
<linearGradient id="paint74_linear_1923_28660" x1="273.079" y1="156.844" x2="350.738" y2="214.783" gradientUnits="userSpaceOnUse">
<stop stop-color="#3F3F43"/>
<stop offset="0.48" stop-color="#353437"/>
<stop offset="1" stop-color="#2F2E31"/>
</linearGradient>
<linearGradient id="paint75_linear_1923_28660" x1="64.243" y1="207.738" x2="150.419" y2="235.73" gradientUnits="userSpaceOnUse">
<stop stop-color="#3F3F43"/>
<stop offset="0.48" stop-color="#353437"/>
<stop offset="1" stop-color="#2F2E31"/>
</linearGradient>
<linearGradient id="paint76_linear_1923_28660" x1="155.98" y1="136.622" x2="132.707" y2="166.111" gradientUnits="userSpaceOnUse">
<stop stop-color="#3F3E42"/>
<stop offset="0.32" stop-color="#39383C"/>
<stop offset="1" stop-color="#333236"/>
</linearGradient>
<linearGradient id="paint77_linear_1923_28660" x1="233.903" y1="22.4027" x2="265.82" y2="149.687" gradientUnits="userSpaceOnUse">
<stop stop-color="#A3753D"/>
<stop offset="1" stop-color="#E0B163"/>
</linearGradient>
<linearGradient id="paint78_linear_1923_28660" x1="254.704" y1="12.4006" x2="238.709" y2="120.175" gradientUnits="userSpaceOnUse">
<stop stop-color="#A3753D"/>
<stop offset="1" stop-color="#E0B163"/>
</linearGradient>
<linearGradient id="paint79_linear_1923_28660" x1="196.217" y1="20.996" x2="149.795" y2="106.676" gradientUnits="userSpaceOnUse">
<stop stop-color="#A3753D"/>
<stop offset="1" stop-color="#E0B163"/>
</linearGradient>
<linearGradient id="paint80_linear_1923_28660" x1="30.8459" y1="182.848" x2="15.053" y2="181.065" gradientUnits="userSpaceOnUse">
<stop offset="0.45" stop-color="#F1C69C"/>
<stop offset="0.46" stop-color="#F1C69C"/>
<stop offset="0.71" stop-color="#F5D0A7"/>
<stop offset="1" stop-color="#F7D4AB"/>
</linearGradient>
<linearGradient id="paint81_linear_1923_28660" x1="8.27236" y1="160.261" x2="26.7104" y2="177.531" gradientUnits="userSpaceOnUse">
<stop stop-color="#FFD9B3"/>
<stop offset="0.68" stop-color="#FCD7B0"/>
<stop offset="1" stop-color="#F7D4AB"/>
</linearGradient>
<linearGradient id="paint82_linear_1923_28660" x1="4.57062" y1="164.404" x2="22.1545" y2="180.889" gradientUnits="userSpaceOnUse">
<stop stop-color="#FFD9B3"/>
<stop offset="0.68" stop-color="#FCD7B0"/>
<stop offset="1" stop-color="#F7D4AB"/>
</linearGradient>
<linearGradient id="paint83_linear_1923_28660" x1="4.05153" y1="187.038" x2="14.8738" y2="185.915" gradientUnits="userSpaceOnUse">
<stop stop-color="#F7D4AB"/>
<stop offset="0.29" stop-color="#F5D0A7"/>
<stop offset="0.54" stop-color="#F1C69C"/>
<stop offset="0.55" stop-color="#F1C69C"/>
</linearGradient>
<linearGradient id="paint84_linear_1923_28660" x1="33.7692" y1="216.892" x2="15.3436" y2="196.162" gradientUnits="userSpaceOnUse">
<stop stop-color="#F7D4AB"/>
<stop offset="0.23" stop-color="#F5D0A7"/>
<stop offset="0.44" stop-color="#F1C69C"/>
<stop offset="0.45" stop-color="#F1C69C"/>
</linearGradient>
<linearGradient id="paint85_linear_1923_28660" x1="10.5751" y1="185.677" x2="31.6147" y2="196.256" gradientUnits="userSpaceOnUse">
<stop stop-color="#DBA379"/>
<stop offset="0.49" stop-color="#E3B086"/>
<stop offset="1" stop-color="#F0C499"/>
</linearGradient>
<linearGradient id="paint86_linear_1923_28660" x1="14.7849" y1="181.735" x2="26.3139" y2="187.727" gradientUnits="userSpaceOnUse">
<stop stop-color="#DBA379"/>
<stop offset="0.49" stop-color="#E3B086"/>
<stop offset="1" stop-color="#F0C499"/>
</linearGradient>
<linearGradient id="paint87_linear_1923_28660" x1="32.5048" y1="198.122" x2="30.1732" y2="188.451" gradientUnits="userSpaceOnUse">
<stop stop-color="#F7D4AB"/>
<stop offset="0.32" stop-color="#FCD7B0"/>
<stop offset="1" stop-color="#FFD9B3"/>
</linearGradient>
<linearGradient id="paint88_linear_1923_28660" x1="45.5409" y1="200.874" x2="30.3023" y2="193.592" gradientUnits="userSpaceOnUse">
<stop stop-color="#FFD9B3"/>
<stop offset="0.68" stop-color="#FCD7B0"/>
<stop offset="1" stop-color="#F7D4AB"/>
</linearGradient>
<linearGradient id="paint89_linear_1923_28660" x1="5.16864" y1="192.031" x2="24.3574" y2="195.263" gradientUnits="userSpaceOnUse">
<stop stop-color="#F7D4AB"/>
<stop offset="0.29" stop-color="#F5D0A7"/>
<stop offset="0.54" stop-color="#F1C69C"/>
<stop offset="0.55" stop-color="#F1C69C"/>
</linearGradient>
<linearGradient id="paint90_linear_1923_28660" x1="13.6564" y1="213.598" x2="20.6405" y2="206.089" gradientUnits="userSpaceOnUse">
<stop stop-color="#F7D4AB"/>
<stop offset="0.29" stop-color="#F5D0A7"/>
<stop offset="0.54" stop-color="#F1C69C"/>
<stop offset="0.55" stop-color="#F1C69C"/>
</linearGradient>
<linearGradient id="paint91_linear_1923_28660" x1="12.1666" y1="198.71" x2="36.0804" y2="203.845" gradientUnits="userSpaceOnUse">
<stop stop-color="#F7D4AB"/>
<stop offset="0.29" stop-color="#F5D0A7"/>
<stop offset="0.54" stop-color="#F1C69C"/>
<stop offset="0.55" stop-color="#F1C69C"/>
</linearGradient>
<linearGradient id="paint92_linear_1923_28660" x1="14.0176" y1="187.996" x2="13.2341" y2="184.79" gradientUnits="userSpaceOnUse">
<stop stop-color="#FFD9B3"/>
<stop offset="0.68" stop-color="#FCD7B0"/>
<stop offset="1" stop-color="#F7D4AB"/>
</linearGradient>
<linearGradient id="paint93_linear_1923_28660" x1="31.252" y1="200.828" x2="13.2481" y2="189.386" gradientUnits="userSpaceOnUse">
<stop stop-color="#F7D4AB"/>
<stop offset="0.29" stop-color="#F5D0A7"/>
<stop offset="0.54" stop-color="#F1C69C"/>
<stop offset="0.55" stop-color="#F1C69C"/>
</linearGradient>
<linearGradient id="paint94_linear_1923_28660" x1="48.6784" y1="233.155" x2="32.3555" y2="214.796" gradientUnits="userSpaceOnUse">
<stop stop-color="#F7D4AB"/>
<stop offset="0.29" stop-color="#F5D0A7"/>
<stop offset="0.54" stop-color="#F1C69C"/>
<stop offset="0.55" stop-color="#F1C69C"/>
</linearGradient>
<linearGradient id="paint95_linear_1923_28660" x1="63.3172" y1="217.649" x2="45.1434" y2="197.201" gradientUnits="userSpaceOnUse">
<stop stop-color="#F7D4AB"/>
<stop offset="0.29" stop-color="#F5D0A7"/>
<stop offset="0.54" stop-color="#F1C69C"/>
<stop offset="0.55" stop-color="#F1C69C"/>
</linearGradient>
<linearGradient id="paint96_linear_1923_28660" x1="16.4892" y1="209.223" x2="15.1074" y2="203.546" gradientUnits="userSpaceOnUse">
<stop stop-color="#F7D4AB"/>
<stop offset="0.32" stop-color="#FCD7B0"/>
<stop offset="1" stop-color="#FFD9B3"/>
</linearGradient>
<linearGradient id="paint97_linear_1923_28660" x1="61.015" y1="203.874" x2="45.559" y2="220.593" gradientUnits="userSpaceOnUse">
<stop stop-color="#DBA379"/>
<stop offset="0.49" stop-color="#E3B086"/>
<stop offset="1" stop-color="#F0C499"/>
</linearGradient>
<clipPath id="clip0_1923_28660">
<rect width="356.687" height="735.422" fill="white" transform="translate(0.798828 0.666016)"/>
</clipPath>
</defs>
</svg>
