<svg width="132" height="48" viewBox="0 0 132 48" fill="none" xmlns="http://www.w3.org/2000/svg">
<path d="M130.905 20.907C130.825 21.2081 130.768 21.5158 130.672 21.8081C130.054 23.5372 128.776 24.59 127.087 25.1638C125.101 25.8456 123.12 25.838 121.219 24.8758C119.477 23.9998 118.596 22.5303 118.318 20.6452C118.313 20.5838 118.313 20.5223 118.318 20.4609C118.376 20.4445 118.435 20.4336 118.495 20.4281H122.548C122.753 20.4281 122.818 20.5012 122.878 20.691C123.259 21.8987 125.181 22.3143 126.038 21.3729C126.247 21.1526 126.36 20.8595 126.356 20.5562C126.35 20.2529 126.227 19.9638 126.011 19.7507C125.697 19.442 125.327 19.197 124.92 19.0296C124.102 18.7023 123.243 18.47 122.414 18.1743C121.81 17.9655 121.217 17.7222 120.641 17.4456C118.091 16.19 117.767 12.9783 119.535 11.066C120.591 9.94602 122.007 9.23286 123.537 9.05102C124.819 8.82368 126.14 8.96752 127.343 9.46556C129.241 10.2958 130.18 11.8078 130.405 13.8434H125.927C125.654 12.7612 124.668 12.3161 123.667 12.8125C122.971 13.1572 122.804 13.9318 123.394 14.4347C123.777 14.7532 124.214 14.9998 124.685 15.1623C125.524 15.4667 126.41 15.6521 127.249 15.9598C127.947 16.2085 128.616 16.5325 129.245 16.9241C129.68 17.2094 130.047 17.5848 130.323 18.025C130.6 18.465 130.778 18.9596 130.847 19.4747C130.864 19.5532 130.887 19.6307 130.916 19.707L130.905 20.907ZM7.73425 18.8561C5.83522 18.719 4.04039 17.9358 2.64835 16.6368C1.25631 15.3378 0.350986 13.6014 0.0829906 11.7164C-0.185005 9.83132 0.200485 7.91137 1.17532 6.27589C2.15017 4.64041 3.65559 3.38799 5.44116 2.72702C7.38939 1.98765 9.54698 2.02357 11.4695 2.82738C13.4626 3.63465 14.9059 5.0452 15.8877 7.00011C16.3688 5.97182 17.06 5.05576 17.9168 4.31102C20.4095 2.20556 23.2448 1.62193 26.3026 2.73793C29.3604 3.85502 31.1288 6.09247 31.6699 9.27793C31.9932 11.1053 31.6548 12.9881 30.7153 14.5885C28.7626 18.0172 26.7924 21.4361 24.8015 24.8474C24.7712 24.9053 24.7286 24.956 24.6768 24.9959C24.625 25.0358 24.5652 25.0641 24.5015 25.0787C22.7779 25.094 21.0542 25.0787 19.252 25.0787L22.852 18.843C19.6666 18.4863 17.3691 16.9001 15.8975 14.0812C15.7611 14.3136 15.6379 14.559 15.5059 14.7772L9.72189 24.7994C9.63571 24.95 9.56698 25.0776 9.3368 25.0754C7.66989 25.0612 6.00298 25.0754 4.33607 25.0754C4.27358 25.076 4.21127 25.0686 4.15061 25.0536C5.34734 22.9918 6.53207 20.9267 7.73316 18.855L7.73425 18.8561ZM23.4455 6.71975C22.9405 6.71489 22.4396 6.81056 21.9719 7.00118C21.5042 7.1918 21.0792 7.47356 20.7215 7.83006C20.3637 8.18655 20.0805 8.61065 19.8883 9.07767C19.696 9.54469 19.5986 10.0453 19.6018 10.5503C19.6048 11.0554 19.7085 11.5547 19.9064 12.0193C20.1044 12.4839 20.3928 12.9045 20.7549 13.2566C21.1169 13.6086 21.5455 13.8851 22.0154 14.07C22.4855 14.2548 22.9875 14.3444 23.4924 14.3332C24.5021 14.327 25.4681 13.9199 26.1777 13.2015C26.8873 12.4832 27.2824 11.5122 27.2762 10.5025C27.27 9.49272 26.863 8.52679 26.1445 7.81719C25.4261 7.10759 24.4552 6.71243 23.4455 6.71865V6.71975ZM4.52043 10.5358C4.51827 11.293 4.74095 12.0339 5.16024 12.6645C5.57953 13.295 6.17656 13.7869 6.87569 14.0778C7.57483 14.3688 8.34458 14.4457 9.08743 14.2986C9.83028 14.1517 10.5128 13.7876 11.0485 13.2524C11.5841 12.7172 11.9489 12.0349 12.0965 11.2922C12.2441 10.5495 12.1679 9.7796 11.8776 9.08022C11.5872 8.38084 11.0959 7.78338 10.4656 7.36356C9.83542 6.94372 9.09477 6.72041 8.33752 6.72193C7.58072 6.71954 6.84041 6.94302 6.21134 7.36376C5.58227 7.78451 5.09303 8.38337 4.80625 9.08375C4.61551 9.54362 4.51799 10.0368 4.51934 10.5347H4.52043V10.5358ZM101.624 10.1594C100.959 10.3073 100.373 10.6959 99.9771 11.2503C99.916 11.3173 99.8822 11.4046 99.8822 11.4952C99.8822 11.5859 99.916 11.6733 99.9771 11.7401C101.924 14.522 101.101 19.754 96.2026 20.8798C94.903 21.1708 93.5533 21.1545 92.2611 20.8318C91.9586 20.7447 91.6608 20.642 91.3688 20.5241C91.0393 20.9725 91.1375 21.5463 91.6742 21.7776C92.14 21.987 92.6397 22.1092 93.1491 22.1343C94.4168 22.1649 95.6986 22.0667 96.9564 22.095C97.6764 22.0994 98.3931 22.2009 99.0869 22.3961C100.099 22.7231 100.967 23.3879 101.547 24.279C102.127 25.1702 102.383 26.2336 102.272 27.291C102.056 29.7238 100.84 31.4638 98.5415 32.3474C95.7895 33.4368 92.7199 33.4035 89.992 32.2547C88.4866 31.6405 87.4208 30.5867 87.052 28.9525C86.7248 27.4929 87.0335 26.21 88.1811 25.1856L88.2684 25.0874C86.2993 22.538 86.2808 20.9965 88.144 18.5605C87.8473 17.8645 87.4862 17.2405 87.2931 16.5587C86.524 13.826 87.8604 11.0365 90.5179 9.75684C92.1946 8.96164 94.0879 8.74598 95.9004 9.14375C95.9905 9.17577 96.0892 9.17384 96.178 9.13829C96.2667 9.10274 96.3395 9.03602 96.3826 8.95065C97.0984 7.92973 98.1646 7.20757 99.3782 6.92156C99.5571 6.87465 99.676 6.87138 99.7819 7.05684C100.38 8.08011 100.993 9.08375 101.625 10.1594H101.624ZM96.7284 15.0281C96.7312 14.5502 96.6038 14.0806 96.36 13.6696C96.1161 13.2586 95.7649 12.9217 95.3442 12.6951C94.9234 12.4685 94.4488 12.3609 93.9715 12.3834C93.4941 12.4061 93.0319 12.5582 92.6344 12.8236C92.2369 13.089 91.9192 13.4576 91.7154 13.8898C91.5115 14.322 91.4291 14.8016 91.4771 15.2771C91.525 15.7526 91.7015 16.2061 91.9876 16.5889C92.2738 16.9717 92.6587 17.2693 93.1011 17.45C93.7448 17.7129 94.468 17.7129 95.1128 17.45C95.5929 17.2539 96.0036 16.9192 96.2926 16.4886C96.5815 16.0581 96.7355 15.551 96.7349 15.0325L96.7284 15.0281ZM94.683 25.5412V25.5838H93.4557C93.3287 25.5899 93.2025 25.6067 93.0782 25.634C92.7133 25.6826 92.3723 25.8423 92.1013 26.0916C91.8304 26.3409 91.6428 26.6675 91.564 27.027C91.4331 27.651 91.7746 28.323 92.4564 28.7398C92.644 28.8554 92.8437 28.9514 93.052 29.0234C94.0229 29.3725 95.0811 29.3965 96.0662 29.0921C96.474 28.9625 96.8498 28.7484 97.1691 28.4638C97.4223 28.244 97.6047 27.9539 97.6931 27.6303C97.7815 27.3069 97.7719 26.9644 97.6655 26.6463C97.4604 25.983 96.9008 25.719 96.2746 25.6383C95.7433 25.563 95.2055 25.5652 94.6709 25.5336L94.683 25.5412ZM43.7975 10.7638V2.72047H48.4731V25.0656H44.068V23.4849C43.9915 23.5374 43.9192 23.5962 43.852 23.6605C42.5648 25.1834 40.8782 25.6896 38.9495 25.611C34.7004 25.4441 31.8444 22.3056 31.4495 18.3936C31.1844 15.7787 31.7899 13.3972 33.5353 11.3878C35.1444 9.5332 37.2444 8.82411 39.6629 8.93756C41.2232 8.99871 42.7016 9.65168 43.7975 10.7638ZM44.0549 17.2558C44.0554 16.1978 43.6356 15.183 42.8878 14.4347C42.5175 14.0642 42.0779 13.7702 41.5941 13.5695C41.1101 13.3689 40.5915 13.2654 40.0677 13.2652C39.0098 13.2648 37.9951 13.6847 37.2467 14.4324C36.4982 15.1802 36.0776 16.1945 36.0771 17.2525C36.0767 18.3105 36.4966 19.3252 37.2443 20.0736C37.9921 20.822 39.0065 21.2426 40.0644 21.243C41.1224 21.2435 42.1371 20.8236 42.8855 20.0759C43.6339 19.3282 44.0545 18.3137 44.0549 17.2558ZM54.0826 18.7503C54.1445 19.4688 54.4516 20.1442 54.9524 20.6631C55.4531 21.1822 56.117 21.5132 56.8328 21.6009C58.12 21.7754 59.26 21.5016 60.2102 20.5787C60.2894 20.4976 60.3944 20.4468 60.5069 20.4347H65.1717C65.1784 20.4839 65.1784 20.5338 65.1717 20.583C64.012 22.9776 62.2666 24.7241 59.608 25.3961C55.0546 26.5558 50.3157 23.402 49.6535 18.7678C49.1549 15.291 50.2426 12.3925 53.1608 10.3787C57.8953 7.10593 64.4113 9.7492 65.6637 15.3783C65.8786 16.3678 65.9331 17.3856 65.8229 18.3925C65.7935 18.698 65.6953 18.7678 65.404 18.7678C61.7822 18.7569 58.1571 18.7569 54.5309 18.7678L54.0837 18.7492L54.0826 18.7503ZM61.1615 15.6129C61.0153 14.114 59.4869 12.9423 57.6989 12.9358C55.8444 12.9358 54.3935 14.0354 54.2222 15.6129H61.1604H61.1615ZM117.268 25.0798H112.582V16.611C112.577 16.0313 112.507 15.4541 112.37 14.8907C112.139 13.9361 111.476 13.4289 110.488 13.37C110.15 13.3428 109.811 13.3552 109.477 13.407C108.374 13.6034 107.704 14.3769 107.568 15.5889C107.528 15.9351 107.508 16.2833 107.508 16.6318V25.0798H102.834V9.5452H107.238V11.1129C107.321 11.03 107.399 10.9427 107.471 10.8511C107.848 10.3303 108.333 9.89729 108.893 9.58188C109.453 9.26645 110.075 9.07604 110.716 9.02375C112.653 8.85466 114.386 9.2812 115.816 10.6765C116.643 11.4946 117.132 12.594 117.187 13.7561C117.238 14.3692 117.255 14.9867 117.255 15.6107V24.651L117.268 25.0798ZM78.7404 13.8401H74.2677C73.9273 12.735 73.0022 12.3172 72.004 12.8114C71.308 13.1561 71.1422 13.9241 71.7237 14.4336C72.1055 14.7532 72.5419 14.9998 73.012 15.1623C73.8542 15.4678 74.7248 15.686 75.5811 15.9478C76.5064 16.1962 77.3572 16.6665 78.0597 17.318C79.2924 18.5354 79.6131 20.5449 78.8288 22.2347C78.0444 23.9256 76.636 24.8474 74.9037 25.3198C73.1724 25.7932 71.4619 25.754 69.8037 25.0034C67.9164 24.1427 66.9269 22.6132 66.6466 20.5983C66.6405 20.5487 66.6405 20.4985 66.6466 20.4489C66.7284 20.438 66.8102 20.4292 66.892 20.427H70.8368C70.8983 20.4164 70.9615 20.4242 71.0185 20.4496C71.0755 20.4752 71.1235 20.517 71.1564 20.57C71.1782 20.606 71.1924 20.6452 71.1979 20.6856C71.5764 21.8823 73.4582 22.2947 74.3342 21.3816C74.4488 21.2606 74.537 21.1172 74.5932 20.9604C74.6495 20.8036 74.6726 20.6368 74.6612 20.4706C74.6496 20.3044 74.6038 20.1424 74.5265 19.9948C74.4492 19.8472 74.3422 19.7173 74.212 19.6132C73.8657 19.3259 73.4737 19.0984 73.0524 18.9401C72.0989 18.5834 71.1062 18.3129 70.1473 17.955C69.5795 17.7526 69.0355 17.4885 68.5251 17.1674C67.676 16.6197 67.0725 15.7636 66.8419 14.7797C66.6113 13.7958 66.7717 12.7609 67.2891 11.8929C67.6372 11.3025 68.0976 10.7858 68.644 10.3721C70.8019 8.81429 73.192 8.50665 75.6608 9.46993C77.596 10.2423 78.5113 11.8045 78.7404 13.8401ZM80.6757 9.50593H85.312V25.0634H80.6757V9.50593ZM80.1946 5.06375C80.1936 4.55513 80.3311 4.05584 80.5921 3.61934C80.8532 3.18284 81.228 2.82558 81.6766 2.58581C82.1252 2.34605 82.6305 2.23283 83.1384 2.25825C83.6464 2.28368 84.1379 2.44682 84.5603 2.73018C84.9826 3.01355 85.3199 3.40646 85.5361 3.86685C85.7522 4.32724 85.8391 4.83776 85.7873 5.34373C85.7355 5.84969 85.5471 6.33205 85.2422 6.73913C84.9373 7.14622 84.5275 7.46269 84.0564 7.65465C83.3684 7.93549 82.5976 7.93549 81.9095 7.65465C81.3997 7.44264 80.9645 7.08384 80.6592 6.62385C80.3537 6.16387 80.1921 5.62348 80.1946 5.07138V5.06375ZM41.8939 40.7867L40.2902 35.9572H38.2949L40.7495 42.7078H42.844L45.2866 35.9572H43.4866L41.8939 40.7867ZM51.5408 38.5143C50.5644 38.3725 50.2448 38.2045 50.2448 37.778C50.2448 37.3525 50.5917 37.0798 51.196 37.0798C51.5179 37.0798 51.7546 37.1485 51.9248 37.2783C52.0939 37.4081 52.1975 37.6154 52.2488 37.8925H53.9539C53.7869 36.3423 52.6699 35.799 51.1797 35.799C49.8029 35.799 48.52 36.4972 48.52 37.9045C48.52 39.2212 49.2139 39.7383 50.9997 40.0078C51.9629 40.1507 52.3633 40.346 52.3633 40.8096C52.3633 41.2732 52.0284 41.5514 51.3106 41.5514C50.9048 41.5514 50.6288 41.463 50.4444 41.3005C50.26 41.1369 50.1662 40.899 50.128 40.5947H48.3902C48.4589 42.0543 49.5084 42.854 51.3226 42.854C53.0909 42.854 54.148 42.0925 54.148 40.634C54.148 39.1754 53.2219 38.7598 51.5408 38.5143ZM57.0215 40.5565V37.2838H58.4309V35.9594H57.0226V34.4409H55.1735V35.9572H54.3149V37.2849H55.1735V40.7212C55.1735 42.1263 55.9317 42.8485 57.3368 42.8485C57.7208 42.8529 58.1026 42.7918 58.4648 42.6674V41.2274C58.2413 41.3186 58.0013 41.362 57.76 41.355C57.2888 41.355 57.0204 41.0976 57.0204 40.5565H57.0215ZM64.1702 36.9598C63.8757 36.4252 63.1404 35.8034 61.9317 35.8034C60.0629 35.8034 58.6131 37.215 58.6131 39.3205C58.6131 41.2045 59.8011 42.8496 61.9317 42.8496C62.8622 42.8496 63.7459 42.482 64.1702 41.703V42.71H65.8742V35.9605H64.1691V36.9587L64.1702 36.9598ZM64.2095 39.4438C64.1852 39.7852 64.0744 40.1148 63.8877 40.4016C63.5931 40.862 63.0924 41.2394 62.2699 41.2394C60.8746 41.2394 60.3444 40.0536 60.3444 39.363V39.3489C60.3444 38.499 60.9335 37.418 62.2535 37.418C63.232 37.418 63.7611 37.9449 64.0109 38.4576C64.1659 38.763 64.2346 39.1034 64.2095 39.4438ZM47.7771 35.9583H45.9368V42.7089H47.7782V35.9583H47.7771ZM46.7451 33.231C46.5988 33.2456 46.4573 33.291 46.3298 33.3644C46.2024 33.4378 46.092 33.5373 46.0059 33.6565C45.9199 33.7757 45.8601 33.9118 45.8305 34.0559C45.8009 34.1999 45.8024 34.3486 45.8345 34.492C45.8668 34.6355 45.9291 34.7704 46.0174 34.888C46.1056 35.0056 46.2179 35.1032 46.3466 35.1741C46.4755 35.2451 46.6178 35.2878 46.7643 35.2997C46.9109 35.3115 47.0583 35.2921 47.1968 35.2427C47.4338 35.156 47.6312 34.9859 47.752 34.7644C47.8729 34.5429 47.9091 34.2849 47.8538 34.0386C47.7985 33.7924 47.6556 33.5747 47.4516 33.4261C47.2476 33.2775 46.9965 33.2081 46.7451 33.231Z" fill="#9CA3AF"/>
<path d="M29.6978 45.2724L26.6836 39.9728H32.713L29.6978 45.2724Z" fill="#9CA3AF"/>
<path d="M32.7121 39.9728H26.6826L29.6979 34.671L32.7121 39.9728Z" fill="#9CA3AF"/>
<path d="M30.5189 33.2255H36.5483L32.7149 39.9727L29.7007 34.672L30.5189 33.2255Z" fill="#9CA3AF"/>
<path d="M26.6819 39.4199L23.3169 33.4982H28.7162L29.3832 34.672L26.6819 39.4199Z" stroke="#9CA3AF" stroke-width="0.5"/>
<path d="M6.00735 41.6408V42.7131H4.14844V32.9015H6.00626V37.0208C6.2306 36.6464 6.54898 36.337 6.92981 36.1237C7.31063 35.9103 7.74066 35.8003 8.17716 35.8044C9.8288 35.8044 11.1204 37.0448 11.1204 39.2669V39.3684C11.1204 41.6026 9.85498 42.8539 8.17607 42.8539C7.73645 42.8794 7.2987 42.7786 6.91445 42.5635C6.5302 42.3483 6.21546 42.0278 6.00735 41.6397H6.00626L6.00735 41.6408ZM9.21244 39.3826V39.28C9.21244 37.9099 8.53935 37.24 7.59789 37.24C6.65535 37.24 5.94516 37.9219 5.94516 39.28V39.3815C5.94516 40.7386 6.58989 41.3964 7.60989 41.3964C8.6288 41.3964 9.21244 40.6982 9.21244 39.3815V39.3826ZM13.8662 42.028L11.1859 35.9604H13.2008L14.8371 40.0131L16.3459 35.9604H18.1393L14.4891 45.0095H12.6826L13.8662 42.028Z" fill="#9CA3AF"/>
</svg>
