<svg width="159" height="52" viewBox="0 0 159 52" fill="none" xmlns="http://www.w3.org/2000/svg">
<path fill-rule="evenodd" clip-rule="evenodd" d="M98.4458 39.6009C89.2228 46.3185 75.8616 50 64.3483 50C48.219 50 33.6889 44.0793 22.7027 33.9994C21.8387 33.2007 22.6075 32.2398 23.646 32.8798C35.5067 39.7596 50.1725 43.9206 65.3233 43.9206C75.5425 43.9206 86.7738 41.8401 97.1129 37.3617C98.6645 36.7199 99.9692 38.4795 98.4458 39.6009Z" fill="#9CA3AF"/>
<path fill-rule="evenodd" clip-rule="evenodd" d="M102.284 35.1208C101.102 33.6803 94.4892 34.4807 91.5147 34.7999C90.6155 34.9586 90.4745 34.1598 91.2838 33.5198C96.5609 29.8401 105.212 30.9597 106.215 32.0793C107.226 33.3594 105.949 42.161 101.002 46.3203C100.24 46.9603 99.5212 46.479 99.8562 45.6803C100.972 42.9597 103.463 36.7199 102.284 35.119V35.1208Z" fill="#9CA3AF"/>
<path fill-rule="evenodd" clip-rule="evenodd" d="M91.7191 7.28063V3.59918C91.7261 3.1196 92.1334 2.64002 92.6359 2.64002H108.778C109.289 2.64002 109.71 3.1196 109.71 3.59918V6.79929C109.703 7.28063 109.266 7.92066 108.494 9.0385L100.133 21.042C103.239 20.8833 106.521 21.3612 109.342 22.9621C109.98 23.2812 110.153 23.9212 110.199 24.4026V28.2427C110.199 28.7223 109.62 29.3623 109.012 29.0414C104.042 26.4813 97.4528 26.1622 91.9571 29.0414C91.3947 29.3623 90.804 28.7223 90.804 28.2427V24.5613C90.804 23.9212 90.8163 22.9621 91.407 22.1634L101.096 8.0811H92.6588C92.1387 8.0811 91.7244 7.76198 91.7191 7.2824V7.28063ZM123.65 7.43932C120.03 7.43932 119.799 12.4008 119.799 15.4405C119.799 18.4802 119.753 25.1995 123.607 25.1995C127.416 25.1995 127.592 19.7602 127.592 16.5601C127.592 14.4796 127.499 11.9195 126.862 9.84073C126.312 8.07934 125.208 7.43932 123.65 7.43932ZM123.607 2.31913C130.9 2.31913 134.839 8.56068 134.839 16.5601C134.839 24.2404 130.485 30.3197 123.607 30.3197C116.458 30.3197 112.556 24.0799 112.556 16.2392C112.556 8.40024 116.5 2.31913 123.607 2.31913ZM83.8096 29.8401C83.4834 29.9988 82.8927 29.9988 82.6459 29.8401C80.9691 28.5601 79.8284 26.64 79.8284 26.64C77.1308 29.3606 75.2248 30.1593 71.7355 30.1593C67.6009 30.1593 64.3832 27.6009 64.3832 22.4808C64.3832 18.4784 66.5448 15.7596 69.6197 14.4796C72.2821 13.1995 76.0094 13.0408 78.8551 12.72C78.8551 12.72 79.0896 9.68028 78.2574 8.55892C77.6156 7.59977 76.5119 7.28063 75.5016 7.28063C73.6768 7.28063 71.9171 8.23979 71.5698 10.1599C71.4693 10.6394 71.0673 11.1208 70.6406 11.1208L65.9365 10.6394C65.5768 10.4808 65.0867 10.1599 65.2048 9.51984C66.3033 3.75962 71.5169 2 76.1928 2C78.5836 2 81.7061 2.64002 83.5892 4.39965C85.98 6.63885 85.7508 9.68028 85.7508 12.8804V20.5607C85.7508 22.9586 86.7064 23.9195 87.6039 25.1995C87.9177 25.6809 87.9882 26.1604 87.5862 26.4796C86.583 27.28 83.8096 29.8401 83.8096 29.8401ZM78.8551 17.6797C78.8551 19.6015 78.9027 21.2007 77.9383 22.9603C77.1607 24.4008 75.9195 25.1995 74.5389 25.1995C72.6541 25.1995 71.5522 23.7608 71.5522 21.6803C71.5522 17.3606 75.3059 16.7205 78.8551 16.7205V17.6797ZM19.4246 29.8401C19.1002 29.9988 18.5025 29.9988 18.268 29.8401C16.5912 28.5601 15.4505 26.64 15.4505 26.64C12.7529 29.3606 10.8451 30.1593 7.35763 30.1593C3.21599 30.1593 0 27.6009 0 22.4808C0 18.4784 2.16162 15.7596 5.23656 14.4796C7.89891 13.1995 11.6244 13.0408 14.4702 12.72C14.4702 12.72 14.7064 9.68028 13.8742 8.55892C13.2254 7.59977 12.1269 7.28063 11.1167 7.28063C9.29356 7.28063 7.53394 8.23979 7.18484 10.1599C7.08434 10.6394 6.6841 11.1208 6.25918 11.1208L1.55157 10.6394C1.19189 10.4808 0.701734 10.1599 0.819865 9.51984C1.91831 3.75962 7.13194 2 11.8078 2C14.1986 2 17.323 2.64002 19.206 4.39965C21.5968 6.63885 21.3676 9.68028 21.3676 12.8804V20.5607C21.3676 22.9586 22.3232 23.9195 23.2207 25.1995C23.5328 25.6809 23.6051 26.1604 23.2031 26.4796C22.1981 27.28 19.4246 29.8401 19.4246 29.8401ZM14.4702 17.6797C14.4702 19.6015 14.5178 21.2007 13.5498 22.9603C12.7705 24.4008 11.531 25.1995 10.1487 25.1995C8.26565 25.1995 7.16192 23.7608 7.16192 21.6803C7.16192 17.3606 10.9174 16.7205 14.4649 16.7205V17.6797H14.4702ZM33.782 15.4405C33.782 12.5595 33.648 8.56068 37.1778 8.56068C40.6618 8.56068 40.2016 12.7217 40.2016 15.4405L40.2069 28.881C40.2069 29.3606 40.5948 29.8401 41.0867 29.8401H45.9918C46.519 29.8401 46.9368 29.3606 46.9368 28.881V15.4405C46.9368 14 46.891 11.9195 47.3988 10.6394C47.9048 9.35939 49.139 8.55892 50.3309 8.55892C51.7555 8.55892 52.8522 9.04026 53.2207 10.7999C53.4499 11.7608 53.3547 14.4796 53.3547 15.4405V28.881C53.3547 29.3606 53.7426 29.8401 54.2345 29.8401H59.1413C59.6668 29.8401 60.0846 29.3606 60.0846 28.881L60.0917 12.8804C60.0917 10.1599 60.4091 7.12019 58.8522 5.03967C57.4787 3.1196 55.2324 2.16045 53.166 2.16045C50.278 2.16045 47.5751 3.75962 46.3814 6.95974C45.0062 3.75962 43.0826 2.16045 40.0129 2.16045C36.9891 2.16045 34.7393 3.75962 33.5457 6.95974H33.4522V3.75962C33.4522 3.1196 33.0379 2.80047 32.5354 2.80047H27.9565C27.4487 2.80047 27.0397 3.1196 27.0397 3.75962V28.881C27.0397 29.3606 27.454 29.8401 27.9565 29.8401H32.8616C33.3694 29.8401 33.7784 29.3606 33.7784 28.881L33.7837 15.4405H33.782ZM145.252 28.881C145.252 29.3606 144.837 29.8401 144.335 29.8401H139.43C138.922 29.8401 138.513 29.3606 138.513 28.881V3.75962C138.513 3.1196 138.927 2.80047 139.43 2.80047H143.965C144.494 2.80047 144.88 3.28005 144.88 3.44049V7.28063H144.975C146.35 3.92007 148.274 2.31737 151.67 2.31737C153.872 2.31737 156.025 3.11784 157.4 5.19835C158.684 7.28063 158.684 10.6394 158.684 13.0408V29.0397C158.631 29.5192 158.229 29.8401 157.744 29.8401H152.821C152.364 29.8401 151.999 29.5192 151.947 29.0397L151.954 13.6809C151.954 8.56068 149.996 8.56068 148.872 8.56068C147.56 8.56068 146.504 9.51984 146.042 10.4808C145.358 12.0799 145.245 13.5204 145.245 15.28L145.252 28.881Z" fill="#9CA3AF"/>
</svg>
