<svg width="120" height="52" viewBox="0 0 120 52" fill="none" xmlns="http://www.w3.org/2000/svg">
<path d="M15.4904 12.4724C7.04112 12.4724 0 16.0575 0 26.8723C0 35.4399 4.73471 40.8355 15.7086 40.8355C28.626 40.8355 29.454 32.3267 29.454 32.3267H23.1948C23.1948 32.3267 21.8534 36.9079 15.327 36.9079C10.0117 36.9079 6.18841 33.3172 6.18841 28.2848H30.1089V25.1265C30.1089 20.1477 26.9482 12.472 15.4908 12.472L15.4904 12.4724ZM15.2722 16.509C20.3322 16.509 23.7814 19.6086 23.7814 24.2546H6.32746C6.32746 19.3225 10.8292 16.509 15.2722 16.509Z" fill="#9CA3AF"/>
<path d="M30.1042 2V35.4043C30.1042 37.3003 29.9688 39.9628 29.9688 39.9628H35.9385C35.9385 39.9628 36.1528 38.0507 36.1528 36.303C36.1528 36.303 39.102 40.9174 47.1217 40.9174C55.567 40.9174 61.3032 35.0542 61.3032 26.6541C61.3032 18.8394 56.0341 12.5543 47.1353 12.5543C38.8023 12.5543 36.2131 17.054 36.2131 17.054V2H30.1042ZM45.5946 16.686C51.3295 16.686 54.9761 20.9424 54.9761 26.6541C54.9761 32.7786 50.7644 36.7857 45.6357 36.7857C39.5148 36.7857 36.2131 32.0066 36.2131 26.7085C36.2131 21.772 39.1756 16.686 45.5946 16.686Z" fill="#9CA3AF"/>
<path d="M76.1388 12.4724C63.4272 12.4724 62.612 19.4332 62.612 20.5453H68.9391C68.9391 20.5453 69.2707 16.4815 75.7025 16.4815C79.8822 16.4815 83.1204 18.3947 83.1204 22.0725V23.3815H75.7025C65.8547 23.3815 60.6484 26.2626 60.6484 32.1085C60.6484 37.8618 65.4587 40.9925 71.9595 40.9925C80.8188 40.9925 83.6726 36.0972 83.6726 36.0972C83.6726 38.044 83.8229 39.9628 83.8229 39.9628H89.4475C89.4475 39.9628 89.2293 37.5845 89.2293 36.0628V22.9108C89.2293 14.2877 82.2737 12.4724 76.1388 12.4724ZM83.1204 27.3087V29.0541C83.1204 31.3305 81.7159 36.9899 73.4456 36.9899C68.9171 36.9899 66.9755 34.7302 66.9755 32.1085C66.9755 27.3394 73.5143 27.3087 83.1204 27.3087Z" fill="#9CA3AF"/>
<path d="M85.8232 13.5645H92.9411L103.157 34.0301L113.349 13.5645H119.797L101.232 50H94.4687L99.8256 39.8433L85.8232 13.5645Z" fill="#9CA3AF"/>
</svg>
