<svg width="102" height="52" viewBox="0 0 102 52" fill="none" xmlns="http://www.w3.org/2000/svg">
<path d="M10.8461 5.68029V19.2872C10.8461 19.2872 15.6406 19.2872 18.2067 19.0924C20.2246 18.7391 20.596 18.5443 20.9674 16.5264L21.7103 13.5708H23.9049L23.5334 20.03L23.7282 26.6477H21.5155L20.9674 24.0636C20.4194 22.2246 19.6765 21.8509 18.2067 21.6742C16.3676 21.4795 10.8461 21.4795 10.8461 21.4795V32.8918C10.8461 35.0863 11.9604 36.024 14.5264 36.024H22.2584C24.6477 36.024 27.0348 35.8292 28.5228 32.3437L30.5226 27.9205H32.3797C32.185 28.84 31.2654 36.9435 31.0888 38.7666C31.0888 38.7666 24.0996 38.59 21.1622 38.59H7.90865L0 38.7666V36.7668L2.56601 36.2006C4.42314 35.8292 4.97122 35.2811 4.97122 33.8113C4.97122 33.8113 5.16599 28.84 5.16599 20.5577C5.16599 12.2957 4.97122 7.32226 4.97122 7.32226C4.97122 5.67576 4.42314 5.30433 2.56601 4.93291L0 4.38936V2.37143L7.732 2.52996H22.4531C25.3906 2.52996 30.3437 2 30.3437 2C30.3437 2 30.167 5.11409 29.9722 12.4747H27.9543L27.2115 9.89053C26.4867 6.58167 25.3883 4.93517 23.3545 4.93517H11.7837C10.8461 4.93743 10.8461 5.11409 10.8461 5.68029ZM40.6417 7.13202H42.8544V14.864L50.4097 14.4926L50.0383 17.9962L42.6777 17.43V31.055C42.6777 34.912 43.9687 36.3977 46.1814 36.3977C48.1812 36.3977 49.6669 35.2834 50.215 34.3639L51.3111 35.6548C50.215 38.2208 47.1009 39.5117 44.1453 39.5117C40.4831 39.5117 37.5095 37.3172 37.5095 33.0888V17.6225H33.1203V15.7835C36.8029 15.4121 39.5455 13.1994 40.6417 7.13202ZM56.4771 30.858L57.9447 34.3616C58.4928 35.8292 59.7837 37.3172 62.7211 37.3172C65.8533 37.3172 67.1443 35.6548 67.1443 33.6369C67.1443 27.3725 54.8125 29.2137 54.8125 20.7547C54.8125 15.9783 58.6694 13.7475 63.6406 13.7475C65.8533 13.7475 69.1622 14.1189 70.8246 14.8618C70.4531 16.7008 70.2584 19.0901 70.2584 20.9314L68.4352 21.108L67.1443 17.4278C66.7729 16.5264 65.2871 15.7813 63.464 15.7813C61.2513 15.7813 59.0408 16.7008 59.0408 19.0901C59.0408 24.7883 71.7441 23.5133 71.7441 31.9723C71.7441 36.7668 67.5157 39.3328 62.3497 39.3328C58.4928 39.3328 54.6177 37.8471 54.6177 37.8471C54.9891 35.6525 54.8125 33.2654 54.6177 30.858H56.4771V30.858ZM70.8268 48.5166C71.3749 46.4986 71.7463 43.9349 72.1178 41.5274L74.1357 41.3508L74.8785 45.2077C75.0552 46.1272 75.6033 46.87 77.0731 46.87C79.4625 46.87 82.5947 45.4025 85.548 40.2523C84.2389 37.1201 80.382 27.0169 76.8783 19.2849C75.9588 17.2511 75.7822 17.0722 74.5071 16.7008L73.5695 16.3475V14.4903L79.1069 14.6851L85.9013 14.3137V16.1549L84.2389 16.5264C82.948 16.703 82.4158 17.4278 82.4158 18.1729C82.4158 18.3676 82.4158 18.5443 82.5924 18.9157C82.9457 20.03 85.9013 28.2942 88.114 33.8135C89.9371 29.9566 93.4408 21.3051 93.9888 19.8352C94.1836 19.0924 94.3603 18.9157 94.3603 18.3676C94.3603 17.43 93.8122 16.8819 92.5371 16.5286L91.2281 16.1549V14.3159L96.3941 14.4926L101.171 14.3159V16.1549L100.251 16.8797C98.412 17.6225 98.2172 17.7992 97.4902 19.2849L89.4049 38.2163C84.6103 49.0805 79.6391 50 76.1514 50C73.9409 50.0023 72.2786 49.4361 70.8268 48.5166Z" fill="#9CA3AF"/>
</svg>
