<svg width="147" height="52" viewBox="0 0 147 52" fill="none" xmlns="http://www.w3.org/2000/svg">
<path d="M146.697 25.5506H141.124C137.528 25.5506 135.551 28.2472 135.551 32.9213V49.6404H124.764V25.5506H120.27C116.674 25.5506 114.697 28.2472 114.697 32.9213V49.6404H103.91V16.5618H114.697V21.5955C116.494 17.6404 118.831 16.5618 122.427 16.5618H135.551V21.5955C137.348 17.6404 139.685 16.5618 143.281 16.5618H146.876L146.697 25.5506ZM101.393 35.618H79.1011C79.6404 39.3933 81.9775 41.3708 85.7528 41.3708C88.6292 41.3708 90.6067 40.1124 91.3258 38.1348L100.854 40.8315C98.5168 46.5843 92.764 50 85.7528 50C74.0674 50 68.6742 40.8315 68.6742 32.9213C68.6742 25.191 73.3483 16.0225 85.0337 16.0225C97.4382 16.0225 101.573 25.3708 101.573 32.382C101.573 34 101.573 34.8989 101.393 35.618ZM91.1461 29.3258C90.9663 26.4494 88.809 23.9326 85.2135 23.9326C81.7978 23.9326 79.8202 25.3708 79.1011 29.3258H91.1461ZM49.9775 49.6404H59.3258L71.191 16.7416H60.4045L54.6517 35.9775L48.8989 16.5618H38.1124L49.9775 49.6404ZM6.11236 49.6404H16.7191V25.5506H26.9663V49.6404H37.573V16.5618H16.7191V14.5843C16.7191 12.427 18.3371 10.9888 20.6742 10.9888H26.9663V2H19.0562C11.3258 2 6.11236 6.85393 6.11236 13.8652V16.5618H0V25.5506H6.11236V49.6404Z" fill="#9CA3AF"/>
</svg>
