<svg width="188" height="48" viewBox="0 0 188 48" fill="none" xmlns="http://www.w3.org/2000/svg">
<g clip-path="url(#clip0_2168_11422)">
<path d="M35.4681 1.24683L39.5973 7.03799L60.4898 1.24683H35.4681ZM13.7608 46.3376L25.0627 35.2882L18.2604 27.9885L13.7608 46.3376ZM33.7569 1.24683L27.7164 6.69389L37.8762 7.0729L33.7569 1.24683ZM10.2743 1.24683L12.4436 5.69337L24.4 6.43831L10.2743 1.24683ZM16.6751 24.3031L25.5084 7.8247L-0.143555 6.43831L16.6751 24.3031ZM17.7037 25.3479L26.0476 34.3108L35.2517 25.2886L38.1081 8.48423L26.8916 7.91197" fill="#9CA3AF"/>
<path d="M53.1243 22.3805H50.8365L48.833 35.0263C48.7806 35.3579 48.4671 35.6285 48.1348 35.6285H43.5592C43.2276 35.6285 43.0001 35.3579 43.0524 35.0263L45.8614 17.2912C46.572 12.8061 48.8361 11.8118 51.9374 11.8118C52.9005 11.8118 53.9098 11.9028 54.699 12.053C55.0505 12.1135 55.2881 12.3242 55.2351 12.6552L54.7819 15.5165C54.7295 15.8469 54.4203 16.0881 54.0588 16.0881H52.7952C52.0428 16.0881 51.7841 16.3886 51.6419 17.2925L51.5129 18.1048H53.8007C54.1323 18.1048 54.3598 18.3753 54.3075 18.7076L53.8213 21.7783C53.7676 22.1099 53.4535 22.3805 53.1231 22.3805H53.1243ZM64.5447 22.5912H64.1239C62.8292 22.5912 61.5661 22.772 60.5519 23.2831L58.7017 34.9652C58.6493 35.2975 58.3557 35.6279 57.9941 35.6279H53.4784C53.1168 35.6279 52.8687 35.2975 52.9211 34.9658L55.4956 18.7082C55.5486 18.3759 55.7718 18.1048 56.1938 18.1048H60.5288C60.9502 18.1048 61.1073 18.2556 61.0356 18.7076L60.9215 19.4294C62.5006 18.0144 63.6084 17.8635 65.2042 17.8635C65.7154 17.8635 65.7865 17.9838 65.7104 18.4663L65.1282 22.1392C65.0721 22.5008 64.9368 22.5912 64.5453 22.5912H64.5447ZM79.6716 28.4927H70.3084L70.2997 28.5525C70.0466 30.1484 70.5522 31.1414 72.7496 31.1414C74.3454 31.1414 77.3189 30.9918 78.5077 30.9002C78.9939 30.869 79.1598 30.9594 79.0875 31.4114L78.6592 34.1218C78.5831 34.6037 78.4285 34.8137 77.9236 34.9652C75.8964 35.5986 73.7719 35.899 71.2429 35.899C67.1785 35.899 63.7543 33.7609 64.665 28.0108L64.9798 26.0235C65.8183 20.7248 69.3466 17.8342 74.2843 17.8342C79.5531 17.8342 81.4619 21.1755 80.6945 26.0229L80.4078 27.8307C80.3454 28.2209 80.0306 28.4915 79.6697 28.4915L79.6716 28.4927ZM75.2842 25.2106C75.571 23.4041 75.0193 22.32 73.5138 22.32C72.0689 22.32 71.1151 23.4047 70.829 25.2106L70.8152 25.301H75.2705L75.2849 25.2106H75.2842ZM96.3357 28.4927H86.9725L86.9638 28.5525C86.7107 30.1484 87.2163 31.1414 89.4137 31.1414C91.0095 31.1414 93.983 30.9918 95.1718 30.9002C95.6581 30.869 95.8251 30.9594 95.7534 31.4114L95.3245 34.1218C95.2485 34.6037 95.0939 34.8137 94.589 34.9652C92.5617 35.5986 90.4373 35.899 87.9082 35.899C83.8438 35.899 80.4196 33.7609 81.3304 28.0108L81.6452 26.0235C82.4849 20.7248 86.0132 17.8342 90.9509 17.8342C96.2197 17.8342 98.1285 21.1755 97.3611 26.0229L97.0756 27.8307C97.0133 28.2209 96.6985 28.4915 96.3375 28.4915L96.3357 28.4927ZM91.9471 25.2106C92.2338 23.4041 91.6828 22.32 90.1779 22.32C88.733 22.32 87.7779 23.4047 87.4924 25.2106L87.4781 25.301H91.9328L91.9471 25.2106ZM102.446 35.6285H97.9003C97.5687 35.6285 97.2907 35.2981 97.343 34.9665L100.829 12.9563C100.881 12.6259 101.255 12.3547 101.586 12.3547H106.133C106.464 12.3547 106.692 12.6247 106.639 12.9557L103.154 34.9658C103.101 35.2962 102.778 35.6279 102.447 35.6279L102.446 35.6285ZM118.446 35.6285H114.261C113.931 35.6285 113.702 35.3579 113.755 35.0263L113.856 34.3942C112.578 35.237 110.968 35.899 109.312 35.899C106.934 35.899 104.374 34.5744 105.017 30.5099L105.075 30.1484C105.647 26.5353 108.592 25.2405 113.619 25.2405H114.914L115.053 24.3678C115.286 22.8929 114.847 22.6224 113.342 22.6224C111.656 22.6224 108.922 22.772 108.069 22.8331C107.553 22.863 107.446 22.5918 107.502 22.2303L107.965 19.3104C108.037 18.859 108.302 18.7088 108.682 18.5872C109.723 18.2868 112.379 17.8641 114.306 17.8641C118.672 17.8641 121.615 19.4307 120.833 24.3684L119.145 35.0269C119.092 35.3586 118.777 35.6291 118.447 35.6291L118.446 35.6285ZM114.598 28.3724H113.123C111.618 28.3724 110.94 28.8543 110.739 30.1178L110.691 30.4196C110.529 31.4438 111.174 31.7449 112.017 31.7449C112.74 31.7449 113.586 31.5329 114.136 31.2935L114.597 28.3724H114.598ZM135.833 35.6285H131.317C130.956 35.6285 130.707 35.2981 130.76 34.9665L132.376 24.7593C132.629 23.1635 132.199 22.6523 130.843 22.6523C130.151 22.6523 129.234 22.9222 128.485 23.2844L126.636 34.9665C126.583 35.2981 126.29 35.6285 125.928 35.6285H121.412C121.051 35.6285 120.803 35.2981 120.855 34.9665L123.429 18.7076C123.482 18.3759 123.795 18.1048 124.127 18.1048H128.312C128.643 18.1048 128.871 18.3753 128.819 18.7076L128.709 19.3995C130.495 18.1951 132.233 17.8635 133.92 17.8635C138.645 17.8635 138.724 21.1755 138.157 24.7581L136.54 34.9658C136.487 35.2981 136.194 35.6291 135.833 35.6291V35.6285ZM149.189 35.4178C148.127 35.6584 146.764 35.899 144.988 35.899C140.382 35.899 138.26 32.9486 139.043 28.0108L139.4 25.753C140.178 20.8451 143.244 17.8342 147.85 17.8342C149.627 17.8342 151.089 18.1041 151.898 18.3142C152.275 18.4052 152.462 18.5561 152.4 18.9476L151.861 22.3499C151.804 22.7115 151.581 22.9821 151.138 22.9216C150.128 22.8324 149.184 22.7115 147.709 22.7115C146.415 22.7115 145.534 23.525 145.181 25.7536L144.823 28.0102C144.47 30.2388 145.099 31.0211 146.394 31.0211C147.868 31.0211 148.841 30.9613 149.885 30.8403C150.346 30.7811 150.488 31.0211 150.427 31.4126L149.892 34.7851C149.83 35.1778 149.595 35.3274 149.188 35.4184L149.189 35.4178ZM166.86 28.4927H157.496L157.487 28.5525C157.234 30.1484 157.74 31.1414 159.937 31.1414C161.533 31.1414 164.506 30.9918 165.695 30.9002C166.181 30.869 166.348 30.9594 166.277 31.4114L165.847 34.1218C165.772 34.6037 165.617 34.8137 165.111 34.9652C163.085 35.5986 160.959 35.899 158.431 35.899C154.366 35.899 150.942 33.7609 151.852 28.0108L152.167 26.0235C153.006 20.7248 156.535 17.8342 161.472 17.8342C166.74 17.8342 168.65 21.1755 167.882 26.0229L167.595 27.8307C167.533 28.2209 167.219 28.4915 166.858 28.4915L166.86 28.4927ZM162.471 25.2106C162.758 23.4041 162.207 22.32 160.701 22.32C159.256 22.32 158.302 23.4047 158.016 25.2106L158.001 25.301H162.457L162.471 25.2106ZM176.327 18.1048L173.646 34.9658C173.594 35.2981 173.3 35.6285 172.939 35.6285H168.423C168.061 35.6285 167.813 35.2981 167.866 34.9665L169.645 23.8118L176.327 18.106V18.1048Z" fill="#9CA3AF"/>
<path d="M177.866 18.1047L176.94 23.8897L186.871 18.1047" fill="#9CA3AF"/>
</g>
<defs>
<clipPath id="clip0_2168_11422">
<rect width="188" height="48" fill="white"/>
</clipPath>
</defs>
</svg>
