<svg width="212" height="48" viewBox="0 0 212 48" fill="none" xmlns="http://www.w3.org/2000/svg">
<g clip-path="url(#clip0_2168_11428)">
<path d="M137.24 7.77466V21.3803C137.24 26.0282 131.663 29.9155 124.987 29.9155C118.31 29.9155 112.733 26.0282 112.733 21.3803V7.94367H107.747V21.2958C107.747 28.7324 115.522 34.8169 124.987 34.8169C134.536 34.8169 142.226 28.7324 142.226 21.2958V7.77466H137.24Z" fill="#9CA3AF"/>
<path d="M206.872 7.77466V21.3803C206.872 26.0282 201.295 29.9155 194.619 29.9155C187.943 29.9155 182.365 26.0282 182.365 21.3803V7.94367H177.379V21.2958C177.379 28.7324 185.154 34.8169 194.619 34.8169C204.168 34.8169 211.858 28.7324 211.858 21.2958V7.77466H206.872Z" fill="#9CA3AF"/>
<path d="M150.93 34.9014H145.944V7.77466H150.93V18.7606C158.705 8.61973 172.902 7.77466 173.071 7.77466L173.325 12.7606C172.395 12.8451 150.93 14.1127 150.93 34.9014Z" fill="#9CA3AF"/>
<path d="M99.7195 7.77466V11.831C96.5928 9.38029 92.2829 7.77466 87.466 7.77466C77.9167 7.77466 70.2266 13.8592 70.2266 21.2958C70.2266 28.7324 78.0012 34.8169 87.466 34.8169C92.2829 34.8169 96.5928 33.2958 99.7195 30.7606V34.3944C99.7195 39.0423 94.1421 42.9296 87.466 42.9296C82.1421 42.9296 77.4942 40.3944 75.8885 37.0141L71.0716 38.5352C73.2688 44.0282 79.8604 48 87.466 48C96.7618 48 104.367 42.169 104.705 34.9014V7.77466H99.7195ZM87.466 29.831C80.79 29.831 75.2125 25.9437 75.2125 21.2958C75.2125 16.6479 80.79 12.7606 87.466 12.7606C94.1421 12.7606 99.7195 16.6479 99.7195 21.2958C99.7195 25.9437 94.1421 29.831 87.466 29.831Z" fill="#9CA3AF"/>
<path d="M39.3803 28.6479C41.7465 29.2395 44.0282 30 46.2253 31.0986C48.4225 32.1127 50.3662 33.3803 52.2253 34.8169C54.0845 36.2536 55.7746 37.8592 57.3803 39.6338C58.9859 41.4085 60.338 43.2676 61.5211 45.3803H52.6479C51.2958 43.7747 49.8592 42.3381 48.2535 41.0705C46.6479 39.8029 44.8732 38.7043 43.0141 37.7747C41.1549 36.8451 39.2113 36.1691 37.1831 35.662C35.1549 35.155 33.0423 34.9014 30.7606 34.9014C28.4789 34.9014 26.3662 35.155 24.2535 35.662C22.1408 36.1691 20.1972 36.8451 18.4225 37.7747C16.5634 38.7043 14.8732 39.8029 13.2676 41.0705C11.662 42.3381 10.1408 43.7747 8.87324 45.3803H0C1.1831 43.2676 2.53521 41.4085 4.14084 39.5493C5.74648 37.7747 7.43662 36.1691 9.38028 34.7324C11.3239 33.2958 13.3521 32.1127 15.4648 31.0986C17.662 30.0845 19.9437 29.2395 22.3099 28.6479C20.1972 28.1409 18.2535 27.4648 16.4789 26.6198C14.6197 25.7747 12.9296 24.7606 11.2394 23.5775C9.5493 22.3944 8.02817 21.1268 6.59155 19.6902C5.15493 18.2536 3.88732 16.6479 2.70423 15.0423C3.29577 14.1127 3.88732 13.2676 4.64789 12.4226C5.32394 11.5775 6.08451 10.8169 6.84507 10.0564C7.60563 9.29581 8.3662 8.45074 9.29577 7.77469C10.1408 7.09863 10.9859 6.42257 11.831 5.83102C11.9155 5.07046 12.0845 4.3944 12.4225 3.80285C12.7606 3.21131 13.1831 2.61976 13.6901 2.11271C14.1972 1.60567 14.7887 1.18314 15.4648 0.929615C16.1408 0.676094 16.8169 0.50708 17.5775 0.50708C18.4225 0.50708 19.1831 0.676094 19.8592 1.01412C20.5352 1.35215 21.2113 1.77469 21.7183 2.28173C22.2254 2.78877 22.7324 3.46483 22.9859 4.14088C23.493 4.90145 23.662 5.66201 23.662 6.50708C23.662 7.35215 23.493 8.11271 23.1549 8.78877C22.8169 9.46483 22.3944 10.1409 21.8873 10.6479C21.3803 11.155 20.7042 11.5775 20.0282 11.9155C19.3521 12.1691 18.5915 12.3381 17.7465 12.3381C17.5775 12.3381 17.4084 12.3381 17.1549 12.3381C16.9859 12.3381 16.7324 12.3381 16.5634 12.2536C16.3944 12.2536 16.2254 12.1691 15.9718 12.0845C15.8028 12 15.5493 11.9155 15.3803 11.831C15.0423 12.0845 14.7042 12.3381 14.4507 12.5916C14.1972 12.8451 13.8592 13.0986 13.5211 13.3522C13.1831 13.6057 12.8451 13.8592 12.5915 14.1127C12.338 14.3662 12 14.6198 11.7465 14.9578C13.0141 16.1409 14.2817 17.2395 15.7183 18.1691C17.1549 19.1831 18.6761 20.0282 20.2817 20.6198C21.8873 21.2958 23.5775 21.8029 25.3521 22.1409C27.1268 22.4789 28.9859 22.7324 30.7606 22.7324C32.6197 22.7324 34.3944 22.5634 36.169 22.1409C37.9437 21.8029 39.6338 21.2113 41.2394 20.6198C42.8451 19.9437 44.3662 19.0986 45.8028 18.1691C47.2394 17.155 48.507 16.0564 49.7746 14.9578H49.8592C49.8592 14.8733 49.8592 14.7888 49.8592 14.7043C49.8592 14.6198 49.8592 14.5352 49.8592 14.4507C49.8592 14.3662 49.8592 14.2817 49.8592 14.1972C49.8592 14.1127 49.8592 14.0282 49.8592 13.9437C49.8592 13.0986 50.0282 12.3381 50.2817 11.5775C50.5352 10.8169 51.0422 10.1409 51.5493 9.54933C52.1408 8.95778 52.8169 8.53525 53.5775 8.28173C54.338 8.02821 55.0986 7.85919 55.9437 7.85919C56.7887 7.85919 57.5493 8.02821 58.3099 8.28173C59.0704 8.53525 59.662 9.04229 60.2535 9.54933C60.7606 10.1409 61.2676 10.8169 61.5211 11.5775C61.8592 12.3381 62.0282 13.0986 62.0282 13.9437C62.0282 14.7888 61.8592 15.5493 61.5211 16.3099C61.1831 17.0705 60.7606 17.662 60.2535 18.2536C59.7465 18.7606 59.0704 19.2676 58.3099 19.5212C57.5493 19.8592 56.7887 20.0282 55.9437 20.0282C55.7746 20.0282 55.6901 20.0282 55.6056 20.0282C55.5211 20.0282 55.4366 20.0282 55.2676 20.0282C55.1831 20.0282 55.0141 20.0282 54.9296 19.9437C54.8451 19.9437 54.7606 19.8592 54.5915 19.8592C53.5775 20.8733 52.4789 21.8029 51.2958 22.7324C50.1127 23.662 48.8451 24.5071 47.5775 25.1831C46.3099 25.9437 44.9577 26.6198 43.5211 27.2113C42.338 27.8874 40.8169 28.3099 39.3803 28.6479Z" fill="#9CA3AF"/>
<path d="M27.0413 7.35211C27.0413 7.2676 27.0413 7.1831 27.0413 7.09859C27.0413 7.01408 27.0413 6.92958 27.0413 6.84507C27.0413 6.76056 27.0413 6.67606 27.0413 6.59155C27.0413 6.50704 27.0413 6.42253 27.0413 6.33803C27.0413 5.83099 26.9568 5.32394 26.9568 4.8169C26.8723 4.30986 26.7878 3.71831 26.6188 3.29577C26.4498 2.78873 26.1962 2.28169 25.9427 1.85915C25.6892 1.43662 25.3512 0.929577 25.0977 0.591549C25.5202 0.507042 25.9427 0.422535 26.4498 0.422535C26.9568 0.422535 27.4639 0.338028 27.9709 0.338028C28.4779 0.338028 28.985 0.253521 29.492 0.253521C29.9146 0 30.4216 0 30.8441 0C32.7033 0 34.4779 0.169014 36.2526 0.422535C38.0272 0.676056 39.7174 1.09859 41.4075 1.69014C43.0977 2.19718 44.7033 2.87324 46.2244 3.71831C47.7455 4.47887 49.2667 5.40845 50.6188 6.42253C50.1117 6.76056 49.6892 7.1831 49.2667 7.60563C48.8441 8.02817 48.5061 8.53521 48.1681 9.04225C47.9146 9.54929 47.5765 10.0563 47.323 10.6479C47.0695 11.2394 46.9005 11.831 46.816 12.4225C45.7174 11.5775 44.5343 10.8169 43.2667 10.1408C41.9991 9.46479 40.647 8.95775 39.3793 8.4507C38.0272 8.02817 36.6751 7.69014 35.2385 7.43662C33.8019 7.26761 32.2808 7.09859 30.8441 7.09859C30.5061 7.09859 30.1681 7.09859 29.83 7.09859C29.492 7.09859 29.154 7.09859 28.816 7.09859C28.4779 7.09859 28.1399 7.09859 27.8864 7.1831C27.6329 7.1831 27.3793 7.2676 27.0413 7.35211Z" fill="#9CA3AF"/>
<path d="M25.2686 15.4648C25.2686 14.6197 25.4376 13.8592 25.7756 13.1831C26.1136 12.5071 26.5362 11.831 27.0432 11.324C27.5503 10.8169 28.2263 10.3099 28.9024 10.0564C29.5784 9.71833 30.339 9.54932 31.1841 9.54932C32.0291 9.54932 32.7897 9.71833 33.5503 10.0564C34.3108 10.3944 34.9024 10.8169 35.4939 11.324C36.001 11.831 36.4235 12.5071 36.7615 13.1831C37.015 13.8592 37.1841 14.6197 37.1841 15.4648C37.1841 16.3099 37.015 17.0704 36.7615 17.7465C36.508 18.4226 36.0855 19.0986 35.4939 19.6057C34.9869 20.1127 34.3108 20.6197 33.5503 20.8733C32.7897 21.2113 32.0291 21.3803 31.1841 21.3803C30.339 21.3803 29.5784 21.2113 28.9024 20.8733C28.2263 20.5352 27.5503 20.1127 27.0432 19.6057C26.5362 19.0986 26.0291 18.4226 25.7756 17.7465C25.4376 17.0704 25.2686 16.3099 25.2686 15.4648Z" fill="#9CA3AF"/>
</g>
<defs>
<clipPath id="clip0_2168_11428">
<rect width="212" height="48" fill="white"/>
</clipPath>
</defs>
</svg>
