
<svg width="160" height="140" viewBox="0 0 160 140" fill="none" xmlns="http://www.w3.org/2000/svg">
<path d="M154.19 60.7097C154 60.3097 153.8 59.9097 153.6 59.5197C153.2 58.7297 152.77 57.9497 152.33 57.1897C151.45 55.6597 150.5 54.1797 149.48 52.7397C149.23 52.3797 148.97 52.0296 148.7 51.6696C147.38 49.9096 145.97 48.2296 144.45 46.6496C143.54 45.6996 142.6 44.7796 141.63 43.8896C140.66 43.0096 139.65 42.1496 138.62 41.3396C137.93 40.7996 137.23 40.2696 136.51 39.7596C136.15 39.5096 135.79 39.2496 135.43 39.0096C134.34 38.2696 133.21 37.5697 132.07 36.9097C131.3 36.4697 130.53 36.0496 129.74 35.6396C128.56 35.0296 127.35 34.4696 126.12 33.9496C119.56 31.1796 112.35 29.6396 104.78 29.6396C104.73 29.6396 104.68 29.6396 104.62 29.6396C85.41 29.6896 68.52 39.6297 58.77 54.6297C57.76 56.1797 56.8299 57.7896 55.9799 59.4496C52.8399 65.5596 50.8199 72.3297 50.1799 79.4996C50.0299 81.1396 49.95 82.7897 49.95 84.4597C49.95 87.2997 50.17 90.0896 50.58 92.8096C50.79 94.1696 51.05 95.5196 51.35 96.8396C51.66 98.1696 52.01 99.4696 52.41 100.76C52.54 101.19 52.68 101.62 52.83 102.04C53.12 102.89 53.42 103.73 53.75 104.56C54.57 106.63 55.51 108.65 56.56 110.59C56.98 111.37 57.42 112.13 57.88 112.89C58.11 113.27 58.34 113.64 58.58 114.01C59.06 114.75 59.55 115.48 60.06 116.2C60.31 116.56 60.57 116.91 60.84 117.27C62.16 119.03 63.57 120.71 65.09 122.29C66.91 124.19 68.8599 125.97 70.9299 127.6C71.9699 128.41 73.03 129.19 74.13 129.93C74.86 130.42 75.6 130.9 76.35 131.36C77.1 131.82 77.8699 132.26 78.6499 132.68C79.8199 133.31 81.01 133.91 82.22 134.45C89.1 137.56 96.74 139.29 104.78 139.29C112.35 139.29 119.56 137.76 126.12 134.98C126.72 134.73 127.32 134.46 127.91 134.18C128.93 133.71 129.93 133.2 130.92 132.67C131.55 132.33 132.18 131.97 132.79 131.6C133.69 131.06 134.57 130.51 135.44 129.92C136.53 129.18 137.6 128.4 138.64 127.59C139.68 126.78 140.68 125.93 141.65 125.04C142.62 124.16 143.57 123.24 144.47 122.28C145.98 120.69 147.4 119.02 148.72 117.26C148.98 116.91 149.24 116.55 149.5 116.19C150.42 114.89 151.29 113.55 152.1 112.17C152.26 111.89 152.42 111.61 152.58 111.33C152.94 110.7 153.28 110.06 153.61 109.41C153.81 109.02 154.01 108.62 154.2 108.22C157.66 101.03 159.61 92.9696 159.61 84.4496C159.61 75.9296 157.67 67.8696 154.2 60.6796L154.19 60.7097ZM122.29 99.0197C122.15 99.3997 122 99.7796 121.82 100.14C121.56 100.69 121.26 101.22 120.92 101.74C120.81 101.91 120.69 102.08 120.57 102.25C120.33 102.58 120.07 102.91 119.79 103.23C119.37 103.71 118.92 104.16 118.44 104.59C118.28 104.73 118.11 104.88 117.94 105.01C117.6 105.29 117.25 105.55 116.88 105.81C116.51 106.07 116.13 106.31 115.73 106.54C114.83 107.06 113.87 107.53 112.84 107.93C111.81 108.33 110.72 108.66 109.57 108.92C109.48 108.94 109.4 108.97 109.32 109C109.24 109.03 109.17 109.07 109.11 109.11C108.91 109.24 108.79 109.41 108.79 109.54V113.17C108.79 115.4 106.77 117.21 104.3 117.21H104.21C101.73 117.21 99.72 115.4 99.72 113.17V110.08C99.72 110.08 99.72 110.01 99.7 109.98C99.66 109.88 99.57 109.77 99.44 109.68C99.27 109.56 99.02 109.46 98.7299 109.44C98.2999 109.4 97.8599 109.35 97.4299 109.3C96.5699 109.19 95.7099 109.05 94.8699 108.89C92.7799 108.48 90.79 107.9 89.08 107.18C88.68 107.01 88.32 106.8 88 106.54C87.89 106.45 87.79 106.36 87.7 106.27C87.41 105.99 87.1699 105.66 86.9799 105.31C86.9199 105.19 86.86 105.07 86.81 104.94C86.76 104.82 86.72 104.71 86.69 104.59C86.59 104.24 86.5299 103.87 86.5399 103.51C86.5399 103.39 86.54 103.27 86.56 103.15C86.57 103.03 86.59 102.91 86.6199 102.79C86.6699 102.55 86.74 102.31 86.84 102.08L87.11 101.44C87.19 101.26 87.28 101.09 87.38 100.93C87.41 100.89 87.43 100.85 87.46 100.81C87.56 100.65 87.68 100.5 87.8 100.37C87.93 100.22 88.07 100.09 88.21 99.9697C88.25 99.9397 88.28 99.9097 88.32 99.8797C88.47 99.7697 88.62 99.6596 88.78 99.5596H88.7899C88.9499 99.4496 89.13 99.3696 89.3 99.2896C89.34 99.2696 89.3899 99.2496 89.4299 99.2296C89.5999 99.1596 89.78 99.0997 89.96 99.0497H89.9799C90.1699 98.9897 90.36 98.9496 90.56 98.9296C90.61 98.9296 90.66 98.9197 90.71 98.9097C90.9 98.8897 91.08 98.8696 91.27 98.8696C91.28 98.8696 91.29 98.8696 91.31 98.8696C91.39 98.8696 91.47 98.8697 91.55 98.8797C91.62 98.8797 91.6899 98.8796 91.7599 98.8896C91.84 98.8896 91.9299 98.9096 92.0099 98.9296C92.0799 98.9296 92.15 98.9497 92.21 98.9597C92.3 98.9797 92.4 98.9996 92.49 99.0296C92.55 99.0396 92.61 99.0497 92.66 99.0697C92.79 99.1097 92.92 99.1496 93.05 99.1996C93.07 99.1996 93.09 99.2096 93.11 99.2197C95.22 100.06 98.61 101.07 102.75 101.07C105.66 101.07 108.09 100.37 109.69 99.1796C109.92 99.0096 110.13 98.8297 110.33 98.6396C110.8 98.1897 111.16 97.6797 111.41 97.1297C111.66 96.5797 111.79 95.9797 111.79 95.3497C111.79 95.2797 111.79 95.2196 111.79 95.1496C111.79 95.0196 111.78 94.8797 111.76 94.7397C111.74 94.5297 111.7 94.3196 111.64 94.1096C111.6 93.9697 111.56 93.8196 111.5 93.6796C111.44 93.5296 111.38 93.3897 111.3 93.2397C111.26 93.1697 111.22 93.0897 111.18 93.0197C111.09 92.8697 110.99 92.7197 110.88 92.5697C110.77 92.4197 110.64 92.2696 110.49 92.1096C110.35 91.9596 110.19 91.7996 110.02 91.6396C109.85 91.4796 109.66 91.3296 109.45 91.1696C109.24 91.0096 109.02 90.8497 108.77 90.6897C108.4 90.4496 107.99 90.2097 107.53 89.9597C107.38 89.8797 107.22 89.7997 107.06 89.7097C106.73 89.5497 106.38 89.3797 106.01 89.2197C105.82 89.1396 105.63 89.0497 105.43 88.9697C105.03 88.7997 104.61 88.6396 104.17 88.4697C103.95 88.3896 103.72 88.2997 103.48 88.2197C103.24 88.1396 103 88.0497 102.75 87.9697C100.96 87.3797 99.1999 86.7496 97.5399 86.0396C96.5399 85.6096 95.58 85.1596 94.67 84.6696C94.23 84.4296 93.8 84.1796 93.38 83.9296C92.96 83.6796 92.5599 83.4097 92.1799 83.1297C91.7899 82.8497 91.42 82.5697 91.07 82.2697C90.72 81.9697 90.38 81.6596 90.06 81.3396C89.74 81.0196 89.44 80.6896 89.16 80.3396C88.88 79.9896 88.62 79.6296 88.39 79.2596C87.77 78.2796 87.31 77.2096 87.03 76.0296C86.83 75.1796 86.72 74.2596 86.72 73.2896C86.72 66.7796 91.64 61.6296 99.56 59.8396C99.62 59.8296 99.68 59.8096 99.7299 59.7896C99.8899 59.7296 100.03 59.6597 100.13 59.5697C100.16 59.5397 100.19 59.5096 100.22 59.4796C100.27 59.4196 100.31 59.3597 100.33 59.2997C100.33 59.2697 100.34 59.2397 100.34 59.2197V55.8197C100.34 55.3997 100.41 54.9996 100.54 54.6196C100.63 54.3696 100.74 54.1196 100.88 53.8996C101.6 52.7096 102.97 51.8797 104.55 51.7997C104.64 51.7997 104.73 51.7896 104.83 51.7896C106.53 51.7896 108.02 52.6497 108.78 53.9097C108.92 54.1397 109.03 54.3797 109.12 54.6297C109.25 55.0097 109.32 55.4097 109.32 55.8297V58.6396C109.32 58.7396 109.37 58.8397 109.47 58.9397C109.63 59.0997 109.91 59.2397 110.25 59.2697C111.56 59.3897 112.82 59.5897 114.04 59.8497C115.25 60.1097 116.42 60.4396 117.52 60.8396C118.1 61.0496 118.62 61.3596 119.05 61.7596C119.27 61.9596 119.46 62.1697 119.63 62.4097C119.71 62.5297 119.79 62.6497 119.86 62.7697C119.93 62.8897 119.99 63.0196 120.05 63.1496C120.25 63.6296 120.35 64.1396 120.35 64.6396C120.35 65.1396 120.23 65.6496 120.02 66.1196L119.75 66.7097C119.67 66.8797 119.58 67.0496 119.48 67.1996C119.46 67.2396 119.43 67.2796 119.41 67.3096C119.3 67.4596 119.19 67.6096 119.07 67.7496L119.05 67.7697C118.93 67.8997 118.8 68.0197 118.66 68.1297C118.63 68.1597 118.59 68.1897 118.56 68.2097C118.41 68.3197 118.26 68.4296 118.1 68.5296C118.08 68.5396 118.06 68.5496 118.05 68.5596C117.9 68.6496 117.75 68.7196 117.59 68.7896C117.55 68.8096 117.51 68.8296 117.47 68.8396C117.29 68.9096 117.12 68.9697 116.93 69.0197C116.9 69.0197 116.88 69.0296 116.85 69.0396C116.68 69.0796 116.52 69.1196 116.35 69.1396C116.31 69.1396 116.26 69.1497 116.22 69.1597C116.03 69.1797 115.83 69.1996 115.64 69.1996C115.56 69.1996 115.48 69.1996 115.41 69.1996C115.35 69.1996 115.29 69.1996 115.22 69.1996C115.13 69.1996 115.05 69.1796 114.96 69.1696C114.9 69.1696 114.84 69.1596 114.78 69.1496C114.68 69.1296 114.59 69.1096 114.49 69.0896C114.44 69.0796 114.39 69.0696 114.34 69.0596C114.2 69.0196 114.05 68.9796 113.91 68.9296C111.41 68.0296 108.67 67.5797 105.76 67.5797C105.27 67.5797 104.82 67.5996 104.38 67.6396C99.63 68.0196 97.8999 70.3497 97.8999 72.3797C97.8999 72.4797 97.9 72.5796 97.91 72.6796C98.01 74.1396 98.8699 75.2996 101.01 76.5096C101.25 76.6496 101.51 76.7796 101.78 76.9196C102.19 77.1296 102.64 77.3397 103.13 77.5497C103.62 77.7597 104.15 77.9797 104.72 78.2097C105.1 78.3597 105.5 78.5096 105.92 78.6696C106.55 78.8996 107.22 79.1396 107.95 79.3996C108.42 79.5596 108.88 79.7197 109.35 79.8896C109.82 80.0596 110.28 80.2396 110.74 80.4196C110.97 80.5096 111.2 80.6096 111.43 80.6996C112.12 80.9896 112.8 81.2896 113.46 81.6096C113.68 81.7197 113.9 81.8297 114.12 81.9397C114.55 82.1597 114.98 82.3996 115.4 82.6396C115.61 82.7596 115.81 82.8896 116.02 83.0096C116.43 83.2596 116.82 83.5296 117.21 83.8096C120.66 86.2996 123.08 89.7397 123.08 94.8297C123.08 96.2997 122.83 97.7197 122.35 99.0596L122.29 99.0197Z" fill="#27AE60"/>
<path d="M119.04 61.73C119.26 61.93 119.45 62.1401 119.62 62.3801C119.7 62.5001 119.78 62.6201 119.85 62.7401C119.92 62.8601 119.98 62.99 120.04 63.12C120.24 63.6 120.34 64.11 120.34 64.61C120.34 65.11 120.22 65.62 120.01 66.09L119.74 66.68C119.66 66.85 119.57 67.02 119.47 67.17C119.45 67.21 119.42 67.25 119.4 67.28C119.29 67.43 119.18 67.58 119.06 67.72L119.04 67.7401C118.92 67.8701 118.79 67.9901 118.65 68.1001C118.62 68.1301 118.58 68.16 118.55 68.18C118.4 68.29 118.25 68.4 118.09 68.5C118.07 68.51 118.05 68.52 118.04 68.53C117.89 68.62 117.74 68.69 117.58 68.76C117.54 68.78 117.5 68.8 117.46 68.81C117.28 68.88 117.11 68.9401 116.92 68.9901C116.89 68.9901 116.87 69 116.84 69.01C116.67 69.05 116.51 69.09 116.34 69.11C116.3 69.11 116.25 69.1201 116.21 69.1301C116.02 69.1501 115.82 69.17 115.63 69.17H115.62C115.55 69.17 115.47 69.17 115.4 69.17C115.34 69.17 115.28 69.17 115.21 69.17C115.12 69.17 115.04 69.15 114.95 69.14C114.89 69.14 114.83 69.13 114.77 69.12C114.67 69.1 114.58 69.08 114.48 69.06C114.43 69.05 114.38 69.04 114.33 69.03C114.19 68.99 114.04 68.95 113.9 68.9C111.4 68 108.66 67.55 105.75 67.55C105.26 67.55 104.81 67.57 104.37 67.61C99.6199 67.99 97.89 70.3201 97.89 72.3501C97.89 72.4501 97.8899 72.55 97.8999 72.65C97.9999 74.11 98.86 75.27 101 76.48C101.24 76.62 101.5 76.75 101.77 76.89C102.18 77.1 102.63 77.3101 103.12 77.5201C103.61 77.73 104.14 77.95 104.71 78.18C105.09 78.33 105.49 78.48 105.91 78.64C106.54 78.87 107.21 79.11 107.94 79.37C108.41 79.53 108.87 79.69 109.34 79.86C109.81 80.03 110.27 80.21 110.73 80.39C110.96 80.48 111.19 80.58 111.42 80.67C112.11 80.96 112.79 81.26 113.45 81.58C113.67 81.69 113.89 81.8 114.11 81.91C114.54 82.13 114.97 82.37 115.39 82.61C115.6 82.73 115.8 82.86 116.01 82.98C116.42 83.23 116.81 83.5 117.2 83.78C120.65 86.27 123.07 89.71 123.07 94.8C123.07 96.2701 122.82 97.69 122.34 99.03C122.2 99.41 122.05 99.79 121.87 100.15C121.61 100.7 121.31 101.23 120.97 101.75C120.86 101.92 120.74 102.09 120.62 102.26C120.38 102.59 120.12 102.92 119.84 103.24C119.42 103.72 118.97 104.17 118.49 104.6C118.33 104.74 118.16 104.89 117.99 105.02C117.65 105.3 117.3 105.56 116.93 105.82C116.56 106.08 116.18 106.32 115.78 106.55C114.88 107.07 113.92 107.54 112.89 107.94C111.86 108.34 110.77 108.67 109.62 108.93C109.53 108.95 109.45 108.98 109.37 109.01C109.29 109.04 109.22 109.08 109.16 109.12C108.96 109.25 108.84 109.42 108.84 109.55V113.18C108.84 115.41 106.82 117.22 104.35 117.22H104.26C101.78 117.22 99.77 115.41 99.77 113.18V110.09C99.77 110.09 99.77 110.02 99.75 109.99C99.71 109.89 99.62 109.78 99.49 109.69C99.32 109.57 99.07 109.47 98.78 109.45C98.35 109.41 97.9099 109.36 97.4799 109.31C96.6199 109.2 95.76 109.06 94.92 108.9C92.83 108.49 90.84 107.91 89.13 107.19C88.73 107.02 88.37 106.81 88.05 106.55C87.94 106.46 87.84 106.37 87.75 106.28C87.46 106 87.22 105.67 87.03 105.32C86.97 105.2 86.91 105.08 86.86 104.95C86.81 104.83 86.77 104.72 86.74 104.6C86.64 104.25 86.5799 103.88 86.5899 103.52C86.5899 103.4 86.59 103.28 86.61 103.16C86.62 103.04 86.64 102.92 86.67 102.8C86.72 102.56 86.79 102.32 86.89 102.09L87.16 101.45C87.24 101.27 87.3299 101.1 87.4299 100.94C87.4599 100.9 87.4799 100.86 87.5099 100.82C87.6099 100.66 87.73 100.51 87.85 100.38C87.98 100.23 88.1199 100.1 88.2599 99.98C88.2999 99.95 88.3299 99.92 88.3699 99.89C88.5199 99.78 88.67 99.6701 88.83 99.5701H88.8399C88.9999 99.4601 89.18 99.3801 89.35 99.3C89.39 99.28 89.4399 99.2601 89.4799 99.2401C89.6499 99.1701 89.8299 99.11 90.0099 99.06H90.03C90.22 99 90.41 98.96 90.61 98.94C90.66 98.94 90.7099 98.93 90.7599 98.92C90.9499 98.9 91.13 98.8801 91.32 98.8801H91.36C91.44 98.8801 91.52 98.8801 91.6 98.8801C91.67 98.8801 91.74 98.88 91.81 98.89C91.89 98.89 91.98 98.91 92.06 98.93C92.13 98.93 92.1999 98.9501 92.2599 98.9601C92.3499 98.9801 92.4499 99 92.5399 99.03C92.5999 99.04 92.66 99.0501 92.71 99.0701C92.84 99.1101 92.97 99.15 93.1 99.2C93.12 99.2 93.14 99.21 93.16 99.22C95.27 100.06 98.66 101.07 102.8 101.07C105.71 101.07 108.14 100.37 109.74 99.18C109.97 99.01 110.18 98.83 110.38 98.64C110.85 98.19 111.21 97.68 111.46 97.1301C111.71 96.5801 111.84 95.9801 111.84 95.3501C111.84 95.2801 111.84 95.22 111.84 95.15C111.84 95.01 111.83 94.8801 111.81 94.7401C111.79 94.5301 111.75 94.32 111.69 94.11C111.65 93.97 111.61 93.82 111.55 93.68C111.49 93.53 111.43 93.3901 111.35 93.2401C111.31 93.1701 111.27 93.09 111.23 93.0201C111.14 92.87 111.04 92.7201 110.93 92.5701C110.82 92.4201 110.69 92.27 110.54 92.11C110.4 91.96 110.24 91.8 110.07 91.64C109.9 91.48 109.71 91.33 109.5 91.17C109.29 91.01 109.07 90.85 108.82 90.69C108.45 90.45 108.04 90.2101 107.58 89.9601C107.43 89.8801 107.27 89.8001 107.11 89.7101C106.78 89.5501 106.43 89.38 106.06 89.22C105.87 89.14 105.68 89.05 105.48 88.97C105.08 88.8 104.66 88.64 104.22 88.47C104 88.39 103.77 88.3 103.53 88.22C103.29 88.14 103.05 88.05 102.8 87.97C101.01 87.38 99.2499 86.75 97.5899 86.04C96.5899 85.61 95.63 85.16 94.72 84.67C94.28 84.43 93.8499 84.18 93.4299 83.93C93.0099 83.67 92.6099 83.4101 92.2299 83.1301C91.8399 82.85 91.4699 82.57 91.1199 82.2701C90.7699 81.9701 90.43 81.66 90.11 81.34C89.79 81.02 89.49 80.69 89.21 80.34C88.93 79.99 88.67 79.63 88.44 79.26C87.82 78.28 87.36 77.21 87.08 76.03C86.88 75.18 86.77 74.26 86.77 73.29C86.77 66.78 91.69 61.63 99.61 59.84C99.67 59.83 99.73 59.81 99.78 59.79C99.94 59.73 100.08 59.6601 100.18 59.5701C100.21 59.5401 100.24 59.51 100.27 59.48C100.32 59.42 100.36 59.36 100.38 59.3C100.38 59.27 100.39 59.24 100.39 59.22V55.8201C100.39 55.4001 100.46 55 100.59 54.62C100.68 54.37 100.79 54.12 100.93 53.9C101.65 52.71 103.02 51.88 104.6 51.8C104.69 51.8 104.78 51.79 104.88 51.79C106.58 51.79 108.07 52.65 108.83 53.91C108.97 54.14 109.08 54.3801 109.17 54.6301C109.3 55.0101 109.37 55.41 109.37 55.83V58.64C109.37 58.74 109.42 58.84 109.52 58.94C109.68 59.1 109.96 59.24 110.3 59.2701C111.61 59.39 112.87 59.5901 114.09 59.8501C115.3 60.1101 116.47 60.44 117.57 60.84C118.15 61.05 118.67 61.36 119.1 61.76L119.04 61.73Z" fill="white"/>
<path d="M52.9601 50.87C56.5801 45.29 61.0001 40.43 66.0101 36.39C63.2101 36.49 60.3501 36.54 57.4301 36.54C32.6601 36.54 11.6101 32.83 3.92006 27.66C2.60006 26.77 0.810059 27.7 0.810059 29.25V43.29C0.810059 49.98 22.1201 55.51 49.7601 56.39C49.7801 56.36 49.7901 56.33 49.8001 56.3C50.7401 54.46 51.8001 52.64 52.9501 50.87H52.9601Z" fill="#4C4C4C"/>
<path d="M43.2701 78.8899C43.6401 74.7299 44.4301 70.6599 45.6101 66.7099C26.1301 65.7399 10.3501 62.4399 3.92006 58.1199C2.60006 57.2299 0.810059 58.1599 0.810059 59.7099V73.7499C0.810059 79.8899 18.7501 85.0499 43.0501 86.5399C43.0301 85.8499 43.0101 85.1599 43.0101 84.4799C43.0101 82.6499 43.1001 80.7699 43.2601 78.8999L43.2701 78.8899Z" fill="#4C4C4C"/>
<path d="M47.3001 107.12C46.9301 106.19 46.5801 105.23 46.2601 104.28C46.1001 103.8 45.9401 103.32 45.7901 102.84C45.3401 101.39 44.9401 99.8997 44.5901 98.4197C44.4901 97.9897 44.4001 97.5497 44.3101 97.1097C25.4301 96.0597 10.2001 92.8097 3.92006 88.5897C2.60006 87.6997 0.810059 88.6297 0.810059 90.1797V104.22C0.810059 111.08 23.2001 116.72 51.8501 117.37C51.8801 117.07 51.9201 116.78 51.9401 116.48C51.4301 115.64 50.9401 114.78 50.4701 113.92C49.2801 111.73 48.2101 109.44 47.3001 107.12Z" fill="#4C4C4C"/>
<path d="M110.24 59.2398C109.9 59.2098 109.62 59.0698 109.46 58.9098C109.36 58.8098 109.31 58.7098 109.31 58.6098V55.7998C109.31 55.3798 109.24 54.9798 109.11 54.5998C109.02 54.3498 108.91 54.0998 108.77 53.8798C108.01 52.6198 106.52 51.7598 104.82 51.7598C104.73 51.7598 104.64 51.7598 104.54 51.7698C102.95 51.8598 101.59 52.6798 100.87 53.8698C100.73 54.0998 100.62 54.3398 100.53 54.5898C100.4 54.9698 100.33 55.3698 100.33 55.7898V59.1898C100.33 59.1898 100.33 59.2398 100.32 59.2698C100.3 59.3298 100.27 59.3898 100.21 59.4498C100.18 59.4798 100.15 59.5098 100.12 59.5398C100.02 59.6198 99.89 59.6998 99.72 59.7598C99.67 59.7798 99.61 59.7998 99.55 59.8098C91.63 61.5998 86.71 66.7498 86.71 73.2598C86.71 74.2398 86.82 75.1498 87.02 75.9998C87.3 77.1798 87.76 78.2498 88.38 79.2298C88.62 79.5998 88.87 79.9598 89.15 80.3098C89.43 80.6598 89.73 80.9898 90.05 81.3098C90.37 81.6298 90.71 81.9398 91.06 82.2398C91.41 82.5398 91.79 82.8198 92.17 83.0998C92.56 83.3798 92.96 83.6398 93.37 83.8998C93.79 84.1598 94.22 84.3998 94.66 84.6398C95.57 85.1298 96.53 85.5898 97.53 86.0098C99.19 86.7198 100.95 87.3498 102.74 87.9398C102.99 88.0198 103.23 88.1098 103.47 88.1898C103.71 88.2698 103.93 88.3598 104.16 88.4398C104.61 88.6098 105.03 88.7798 105.42 88.9398C105.62 89.0198 105.81 89.1098 106 89.1898C106.37 89.3598 106.72 89.5198 107.05 89.6798C107.21 89.7598 107.37 89.8398 107.52 89.9298C107.98 90.1698 108.39 90.4198 108.76 90.6598C109 90.8198 109.23 90.9798 109.44 91.1398C109.65 91.2998 109.84 91.4598 110.01 91.6098C110.18 91.7698 110.34 91.9198 110.48 92.0798C110.62 92.2298 110.75 92.3898 110.87 92.5398C110.98 92.6898 111.09 92.8398 111.17 92.9898C111.21 93.0598 111.26 93.1398 111.29 93.2098C111.37 93.3598 111.43 93.4998 111.49 93.6498C111.55 93.7998 111.59 93.9398 111.63 94.0798C111.69 94.2898 111.72 94.4998 111.75 94.7098C111.77 94.8498 111.78 94.9798 111.78 95.1198C111.78 95.1898 111.78 95.2498 111.78 95.3198C111.78 95.9498 111.65 96.5498 111.4 97.0998C111.15 97.6498 110.79 98.1598 110.32 98.6098C110.13 98.7998 109.91 98.9798 109.68 99.1498C108.08 100.34 105.65 101.04 102.74 101.04C98.6 101.04 95.21 100.04 93.1 99.1898C93.08 99.1898 93.06 99.1798 93.04 99.1698C92.91 99.1198 92.78 99.0798 92.65 99.0398C92.59 99.0198 92.53 99.0098 92.48 98.9998C92.39 98.9798 92.29 98.9498 92.2 98.9298C92.13 98.9198 92.06 98.9098 92 98.8998C91.92 98.8898 91.83 98.8698 91.75 98.8598C91.68 98.8598 91.61 98.8598 91.54 98.8498C91.46 98.8498 91.38 98.8398 91.3 98.8398H91.26C91.07 98.8398 90.88 98.8598 90.7 98.8798C90.65 98.8798 90.6 98.8898 90.55 98.8998C90.36 98.9298 90.16 98.9698 89.97 99.0198H89.95C89.77 99.0798 89.59 99.1398 89.42 99.2098C89.38 99.2298 89.33 99.2498 89.29 99.2698C89.11 99.3498 88.94 99.4298 88.78 99.5298H88.77C88.61 99.6398 88.46 99.7398 88.31 99.8598C88.27 99.8898 88.24 99.9198 88.2 99.9498C88.05 100.07 87.91 100.2 87.79 100.34C87.67 100.49 87.55 100.64 87.45 100.79C87.42 100.83 87.4 100.87 87.37 100.91C87.27 101.07 87.18 101.24 87.1 101.42L86.83 102.06C86.73 102.29 86.66 102.53 86.61 102.77C86.58 102.89 86.57 103.01 86.55 103.13C86.54 103.25 86.53 103.37 86.53 103.49C86.53 103.85 86.58 104.22 86.68 104.57C86.71 104.69 86.76 104.81 86.8 104.92C86.85 105.05 86.91 105.17 86.97 105.29C87.16 105.65 87.4 105.97 87.69 106.25C87.79 106.34 87.89 106.44 87.99 106.52C88.31 106.78 88.67 106.99 89.07 107.16C90.79 107.88 92.77 108.46 94.86 108.87C95.7 109.03 96.55 109.17 97.42 109.28C97.85 109.33 98.29 109.38 98.72 109.42C99.01 109.45 99.26 109.54 99.43 109.66C99.56 109.75 99.65 109.86 99.69 109.96C99.7 109.99 99.71 110.03 99.71 110.06V113.15C99.71 115.38 101.73 117.19 104.2 117.19H104.29C106.77 117.19 108.78 115.38 108.78 113.15V109.52C108.78 109.39 108.9 109.22 109.1 109.09C109.16 109.05 109.23 109.01 109.31 108.98C109.39 108.95 109.47 108.92 109.56 108.9C110.71 108.64 111.8 108.31 112.83 107.91C113.86 107.51 114.83 107.05 115.72 106.52C116.12 106.29 116.5 106.04 116.87 105.79C117.24 105.53 117.59 105.27 117.93 104.99C118.1 104.85 118.27 104.71 118.43 104.57C118.92 104.14 119.37 103.68 119.78 103.21C120.06 102.89 120.32 102.57 120.56 102.23C120.68 102.06 120.8 101.89 120.91 101.72C121.25 101.21 121.55 100.67 121.81 100.12C121.98 99.7498 122.68 98.9598 122.28 98.9998C102.99 100.98 120.59 86.2498 117.15 83.7598C116.77 83.4798 115.56 82.7098 115.35 82.5898C114.93 82.3498 114.51 82.1098 114.07 81.8898C113.85 81.7798 113.63 81.6698 113.41 81.5598C112.75 81.2398 112.07 80.9298 111.38 80.6498C111.15 80.5498 109.76 80.0098 109.3 79.8398C108.83 79.6698 108.37 79.4998 107.9 79.3498C107.18 79.0998 106.5 78.8598 105.87 78.6198C105.45 78.4598 105.05 78.3098 104.67 78.1598C104.1 77.9398 103.57 77.7198 103.08 77.4998C102.59 77.2898 102.14 77.0798 101.73 76.8698C101.46 76.7298 101.2 76.5998 100.96 76.4598C98.82 75.2498 97.96 74.0898 97.86 72.6298C97.86 72.5298 97.85 72.4298 97.85 72.3298C97.85 70.2998 99.59 67.9698 104.33 67.5898C104.77 67.5498 105.22 67.5298 105.71 67.5298C108.62 67.5298 111.36 67.9798 113.86 68.8798C114 68.9298 114.14 68.9698 114.29 69.0098C114.34 69.0198 114.39 69.0298 114.44 69.0398C114.54 69.0598 114.63 69.0798 114.73 69.0998C114.79 69.0998 114.85 69.1098 114.91 69.1198C115 69.1298 115.08 69.1398 115.17 69.1498C115.23 69.1498 115.29 69.1498 115.36 69.1498C115.43 69.1498 115.51 69.1498 115.58 69.1498H115.59C115.79 69.1498 115.98 69.1298 116.17 69.1098C116.21 69.1098 116.26 69.0998 116.3 69.0898C116.47 69.0598 116.64 69.0298 116.8 68.9898C116.83 68.9898 116.85 68.9798 116.88 68.9698C117.06 68.9198 117.24 68.8598 117.42 68.7898C117.46 68.7698 117.5 68.7598 117.54 68.7398C117.7 68.6698 117.85 68.5898 118 68.5098C118.02 68.5098 118.04 68.4898 118.05 68.4798C118.21 68.3798 118.36 68.2798 118.51 68.1598C118.55 68.1298 118.58 68.0998 118.61 68.0798C118.75 67.9698 118.88 67.8498 119 67.7198L119.02 67.6998C119.15 67.5598 119.26 67.4198 119.36 67.2598C119.39 67.2198 119.41 67.1898 119.43 67.1498C119.53 66.9898 119.63 66.8298 119.7 66.6598L119.97 66.0698C120.19 65.5898 120.3 65.0898 120.3 64.5898C120.3 64.0898 120.21 63.5798 120 63.0998C119.94 62.9698 119.88 62.8398 119.81 62.7198C119.74 62.5998 119.66 62.4698 119.58 62.3598C119.41 62.1298 119.22 61.9098 119 61.7098C118.57 61.3198 118.05 60.9998 117.47 60.7898C116.37 60.3898 115.2 60.0598 113.99 59.7998C112.78 59.5398 111.51 59.3398 110.2 59.2198L110.24 59.2398Z" fill="white"/>
<path d="M57.4401 26.44C88.7104 26.44 114.06 20.5212 114.06 13.22C114.06 5.9188 88.7104 0 57.4401 0C26.1697 0 0.820068 5.9188 0.820068 13.22C0.820068 20.5212 26.1697 26.44 57.4401 26.44Z" fill="#4C4C4C"/>
</svg>
