
<svg width="180" height="137" viewBox="0 0 180 137" fill="none" xmlns="http://www.w3.org/2000/svg">
<path d="M110.28 0.51976C101.66 0.56976 99.5999 1.11976 99.5999 5.94976V13.1298C99.5999 14.5398 98.4399 15.6098 97.1599 15.9798C95.1399 16.5698 93.1499 17.2998 91.1899 18.1098C89.2699 18.9098 87.3799 19.7698 85.5699 20.7598C85.1299 20.9998 84.6199 21.1598 84.1199 21.2198C88.5299 25.3698 92.8499 29.6298 97.1299 33.9298C101.72 31.9398 106.77 30.8298 112.09 30.8298C132.85 30.8298 149.69 47.6498 149.69 68.4098C149.69 89.1698 132.85 105.99 112.09 105.99C106.72 105.99 101.63 104.86 97.0099 102.84C92.8699 106.93 88.7399 111.03 84.6799 115.19C84.5699 115.34 84.4499 115.48 84.3299 115.62C84.7599 115.69 85.1799 115.83 85.5699 116.04C87.4199 117.05 89.3399 117.94 91.2999 118.75C93.2199 119.54 95.1799 120.26 97.1599 120.84C98.4399 121.21 99.5999 122.28 99.5999 123.69V130.86C99.5999 136.01 101.95 136.3 112.09 136.3C122.23 136.3 124.59 136.01 124.59 130.86V123.69C124.59 122.28 125.75 121.21 127.03 120.84C129.02 120.26 130.98 119.54 132.91 118.74C134.86 117.93 136.77 117.05 138.61 116.04C139.78 115.4 141.35 115.32 142.35 116.32L147.42 121.4C151.06 125.04 152.94 123.58 160.11 116.41C167.28 109.24 168.75 107.38 165.11 103.73C163.42 102.04 161.72 100.34 160.03 98.6498C159.03 97.6498 159.11 96.0798 159.75 94.9098C160.76 93.0598 161.64 91.1398 162.45 89.1798C163.24 87.2598 163.97 85.3098 164.55 83.3298C164.92 82.0498 165.98 80.8898 167.39 80.8898H174.56C179.71 80.8898 180 78.5398 180 68.3998C180 58.2598 179.71 55.9098 174.56 55.9098H167.39C165.98 55.9098 164.92 54.7398 164.55 53.4598C163.96 51.4398 163.22 49.4498 162.4 47.4898C161.6 45.5698 160.74 43.6898 159.75 41.8798C159.11 40.7098 159.03 39.1398 160.03 38.1398L165.11 33.0698C168.75 29.4298 167.29 27.5498 160.11 20.3798C152.94 13.2098 151.06 11.7398 147.42 15.3898C145.73 17.0798 144.04 18.7798 142.35 20.4698C141.35 21.4698 139.78 21.3898 138.61 20.7498C136.8 19.7598 134.92 18.8898 133 18.0998C131.04 17.2898 129.05 16.5598 127.03 15.9698C125.75 15.5998 124.59 14.5298 124.59 13.1198V5.93977C124.59 0.789766 122.23 0.509766 112.09 0.509766C111.46 0.509766 110.85 0.509766 110.28 0.509766V0.51976Z" fill="#27AE60"/>
<path d="M67.7799 17.0198C64.4099 17.0198 61.04 18.3098 58.45 20.8998C53.28 26.0698 53.28 34.3898 58.45 39.5598L74.1199 55.2298H13.3999C6.08993 55.2298 0.199951 61.1098 0.199951 68.4198C0.199951 75.7298 6.08993 81.6098 13.3999 81.6098H74.1199L58.45 97.2698C53.28 102.44 53.28 110.77 58.45 115.94C63.6199 121.11 71.9399 121.11 77.1099 115.94C93.6299 99.4298 106.76 86.2998 121.93 71.1298C123.43 69.6298 123.43 67.2098 121.93 65.6998L77.1099 20.8898C74.5299 18.3098 71.1499 17.0098 67.7699 17.0098L67.7799 17.0198Z" fill="#4C4C4C"/>
</svg>
