
<svg width="130" height="178" viewBox="0 0 130 178" fill="none" xmlns="http://www.w3.org/2000/svg">
<path fill-rule="evenodd" clip-rule="evenodd" d="M86.6998 94.3506L120.57 160.291L94.6499 151.961L86.3198 177.881L65.0599 136.491L86.6998 94.3506Z" fill="#4C4C4C"/>
<path d="M45.4298 97.7L16.1097 154.77L34.3798 148.9L37.5498 147.88L38.5697 151.06L44.4397 169.33L81.2297 97.71H45.4198L45.4298 97.7ZM9.46973 153.11L40.4397 92.83L41.3798 91H92.1598L89.6598 95.86L47.4697 177.99H40.2197L33.2397 156.26L10.4897 163.57L9.46973 163.9V153.11Z" fill="white"/>
<path fill-rule="evenodd" clip-rule="evenodd" d="M43.41 94.3506L9.47998 160.401L35.4 152.071L43.73 178.001L86.7 94.3506H43.41Z" fill="#4C4C4C"/>
<path d="M100.66 9.42992C101.08 10.1299 101.42 10.8899 101.64 11.7199L103.37 18.1699C104.11 20.9299 104.48 22.3199 104.9 22.7299C105.32 23.1499 106.68 23.5199 109.4 24.2499L115.93 25.9999C118.28 26.6299 120.16 28.1599 121.29 30.1199C122.42 32.0899 122.81 34.4799 122.18 36.8199L120.44 43.3099C119.71 46.0499 119.34 47.4199 119.49 47.9999C119.64 48.5599 120.63 49.5499 122.61 51.5299L127.41 56.3299C129.13 58.0499 129.99 60.3199 129.99 62.5799C129.99 64.8399 129.13 67.1099 127.41 68.8299L122.69 73.5499C120.66 75.5799 119.65 76.5899 119.49 77.1499C119.34 77.7099 119.69 79.0699 120.42 81.7699L122.18 88.3299C122.81 90.6699 122.42 93.0599 121.29 95.0199C120.16 96.9899 118.28 98.5199 115.93 99.1499L109.48 100.88C106.72 101.62 105.34 101.99 104.92 102.41C104.5 102.83 104.13 104.19 103.4 106.91L101.65 113.44C101.02 115.79 99.4899 117.67 97.5299 118.8H97.5199C95.5599 119.93 93.1698 120.32 90.8298 119.69L84.3398 117.95C81.5998 117.22 80.2299 116.85 79.6499 117C79.0899 117.15 78.0999 118.14 76.1199 120.12L71.3198 124.92C69.5998 126.64 67.3298 127.5 65.0698 127.5C62.8098 127.5 60.5398 126.64 58.8198 124.92L54.0999 120.2C52.0699 118.17 51.0599 117.16 50.4999 117C49.9399 116.84 48.5799 117.2 45.8799 117.93L39.3198 119.69C36.9798 120.32 34.5899 119.93 32.6299 118.8H32.6199C30.6599 117.67 29.1299 115.79 28.4999 113.44L26.7699 106.99C26.0299 104.23 25.6599 102.84 25.2399 102.43C24.8199 102.01 23.4599 101.64 20.7399 100.91L14.2099 99.1599C11.8599 98.5299 9.97985 96.9999 8.84985 95.0399C7.71985 93.0599 7.3299 90.6799 7.9599 88.3399L9.69989 81.8499C10.4299 79.1099 10.7999 77.7399 10.6499 77.1599C10.4999 76.5999 9.50991 75.6099 7.52991 73.6299L2.72986 68.8299C1.00986 67.1099 0.149902 64.8399 0.149902 62.5799C0.149902 60.3199 1.00986 58.0499 2.72986 56.3299L7.44989 51.6099C9.47989 49.5799 10.4899 48.5699 10.6499 48.0099C10.7999 47.4499 10.4498 46.0899 9.71985 43.3899L7.9599 36.8299C7.3299 34.4899 7.71985 32.0999 8.84985 30.1399C9.97985 28.1699 11.8599 26.6399 14.2099 26.0099L20.6599 24.2799C23.4199 23.5399 24.7998 23.1699 25.2198 22.7499C25.6398 22.3299 26.0099 20.9699 26.7399 18.2499L28.4899 11.7199C28.7099 10.8899 29.0398 10.1299 29.4698 9.42992H59.0898L58.7599 9.75993C55.9399 12.5799 54.5098 13.9899 52.1898 14.5999C49.8898 15.2099 47.9498 14.6899 44.0798 13.6499L37.5898 11.9099C37.0098 11.7599 36.4298 11.8499 35.9498 12.1199C35.4698 12.3999 35.0898 12.8599 34.9398 13.4299L33.1898 19.9599C32.1498 23.8399 31.6199 25.7799 29.9199 27.4599C28.2199 29.1399 26.2699 29.6699 22.3799 30.7099L15.9299 32.4399C15.3599 32.5899 14.8999 32.9699 14.6199 33.4499C14.3499 33.9199 14.2599 34.5099 14.4099 35.0799L16.1699 41.6399C17.1999 45.4899 17.7099 47.4299 17.0699 49.7399C16.4299 52.0599 15.0099 53.4799 12.1799 56.3199L7.4599 61.0399C7.0399 61.4599 6.8399 62.0099 6.8399 62.5599C6.8399 63.1099 7.0499 63.6699 7.4599 64.0799L12.2599 68.8799C15.0799 71.6999 16.4899 73.1299 17.0999 75.4499C17.7099 77.7499 17.1899 79.6899 16.1499 83.5599L14.4099 90.0499C14.2599 90.6299 14.3499 91.2099 14.6199 91.6899C14.8999 92.1699 15.3599 92.5399 15.9299 92.6999L22.4599 94.4499C26.3399 95.4899 28.2798 96.0199 29.9598 97.7199C31.6398 99.4199 32.1698 101.37 33.2098 105.26L34.9398 111.71C35.0898 112.28 35.4698 112.74 35.9498 113.02C36.4298 113.3 37.0098 113.39 37.5898 113.24L44.1499 111.48C47.9999 110.45 49.9399 109.94 52.2499 110.58C54.5699 111.22 55.9898 112.64 58.8298 115.47L63.5499 120.19C63.9699 120.61 64.5198 120.81 65.0698 120.81C65.6198 120.81 66.1798 120.6 66.5898 120.19L71.3899 115.39C74.2099 112.57 75.6398 111.16 77.9598 110.55C80.2598 109.94 82.2098 110.46 86.0698 111.5L92.5599 113.24C93.1399 113.39 93.7198 113.3 94.1998 113.03C94.6798 112.75 95.0598 112.29 95.2098 111.72L96.9598 105.19C97.9998 101.31 98.5299 99.3699 100.23 97.6899C101.93 96.0099 103.88 95.4799 107.77 94.4399L114.22 92.7099C114.79 92.5599 115.25 92.1799 115.53 91.6999C115.8 91.2299 115.89 90.6399 115.74 90.0699L113.98 83.5099C112.95 79.6599 112.44 77.7199 113.08 75.4099C113.72 73.0899 115.14 71.6699 117.97 68.8299L122.69 64.1099C123.11 63.6899 123.31 63.1399 123.31 62.5899C123.31 62.0399 123.1 61.4799 122.69 61.0699L117.89 56.2699C115.07 53.4499 113.66 52.0199 113.05 49.6999C112.44 47.3999 112.96 45.4599 114 41.5899L115.74 35.0999C115.89 34.5199 115.8 33.9399 115.53 33.4599C115.25 32.9799 114.79 32.6099 114.22 32.4499L107.69 30.6999C103.81 29.6599 101.87 29.1299 100.19 27.4299C98.5098 25.7299 97.9798 23.7799 96.9398 19.8899L95.2098 13.4399C95.0598 12.8699 94.6798 12.4099 94.1998 12.1299C93.7198 11.8499 93.1399 11.7599 92.5599 11.9099L85.9999 13.6699C82.1499 14.6999 80.2099 15.2099 77.8999 14.5699C75.5799 13.9299 74.1598 12.5099 71.3198 9.67992L71.0599 9.41992H100.68L100.66 9.42992Z" fill="white"/>
<path fill-rule="evenodd" clip-rule="evenodd" d="M68.9398 2.60035L73.6599 7.32035C78.5199 12.1804 78.5498 12.2104 85.1098 10.4504L91.6699 8.69036C94.5899 7.91036 97.6199 9.66036 98.4099 12.5804L100.14 19.0304C101.92 25.6804 101.93 25.7104 108.53 27.4704L115.06 29.2204C117.98 30.0004 119.73 33.0303 118.95 35.9504L117.21 42.4404C115.44 49.0404 115.44 49.0904 120.24 53.8904L125.04 58.6904C127.18 60.8304 127.18 64.3304 125.04 66.4704L120.32 71.1904C115.46 76.0504 115.43 76.0804 117.19 82.6404L118.95 89.2004C119.73 92.1204 117.98 95.1504 115.06 95.9304L108.61 97.6604C101.96 99.4404 101.93 99.4504 100.17 106.05L98.4199 112.58C97.6399 115.5 94.6098 117.25 91.6898 116.47L85.1998 114.73C78.5998 112.96 78.5498 112.96 73.7498 117.76L68.9498 122.56C66.8098 124.7 63.3099 124.7 61.1699 122.56L56.4498 117.84C51.5898 112.98 51.5598 112.95 44.9998 114.71L38.4398 116.47C35.5198 117.25 32.4898 115.5 31.6998 112.58L29.9698 106.13C28.1898 99.4804 28.1799 99.4504 21.5799 97.6904L15.0498 95.9404C12.1298 95.1604 10.3798 92.1304 11.1598 89.2104L12.8999 82.7204C14.6699 76.1204 14.6698 76.0704 9.86983 71.2704L5.06984 66.4704C2.92984 64.3304 2.92984 60.8304 5.06984 58.6904L9.78981 53.9704C14.6498 49.1104 14.6798 49.0804 12.9198 42.5204L11.1598 35.9604C10.3798 33.0404 12.1298 30.0104 15.0498 29.2204L21.4998 27.4904C28.1498 25.7104 28.1798 25.7004 29.9398 19.1004L31.6898 12.5704C32.4698 9.65036 35.4999 7.90036 38.4199 8.68036L44.9099 10.4204C51.5099 12.1904 51.5598 12.1904 56.3598 7.39035L61.1599 2.59035C63.2999 0.450351 66.7998 0.450351 68.9398 2.59035V2.60035Z" fill="#4C4C4C"/>
<path d="M71.9634 105.775C95.8231 101.961 112.074 79.5282 108.261 55.6685C104.448 31.8088 82.0144 15.5579 58.1547 19.371C34.295 23.1842 18.0441 45.6175 21.8572 69.4772C25.6704 93.3368 48.1037 109.588 71.9634 105.775Z" fill="white"/>
<path d="M73.4134 99.0668C93.5422 94.4567 106.122 74.4019 101.512 54.2732C96.9022 34.1444 76.8475 21.5641 56.7188 26.1742C36.59 30.7843 24.0097 50.8391 28.6198 70.9678C33.2299 91.0966 53.2847 103.677 73.4134 99.0668Z" fill="white"/>
<path fill-rule="evenodd" clip-rule="evenodd" d="M65.0599 36.8604L70.7999 54.6703L89.5099 54.6304L74.3499 65.6004L80.1699 83.3904L65.0599 72.3604L49.9398 83.3904L55.7599 65.6004L40.5999 54.6304L59.3099 54.6703L65.0599 36.8604Z" fill="#27AE60"/>
<path d="M65.8499 36.6106L71.4099 53.8306L89.5099 53.8006C89.9699 53.8006 90.3399 54.1706 90.3399 54.6306C90.3399 54.9106 90.1999 55.1506 89.9999 55.3006L75.3299 65.9106L80.9599 83.1206C81.0999 83.5606 80.86 84.0306 80.42 84.1706C80.13 84.2606 79.8299 84.1906 79.6199 84.0106L65.0399 73.3806L50.4099 84.0506C50.0399 84.3206 49.5199 84.2406 49.2499 83.8706C49.0899 83.6506 49.0499 83.3706 49.1299 83.1206L54.7599 65.9106L40.0899 55.3006C39.7199 55.0306 39.6299 54.5106 39.8999 54.1306C40.0799 53.8906 40.3599 53.7706 40.6399 53.7906L58.68 53.8206L64.2399 36.5906C64.3799 36.1506 64.8499 35.9106 65.2899 36.0506C65.5599 36.1406 65.7499 36.3406 65.8299 36.5906L65.8499 36.6106ZM70.0099 54.9206L65.06 39.5706L60.1099 54.9206C59.9999 55.2606 59.6899 55.5006 59.3199 55.5006L43.1898 55.4706L56.2599 64.9206C56.5499 65.1306 56.68 65.5006 56.56 65.8506L51.55 81.1806L64.5699 71.6806C64.8499 71.4606 65.26 71.4506 65.56 71.6806L78.5899 81.1906L73.5899 65.8906C73.4599 65.5506 73.5699 65.1506 73.8799 64.9306L86.9499 55.4806L70.8599 55.5106C70.4899 55.5306 70.1499 55.3006 70.0299 54.9306L70.0099 54.9206Z" fill="white"/>
</svg>
