<svg width="147" height="179" viewBox="0 0 147 179" fill="none" xmlns="http://www.w3.org/2000/svg">
<path d="M73.46 172.41C86.51 164.82 97.04 157.68 105.53 151.12C127.7 133.99 140.67 107.55 140.67 79.5303V32.5504C108.34 27.2904 73.47 6.61035 73.47 6.61035C73.47 6.61035 38.6 27.2904 6.27002 32.5504V79.5303C6.27002 107.54 19.24 133.99 41.41 151.12C49.9 157.68 60.43 164.82 73.48 172.41H73.46Z" fill="#4C4C4C"/>
<path d="M73.4601 179L70.6 177.34C58.29 170.19 47.29 162.88 37.91 155.64C26.35 146.71 16.8401 135.05 10.4001 121.93C3.97009 108.82 0.560059 94.16 0.560059 79.55V27.72L5.34009 26.94C36.2001 21.92 70.2101 1.92 70.55 1.72L73.4501 0L76.35 1.72C76.69 1.92 110.71 21.92 141.56 26.94L146.34 27.72V79.55C146.34 94.16 142.94 108.82 136.5 121.93C130.06 135.05 120.55 146.71 108.99 155.64C99.6101 162.89 88.61 170.19 76.3 177.34L73.4401 179H73.4601ZM11.9501 37.3V79.54C11.9501 105.62 24.2601 130.69 44.8701 146.62C53.1301 153 62.7301 159.45 73.4601 165.81C84.1801 159.45 93.79 153 102.05 146.62C122.67 130.69 134.97 105.62 134.97 79.54V37.3C108.55 31.92 82.1301 18.01 73.4601 13.17C64.7901 18.01 38.3701 31.91 11.9501 37.3Z" fill="#ADADAD"/>
<path d="M73.4601 169.01L71.7401 168.01C60.6001 161.54 50.6601 154.93 42.1801 148.39C31.8701 140.43 23.3901 130.03 17.6401 118.33C11.9001 106.63 8.87012 93.5597 8.87012 80.5297V34.8597L11.7401 34.3897C40.1701 29.7597 71.4001 11.3997 71.7101 11.2097L73.4501 10.1797L75.1901 11.2097C75.5001 11.3897 106.73 29.7597 135.16 34.3897L138.03 34.8597V80.5297C138.03 93.5597 135 106.63 129.26 118.33C123.52 130.03 115.03 140.43 104.72 148.39C96.2401 154.94 86.3001 161.54 75.1601 168.01L73.4401 169.01H73.4601ZM15.7101 40.6297V80.5297C15.7101 104.81 27.1701 128.16 46.3601 142.98C54.1701 149.01 63.2801 155.1 73.4601 161.1C83.6401 155.1 92.7501 149.01 100.56 142.98C119.75 128.15 131.21 104.8 131.21 80.5297V40.6297C105.98 35.8197 80.3401 21.9897 73.4601 18.0997C66.5801 21.9897 40.9401 35.8197 15.7101 40.6297Z" fill="white"/>
<path d="M101.55 63.8896L64.5499 100.89L45.2999 81.6396L36.9099 90.0296L64.5399 117.65L64.5499 117.64L64.5599 117.65L109.94 72.2697L101.55 63.8896Z" fill="#27AE60"/>
</svg>
