<svg width="148" height="52" viewBox="0 0 148 52" fill="none" xmlns="http://www.w3.org/2000/svg">
<path d="M40.5484 10.348C40.5307 10.2373 40.4766 10.1357 40.3948 10.0591C40.3129 9.98246 40.2079 9.93522 40.0963 9.92479C39.9158 9.8959 35.9508 9.62146 35.9508 9.62146L32.9276 6.59824C32.656 6.2949 32.0522 6.38446 31.824 6.44801C31.7951 6.44801 31.2202 6.62857 30.2828 6.93334C29.3699 4.29579 27.755 1.8749 24.9123 1.8749H24.6697C23.8536 0.820458 22.8569 0.333679 22.0119 0.333679C15.3906 0.362568 12.233 8.6219 11.2363 12.8426L6.60833 14.2625C5.18844 14.7146 5.135 14.7478 4.94722 16.1012L1.04578 46.1933L30.2929 51.6678L46.1442 48.2502C46.1442 48.2213 40.5788 10.6369 40.5499 10.3509L40.5484 10.348ZM28.6607 7.44179C27.924 7.68446 27.0718 7.92712 26.182 8.20012V7.65557C26.2109 6.2949 26.0043 4.94001 25.5782 3.64579C27.0602 3.87401 28.0569 5.53801 28.6607 7.44179ZM23.7929 3.99535C24.2768 5.42101 24.5151 6.92324 24.4544 8.42979V8.70135L19.3411 10.2902C20.3421 6.55346 22.1867 4.70601 23.79 4.01124L23.7929 3.99535ZM21.8284 2.15657C22.1318 2.16379 22.425 2.25768 22.6749 2.42812C20.5414 3.4219 18.2867 5.92946 17.3189 10.9503L13.2744 12.1897C14.4156 8.37923 17.0777 2.1479 21.8256 2.1479L21.8284 2.15657Z" fill="#9CA3AF"/>
<path d="M40.0978 9.92331C39.9173 9.89442 35.9523 9.61998 35.9523 9.61998L32.929 6.59675C32.8178 6.4812 32.6662 6.41764 32.5058 6.4162L30.2987 51.662L46.15 48.2444L40.5514 10.374C40.5138 10.1429 40.3318 9.95798 40.0993 9.92187L40.0978 9.92331Z" fill="#9CA3AF"/>
<path d="M24.9109 18.694L22.9435 24.5007C21.7548 23.9229 20.4533 23.6152 19.1331 23.5907C16.0463 23.5907 15.8975 25.5262 15.8975 26.0116C15.8975 28.6549 22.8236 29.6718 22.8236 35.9031C22.8236 40.8027 19.708 43.9487 15.5335 43.9487C10.5126 43.9487 7.94153 40.833 7.94153 40.833L9.27619 36.3841C9.27619 36.3841 11.9051 38.6519 14.1469 38.6519C14.4148 38.6625 14.6821 38.6185 14.9325 38.5226C15.183 38.4267 15.4113 38.281 15.6037 38.0941C15.796 37.9073 15.9484 37.6833 16.0516 37.4358C16.1547 37.1883 16.2065 36.9224 16.2038 36.6542C16.2038 33.1731 10.517 33.0229 10.517 27.3376C10.517 22.5565 13.9634 17.8981 20.891 17.8981C23.6137 17.9386 24.9152 18.6926 24.9152 18.6926L24.9109 18.694Z" fill="white"/>
<path d="M59.9069 27.3433C58.7759 26.7366 58.1909 26.2123 58.1909 25.4944C58.1909 24.5844 58.9854 23.9965 60.2753 23.9965C61.2328 24.0173 62.1771 24.2238 63.0558 24.6046L64.0987 21.4355C64.0987 21.4355 63.1425 20.696 60.3403 20.696C56.4316 20.696 53.7161 22.9349 53.7161 26.0809C53.7161 27.8604 54.9756 29.2298 56.6685 30.2062C58.0364 31.0006 58.5174 31.5264 58.5174 32.3555C58.5174 33.1846 57.8443 33.8765 56.5631 33.8765C54.6752 33.8765 52.8942 32.9001 52.8942 32.9001L51.7877 36.0692C51.7877 36.0692 53.4387 37.1756 56.1962 37.1756C60.2117 37.1756 63.1006 35.1996 63.1006 31.629C63.1223 29.6963 61.6663 28.3501 59.9228 27.3289L59.9069 27.3433ZM75.9316 20.6772C73.9556 20.6772 72.3927 21.6118 71.1967 23.0548L71.1303 23.0331L72.8463 14.0544H68.3757L64.0323 36.92H68.5057L70.0036 29.1026C70.5901 26.1502 72.1168 24.3244 73.5425 24.3244C74.5392 24.3244 74.9321 24.9975 74.9321 25.9754C74.9321 26.6399 74.8656 27.3 74.7371 27.9514L73.0442 36.8983H77.5176L79.2769 27.6539C79.469 26.6962 79.5803 25.7241 79.6019 24.7505C79.5803 22.2314 78.2557 20.7119 75.9331 20.7119L75.9316 20.6772ZM89.6972 20.6772C84.3123 20.6772 80.7503 25.5421 80.7503 30.9328C80.7503 34.4081 82.8996 37.1872 86.9181 37.1872C92.2004 37.1872 95.7783 32.4523 95.7783 26.9316C95.7783 23.7178 93.8904 20.6772 89.7044 20.6772H89.6972ZM87.5016 33.7711C85.9806 33.7711 85.3306 32.4711 85.3306 30.8678C85.3306 28.3053 86.6508 24.115 89.0891 24.115C90.6736 24.115 91.2023 25.4829 91.2023 26.8089C91.1965 29.5605 89.8734 33.7711 87.5045 33.7711H87.5016ZM107.218 20.6772C104.185 20.6772 102.483 23.3176 102.483 23.3176H102.417L102.681 20.9401H98.7192L97.8092 26.8695L94.7036 43.2438H99.1568L100.396 36.6195H100.483C100.483 36.6195 101.393 37.206 103.112 37.206C108.367 37.206 111.797 31.8211 111.797 26.3784C111.819 23.3812 110.477 20.6902 107.215 20.6902L107.218 20.6772ZM102.94 33.8361C102.265 33.8495 101.608 33.6175 101.091 33.1832L101.83 28.9914C102.359 26.2109 103.806 24.3432 105.369 24.3432C106.737 24.3432 107.149 25.6028 107.149 26.7988C107.156 29.7122 105.444 33.8375 102.946 33.8375L102.94 33.8361ZM118.208 14.2494C117.523 14.2451 116.864 14.5166 116.383 15.0034C115.902 15.4902 115.635 16.1503 115.661 16.835C115.661 18.1552 116.509 19.0739 117.774 19.0739H117.841C118.186 19.0876 118.53 19.0304 118.852 18.9059C119.175 18.7813 119.468 18.5921 119.714 18.3498C119.96 18.1075 120.154 17.8173 120.284 17.4972C120.414 17.177 120.476 16.8337 120.468 16.4883C120.468 15.1883 119.599 14.2494 118.229 14.2494H118.208ZM111.959 36.8766H116.432L119.471 21.0311H114.982M130.871 21.0094H127.747L127.9 20.2699C128.164 18.7489 129.073 17.381 130.54 17.381C131.027 17.3812 131.51 17.4542 131.975 17.5976L132.838 14.0978C132.838 14.0978 132.044 13.7078 130.406 13.7078C128.812 13.6681 127.256 14.1993 126.019 15.2056C124.498 16.5056 123.78 18.3748 123.419 20.2655L123.275 21.0051H121.19L120.537 24.3706H122.622L120.244 36.8795H124.734L127.111 24.3706H130.196L130.803 21.0051L130.871 21.0094ZM141.644 21.0311L137.582 31.9323H137.515L136.409 21.0311H131.694L134.388 35.5795C134.453 35.8282 134.422 36.0921 134.302 36.3191C133.717 37.3981 132.883 38.3211 131.869 39.013C131.092 39.5474 130.244 39.9721 129.35 40.2725L130.589 44.0714C132.228 43.6328 133.732 42.7946 134.967 41.6318C137.008 39.7193 138.896 36.7669 140.832 32.7484L146.304 21.0224H141.642L141.644 21.0311Z" fill="#9CA3AF"/>
</svg>
