
<svg width="364" height="367" viewBox="0 0 364 367" fill="none" xmlns="http://www.w3.org/2000/svg">
<path d="M167.97 0H167.96C75.1983 0 0 75.1983 0 167.96V167.97C0 260.732 75.1983 335.93 167.96 335.93H167.97C260.732 335.93 335.93 260.732 335.93 167.97V167.96C335.93 75.1983 260.732 0 167.97 0Z" fill="#0ACF83"/>
<g filter="url(#filter0_d_1711_31528)">
<path d="M176.13 10.5312H176.12C83.3582 10.5312 8.15991 85.7295 8.15991 178.491V178.501C8.15991 271.263 83.3582 346.461 176.12 346.461H176.13C268.892 346.461 344.09 271.263 344.09 178.501V178.491C344.09 85.7295 268.892 10.5312 176.13 10.5312Z" fill="white"/>
<path d="M176.13 10.5312H176.12C83.3582 10.5312 8.15991 85.7295 8.15991 178.491V178.501C8.15991 271.263 83.3582 346.461 176.12 346.461H176.13C268.892 346.461 344.09 271.263 344.09 178.501V178.491C344.09 85.7295 268.892 10.5312 176.13 10.5312Z" stroke="#E8E8E8" stroke-width="2" stroke-miterlimit="10"/>
</g>
<mask id="mask0_1711_31528" style="mask-type:alpha" maskUnits="userSpaceOnUse" x="7" y="9" width="339" height="339">
<path d="M176.13 10.5312H176.12C83.3582 10.5312 8.15991 85.7295 8.15991 178.491V178.501C8.15991 271.263 83.3582 346.461 176.12 346.461H176.13C268.892 346.461 344.09 271.263 344.09 178.501V178.491C344.09 85.7295 268.892 10.5312 176.13 10.5312Z" fill="white" stroke="#E8E8E8" stroke-width="2" stroke-miterlimit="10"/>
</mask>
<g mask="url(#mask0_1711_31528)">
<path d="M378.147 298.188C374.922 276.7 367.935 224.049 358.271 216.707C348.597 209.365 278.94 185.986 278.94 185.986L242.23 207.398L202.536 188.222C202.536 188.222 135.864 209.365 126.19 216.707C116.516 224.049 109.538 276.7 106.314 298.188L148.753 308.4L146.066 432.79V533.312C146.066 533.312 177.612 523.83 242.23 529.022C293.806 529.022 329.623 506.104 329.623 506.104L342.695 437.339L335.708 308.4L378.147 298.188Z" fill="#27AE60"/>
<path d="M214.446 145.342L210.339 185.545L202.517 188.222C202.517 188.222 207.814 213.07 242.211 213.569C271.924 214.001 278.921 185.986 278.921 185.986L270.763 183.539L268.344 153.672L214.427 145.342H214.446Z" fill="#FFC4AE"/>
<path d="M214.513 151.014C214.513 151.014 228.794 177.272 243.104 180.353C263.411 184.729 269.746 169.805 269.746 169.805L269.448 167.07L214.513 151.014Z" fill="#D9A280"/>
<path d="M365.296 230.461C365.296 230.461 385.988 298.064 385.988 357.51C385.988 416.955 353.655 494.808 353.655 494.808L332.963 488.561L341.879 421.639L326.83 292.411C326.83 292.411 350.219 252.967 348.904 251.412C347.589 249.857 365.306 230.471 365.306 230.471L365.296 230.461Z" fill="#5C6166"/>
<path d="M335.698 308.399V265.96C335.698 265.96 330.861 357.288 323.874 385.763C316.887 414.238 299.699 442.176 299.699 442.176C299.699 442.176 324.949 418.537 331.936 402.961L324.441 485.162L340.142 390.437L335.698 308.409V308.399Z" fill="#1B3A54"/>
<path d="M117.446 312.238C133.359 316.039 140.173 294.378 143.589 281.066C147.755 263.58 150.029 246.478 146.996 228.233C146.142 223.156 144.866 218.329 143.234 213.703C139.338 215.335 135.451 216.966 131.554 218.598C127.869 220.671 104.653 234.289 98.6837 262.803C98.6837 262.803 96.2364 274.483 100.901 291.931C104.72 300.606 108.243 309.925 117.446 312.238Z" fill="#152E42"/>
<path d="M184.359 249.069V196.485L143.234 213.712C144.866 218.338 146.142 223.166 146.997 228.243C150.029 246.487 147.755 263.59 143.59 281.076C140.183 294.378 133.32 311.653 117.408 307.852C108.204 305.539 104.721 300.625 100.901 291.94C102.907 299.445 106.227 308.015 111.621 317.19C113.128 319.762 115.537 322.862 119.318 324.206C136.353 330.291 147.745 309.8 148.743 308.399C147.361 320.924 149.78 363.036 148.388 375.561L292.568 356.51V249.078H184.359V249.069Z" fill="#27AE60"/>
<path d="M162.429 252.131C163.408 248.005 163.955 243.763 164.358 239.53C164.473 239.271 164.588 239.012 164.713 238.753C166.642 234.645 166.824 229.242 166.824 229.242C166.978 225.384 166.287 222.178 165.625 220C165.74 217.216 164.147 214.836 161.93 214.184C159.866 213.579 158.053 214.692 157.726 214.904C157.189 214.683 156.479 214.846 156.354 215.547C155.25 221.612 154.108 227.61 153.225 233.724C152.361 239.713 151.968 245.778 151.603 251.824C151.517 253.312 151.44 254.799 151.373 256.287C151.315 257.592 151.075 259.137 151.785 260.337C152.371 261.316 153.11 261.757 153.906 261.853C154.338 264.061 157.697 264.454 158.916 262.506C160.03 260.731 160.701 258.821 161.133 256.853C161.412 256.085 161.651 255.318 161.863 254.531C162.151 253.744 162.352 252.938 162.448 252.131H162.429Z" fill="#FFC4AE"/>
<path d="M81.5527 268.744C83.5778 273.562 87.4743 281.115 94.8354 288.073C100.786 293.707 108.243 300.761 118.963 300.703C130.72 300.645 142.822 292.037 145.893 280.357C147.189 275.405 146.593 270.971 145.893 268.072C124.453 268.293 103.003 268.523 81.5623 268.744H81.5527Z" fill="#EE7B51"/>
<path d="M81.5527 268.744C83.5778 273.562 87.4743 281.115 94.8354 288.073C100.786 293.707 108.243 300.761 118.963 300.703C130.72 300.645 142.822 292.037 145.893 280.357C147.189 275.405 146.593 270.971 145.893 268.072C124.453 268.293 103.003 268.523 81.5623 268.744H81.5527Z" fill="#FFC4AE"/>
<path d="M143.954 281.825L90.5644 278.84C85.2955 278.542 81.2647 274.022 81.5526 268.734L88.549 142.645C88.8465 137.357 93.3477 133.307 98.6166 133.604L152.006 136.589C157.275 136.887 161.306 141.407 161.018 146.695L154.022 272.784C153.724 278.072 149.223 282.122 143.954 281.825Z" fill="#0F1116"/>
<path d="M141.468 277.621L93.4917 274.944C88.2228 274.646 84.1919 270.126 84.4798 264.838L91.0348 146.618C91.1787 143.979 92.3784 141.638 94.2019 140.006C96.3517 138.077 98.8854 137.827 101.102 137.578C103.578 137.309 105.632 137.607 106.947 137.895C108.137 139.469 109.327 141.042 110.517 142.626C119.817 143 129.117 143.375 138.426 143.749C139.674 142.501 140.912 141.254 142.159 140.006C145.163 139.574 147.582 139.929 149.089 140.265C151.334 140.774 153.772 141.302 155.682 143.442C157.314 145.275 158.245 147.722 158.101 150.371L151.546 268.59C151.248 273.878 146.747 277.928 141.478 277.631L141.468 277.621Z" fill="url(#paint0_linear_1711_31528)"/>
<path d="M87.5701 203.405C87.1286 202.292 86.3225 201.399 85.9962 200.229C85.6699 199.039 85.6123 197.81 85.4587 196.601C85.4779 196.524 85.4971 196.457 85.5067 196.38C85.5931 195.804 85.6795 195.209 85.7754 194.614C85.7754 194.576 85.7754 194.528 85.7754 194.489C85.9482 194.355 86.0633 194.154 86.0058 193.942C86.1401 191.265 86.2361 188.625 86.4184 185.967C86.428 184.518 86.4568 183.059 86.4952 181.61H86.476C86.4568 181.485 86.3609 181.389 86.2073 181.428C85.3435 181.667 84.499 181.955 83.6832 182.32C83.0882 182.589 82.474 182.886 81.9365 183.27C78.3759 184.748 75.3144 187.167 72.9727 190.324C71.5331 192.263 70.2086 194.624 69.7384 197.013C69.2009 199.758 70.5733 202.446 71.9937 204.72C74.681 208.991 80.401 214.164 85.5547 210.248C87.6469 208.655 88.549 205.881 87.5797 203.405H87.5701Z" fill="#EE7B51"/>
<path d="M87.4742 235.192C86.4473 231.958 84.9789 228.867 84.1823 225.566C84.1439 225.422 84.1151 225.268 84.0863 225.124C84.4222 220.988 84.6718 216.832 84.6526 212.677C84.6814 212.465 84.7102 212.254 84.739 212.043C84.7582 211.928 84.7102 211.822 84.595 211.784C83.9328 211.554 83.1842 211.678 82.5028 211.774C81.7254 211.88 80.9576 212.053 80.2282 212.35C79.5372 212.638 78.8462 213.041 78.328 213.588C75.4104 215.825 75.0265 221.497 73.5581 224.5C72.3489 226.986 70.1703 229.27 70.5926 232.226C70.9573 234.77 72.9631 236.2 74.1724 238.282C75.5448 240.643 75.0553 243.695 76.6676 245.989C78.1744 248.119 81.1976 247.62 83.3953 247.064C88.9522 245.653 88.885 239.674 87.4646 235.201L87.4742 235.192Z" fill="#EE7B51"/>
<path d="M87.5701 203.405C87.1286 202.292 86.3225 201.399 85.9962 200.229C85.6699 199.039 85.6123 197.81 85.4587 196.601C85.4779 196.524 85.4971 196.457 85.5067 196.38C85.5931 195.804 85.6795 195.209 85.7754 194.614C85.7754 194.576 85.7754 194.528 85.7754 194.489C85.9482 194.355 86.0633 194.154 86.0058 193.942C86.1401 191.265 86.2361 188.625 86.4184 185.967C86.428 184.518 86.4568 183.059 86.4952 181.61H86.476C86.4568 181.485 86.3609 181.389 86.2073 181.428C85.3435 181.667 84.499 181.955 83.6832 182.32C83.0882 182.589 82.474 182.886 81.9365 183.27C78.3759 184.748 75.3144 187.167 72.9727 190.324C71.5331 192.263 70.2086 194.624 69.7384 197.013C69.2009 199.758 70.5733 202.446 71.9937 204.72C74.681 208.991 80.401 214.164 85.5547 210.248C87.6469 208.655 88.549 205.881 87.5797 203.405H87.5701Z" fill="#FFC4AE"/>
<path d="M87.4742 235.192C86.4473 231.958 84.9789 228.867 84.1823 225.566C84.1439 225.422 84.1151 225.268 84.0863 225.124C84.4222 220.988 84.6718 216.832 84.6526 212.677C84.6814 212.465 84.7102 212.254 84.739 212.043C84.7582 211.928 84.7102 211.822 84.595 211.784C83.9328 211.554 83.1842 211.678 82.5028 211.774C81.7254 211.88 80.9576 212.053 80.2282 212.35C79.5372 212.638 78.8462 213.041 78.328 213.588C75.4104 215.825 75.0265 221.497 73.5581 224.5C72.3489 226.986 70.1703 229.27 70.5926 232.226C70.9573 234.77 72.9631 236.2 74.1724 238.282C75.5448 240.643 75.0553 243.695 76.6676 245.989C78.1744 248.119 81.1976 247.62 83.3953 247.064C88.9522 245.653 88.885 239.674 87.4646 235.201L87.4742 235.192Z" fill="#FFC4AE"/>
<path d="M88.3762 153.634C86.3416 151.11 82.8194 148.998 79.6715 149.612C78.491 149.277 77.2722 149.133 76.0341 149.469C71.8977 150.591 71.0244 154.997 72.6559 158.461C74.3162 161.983 76.9267 165.323 80.4393 167.118C80.7656 167.281 81.1015 167.435 81.4662 167.588C82.7234 168.346 84.0959 168.874 85.2571 168.797C85.545 168.778 85.8042 168.711 86.0537 168.615C88.1459 168.673 90.1517 168.078 91.409 166.312C94.0098 162.665 90.7851 156.619 88.3858 153.634H88.3762Z" fill="#EE7B51"/>
<path d="M88.3762 153.634C86.3416 151.11 82.8194 148.998 79.6715 149.612C78.491 149.277 77.2722 149.133 76.0341 149.469C71.8977 150.591 71.0244 154.997 72.6559 158.461C74.3162 161.983 76.9267 165.323 80.4393 167.118C80.7656 167.281 81.1015 167.435 81.4662 167.588C82.7234 168.346 84.0959 168.874 85.2571 168.797C85.545 168.778 85.8042 168.711 86.0537 168.615C88.1459 168.673 90.1517 168.078 91.409 166.312C94.0098 162.665 90.7851 156.619 88.3858 153.634H88.3762Z" fill="#FFC4AE"/>
<path d="M170.875 217.84C170.875 217.84 170.875 217.792 170.875 217.764C171.057 212.898 165.711 210.268 162.429 207.792C160.807 206.564 158.82 204.375 156.776 204.011C155.816 203.838 154.962 204.088 154.252 204.577C152.256 205.412 151.632 208.051 151.344 210.086C150.787 214.136 151.987 218.311 155.154 220.365C156.085 221.468 157.304 222.342 158.686 222.706C160.989 223.954 163.657 224.405 166.469 223.647C168.84 223.004 171.163 221.583 171.019 218.839C170.999 218.503 170.942 218.167 170.855 217.831L170.875 217.84Z" fill="#FFC4AE"/>
<path d="M88.0979 262.131C87.4549 257.668 84.451 254.031 83.6832 249.607C83.6544 249.434 83.5584 249.319 83.4433 249.242C83.4241 249.156 83.4049 249.069 83.3857 248.983C83.4625 248.839 83.5488 248.695 83.6352 248.551C83.7888 248.311 83.5872 248.014 83.3185 248.004C83.1553 248.004 83.0114 248.033 82.8578 248.081C82.7715 248.081 82.6851 248.081 82.6083 248.138C82.4835 248.225 82.3684 248.33 82.2628 248.426C82.2148 248.465 82.1764 248.513 82.1284 248.561C81.8405 248.561 81.5526 248.657 81.3319 248.925C79.0285 251.776 76.4948 254.808 75.372 258.35C75.4103 258.513 75.4487 258.686 75.4871 258.849C75.2088 260.164 75.276 261.536 75.4103 262.88C75.5927 264.751 75.7463 266.603 75.6215 268.484C75.5543 269.454 75.4391 270.414 75.2568 271.373C75.0744 272.314 74.8633 273.245 74.7673 274.204C74.6138 275.759 74.9593 277.535 76.1781 278.619C76.6004 278.994 77.1187 279.233 77.6465 279.339C81.0919 280.923 84.8733 277.688 86.428 274.809C88.4147 271.124 88.6738 266.191 88.0884 262.112L88.0979 262.131Z" fill="#EE7B51"/>
<path d="M88.0979 262.131C87.4549 257.668 84.451 254.031 83.6832 249.607C83.6544 249.434 83.5584 249.319 83.4433 249.242C83.4241 249.156 83.4049 249.069 83.3857 248.983C83.4625 248.839 83.5488 248.695 83.6352 248.551C83.7888 248.311 83.5872 248.014 83.3185 248.004C83.1553 248.004 83.0114 248.033 82.8578 248.081C82.7715 248.081 82.6851 248.081 82.6083 248.138C82.4835 248.225 82.3684 248.33 82.2628 248.426C82.2148 248.465 82.1764 248.513 82.1284 248.561C81.8405 248.561 81.5526 248.657 81.3319 248.925C79.0285 251.776 76.4948 254.808 75.372 258.35C75.4103 258.513 75.4487 258.686 75.4871 258.849C75.2088 260.164 75.276 261.536 75.4103 262.88C75.5927 264.751 75.7463 266.603 75.6215 268.484C75.5543 269.454 75.4391 270.414 75.2568 271.373C75.0744 272.314 74.8633 273.245 74.7673 274.204C74.6138 275.759 74.9593 277.535 76.1781 278.619C76.6004 278.994 77.1187 279.233 77.6465 279.339C81.0919 280.923 84.8733 277.688 86.428 274.809C88.4147 271.124 88.6738 266.191 88.0884 262.112L88.0979 262.131Z" fill="#FFC4AE"/>
<path d="M214.312 172.176C214.37 172.147 214.418 172.128 214.418 172.128C214.418 172.128 214.38 172.138 214.312 172.176Z" fill="url(#paint1_linear_1711_31528)"/>
<path d="M187.439 111.454C181.921 112.49 183.13 116.291 185.549 122.961C187.891 140.677 192.392 144.209 194.311 143.134C197.804 141.157 194.129 110.206 187.449 111.454H187.439Z" fill="#F0C499"/>
<path d="M191.902 136.666C191.902 136.666 189.32 133.346 190.357 127.127C192.785 112.443 183.898 110.974 185.606 121.176C185.606 121.176 186.998 116.483 188.073 117.961C189.407 119.775 186.499 120.6 187.718 128.297C188.361 132.3 191.902 136.666 191.902 136.666Z" fill="url(#paint2_linear_1711_31528)"/>
<path d="M290.658 111.328C296.225 112.096 295.226 115.964 293.201 122.73C291.867 140.533 287.568 144.276 285.6 143.287C282.001 141.483 283.921 110.397 290.668 111.328H290.658Z" fill="#F0C499"/>
<path d="M287.625 136.713C287.625 136.713 290.015 133.277 288.633 127.106C285.37 112.556 294.171 110.675 293.038 120.935C293.038 120.935 291.388 116.319 290.389 117.844C289.161 119.716 292.107 120.407 291.33 128.152C290.917 132.183 287.625 136.713 287.625 136.713Z" fill="url(#paint3_linear_1711_31528)"/>
<path d="M286.32 110.455C287.971 68.7841 275.341 63.1601 271.752 58.9085C264.429 50.2614 252.931 46.4896 233.267 46.9599C233.267 46.9599 207.651 47.8716 201.25 62.0852C194.398 77.2777 193.035 98.1902 193.639 117.778C194.369 141.551 193.649 149.296 199.935 159.354C206.221 169.402 217.22 175.237 226.03 183.548C228.266 185.65 245.935 191.62 256.857 181.024C261.962 176.072 275.351 166.456 279.852 159.354C284.353 152.261 286.052 134.41 285.927 131.934C285.274 118.508 285.888 122.049 286.34 110.465L286.32 110.455Z" fill="url(#paint4_linear_1711_31528)"/>
<path d="M266.31 149.853C274.4 150.4 284.218 149.363 285.907 132.357C286.877 122.664 285.082 117.615 281.08 116.857C272.586 115.245 260.408 119.017 255.331 121.694C244.61 127.357 251.972 148.874 266.31 149.862V149.853Z" fill="url(#paint5_radial_1711_31528)"/>
<path d="M240.973 171.907C238.161 171.917 231.117 173.846 231.318 174.892C231.932 178.05 238.458 178.577 241.27 178.558C244.082 178.549 249.774 177.819 249.889 175.132C249.937 174.076 243.785 171.898 240.973 171.907Z" fill="url(#paint6_linear_1711_31528)"/>
<path d="M221.529 120.879C219.216 120.015 201.595 115.946 196.355 117.501C193.361 118.384 193.85 125.217 194.35 131.695C194.589 134.805 194.551 139.786 195.242 141.744C198.63 151.331 212.325 151.754 219.792 149.076C232.527 144.508 233.276 125.217 221.539 120.87L221.529 120.879Z" fill="url(#paint7_radial_1711_31528)"/>
<path d="M215.703 146.58C215.147 143.912 213.726 145.687 213.726 145.687C213.726 145.687 212.354 159.594 213.726 162.099C215.099 164.603 227.911 173.587 227.911 173.587C227.911 173.587 217.508 162.271 216.433 158.173C215.905 156.158 216.25 149.171 215.713 146.589L215.703 146.58Z" fill="url(#paint8_linear_1711_31528)"/>
<path d="M265.465 146.657C265.014 149.124 265.417 156.072 264.861 158.174C263.642 162.8 252.95 173.433 252.95 173.433C252.95 173.433 264.17 168.625 267.903 161.427C271.646 154.229 267.366 145.352 267.366 145.352C267.366 145.352 266.012 143.682 265.465 146.657Z" fill="url(#paint9_linear_1711_31528)"/>
<path d="M280.13 121.502C278.671 120.676 277.587 121.876 274.554 122.884C271.579 123.872 263.45 125.437 267.269 127.538C271.492 129.871 277.395 126.675 278.114 126.08C278.834 125.485 281.944 122.529 280.139 121.502H280.13Z" fill="url(#paint10_linear_1711_31528)"/>
<path d="M260.667 148.662C260.667 148.662 265.868 147.434 266.329 147.06C266.79 146.685 267.202 145.342 267.202 145.342L263.891 146.359L260.657 148.662H260.667Z" fill="#E1B18C"/>
<path d="M213.573 145.687C213.573 145.687 213.986 147.03 214.446 147.404C214.907 147.779 220.109 149.007 220.109 149.007L216.874 146.704L213.563 145.687H213.573Z" fill="#E1B18C"/>
<path d="M229.85 168.653C243.641 167.108 252.95 168.836 252.95 168.836C242.489 162.242 229.85 168.653 229.85 168.653Z" fill="url(#paint11_linear_1711_31528)"/>
<path d="M214.801 146.34C215.08 146.637 215.281 147.04 215.646 147.204C222.268 150.169 222.354 153.01 225.195 154.555C235.263 160.045 246.991 158.711 254.899 154.296C259.438 151.753 260.024 148.797 265.465 146.647C266.195 146.359 266.339 145.783 266.339 145.783C237.288 152.981 214.811 146.33 214.811 146.33L214.801 146.34Z" fill="#711E22"/>
<path d="M240.829 160.342C236.913 160.342 233.046 159.564 233.046 160.342C233.046 161.119 236.453 162.837 240.369 162.837C244.284 162.837 248.161 161.109 248.161 160.342C248.161 159.574 244.754 160.342 240.829 160.342Z" fill="#FDD8B3"/>
<path d="M252.144 152.452C249.476 152.999 244.466 154.017 239.869 154.017C234.802 154.017 229.658 153.076 226.855 152.558C225.627 152.328 225.099 154.497 225.099 154.497C228.794 157.222 233.228 158.259 240.33 158.307C249.812 158.374 255.043 154.218 255.043 154.218C255.043 154.218 253.709 152.126 252.154 152.443L252.144 152.452Z" fill="url(#paint12_linear_1711_31528)"/>
<path d="M226.366 161.35C241.491 173.538 255.964 160.515 255.964 160.515C240.676 168.749 226.366 161.35 226.366 161.35Z" fill="url(#paint13_linear_1711_31528)"/>
<path d="M221.375 147.741C221.375 147.741 221.471 150.255 224.005 151.369C225.473 152.012 228.756 154.545 241.539 154.142C254.323 153.749 256.837 150.62 257.423 150.073C258.507 149.056 258.997 147.338 258.997 147.338C258.997 147.338 239.745 151.148 221.366 147.741H221.375Z" fill="url(#paint14_linear_1711_31528)"/>
<path d="M221.327 147.501C221.327 147.501 221.414 148.643 221.826 149.324C222.182 149.89 232.383 151.397 240.1 151.445C247.806 151.493 257.874 149.478 258.229 149.036C258.786 148.336 259.093 147.088 259.093 147.088C259.093 147.088 250.417 150.044 221.327 147.501Z" fill="#F3ECEB"/>
<path d="M213.227 145.543C213.227 145.543 215.089 146.637 214.801 146.34C214.801 146.34 237.278 152.991 266.329 145.793L267.903 144.996C252.125 147.664 213.218 145.543 213.218 145.543H213.227Z" fill="url(#paint15_linear_1711_31528)"/>
<path d="M203.112 123.24C200.031 122.385 198.889 121.243 197.468 122.146C195.722 123.268 198.975 126.052 199.724 126.608C200.463 127.175 206.528 130.044 210.626 127.501C214.34 125.197 206.144 124.075 203.121 123.23L203.112 123.24Z" fill="url(#paint16_linear_1711_31528)"/>
<path d="M249.716 100.647C249.092 104.697 245.407 119.63 247.758 121.031C262.442 129.784 278.508 118.699 278.508 118.699C279.66 93.4777 249.726 100.647 249.726 100.647H249.716Z" fill="url(#paint17_linear_1711_31528)"/>
<path d="M199.954 119.055C199.954 119.055 215.55 129.612 230.56 119.832C232.854 118.335 228.324 105.081 227.69 101.021C227.69 101.021 198.697 91.616 199.954 119.045V119.055Z" fill="url(#paint18_linear_1711_31528)"/>
<path d="M216.404 107.961C213.947 107.826 208.707 108.575 206.951 109.957C203.822 112.414 202.718 114.65 202.987 117.462C203.064 118.287 206.413 121.483 213.525 122.03C218.842 122.443 227.297 122.05 229.341 119.785C230.32 118.7 229.063 114.372 228.66 112.836C227.911 109.938 223.871 108.373 216.404 107.961Z" fill="url(#paint19_linear_1711_31528)"/>
<path d="M221.625 110.954C210.214 109.572 210.905 111.29 206.279 116.646C206.279 116.646 206.356 117.49 206.979 118.45C207.622 119.429 209.456 120.801 211.73 121.243C219.062 122.644 221.395 121.607 224.514 120.964C225.848 120.696 227.316 119.41 227.287 118.834C227.287 118.834 227.527 116.463 226.577 114.342C225.848 112.72 224.408 111.29 221.625 110.954Z" fill="url(#paint20_linear_1711_31528)"/>
<path d="M206.279 116.646C206.298 116.992 206.519 117.74 206.931 118.374C215.128 113.239 223.976 114.419 226.577 114.343C221.942 111.348 215.156 112.011 211.816 111.646C207.555 111.176 206.279 116.646 206.279 116.646Z" fill="#DDDDDD"/>
<path d="M216.989 111.608C213.275 111.791 210.185 114.708 210.646 118.413C210.742 119.2 210.838 120.188 211.73 121.225C212.402 121.426 215.118 121.954 217.085 121.925C219.725 122.031 222.143 121.551 222.767 121.34C222.93 121.177 223.717 119.574 223.804 118.125C224.024 114.305 221.433 111.378 216.999 111.599L216.989 111.608Z" fill="url(#paint21_linear_1711_31528)"/>
<path d="M216.711 111.127C212.719 111.454 210.972 114.87 210.742 116.415C210.742 116.415 215.166 114.256 222.863 114.275C222.863 114.275 220.704 110.791 216.711 111.127Z" fill="url(#paint22_linear_1711_31528)"/>
<path d="M217.114 112.683C214.897 112.721 213.131 114.526 213.16 116.704C213.189 118.893 215.022 120.63 217.229 120.591C219.446 120.543 221.212 118.749 221.183 116.56C221.155 114.372 219.322 112.635 217.114 112.673V112.683Z" fill="url(#paint23_radial_1711_31528)"/>
<path d="M224.245 111.618C220.224 109.344 213.938 109.775 209.926 111.426C206.001 113.039 206.269 116.647 206.269 116.647C206.269 116.647 208.333 114.277 215.08 113.346C221.826 112.415 226.577 114.344 226.577 114.344C226.577 114.344 225.8 112.501 224.245 111.618Z" fill="url(#paint24_linear_1711_31528)"/>
<path d="M220.396 116.954C219.533 117.386 219.158 118.404 219.561 119.21C219.965 120.026 221.001 120.333 221.855 119.891C222.719 119.459 223.093 118.452 222.69 117.636C222.287 116.82 221.26 116.523 220.396 116.954Z" fill="white"/>
<path d="M216.817 115.285C216.135 115.62 215.847 116.417 216.164 117.05C216.481 117.693 217.297 117.933 217.978 117.588C218.659 117.252 218.957 116.455 218.631 115.822C218.304 115.179 217.498 114.949 216.807 115.285H216.817Z" fill="white"/>
<path d="M271.06 109.957C269.304 108.575 264.064 107.826 261.607 107.961C254.131 108.373 250.09 109.938 249.351 112.836C248.948 114.372 247.691 118.7 248.67 119.785C250.714 122.04 259.169 122.443 264.486 122.03C271.598 121.483 274.938 118.287 275.024 117.462C275.293 114.64 274.189 112.414 271.06 109.957Z" fill="url(#paint25_linear_1711_31528)"/>
<path d="M256.396 110.954C253.603 111.29 252.173 112.72 251.444 114.342C250.494 116.454 250.733 118.834 250.733 118.834C250.695 119.41 252.173 120.686 253.507 120.964C256.626 121.607 258.968 122.644 266.291 121.243C268.575 120.801 270.408 119.438 271.041 118.45C271.665 117.49 271.742 116.646 271.742 116.646C267.116 111.29 267.807 109.572 256.396 110.954Z" fill="url(#paint26_linear_1711_31528)"/>
<path d="M266.204 111.637C262.864 112.011 256.069 111.34 251.444 114.334C254.044 114.411 262.893 113.23 271.089 118.365C271.502 117.731 271.723 116.983 271.742 116.637C271.742 116.637 270.465 111.167 266.204 111.637Z" fill="#DDDDDD"/>
<path d="M261.022 111.607C256.597 111.387 253.996 114.304 254.217 118.134C254.304 119.583 255.091 121.186 255.254 121.349C255.878 121.55 258.296 122.04 260.935 121.934C262.893 121.963 265.619 121.435 266.291 121.234C267.183 120.197 267.279 119.208 267.375 118.422C267.826 114.717 264.745 111.799 261.031 111.617L261.022 111.607Z" fill="url(#paint27_linear_1711_31528)"/>
<path d="M261.31 111.128C257.317 110.802 255.158 114.276 255.158 114.276C262.855 114.257 267.279 116.416 267.279 116.416C267.049 114.871 265.312 111.454 261.31 111.128Z" fill="url(#paint28_linear_1711_31528)"/>
<path d="M260.907 112.682C258.699 112.644 256.876 114.381 256.837 116.569C256.808 118.757 258.574 120.552 260.791 120.6C263.008 120.638 264.832 118.892 264.861 116.713C264.889 114.525 263.123 112.721 260.907 112.692V112.682Z" fill="url(#paint29_radial_1711_31528)"/>
<path d="M268.085 111.426C264.074 109.775 257.787 109.344 253.766 111.618C252.211 112.501 251.434 114.344 251.434 114.344C251.434 114.344 256.175 112.415 262.932 113.346C269.678 114.277 271.742 116.647 271.742 116.647C271.742 116.647 272.011 113.039 268.085 111.426Z" fill="url(#paint30_linear_1711_31528)"/>
<path d="M264.189 116.772C263.248 116.887 262.567 117.78 262.673 118.759C262.778 119.738 263.632 120.429 264.582 120.314C265.533 120.198 266.214 119.315 266.099 118.327C265.993 117.358 265.139 116.657 264.189 116.772Z" fill="white"/>
<path d="M260.427 115.141C259.678 115.227 259.15 115.928 259.227 116.695C259.323 117.463 259.995 118.02 260.743 117.924C261.492 117.837 262.02 117.137 261.943 116.369C261.857 115.601 261.175 115.045 260.436 115.141H260.427Z" fill="white"/>
<path d="M270.465 100.772C262.269 97.8925 257.183 97.9597 251.088 98.1901C250.493 99.2362 250.724 100.455 251.108 101.635C250.407 100.58 250.052 99.5337 250.282 98.3052C248.728 99.0442 250.349 103.373 250.349 103.373C253.2 103.517 260.609 103.008 266.089 104.025C272.51 105.215 275.149 106.137 275.149 106.137C275.149 106.137 274.515 102.202 270.475 100.772H270.465Z" fill="url(#paint31_linear_1711_31528)"/>
<path d="M227.441 98.3063C227.671 99.5347 227.316 100.581 226.615 101.637C226.999 100.446 227.239 99.2372 226.635 98.1911C220.54 97.9512 215.444 97.8936 207.258 100.773C203.208 102.203 202.584 106.138 202.584 106.138C202.584 106.138 205.223 105.216 211.644 104.026C217.124 103.019 224.533 103.518 227.383 103.374C227.383 103.374 228.996 99.0452 227.45 98.3063H227.441Z" fill="url(#paint32_linear_1711_31528)"/>
<path d="M274.007 65.781C256.022 53.0166 207.882 65.5794 202.958 65.6946C198.035 65.8098 193.783 128.95 193.783 128.95C193.783 128.95 198.563 109.439 202.958 103.076C214.907 85.7817 201.24 75.7045 211.922 73.2572C218.036 71.856 226.443 79.5243 235.762 75.8485C254.524 68.4394 260.59 79.0924 268.21 68.9289C275.072 74.1978 266.108 87.3748 278.863 105.226C281.723 109.228 285.428 126.311 285.428 126.311C285.428 126.311 292.002 78.5357 274.016 65.7714L274.007 65.781Z" fill="url(#paint33_linear_1711_31528)"/>
<path d="M269.467 145.841C269.467 145.841 272.692 155.323 275.063 156.072C277.424 156.82 282.424 151.964 282.318 133.825C282.318 133.825 279.353 163.711 269.467 145.841Z" fill="url(#paint34_linear_1711_31528)"/>
<path d="M205.041 150.496C201.845 148.672 198.611 135.773 198.611 135.773C198.611 135.773 199.378 152.156 204.273 155.371C209.158 158.586 211.471 145.841 211.471 145.841C211.471 145.841 208.237 152.329 205.041 150.505V150.496Z" fill="url(#paint35_linear_1711_31528)"/>
<path d="M283.249 105.023C282.001 133.844 283.527 153.336 275.36 153.47C273.633 153.499 270.514 145.735 266.771 143.019C265.984 142.443 263.239 141.704 259.419 141.051L252.116 139.094L246.981 138.239L243.209 139.564C242.336 139.545 241.472 139.545 240.599 139.554C239.39 139.564 238.19 139.602 237 139.65L233.996 138.614H228.42L214.763 142.616C214.533 142.673 214.35 142.731 214.235 142.769C211.116 143.854 208.793 153.537 206.404 153.47C198.064 153.24 197.881 129.132 196.96 105.023C196.672 97.5182 193.774 128.949 193.774 128.949C194.666 155.303 196.451 151.013 201.442 160.256C204.955 166.763 210.857 171.744 220.512 180.467C224.552 184.114 228.41 188.616 241.702 188.932C250.801 189.153 257.183 184.613 257.183 184.613C269.439 169.114 276.886 167.473 280.677 157.309C286.963 140.456 286.234 122.471 286.234 122.471L283.249 105.023ZM266.694 155.985C265.782 161.954 257.653 170.246 252.941 173.423C249.102 176.014 247.451 166.542 240.589 166.542C233.727 166.542 231.827 176.465 227.345 173.241C224.245 171.014 215.943 163.499 214.792 157.069C214.053 152.904 213.688 148.317 213.717 145.677C213.717 145.677 249.975 147.078 267.356 145.341C267.356 145.341 267.567 150.246 266.684 155.985H266.694Z" fill="#A89383"/>
<path d="M193.783 128.949C193.783 128.949 193.85 145.984 196.969 154.037C200.079 162.089 205.703 167.693 209.043 171.264C212.383 174.834 222.882 182.646 222.882 182.646C222.882 182.646 213.88 169.949 211.644 167.338C209.408 164.728 196.566 157.722 193.783 128.949Z" fill="url(#paint36_linear_1711_31528)"/>
<path d="M268.421 169.306C266.185 171.916 257.183 184.613 257.183 184.613C257.183 184.613 268.344 174.93 271.684 171.36C275.024 167.789 279.784 163.423 282.894 155.37C286.003 147.318 286.08 130.005 286.08 130.005C283.297 158.778 270.657 166.686 268.421 169.306Z" fill="url(#paint37_linear_1711_31528)"/>
<path d="M232.182 176.591C226.711 181.956 235.253 183.529 240.148 184.009C245.052 184.48 254.697 183.309 249.188 176.907C243.679 170.506 233.89 174.911 232.172 176.591H232.182Z" fill="url(#paint38_linear_1711_31528)"/>
<path d="M249.083 137.318L240.57 140.62L233.698 138.096L228.429 138.614L214.763 142.616L264.381 142.107L252.116 139.103L249.083 137.318Z" fill="url(#paint39_linear_1711_31528)"/>
<path d="M243.881 121.464C244.351 112.135 241.127 110.791 238.737 110.878C236.414 110.964 235.128 114.189 235.599 121.31C236.069 128.393 234.696 131.118 235.013 134.439C235.157 135.955 235.848 136.944 239.629 136.973C243.785 137.002 245.225 136.013 245.407 134.593C245.896 130.725 243.545 128.191 243.881 121.464Z" fill="url(#paint40_linear_1711_31528)"/>
<path d="M244.342 139.602C249.956 138.192 252.173 139.027 252.173 139.027C248.9 136.119 244.342 139.602 244.342 139.602Z" fill="#DCA57B"/>
<path d="M228.429 138.614C228.429 138.614 231.347 138.134 235.762 139.651C235.762 139.651 231.453 136.349 228.429 138.614Z" fill="#DCA57B"/>
<path d="M248.689 130.14C248.651 132.472 249.188 134.036 248.488 135.361C246.923 138.326 242.883 139.497 240.176 139.276C238.123 139.526 233.324 138.489 231.328 135.38C230.512 134.113 231.021 132.98 230.656 130.495C230.656 130.495 225.099 137.29 228.429 138.614C228.429 138.614 229.408 137.875 232.095 138.115C234.783 138.365 234.226 141.349 240.397 141.416C245.772 141.464 244.063 138.854 247.48 138.365C250.897 137.865 251.338 138.758 252.115 139.104C253.824 139.104 252.595 133.355 248.689 130.14Z" fill="url(#paint41_linear_1711_31528)"/>
<path d="M234.428 134.132C234.197 135.649 236.299 137.29 240.09 137.319C244.246 137.347 245.177 135.687 244.831 134.286C242.777 126.003 235.311 128.47 234.437 134.132H234.428Z" fill="url(#paint42_linear_1711_31528)"/>
<path d="M240.791 166.379C236.798 166.523 234.408 169.642 234.408 169.642C234.408 169.642 237.902 168.586 240.637 168.644C244.879 168.73 247.777 170.813 247.777 170.813C247.777 170.813 244.601 166.245 240.791 166.388V166.379Z" fill="url(#paint43_linear_1711_31528)"/>
<path d="M222.873 182.656C222.873 182.656 229.831 191.572 241.088 191.179C252.365 190.785 257.183 184.614 257.183 184.614C257.183 184.614 249.831 188.088 240.56 188.175C230.618 188.271 222.873 182.656 222.873 182.656Z" fill="url(#paint44_linear_1711_31528)"/>
<path d="M284.765 58.1989C283.047 56.7401 279.496 54.6191 277.433 54.312C277.02 54.2544 276.79 54.216 276.656 54.1776C277.663 52.4501 279.285 47.5651 269.717 42.728C269.717 42.728 270.581 44.7051 271.684 47.066C261.204 39.2538 258.997 37.9966 236.904 41.8259C227.662 43.4286 208.793 45.5784 202.574 52.191C193.956 61.3372 189.349 63.8996 184.052 63.295C187.18 65.2337 190.827 66.3277 194.455 65.2337C190.242 67.9401 187.583 71.9326 185.846 76.568C183.773 82.1345 185.434 87.9792 186.911 93.5072C187.276 94.8796 187.679 96.2425 188.102 97.5957C188.668 99.3904 188.466 100.868 188.332 102.721C188.169 105.082 188.62 111.579 188.62 111.579C188.62 111.579 193.39 116.051 193.591 122.549C193.62 123.643 193.754 126.877 193.754 128.95C194.205 126.531 194.656 124.103 195.108 121.685C195.952 117.107 195.463 111.79 197.325 107.538C198.927 103.882 200.405 100.149 202.162 96.5496C202.891 95.062 203.409 94.0927 203.659 92.4515C204.187 88.8813 203.822 84.9657 203.64 81.3859C203.428 77.0479 204.235 71.4719 208.256 69.3893C212.2 67.3451 214.446 69.3797 218.813 70.0131C223.832 70.7521 228.986 71.8366 233.871 69.8499C233.017 71.5103 232.479 73.3338 232.307 75.1956C236.241 68.5543 244.505 68.6887 251.29 68.5063C256.885 68.3528 265.024 69.8308 269.17 64.8786C273.22 69.514 273.316 74.8117 273.978 80.6661C274.669 86.7508 276.051 92.6819 278.949 98.1043C280.216 100.465 282.174 102.414 282.702 105.034C283.287 107.922 283.844 110.821 284.372 113.729C284.89 116.617 285.667 126.33 286.109 129.238C286.474 126.128 286.598 114.976 288.767 112.471C289.161 112.011 290.648 111.329 290.648 111.329C290.648 111.329 291.176 104.928 291.176 103.872C291.176 100.772 291.004 100.005 291.618 96.991C293.393 88.2287 294.334 80.1478 293.096 73.1514C292.069 67.3451 289.545 62.2777 284.765 58.2084V58.1989Z" fill="url(#paint45_linear_1711_31528)"/>
<path d="M270.619 59.2061C266.79 64.2542 228.564 67.4693 219.398 65.7802C206.298 63.3617 201.931 66.0873 200.194 70.7228C198.121 76.2892 200.117 83.228 199.359 90.4548C198.601 97.6815 193.754 103.085 193.409 119.391C193.774 122.702 193.774 127.366 193.774 128.949C194.225 126.531 194.676 124.103 195.127 121.684C195.971 117.106 195.482 111.79 197.344 107.538C198.947 103.881 200.425 100.148 202.181 96.5491C202.91 95.0615 203.428 94.0922 203.678 92.451C204.206 88.8808 203.841 84.9651 203.659 81.3854C203.448 77.0474 203.697 72.6135 207.718 70.5308C211.663 68.4866 214.389 70.4637 218.755 71.0971C223.775 71.8361 228.996 71.8361 233.881 69.8494C233.026 71.5098 232.489 73.3332 232.316 75.1951C236.251 69.5903 244.514 68.6882 251.3 68.5058C256.895 68.3523 265.033 69.8302 269.179 64.878C273.229 69.5135 273.325 74.8112 273.988 80.6656C274.679 86.7502 276.061 92.6814 278.959 98.1038C280.226 100.465 282.184 102.413 282.712 105.033C283.297 107.922 283.854 110.82 284.382 113.728C284.9 116.617 285.62 122.183 286.119 129.237C288.7 95.6661 279.429 98.9292 279.66 81.1742C279.852 65.9817 273.421 62.1524 270.619 59.2157V59.2061Z" fill="url(#paint46_linear_1711_31528)"/>
<path d="M249.601 48.0251C244.035 50.53 240.157 55.6357 235.311 59.2155C225.08 66.759 214.744 61.8068 204.465 57.1713C212.556 67.6227 224.994 75.6556 237.854 68.1602C243.526 64.8491 246.923 59.5322 251.482 55.0023C255.561 50.9523 261.022 49.148 266.646 49.1576C261.694 45.6929 254.985 45.597 249.591 48.0251H249.601Z" fill="url(#paint47_linear_1711_31528)"/>
<path d="M261.809 63.9093C257.701 65.5409 254.121 64.7059 249.985 63.9093C245.484 63.036 240.599 63.3239 236.731 66.0591C234.178 67.8538 230.79 71.8463 232.326 75.1957C234.284 70.4547 241.789 70.8002 245.733 71.7503C250.244 72.8348 254.313 74.4088 259.016 73.2379C266.895 71.2896 273.057 62.9688 270.619 54.6768C269.026 58.7748 265.897 62.2874 261.809 63.9093Z" fill="url(#paint48_linear_1711_31528)"/>
<path d="M229.715 56.3178C220.473 65.1665 204.475 57.1719 204.475 57.1719C230.963 74.2167 245.445 50.3963 249.601 48.0257C258.786 42.7952 266.655 49.1582 266.655 49.1582C254.582 36.9121 238.958 47.4691 229.715 56.3178Z" fill="url(#paint49_linear_1711_31528)"/>
<path d="M276.656 54.1771C276.656 54.1771 281.214 48.3228 269.717 42.7275C269.717 42.7275 275.638 47.4782 273.469 55.7606C273.469 55.7606 293.153 61.0871 293.566 83.2664C293.566 83.2664 294.9 73.2373 290.246 64.7245C287.769 60.2042 283.403 54.8393 276.656 54.1771Z" fill="url(#paint50_linear_1711_31528)"/>
<path d="M186.096 90.3303C186.096 90.3303 184.455 73.2951 194.465 65.2334C194.465 65.2334 180.625 70.5119 186.096 90.3303Z" fill="url(#paint51_linear_1711_31528)"/>
<path d="M221.375 42.315C212.364 44.7048 203.812 44.5896 198.611 52.1906C194.465 58.2465 190.338 63.2371 184.061 63.2947C192.9 66.0395 197.056 58.6976 202.584 53.9373C207.815 49.4266 215.656 53.851 225.272 50.5207C233.439 47.6895 240.061 39.3687 252.903 40.4724C261.252 41.1922 266.147 43.8218 271.694 47.0657C256.002 33.3608 240.56 37.2285 221.385 42.315H221.375Z" fill="url(#paint52_linear_1711_31528)"/>
<path d="M333.884 220.834C333.356 221.458 332.809 222.082 332.272 222.696C332.819 222.082 333.356 221.467 333.884 220.834Z" fill="url(#paint53_linear_1711_31528)"/>
<path d="M202.987 188.319C202.987 188.319 215.665 213.387 241.856 213.684C263.939 213.934 278.287 187.513 278.805 186.399L292.242 191.198C292.242 191.198 275.83 225.489 239.14 225.48C207.373 225.48 191.47 192.158 191.47 192.158C191.47 192.158 191.988 191.217 196.269 190.238C200.549 189.259 202.987 188.319 202.987 188.319Z" fill="url(#paint54_linear_1711_31528)"/>
</g>
<path d="M120.93 233.357C135.019 234.326 147.227 223.692 148.196 209.604C149.166 195.515 138.532 183.307 124.443 182.338C110.354 181.368 98.1464 192.002 97.1771 206.091C96.2077 220.18 106.842 232.387 120.93 233.357Z" fill="#27AE60"/>
<path d="M123.598 194.104L122.831 194.853C119.596 198.02 115.316 199.325 110.306 199.585L109.433 199.633L109.375 200.506C109.03 205.564 109.759 210.554 111.698 214.729C113.636 218.904 116.823 222.282 121.276 223.952L121.564 224.058L121.861 223.981C130.844 221.745 136.123 212.81 136.843 202.387L136.9 201.61L136.152 201.379C131.391 199.93 127.025 198.27 124.28 194.939L123.598 194.114V194.104ZM123.464 196.725C126.439 199.911 130.508 201.629 134.76 202.953C133.906 212.32 129.27 219.864 121.698 221.937C117.936 220.43 115.21 217.608 113.492 213.904C111.823 210.295 111.16 205.89 111.371 201.37C115.959 200.995 120.134 199.642 123.464 196.725ZM128.1 205.487L120.518 211.255L117.466 207.761L115.978 209.057L120.239 213.942L129.299 207.051L128.109 205.487H128.1Z" fill="white"/>
<defs>
<filter id="filter0_d_1711_31528" x="1.15991" y="4.53125" width="361.93" height="361.93" filterUnits="userSpaceOnUse" color-interpolation-filters="sRGB">
<feFlood flood-opacity="0" result="BackgroundImageFix"/>
<feColorMatrix in="SourceAlpha" type="matrix" values="0 0 0 0 0 0 0 0 0 0 0 0 0 0 0 0 0 0 127 0" result="hardAlpha"/>
<feOffset dx="6" dy="7"/>
<feGaussianBlur stdDeviation="6"/>
<feColorMatrix type="matrix" values="0 0 0 0 0 0 0 0 0 0 0 0 0 0 0 0 0 0 0.25 0"/>
<feBlend mode="normal" in2="BackgroundImageFix" result="effect1_dropShadow_1711_31528"/>
<feBlend mode="normal" in="SourceGraphic" in2="effect1_dropShadow_1711_31528" result="shape"/>
</filter>
<linearGradient id="paint0_linear_1711_31528" x1="84.4702" y1="207.561" x2="158.12" y2="207.561" gradientUnits="userSpaceOnUse">
<stop stop-color="#CACFE8"/>
<stop offset="0.42" stop-color="#CFD3E6"/>
<stop offset="0.93" stop-color="#DEDEE1"/>
<stop offset="1" stop-color="#E1E1E1"/>
</linearGradient>
<linearGradient id="paint1_linear_1711_31528" x1="214.37" y1="172.109" x2="214.36" y2="172.176" gradientUnits="userSpaceOnUse">
<stop stop-color="#78A7C8"/>
<stop offset="0.65" stop-color="#9EC1DB"/>
<stop offset="1" stop-color="#B4D1E7"/>
</linearGradient>
<linearGradient id="paint2_linear_1711_31528" x1="154.612" y1="107.411" x2="161.144" y2="132.524" gradientUnits="userSpaceOnUse">
<stop stop-color="#DBA379"/>
<stop offset="0.49" stop-color="#E3B086"/>
<stop offset="1" stop-color="#F0C499"/>
</linearGradient>
<linearGradient id="paint3_linear_1711_31528" x1="325.366" y1="103.381" x2="319.924" y2="128.693" gradientUnits="userSpaceOnUse">
<stop stop-color="#DBA379"/>
<stop offset="0.49" stop-color="#E3B086"/>
<stop offset="1" stop-color="#F0C499"/>
</linearGradient>
<linearGradient id="paint4_linear_1711_31528" x1="240.724" y1="66.6343" x2="239.783" y2="116.703" gradientUnits="userSpaceOnUse">
<stop stop-color="#FFD9B3"/>
<stop offset="0.28" stop-color="#FBD6AF"/>
<stop offset="1" stop-color="#F7D4AB"/>
</linearGradient>
<radialGradient id="paint5_radial_1711_31528" cx="0" cy="0" r="1" gradientUnits="userSpaceOnUse" gradientTransform="translate(266.262 133.216) scale(20.0555 20.243)">
<stop stop-color="#F8C39C"/>
<stop offset="1" stop-color="#F7D4AB"/>
</radialGradient>
<linearGradient id="paint6_linear_1711_31528" x1="240.1" y1="166.005" x2="241.04" y2="182.627" gradientUnits="userSpaceOnUse">
<stop stop-color="#FFD9B3"/>
<stop offset="1" stop-color="#F7D4AB"/>
</linearGradient>
<radialGradient id="paint7_radial_1711_31528" cx="0" cy="0" r="1" gradientUnits="userSpaceOnUse" gradientTransform="translate(209.802 133.829) scale(19.9939 20.1808)">
<stop stop-color="#F8C39C"/>
<stop offset="1" stop-color="#F7D4AB"/>
</radialGradient>
<linearGradient id="paint8_linear_1711_31528" x1="224.859" y1="290.03" x2="219.859" y2="146.916" gradientUnits="userSpaceOnUse">
<stop stop-color="#DBA379"/>
<stop offset="0.49" stop-color="#E3B086"/>
<stop offset="1" stop-color="#F0C499"/>
</linearGradient>
<linearGradient id="paint9_linear_1711_31528" x1="265.456" y1="285.866" x2="260.609" y2="147.022" gradientUnits="userSpaceOnUse">
<stop stop-color="#DBA379"/>
<stop offset="0.49" stop-color="#E3B086"/>
<stop offset="1" stop-color="#F0C499"/>
</linearGradient>
<linearGradient id="paint10_linear_1711_31528" x1="280.562" y1="123.124" x2="266.502" y2="127.97" gradientUnits="userSpaceOnUse">
<stop stop-color="#FBD6AF"/>
<stop offset="1" stop-color="#F7D4AB"/>
</linearGradient>
<linearGradient id="paint11_linear_1711_31528" x1="242.134" y1="190.007" x2="241.127" y2="160.995" gradientUnits="userSpaceOnUse">
<stop stop-color="#DBA379"/>
<stop offset="0.49" stop-color="#E3B086"/>
<stop offset="1" stop-color="#F0C499"/>
</linearGradient>
<linearGradient id="paint12_linear_1711_31528" x1="223.247" y1="154.976" x2="259.198" y2="155.591" gradientUnits="userSpaceOnUse">
<stop stop-color="#E8D9D7"/>
<stop offset="0.14" stop-color="#EFE5E4"/>
<stop offset="0.39" stop-color="#FAF8F7"/>
<stop offset="0.57" stop-color="white"/>
<stop offset="1" stop-color="#E8D3D1"/>
</linearGradient>
<linearGradient id="paint13_linear_1711_31528" x1="242.154" y1="189.412" x2="241.175" y2="161.225" gradientUnits="userSpaceOnUse">
<stop stop-color="#DBA379"/>
<stop offset="0.49" stop-color="#E3B086"/>
<stop offset="1" stop-color="#F0C499"/>
</linearGradient>
<linearGradient id="paint14_linear_1711_31528" x1="239.917" y1="141.215" x2="240.503" y2="154.814" gradientUnits="userSpaceOnUse">
<stop stop-color="#E8D9D7"/>
<stop offset="0.4" stop-color="#EFE5E3"/>
<stop offset="1" stop-color="white"/>
</linearGradient>
<linearGradient id="paint15_linear_1711_31528" x1="241.386" y1="194.777" x2="240.426" y2="136.397" gradientUnits="userSpaceOnUse">
<stop stop-color="#DBA379"/>
<stop offset="0.49" stop-color="#E3B086"/>
<stop offset="1" stop-color="#F0C499"/>
</linearGradient>
<linearGradient id="paint16_linear_1711_31528" x1="212.239" y1="127.664" x2="191.403" y2="122.577" gradientUnits="userSpaceOnUse">
<stop stop-color="#FBD6AF"/>
<stop offset="1" stop-color="#F7D4AB"/>
</linearGradient>
<linearGradient id="paint17_linear_1711_31528" x1="263.412" y1="125.043" x2="262.03" y2="108.833" gradientUnits="userSpaceOnUse">
<stop stop-color="#F7D4AB"/>
<stop offset="0.52" stop-color="#F5D1A8"/>
<stop offset="0.85" stop-color="#F2C99F"/>
<stop offset="1" stop-color="#F0C499"/>
</linearGradient>
<linearGradient id="paint18_linear_1711_31528" x1="216.164" y1="124.938" x2="214.801" y2="108.997" gradientUnits="userSpaceOnUse">
<stop stop-color="#F7D4AB"/>
<stop offset="0.52" stop-color="#F5D1A8"/>
<stop offset="0.85" stop-color="#F2C99F"/>
<stop offset="1" stop-color="#F0C499"/>
</linearGradient>
<linearGradient id="paint19_linear_1711_31528" x1="203.745" y1="111.579" x2="230.685" y2="119.161" gradientUnits="userSpaceOnUse">
<stop stop-color="#DBA379"/>
<stop offset="0.49" stop-color="#E3B086"/>
<stop offset="1" stop-color="#F0C499"/>
</linearGradient>
<linearGradient id="paint20_linear_1711_31528" x1="227.239" y1="118.613" x2="209.964" y2="114.448" gradientUnits="userSpaceOnUse">
<stop stop-color="#ECE7E7"/>
<stop offset="0.23" stop-color="#F5F3F3"/>
<stop offset="0.53" stop-color="#FCFCFC"/>
<stop offset="1" stop-color="white"/>
</linearGradient>
<linearGradient id="paint21_linear_1711_31528" x1="223.832" y1="116.532" x2="205.684" y2="117.261" gradientUnits="userSpaceOnUse">
<stop stop-color="#94958D"/>
<stop offset="1" stop-color="#C5C6C0"/>
</linearGradient>
<linearGradient id="paint22_linear_1711_31528" x1="212.805" y1="112.768" x2="231.616" y2="122.356" gradientUnits="userSpaceOnUse">
<stop stop-color="#94958D"/>
<stop offset="1" stop-color="#C5C6C0"/>
</linearGradient>
<radialGradient id="paint23_radial_1711_31528" cx="0" cy="0" r="1" gradientUnits="userSpaceOnUse" gradientTransform="translate(221.612 119.11) scale(11.5424 11.6503)">
<stop stop-color="#2A3A3B"/>
<stop offset="1" stop-color="#1C2727"/>
</radialGradient>
<linearGradient id="paint24_linear_1711_31528" x1="206.269" y1="113.346" x2="226.577" y2="113.346" gradientUnits="userSpaceOnUse">
<stop stop-color="#3C2A25"/>
<stop offset="0.08" stop-color="#382723"/>
<stop offset="0.55" stop-color="#2C1E1A"/>
<stop offset="1" stop-color="#281B18"/>
</linearGradient>
<linearGradient id="paint25_linear_1711_31528" x1="249.227" y1="111.992" x2="275.514" y2="119.391" gradientUnits="userSpaceOnUse">
<stop stop-color="#DBA379"/>
<stop offset="0.49" stop-color="#E3B086"/>
<stop offset="1" stop-color="#F0C499"/>
</linearGradient>
<linearGradient id="paint26_linear_1711_31528" x1="271.147" y1="118.709" x2="254.313" y2="114.649" gradientUnits="userSpaceOnUse">
<stop stop-color="#ECE7E7"/>
<stop offset="0.23" stop-color="#F5F3F3"/>
<stop offset="0.53" stop-color="#FCFCFC"/>
<stop offset="1" stop-color="white"/>
</linearGradient>
<linearGradient id="paint27_linear_1711_31528" x1="267.442" y1="116.502" x2="249.284" y2="117.231" gradientUnits="userSpaceOnUse">
<stop stop-color="#94958D"/>
<stop offset="1" stop-color="#C5C6C0"/>
</linearGradient>
<linearGradient id="paint28_linear_1711_31528" x1="256.962" y1="111.771" x2="278.969" y2="122.981" gradientUnits="userSpaceOnUse">
<stop stop-color="#94958D"/>
<stop offset="1" stop-color="#C5C6C0"/>
</linearGradient>
<radialGradient id="paint29_radial_1711_31528" cx="0" cy="0" r="1" gradientUnits="userSpaceOnUse" gradientTransform="translate(265.43 119.109) scale(11.5425 11.6503)">
<stop stop-color="#2A3A3B"/>
<stop offset="1" stop-color="#1C2727"/>
</radialGradient>
<linearGradient id="paint30_linear_1711_31528" x1="251.434" y1="19.6858" x2="271.742" y2="19.6858" gradientUnits="userSpaceOnUse">
<stop stop-color="#3C2A25"/>
<stop offset="0.08" stop-color="#382723"/>
<stop offset="0.55" stop-color="#2C1E1A"/>
<stop offset="1" stop-color="#281B18"/>
</linearGradient>
<linearGradient id="paint31_linear_1711_31528" x1="249.61" y1="102.115" x2="275.149" y2="102.115" gradientUnits="userSpaceOnUse">
<stop stop-color="#281B18"/>
<stop offset="0.45" stop-color="#2C1E1A"/>
<stop offset="0.92" stop-color="#382723"/>
<stop offset="1" stop-color="#3C2A25"/>
</linearGradient>
<linearGradient id="paint32_linear_1711_31528" x1="202.574" y1="19.6854" x2="228.113" y2="19.6854" gradientUnits="userSpaceOnUse">
<stop stop-color="#281B18"/>
<stop offset="0.45" stop-color="#2C1E1A"/>
<stop offset="0.92" stop-color="#382723"/>
<stop offset="1" stop-color="#3C2A25"/>
</linearGradient>
<linearGradient id="paint33_linear_1711_31528" x1="235.004" y1="52.8246" x2="240.647" y2="120.725" gradientUnits="userSpaceOnUse">
<stop stop-color="#F7D4AB"/>
<stop offset="0.45" stop-color="#F3CAA0"/>
<stop offset="1" stop-color="#F0C499"/>
</linearGradient>
<linearGradient id="paint34_linear_1711_31528" x1="279.564" y1="244.808" x2="275.744" y2="135.581" gradientUnits="userSpaceOnUse">
<stop stop-color="#DBA379"/>
<stop offset="0.49" stop-color="#E3B086"/>
<stop offset="1" stop-color="#F0C499"/>
</linearGradient>
<linearGradient id="paint35_linear_1711_31528" x1="208.419" y1="237.677" x2="204.906" y2="136.964" gradientUnits="userSpaceOnUse">
<stop stop-color="#DBA379"/>
<stop offset="0.49" stop-color="#E3B086"/>
<stop offset="1" stop-color="#F0C499"/>
</linearGradient>
<linearGradient id="paint36_linear_1711_31528" x1="182.718" y1="86.9995" x2="215.531" y2="185.18" gradientUnits="userSpaceOnUse">
<stop stop-color="#867569"/>
<stop offset="1" stop-color="#A89383"/>
</linearGradient>
<linearGradient id="paint37_linear_1711_31528" x1="292.386" y1="90.2242" x2="265.83" y2="185.237" gradientUnits="userSpaceOnUse">
<stop stop-color="#867569"/>
<stop offset="1" stop-color="#A89383"/>
</linearGradient>
<linearGradient id="paint38_linear_1711_31528" x1="240.282" y1="186.245" x2="241.981" y2="155.87" gradientUnits="userSpaceOnUse">
<stop stop-color="#A89383"/>
<stop offset="1" stop-color="#C0AFA2"/>
</linearGradient>
<linearGradient id="paint39_linear_1711_31528" x1="239.207" y1="133.259" x2="239.61" y2="143.413" gradientUnits="userSpaceOnUse">
<stop stop-color="#867569"/>
<stop offset="1" stop-color="#A89383"/>
</linearGradient>
<linearGradient id="paint40_linear_1711_31528" x1="239.265" y1="93.286" x2="240.282" y2="135.754" gradientUnits="userSpaceOnUse">
<stop stop-color="#FFD9B3"/>
<stop offset="0.2" stop-color="#FCD7B0"/>
<stop offset="1" stop-color="#F7D4AB"/>
</linearGradient>
<linearGradient id="paint41_linear_1711_31528" x1="239.668" y1="121.848" x2="240.042" y2="135.025" gradientUnits="userSpaceOnUse">
<stop stop-color="#F7D4AB"/>
<stop offset="0.52" stop-color="#F5D1A8"/>
<stop offset="0.85" stop-color="#F2C99F"/>
<stop offset="1" stop-color="#F0C499"/>
</linearGradient>
<linearGradient id="paint42_linear_1711_31528" x1="239.207" y1="137.885" x2="240.637" y2="127.299" gradientUnits="userSpaceOnUse">
<stop stop-color="#FFD9B3"/>
<stop offset="0.28" stop-color="#FBD6AF"/>
<stop offset="1" stop-color="#F7D4AB"/>
</linearGradient>
<linearGradient id="paint43_linear_1711_31528" x1="240.781" y1="162.492" x2="241.136" y2="171.331" gradientUnits="userSpaceOnUse">
<stop stop-color="#867569"/>
<stop offset="1" stop-color="#A89383"/>
</linearGradient>
<linearGradient id="paint44_linear_1711_31528" x1="240.282" y1="177.848" x2="239.62" y2="193.079" gradientUnits="userSpaceOnUse">
<stop stop-color="#867569"/>
<stop offset="1" stop-color="#A89383"/>
</linearGradient>
<linearGradient id="paint45_linear_1711_31528" x1="240.627" y1="40.3671" x2="236.385" y2="117.443" gradientUnits="userSpaceOnUse">
<stop stop-color="#3C2A25"/>
<stop offset="0.16" stop-color="#352520"/>
<stop offset="0.54" stop-color="#2B1D1A"/>
<stop offset="1" stop-color="#281B18"/>
</linearGradient>
<linearGradient id="paint46_linear_1711_31528" x1="193.419" y1="94.2169" x2="286.57" y2="94.2169" gradientUnits="userSpaceOnUse">
<stop stop-color="#3C2A25"/>
<stop offset="0.16" stop-color="#352520"/>
<stop offset="0.54" stop-color="#2B1D1A"/>
<stop offset="1" stop-color="#281B18"/>
</linearGradient>
<linearGradient id="paint47_linear_1711_31528" x1="237.422" y1="41.5757" x2="232.537" y2="71.9895" gradientUnits="userSpaceOnUse">
<stop stop-color="#3C2A25"/>
<stop offset="0.16" stop-color="#352520"/>
<stop offset="0.54" stop-color="#2B1D1A"/>
<stop offset="1" stop-color="#281B18"/>
</linearGradient>
<linearGradient id="paint48_linear_1711_31528" x1="260.033" y1="44.7436" x2="250.071" y2="70.5027" gradientUnits="userSpaceOnUse">
<stop stop-color="#3C2A25"/>
<stop offset="0.16" stop-color="#352520"/>
<stop offset="0.54" stop-color="#2B1D1A"/>
<stop offset="1" stop-color="#281B18"/>
</linearGradient>
<linearGradient id="paint49_linear_1711_31528" x1="273.364" y1="15.0783" x2="224.226" y2="64.5906" gradientUnits="userSpaceOnUse">
<stop stop-color="#4C3633"/>
<stop offset="0.5" stop-color="#402D28"/>
<stop offset="1" stop-color="#3C2A25"/>
</linearGradient>
<linearGradient id="paint50_linear_1711_31528" x1="279.919" y1="31.0093" x2="282.184" y2="68.0068" gradientUnits="userSpaceOnUse">
<stop stop-color="#4C3633"/>
<stop offset="0.5" stop-color="#402D28"/>
<stop offset="1" stop-color="#3C2A25"/>
</linearGradient>
<linearGradient id="paint51_linear_1711_31528" x1="183.898" y1="88.0173" x2="192.919" y2="64.5808" gradientUnits="userSpaceOnUse">
<stop stop-color="#4C3633"/>
<stop offset="0.5" stop-color="#402D28"/>
<stop offset="1" stop-color="#3C2A25"/>
</linearGradient>
<linearGradient id="paint52_linear_1711_31528" x1="275.235" y1="33.7447" x2="200.588" y2="60.1564" gradientUnits="userSpaceOnUse">
<stop stop-color="#4C3633"/>
<stop offset="0.5" stop-color="#402D28"/>
<stop offset="1" stop-color="#3C2A25"/>
</linearGradient>
<linearGradient id="paint53_linear_1711_31528" x1="333.088" y1="224.212" x2="333.068" y2="218.675" gradientUnits="userSpaceOnUse">
<stop stop-color="#4C7194"/>
<stop offset="0.28" stop-color="#5880A3"/>
<stop offset="1" stop-color="#78A7C8"/>
</linearGradient>
<linearGradient id="paint54_linear_1711_31528" x1="240.244" y1="177.887" x2="247" y2="235.749" gradientUnits="userSpaceOnUse">
<stop stop-color="#037F00"/>
<stop offset="0.33" stop-color="#028105"/>
<stop offset="0.77" stop-color="#018A16"/>
<stop offset="1" stop-color="#009022"/>
</linearGradient>
</defs>
</svg>
