
<svg width="375" height="375" viewBox="0 0 375 375" fill="none" xmlns="http://www.w3.org/2000/svg">
<path d="M172.09 3.09961H172.08C79.3184 3.09961 4.12012 78.2979 4.12012 171.06V171.07C4.12012 263.831 79.3184 339.03 172.08 339.03H172.09C264.852 339.03 340.05 263.831 340.05 171.07V171.06C340.05 78.2979 264.852 3.09961 172.09 3.09961Z" fill="#0ACF83"/>
<g filter="url(#filter0_d_1781_9590)">
<path d="M181.29 12.1504H181.28C88.5183 12.1504 13.3201 87.3486 13.3201 180.11V180.12C13.3201 272.882 88.5183 348.08 181.28 348.08H181.29C274.052 348.08 349.25 272.882 349.25 180.12V180.11C349.25 87.3486 274.052 12.1504 181.29 12.1504Z" fill="white"/>
<path d="M181.29 12.1504H181.28C88.5183 12.1504 13.3201 87.3486 13.3201 180.11V180.12C13.3201 272.882 88.5183 348.08 181.28 348.08H181.29C274.052 348.08 349.25 272.882 349.25 180.12V180.11C349.25 87.3486 274.052 12.1504 181.29 12.1504Z" stroke="#E8E8E8" stroke-width="2" stroke-miterlimit="10"/>
</g>
<mask id="mask0_1781_9590" style="mask-type:alpha" maskUnits="userSpaceOnUse" x="13" y="11" width="338" height="338">
<circle cx="182" cy="180" r="169" fill="#C4C4C4"/>
</mask>
<g mask="url(#mask0_1781_9590)">
<mask id="mask1_1781_9590" style="mask-type:alpha" maskUnits="userSpaceOnUse" x="57" y="14" width="293" height="526">
<rect x="57" y="14" width="293" height="525.897" fill="#C4C4C4"/>
</mask>
<g mask="url(#mask1_1781_9590)">
<path d="M264.673 127.593C266.279 106.087 262.203 78.177 246.107 63.2641C236.143 54.0327 211.229 53.9106 211.229 53.9106C140.627 49.1588 128.569 176.773 176.679 195.8C180.745 196.429 218.328 219.662 227.569 221.287C223.606 214.704 236.002 197.171 246.069 183.065C254.653 171.035 262.954 150.572 264.664 127.593H264.673Z" fill="url(#paint0_linear_1781_9590)"/>
<path d="M179.516 91.832C179.516 91.832 116.906 113.957 179.647 236.829L187.554 224.621C187.554 224.621 168.782 162.725 178.145 139.003C184.803 122.118 178.83 111.027 179.516 91.8414V91.832Z" fill="url(#paint1_linear_1781_9590)"/>
<path d="M205.641 237.522C207.266 237.522 228.424 237.062 229.109 236.179C267.425 186.811 270.336 135.122 259.921 116.904C225.005 55.8434 223.954 70.0896 223.954 70.0896C216.075 98.3002 219.258 117.449 229.316 133.517C243.224 155.745 217.549 213.368 205.641 237.522Z" fill="url(#paint2_linear_1781_9590)"/>
<path d="M272.74 196.653C266.955 194.118 256.428 190.155 254.831 190.005C249.244 189.469 228.442 184.746 226.113 177.289C223.212 168.011 226.677 156.122 226.677 156.122L191.836 154.375C195.752 160.911 195.611 167.861 195.452 174.913C195.273 182.651 171.833 188.108 163.785 189C159.381 189.488 143.858 194.606 141.716 202.175C138.702 212.815 138.937 216.375 139.838 230.339L280.056 216.9C279.201 209.125 283.68 201.452 272.749 196.653H272.74Z" fill="#F7D4AB"/>
<path d="M243.233 185.724C244.445 185.236 243.891 185.01 245.102 184.287C231.504 180.324 229.222 179.714 228.245 179.047C227.203 178.333 226.198 174.962 225.822 171.018C225.663 169.299 225.409 164.998 225.353 162.744C224.874 163.327 195.179 162.247 194.034 160.547L190.587 160.575C190.587 160.575 191.601 171.497 189.986 179.329C189.658 180.925 180.032 183.179 173.721 184.494C174.172 184.841 175.796 185.94 176.153 186.128C181.562 186.663 186.211 187.293 188.418 186.917C191.113 186.447 195.658 184.391 198.945 182.879C216.751 174.718 222.31 172.023 222.31 172.023C223.146 179.611 228.762 184.635 228.452 184.56C232.931 185.649 238.388 185.856 243.233 185.724Z" fill="url(#paint3_linear_1781_9590)"/>
<path d="M214.863 196.758C214.863 196.758 213.013 191.658 206.768 193.64C206.768 193.64 213.173 194.776 214.863 196.758Z" fill="url(#paint4_linear_1781_9590)"/>
<path d="M215.079 192.39C215.079 192.39 216.864 187.76 219.362 187.14C221.85 186.52 244.257 185.6 247.488 184.971C247.488 184.971 240.388 187.657 233.298 188.474C226.198 189.3 220.639 188.06 215.079 192.39Z" fill="url(#paint5_linear_1781_9590)"/>
<path d="M206.27 192.352C206.27 192.352 204.542 188.802 201.481 187.769C198.41 186.736 174.97 185.29 170.753 185.703C170.753 185.703 200.335 188.671 206.28 192.361L206.27 192.352Z" fill="url(#paint6_linear_1781_9590)"/>
<path d="M190.663 174.387C190.663 174.387 190.249 159.258 189.62 155.905C189.62 155.905 224.536 157.164 226.123 157.305C225.475 161.221 225.437 166.123 225.437 166.123C225.437 166.123 211.116 180.885 190.663 174.387Z" fill="url(#paint7_linear_1781_9590)"/>
<path d="M170.753 121.975C172.209 133.808 172.622 142.805 172.622 142.805C167.889 142.805 166.959 137.733 165.109 133.263C162.283 126.427 160.752 119.073 168.199 118.425C169.448 118.313 170.753 121.975 170.753 121.975Z" fill="#F0C499"/>
<path d="M169.899 138.832C169.899 138.832 167.579 136.211 168.302 131.056C169.993 118.894 162.283 118.059 164.029 126.36C164.029 126.36 165.1 122.444 166.067 123.618C167.269 125.055 164.781 125.853 166.048 132.126C166.706 135.385 169.889 138.832 169.889 138.832H169.899Z" fill="url(#paint8_linear_1781_9590)"/>
<path d="M213.961 68.5701C191.639 64.5696 175.88 85.6806 171.664 111.093C169.297 125.348 170.039 137.904 177.176 148.394C180.069 152.648 183.647 154.705 187.816 158.057C190.465 160.189 194.597 164.753 197.433 166.969C200.006 168.988 202.805 170.613 206.27 170.754C216.778 171.176 223.681 162.818 226.705 159.804C237.326 149.23 247.064 145.304 244.97 115.816C243.317 92.6487 228.592 69.0773 213.961 68.5607V68.5701Z" fill="#F7D4AB"/>
<path d="M213.332 127.818C214.281 116.098 213.802 106.078 226.245 103.721C237.871 101.514 241.421 108.745 242.482 110.463C245.243 114.915 245.036 126.297 245.036 126.297C245.036 126.297 233.41 136.655 213.323 127.818H213.332Z" fill="url(#paint9_linear_1781_9590)"/>
<path d="M220.366 135.142C221.634 141.847 225.738 147.595 231.288 149.942C238.547 153.013 243.853 143.059 245.121 130.728C245.826 123.948 236.604 118.924 230.744 120.192C224.893 121.459 219.089 128.437 220.357 135.133L220.366 135.142Z" fill="url(#paint10_radial_1781_9590)"/>
<path d="M203.669 128.954C202.26 119.667 204.674 105.486 188.23 104.237C183.093 103.843 178.952 105.364 176.294 107.477C170.115 112.407 173.711 125.423 173.711 125.423C173.711 125.423 183.337 137.472 203.659 128.954H203.669Z" fill="url(#paint11_linear_1781_9590)"/>
<path d="M195.029 135.236C193.667 140.964 189.751 151.191 184.295 150.308C177.243 149.182 171.946 145.059 171.702 131.066C171.589 125.141 180.05 120.886 185.403 122.342C190.756 123.798 196.41 129.498 195.038 135.236H195.029Z" fill="url(#paint12_radial_1781_9590)"/>
<path d="M237.608 126.428C235.617 126.963 234.227 128.334 234.49 129.489C234.763 130.644 236.594 131.161 238.585 130.625C240.566 130.09 241.966 128.728 241.693 127.564C241.421 126.409 239.59 125.892 237.608 126.428Z" fill="url(#paint13_linear_1781_9590)"/>
<path d="M177.956 126.653C175.965 126.239 174.181 126.85 173.965 128.014C173.758 129.179 175.195 130.447 177.196 130.869C179.186 131.273 180.98 130.672 181.187 129.517C181.393 128.352 179.947 127.075 177.956 126.662V126.653Z" fill="url(#paint14_linear_1781_9590)"/>
<path d="M189.93 144.803C188.953 144.475 188.408 143.695 188.821 142.944C189.178 142.277 193.282 145.179 194.86 147.452C192.719 145.874 190.906 145.123 189.93 144.803Z" fill="url(#paint15_linear_1781_9590)"/>
<path d="M226.329 144.494C227.278 144.1 227.766 143.283 227.306 142.56C226.902 141.921 223.024 145.104 221.615 147.49C223.634 145.762 225.381 144.888 226.339 144.494H226.329Z" fill="url(#paint16_linear_1781_9590)"/>
<path d="M198.664 152.469C200.504 156.404 210.637 161.898 218.112 152.375C218.112 152.375 207.491 157.127 198.664 152.469Z" fill="#F0C499"/>
<path d="M207.209 145.725C197.668 145.612 192.108 144.175 189.854 143.705V143.724C189.92 143.818 189.958 143.875 190.014 143.968C191.207 144.504 192.587 144.851 194.343 146.11C195.545 146.983 196.738 152.843 208.599 152.711C215.079 152.636 218.995 150.42 222.817 145.988C224.01 144.607 225.155 144.175 226.094 143.621C226.123 143.508 226.17 143.461 226.198 143.349C223.596 144.091 218.384 145.847 207.209 145.725Z" fill="#961B27"/>
<path d="M217.896 146.767C211.238 148.27 202.185 148.091 198.898 147.49C196.992 146.645 197.18 149.068 197.18 149.068C201.349 153.341 204.702 152.533 208.054 152.618C211.36 152.702 216.309 151.369 219.239 148.749C219.521 147.96 218.817 146.551 217.887 146.758L217.896 146.767Z" fill="url(#paint17_linear_1781_9590)"/>
<path d="M220.845 144.297C220.845 144.297 218.676 145.359 213.576 145.894C208.43 146.439 206.261 146.129 201.64 145.913C199.518 145.809 198.222 145.5 195.564 144.87C195.564 144.87 196.062 145.481 196.372 146.194C196.776 147.124 198.785 150.28 208.336 150.157C215.52 150.064 219.305 147.5 219.812 145.95C220.122 145.021 220.789 144.598 220.845 144.288V144.297Z" fill="url(#paint18_linear_1781_9590)"/>
<path d="M209.238 152.278C194.644 152.278 199.715 146.305 190.014 143.967C190.08 143.986 192.249 145.15 194.804 148.108C197.621 151.367 200.053 156.495 208.233 156.429C215.605 156.354 219.671 150.982 222.028 148.033C224.724 144.662 226.067 143.648 226.132 143.629C218.216 145.798 220.836 151.912 209.247 152.287L209.238 152.278Z" fill="#F86D78"/>
<path d="M200.607 150.936C198.363 149.791 196.363 147.34 195.94 147.03C196.466 147.743 199.631 155.472 207.848 155.284C217.351 155.068 219.061 148.692 220.751 146.795C219.953 147.64 217.943 149.913 215.464 150.777C213.839 151.34 211.078 152.016 208.017 152.148C206.063 152.232 202.786 151.838 200.607 150.927V150.936Z" fill="url(#paint19_linear_1781_9590)"/>
<path d="M215.173 151.734C215.295 152.063 214.384 153.171 212.45 153.716C209.961 154.42 207.989 153.744 207.857 153.415C207.726 153.077 211.031 152.852 211.989 152.514C212.947 152.185 215.041 151.406 215.164 151.734H215.173Z" fill="#FF9AA2"/>
<path d="M190.174 144.533C190.756 144.796 191.198 144.355 193.489 145.191C193.489 145.191 189.592 143.162 189.329 143.275C189.15 143.36 189.329 144.148 190.174 144.533Z" fill="#961B27"/>
<path d="M226.141 144.195C225.568 144.467 224.929 144.054 222.929 144.946C222.929 144.946 226.639 142.702 226.958 142.918C227.118 143.031 226.986 143.791 226.141 144.195Z" fill="#961B27"/>
<path d="M195.771 145.115L196.391 146.251C196.391 146.251 200.523 148.467 209.012 148.439C215.135 148.42 219.784 146.082 219.784 146.082L220.263 144.955L195.771 145.124V145.115Z" fill="url(#paint20_linear_1781_9590)"/>
<path d="M213.614 144.269C210.778 144.053 210.458 144.513 208.43 144.532C206.439 144.551 204.852 143.969 202.391 144.194C199.199 144.476 195.282 144.729 190.643 143.771C190.643 143.771 192.371 144.833 200.917 146.476C203.462 146.964 205.716 147.453 208.336 147.387C211.463 147.396 214.065 146.748 216.487 146.335C220.601 145.631 225.456 143.584 225.475 143.499C223.287 144.119 216.741 144.504 213.614 144.269Z" fill="#F86D78"/>
<path d="M199.002 145.113C199.086 144.813 203.331 144.437 204.026 144.446C204.721 144.446 207.05 144.85 207.886 144.86C208.721 144.86 211.285 144.7 211.98 144.55C212.675 144.39 217.84 144.841 217.793 145.207C217.746 145.573 210.252 146.475 209.369 146.55C208.487 146.625 198.757 146.005 198.992 145.123L199.002 145.113Z" fill="url(#paint21_linear_1781_9590)"/>
<path d="M208.148 161.008C205.378 160.801 203.03 161.477 202.899 162.501C202.767 163.534 204.908 164.539 207.679 164.736C210.44 164.933 212.787 164.267 212.919 163.234C213.05 162.201 210.9 161.196 208.139 160.998L208.148 161.008Z" fill="url(#paint22_linear_1781_9590)"/>
<path d="M173.533 123.179C173.533 123.179 169.269 142.712 183.44 153.653C190.089 158.789 192.005 161.87 195.536 165.326C195.536 165.326 186.718 157.531 181.412 153.765C178.839 151.934 166.114 142.994 173.533 123.179Z" fill="#F0C499"/>
<path d="M196.954 166.575C196.954 166.575 205.632 178.821 220 166.049C220 166.049 208.458 175.656 196.954 166.575Z" fill="url(#paint23_linear_1781_9590)"/>
<path d="M245.713 129.884C245.713 129.884 245.534 110.849 242.05 98.0956C238.144 83.7836 232.33 72.6647 220.733 70.0727C220.733 70.0727 189.329 60.8601 178.999 86.7136C168.086 114.023 170.434 128.119 171.139 134.495C171.139 134.495 173.655 118.756 176.999 113.891C176.999 113.891 187 104.923 194.522 93.1559C209.585 69.5844 224.658 73.2939 229.748 80.8161C238.003 93.0056 241.599 110.013 245.713 129.875V129.884Z" fill="#F0C499"/>
<path d="M244.848 121.958C243.393 133.79 242.979 142.787 242.979 142.787C247.713 142.787 248.642 137.716 250.492 133.246C253.319 126.409 254.991 119.084 248.548 118.69C247.29 118.615 244.848 121.948 244.848 121.948V121.958Z" fill="#F0C499"/>
<path d="M245.712 138.816C245.712 138.816 248.032 136.196 247.309 131.04C245.618 118.879 253.329 118.043 251.582 126.345C251.582 126.345 250.511 122.429 249.544 123.602C248.342 125.039 250.831 125.838 249.563 132.111C248.905 135.369 245.722 138.816 245.722 138.816H245.712Z" fill="url(#paint24_linear_1781_9590)"/>
<path d="M229.795 103.043C229.795 103.043 234.359 101.062 241.458 105.532C245.59 108.133 242.998 119.768 242.998 119.768C242.998 119.768 243.806 104.987 229.795 103.043Z" fill="#F7D4AB"/>
<path d="M243.374 103.194C243.374 103.194 244.595 121.995 245.543 126.484L246.266 119.751C246.266 119.751 244.426 105.533 243.374 103.194Z" fill="url(#paint25_linear_1781_9590)"/>
<path d="M172.04 107.006C172.04 107.006 171.467 121.168 170.199 126.473L169.044 116.932L172.04 107.006Z" fill="url(#paint26_linear_1781_9590)"/>
<path d="M154.666 85.484C173.824 44.3795 209.566 42.2289 223.221 55.4891C223.972 59.7244 225.521 66.0915 218.206 71.914C201.753 58.9262 193.282 93.1471 178.867 101.712C168.246 108.022 162.78 124.25 147.341 143.502C142.937 117.395 151.116 93.1095 154.666 85.484Z" fill="url(#paint27_linear_1781_9590)"/>
<path d="M147.971 126.794C149.126 117.45 151.267 101.213 172.791 76.7583C183.178 65.0759 196.72 56.6522 207.961 58.1266C213.426 58.7557 217.089 61.6482 218.911 63.7987C220.817 65.9587 221.953 67.5645 222 67.6021C221.747 67.4237 216.319 62.2492 207.97 63.7518C199.781 65.0665 190.343 73.5842 180.952 83.9331C162.208 104.424 147.623 126.296 147.961 126.803L147.971 126.794Z" fill="url(#paint28_linear_1781_9590)"/>
<path d="M260.193 96.9204C260.184 97.0707 254.39 86.4025 244.031 75.4995C238.951 70.1748 233.476 66.4653 228.968 66.0709C224.451 65.592 222.122 67.4514 221.981 67.5829C222.197 67.3856 223.841 64.728 228.987 64.1927C234.133 63.6105 240.895 67.0006 246.144 72.4662C256.803 83.388 260.212 97.0049 260.203 96.9204H260.193Z" fill="url(#paint29_linear_1781_9590)"/>
<path d="M222.676 54.765C222.676 54.765 235.335 53.0652 248.624 64.7852C257.987 73.0493 263.762 88.7323 264.213 105.261C264.213 105.261 260.748 81.5106 247.957 67.9594C240.839 60.4184 227.954 55.2815 222.611 56.0422C222.611 56.0422 208.346 47.6184 189.582 53.1497C173.796 57.7983 153.465 73.6691 146.797 115.666C146.797 115.666 152.028 50.2573 202.467 47.8438C215.276 47.2334 222.686 54.765 222.686 54.765H222.676Z" fill="url(#paint30_linear_1781_9590)"/>
<path d="M245.421 127.311C245.421 127.311 243.881 121.996 240.407 120.306C248.427 132.561 240.04 146.056 233.542 152.273C226.376 159.138 223.418 163.044 222.263 164.199C223.296 163.241 232.847 154.358 235.58 152.31C238.106 150.413 247.844 140.177 245.421 127.321V127.311Z" fill="url(#paint31_linear_1781_9590)"/>
<path d="M222.338 103.992C219.446 105.354 217.37 109.157 219.887 108.331C222.394 107.504 231.673 103.992 233.701 103.936C236.847 103.87 241.496 105.513 242.717 106.274C242.717 106.274 237.091 101.907 233.626 101.56C230.17 101.203 223.897 103.26 222.338 103.992Z" fill="url(#paint32_linear_1781_9590)"/>
<path d="M193.667 103.973C192.08 103.315 185.224 101.24 181.787 101.757C178.341 102.282 172.932 106.978 172.932 106.978C174.124 106.161 178.961 104.057 181.834 104.142C183.853 104.198 193.291 107.241 195.836 107.945C198.381 108.65 196.625 105.194 193.667 103.973Z" fill="url(#paint33_linear_1781_9590)"/>
<path d="M185.131 110.389C182.323 110.623 176.369 111.638 176.444 116.915C176.538 123.583 183.478 125.17 186.577 125.189C190.512 125.226 193.245 124.071 195.574 123.358C197.302 122.822 198.222 122.653 199.105 122.456C198.86 117.338 196.738 110.389 185.131 110.389Z" fill="url(#paint34_linear_1781_9590)"/>
<path d="M192.014 114.419C193.188 115.508 194.559 117.471 194.653 119.274C194.756 121.359 193.967 122.505 192.596 123.763C194.353 123.284 196.052 122.42 198.578 122.054C198.578 122.054 196.127 116.842 192.014 114.419Z" fill="url(#paint35_linear_1781_9590)"/>
<path d="M192.353 115.179C193.489 116.052 194.287 117.301 194.541 118.71C196.56 119.912 197.846 121.358 198.579 122.062C198.579 122.062 196.109 117.01 192.353 115.179Z" fill="#DDDDDD"/>
<path d="M187.225 113.367C184.361 113.62 180.895 115.085 176.707 118.56C176.707 118.56 179.092 123.565 185.873 124.439C184.286 123.387 183.149 122.035 183.037 119.865C182.886 116.87 184.68 114.221 187.225 113.357V113.367Z" fill="url(#paint36_linear_1781_9590)"/>
<path d="M194.55 118.548C190.521 115.825 186.173 115.797 182.877 116.933C182.426 117.853 182.201 118.896 182.266 119.994C182.388 122.089 183.59 123.394 185.253 124.418C187.854 124.85 192.099 123.986 192.578 123.751C194.005 122.539 194.785 121.281 194.634 119.262C194.606 118.99 194.587 118.802 194.54 118.539L194.55 118.548Z" fill="url(#paint37_linear_1781_9590)"/>
<path d="M177.796 118.72L178.604 120.195C178.604 120.195 180.163 118.908 182.539 117.922C182.99 116.532 183.976 115.368 185.281 114.645C182.267 115.208 179.459 116.626 177.806 118.72H177.796Z" fill="#DDDDDD"/>
<path d="M192.352 115.179C191.836 114.925 191.3 114.737 190.737 114.625C188.99 114.287 187.093 114.315 185.281 114.644C183.975 115.367 182.914 116.512 182.51 117.94C184.257 117.207 186.483 116.625 188.831 116.841C191.188 117.057 193.104 117.818 194.597 118.7C194.371 117.273 193.507 116.052 192.371 115.169L192.352 115.179Z" fill="url(#paint38_linear_1781_9590)"/>
<path d="M188.277 115.019C186.126 115.179 184.511 116.991 184.671 119.067C184.83 121.142 186.69 122.692 188.84 122.532C190.982 122.372 192.606 120.56 192.447 118.484C192.296 116.409 190.428 114.859 188.286 115.019H188.277Z" fill="url(#paint39_radial_1781_9590)"/>
<path d="M189.366 117.328C188.84 117.055 188.202 117.29 187.939 117.835C187.676 118.38 187.883 119.046 188.408 119.309C188.934 119.572 189.573 119.347 189.836 118.802C190.099 118.257 189.892 117.591 189.376 117.328H189.366Z" fill="white"/>
<path d="M192.925 118.805C192.201 118.448 191.319 118.73 190.962 119.443C190.605 120.157 190.896 121.021 191.629 121.387C192.361 121.744 193.234 121.453 193.601 120.739C193.958 120.026 193.666 119.152 192.934 118.795L192.925 118.805Z" fill="white"/>
<path d="M180.971 113.593C177.346 115.415 174.153 113.828 174.087 113.8C174.115 113.95 173.608 118.035 176.585 119.068C176.594 119.134 176.623 119.284 176.688 119.5C175.402 119.406 175.064 120.11 174.716 120.477C174.726 120.505 175.937 119.829 178.613 121.773C180.351 123.031 183.131 124.43 186.014 124.524C182.088 123.003 180.172 122.082 178.125 118.899C181.318 116.194 185.159 115.142 188.944 115.349C194.409 115.65 198.569 122.054 198.569 122.054C196.794 115.096 191.291 109.433 180.961 113.593H180.971Z" fill="url(#paint40_linear_1781_9590)"/>
<path d="M191.226 110.981C187.441 109.685 183.666 110.277 180.783 111.282C180.783 111.282 186.887 110.136 191 111.704C195.113 113.272 196.776 115 196.776 115C196.776 115 195.01 112.277 191.226 110.981Z" fill="url(#paint41_linear_1781_9590)"/>
<path d="M189.695 114.775C180.792 113.874 178.134 118.898 178.134 118.898C180.332 117.17 184.361 114.916 189.413 115.395C194.456 115.874 198.579 122.063 198.579 122.063C198.579 122.063 196.343 115.451 189.695 114.785V114.775Z" fill="#391B13"/>
<path d="M200.654 137.34C200.654 137.34 206.805 141.444 208.177 141.256C209.548 141.077 215.248 137.34 215.248 137.34H200.654Z" fill="url(#paint42_linear_1781_9590)"/>
<path d="M207.97 131.246C204.101 131.349 203.002 132.335 203.284 133.368C203.979 135.885 205.622 136.355 208.036 136.345C210.581 136.345 212.572 135.772 212.957 133.068C213.069 132.27 211.839 131.143 207.961 131.246H207.97Z" fill="url(#paint43_linear_1781_9590)"/>
<path d="M210.571 138C210.571 138 214.609 134.976 215.389 135.765C217.689 138.113 210.571 138 210.571 138Z" fill="url(#paint44_linear_1781_9590)"/>
<path d="M205.801 137.997C205.801 137.997 201.518 135.367 200.682 136.081C198.307 138.1 205.801 137.997 205.801 137.997Z" fill="url(#paint45_linear_1781_9590)"/>
<path d="M200.654 137.339C200.654 137.339 200.241 136.306 201.856 136.409C203.021 136.484 203.96 138.973 208.12 138.851C212.562 138.719 213.172 136.493 214.318 136.428C215.361 136.371 215.248 137.348 215.248 137.348C215.248 137.348 217.351 136.259 216.563 135.282C215.116 133.507 214.675 137.151 208.036 137.057C200.833 136.954 200.006 133.432 199.03 135.686C198.626 136.616 199.396 136.888 200.664 137.339H200.654Z" fill="#F0C499"/>
<path d="M230.395 109.983C218.788 109.983 216.666 116.933 216.422 122.051C217.295 122.248 218.225 122.417 219.953 122.952C222.282 123.676 225.014 124.821 228.949 124.784C232.048 124.755 238.988 123.168 239.082 116.51C239.157 111.232 233.194 110.218 230.395 109.983Z" fill="url(#paint46_linear_1781_9590)"/>
<path d="M216.957 121.656C219.493 122.023 221.183 122.887 222.939 123.366C221.568 122.107 220.779 120.961 220.882 118.877C220.976 117.074 222.347 115.111 223.521 114.021C219.417 116.444 216.957 121.656 216.957 121.656Z" fill="url(#paint47_linear_1781_9590)"/>
<path d="M216.957 121.656C217.69 120.952 218.976 119.506 220.995 118.303C221.249 116.895 222.047 115.655 223.183 114.772C219.427 116.604 216.957 121.656 216.957 121.656Z" fill="#DDDDDD"/>
<path d="M232.5 119.459C232.387 121.628 231.251 122.98 229.664 124.032C236.444 123.149 238.829 118.153 238.829 118.153C234.641 114.679 231.166 113.214 228.311 112.96C230.866 113.824 232.65 116.463 232.5 119.468V119.459Z" fill="url(#paint48_linear_1781_9590)"/>
<path d="M220.977 118.143C220.93 118.406 220.911 118.585 220.883 118.866C220.733 120.885 221.512 122.144 222.94 123.355C223.419 123.59 227.663 124.454 230.265 124.022C231.927 122.998 233.129 121.693 233.251 119.599C233.317 118.5 233.091 117.458 232.641 116.537C229.344 115.401 225.006 115.429 220.968 118.153L220.977 118.143Z" fill="url(#paint49_linear_1781_9590)"/>
<path d="M230.255 114.248C231.561 114.971 232.547 116.136 232.998 117.526C235.373 118.512 236.932 119.798 236.932 119.798L237.74 118.324C236.087 116.23 233.27 114.802 230.265 114.248H230.255Z" fill="#DDDDDD"/>
<path d="M230.255 114.246C228.433 113.908 226.545 113.889 224.798 114.218C224.235 114.33 223.7 114.518 223.183 114.772C222.047 115.645 221.174 116.875 220.958 118.303C222.451 117.42 224.366 116.659 226.724 116.443C229.071 116.227 231.288 116.81 233.044 117.542C232.631 116.115 231.569 114.969 230.273 114.246H230.255Z" fill="url(#paint50_linear_1781_9590)"/>
<path d="M227.25 114.612C225.1 114.452 223.24 116.002 223.09 118.077C222.93 120.153 224.546 121.956 226.696 122.125C228.847 122.284 230.706 120.735 230.866 118.659C231.016 116.584 229.41 114.772 227.26 114.612H227.25Z" fill="url(#paint51_radial_1781_9590)"/>
<path d="M227.917 116.829C227.41 116.538 226.743 116.725 226.424 117.242C226.114 117.768 226.274 118.425 226.781 118.716C227.288 119.007 227.955 118.82 228.274 118.303C228.593 117.787 228.434 117.12 227.917 116.829Z" fill="white"/>
<path d="M231.419 118.395C230.725 117.982 229.832 118.207 229.429 118.902C229.025 119.597 229.269 120.489 229.964 120.903C230.659 121.316 231.551 121.09 231.955 120.405C232.359 119.71 232.114 118.818 231.419 118.405V118.395Z" fill="white"/>
<path d="M241.44 113.392C241.374 113.421 238.181 115.008 234.556 113.186C224.235 109.026 218.723 114.688 216.948 121.647C216.948 121.647 221.108 115.242 226.574 114.942C230.349 114.735 234.199 115.787 237.392 118.492C235.345 121.675 233.429 122.596 229.504 124.117C232.387 124.023 235.166 122.624 236.904 121.365C239.58 119.421 240.792 120.098 240.801 120.069C240.453 119.713 240.115 118.999 238.829 119.093C238.885 118.877 238.923 118.726 238.932 118.661C241.918 117.628 241.411 113.543 241.43 113.392H241.44Z" fill="url(#paint52_linear_1781_9590)"/>
<path d="M224.301 110.584C220.517 111.88 218.751 114.603 218.751 114.603C218.751 114.603 220.413 112.875 224.527 111.307C228.64 109.738 234.744 110.884 234.744 110.884C231.861 109.879 228.086 109.288 224.301 110.584Z" fill="url(#paint53_linear_1781_9590)"/>
<path d="M225.832 114.368C219.192 115.044 216.948 121.646 216.948 121.646C216.948 121.646 221.07 115.457 226.113 114.978C231.156 114.499 235.195 116.753 237.392 118.481C237.392 118.481 234.744 113.457 225.832 114.358V114.368Z" fill="#391B13"/>
<path d="M168.81 187.631C168.81 187.631 182.154 176.117 189.733 174.267C197.302 172.417 213.116 179.113 221.906 181.433C230.696 183.752 253.282 193.51 253.282 193.51L168.81 187.631Z" fill="url(#paint54_linear_1781_9590)"/>
<path d="M136.768 234.058C136.768 234.058 140.656 225.361 149.577 206.147C149.99 205.265 140.027 239.889 140.027 239.889L136.768 234.058Z" fill="url(#paint55_linear_1781_9590)"/>
<path d="M227.964 192.476C227.964 192.476 227.964 191.828 229.157 192.429C230.349 193.03 254.465 195.631 254.465 195.631L255.837 191.743C255.837 191.743 229.504 185.151 227.109 180.709C222.16 172.435 214.741 175.421 214.741 175.421L194.917 171.196C194.917 171.196 189.893 158.527 190.447 166.716C190.494 172.689 191.038 179.807 190.719 182.361C190.644 182.737 191.423 181.216 191.33 181.554C190.297 183.094 177.835 184.982 177.835 184.982L160.677 187.273C160.677 187.273 191.33 194.589 193.565 191.161" fill="url(#paint56_linear_1781_9590)"/>
<path d="M183.497 183.997C183.497 183.997 181.732 187.81 205.613 189.923C237.233 192.721 241.759 187.913 241.759 187.913L264.194 193.51C264.194 193.51 232.678 222.312 198.561 217.223C164.443 212.133 157.7 188.899 157.7 188.899L183.497 183.997Z" fill="url(#paint57_linear_1781_9590)"/>
<path d="M273.22 406.881C259.95 367.532 250.118 343.491 248.765 339.275C246.85 333.293 247.939 314.567 251.141 307.374C254.616 299.588 272.619 267.64 272.619 267.64L271.698 254.68C267.247 215.511 279.249 201.152 284.489 199.602C271.107 194.418 242.802 188.258 242.802 188.258C237.318 199.64 220.329 202.025 201.951 200.231C177.441 197.837 182.136 183.825 182.136 183.825L151.127 191.817C144.985 208.58 146.741 210.083 143.314 225.944C140.036 241.11 136.477 251.619 136.045 265.048C135.669 276.712 151.071 291.7 151.756 319.723C152.385 345.294 143.849 372.594 133.669 410.572C144.647 419.268 218.32 427.015 273.22 406.881Z" fill="#27AE60"/>
<path d="M139.753 240.857C139.753 240.857 130.156 270.251 161.034 272.993C183.816 275.022 234.237 285.465 269.462 236.96C269.462 236.96 268.091 242.792 272.204 254.23C260.794 278.196 222.845 310.116 261.959 371.871C181.44 338.477 150.487 344.187 149.464 342.816C149.811 338.871 155.775 312.915 144.383 291.794C129.113 263.49 139.753 240.838 139.753 240.838V240.857Z" fill="#27AE60"/>
<path d="M165.936 185.207C165.936 185.207 154.038 188.156 151.737 190.344C145.389 196.354 137.679 208.694 129.809 225.992C129.809 225.992 139.829 237.496 145.135 240.595L165.946 185.216L165.936 185.207Z" fill="url(#paint58_linear_1781_9590)"/>
<path d="M269.961 233.946C269.961 233.946 268.505 255.423 278.638 259.076C278.638 259.076 265.782 274.318 251.103 308.896C249.62 312.38 246.999 330.758 248.793 336.74C250.587 342.722 257.715 359.729 270.242 398.148C266.354 390.137 240.266 330.965 236.068 322.569C232.866 316.164 238.472 296.481 246.915 282.094C255.357 267.697 266.476 249.15 269.961 233.937V233.946Z" fill="url(#paint59_linear_1781_9590)"/>
<path d="M176.82 220.001C187.592 217.879 221.287 216.949 231.269 224.856C241.243 232.764 246.586 250.785 223.841 252.475C208.355 253.631 180.342 254.739 156.799 249.93C140.533 246.615 147.511 225.758 176.82 219.992V220.001Z" fill="#27AE60"/>
<path d="M145.332 215.238C145.332 215.238 136.542 249.384 135.97 252.126C135.322 255.234 131.847 262.202 138.956 282.928C144.694 299.654 149.699 302.8 150.836 317.666C152.479 338.974 142.299 378.707 142.299 378.707C142.299 378.707 165.795 329.743 166.847 312.858C167.617 300.508 142.374 301.88 138.731 260.634C137.782 249.834 146.403 218.778 145.332 215.229V215.238Z" fill="#27AE60"/>
<path d="M242.802 188.259L248.324 189.377C248.324 189.377 258.935 208.76 249.695 227.542C240.454 246.324 231.053 272.779 229.1 278.254C227.156 283.729 230.358 355.739 230.358 355.739L226.01 356.603C226.01 356.603 224.226 338.121 223.625 332.797C223.024 327.472 218.986 278.169 219.887 272.769C220.789 267.369 235.664 223.382 240.501 209.849C245.976 194.514 242.792 188.25 242.792 188.25L242.802 188.259Z" fill="#2DBA66"/>
<path d="M140.947 267.265C139.895 266.27 137.003 263.415 135.763 257.855C135.059 269.613 139.604 279.915 127.63 300.744C127.63 300.744 141.999 280.525 141.783 278.741C141.924 279.868 141.989 267.791 140.937 267.265H140.947Z" fill="url(#paint60_linear_1781_9590)"/>
<path d="M248.314 189.376C250.099 202.523 230.152 256.691 229.185 261.368C228.227 266.044 224.677 291.804 224.809 295.589C224.94 299.373 228.274 355.541 229.185 362.678C230.105 369.815 231.016 420.142 235.768 421.841C247.676 426.086 280.075 432.003 280.075 430.012C280.075 410.328 270.177 378.821 267.491 364.096C266.28 357.466 257.959 313.403 258.926 308.914C259.894 304.425 270.252 269.228 270.252 269.228C270.252 269.228 266.533 233.11 268.665 229.1C270.797 225.09 286.836 199.65 286.836 199.65" fill="url(#paint61_linear_1781_9590)"/>
<path d="M231.937 314.176L256.898 316.045L264.364 349.045L229.27 343.992L231.937 314.176Z" fill="url(#paint62_linear_1781_9590)"/>
<path d="M266.692 259.274C270.909 259.274 268.411 274.441 268.496 275.248C268.496 275.248 261.574 299.195 261.274 300.247C260.973 301.299 258.936 308.896 258.936 308.896C258.936 308.896 266.317 360.03 268.899 370.708C268.899 370.708 259.508 345.371 257.311 336.919C255.123 328.467 251.639 304.276 251.47 301.243C251.291 298.2 262.476 259.265 266.692 259.265V259.274Z" fill="url(#paint63_linear_1781_9590)"/>
<path d="M268.11 203.981L253.564 205.766L268.702 215.936C268.702 215.936 242.905 259.623 241.496 262.281C240.088 264.939 237.899 271.813 236.96 275.569C236.021 279.326 233.364 320.956 233.364 320.956L229.786 358.088L230.697 303.141C230.697 303.141 233.674 264.77 237.749 251.622" fill="url(#paint64_linear_1781_9590)"/>
<path d="M240.67 181.984C245.591 184.332 273.914 196.371 273.914 196.371L253.564 204.063L266.223 213.266C266.223 213.266 236.857 262.616 234.857 272.26C232.453 283.858 230.744 354.394 229.25 363.588C229.25 363.588 222.048 280.656 223.428 273.838C226.086 260.691 237.871 228.235 237.871 228.235C237.871 228.235 246.455 204.964 246.99 199.771" fill="url(#paint65_linear_1781_9590)"/>
<path d="M226.433 174.82C226.433 174.82 227.72 178.464 227.786 179.328C228.227 179.525 234.829 180.304 240.886 186.531C243.262 188.972 243.741 191.696 246.324 200.185C247.939 205.482 243.149 213.276 243.149 213.276C243.149 213.276 249.019 200.72 248.324 194.194C247.629 187.667 238.538 177.806 226.433 174.811V174.82Z" fill="url(#paint66_linear_1781_9590)"/>
<path d="M171.899 185.778L180.821 184.163C180.821 184.163 175.177 190.342 172.209 195.62C169.242 200.907 146.572 258.089 146.384 263.076C146.205 268.063 156.676 325.198 157.146 328.578C157.616 331.959 155.615 353.85 155.615 353.85C155.615 353.85 149.586 351.746 148.769 350.844C148.769 350.844 148.168 321.451 148.215 318.793C148.262 316.135 137.491 264.466 138.73 260.634C139.97 256.812 171.899 185.769 171.899 185.769V185.778Z" fill="#2DBA66"/>
<path d="M144.647 288.893C144.647 288.893 154.536 326.842 154.817 329.659C155.099 332.477 144.9 416.141 143.172 418.104C140.637 420.987 129.236 421.926 129.236 421.926C129.236 421.926 142.121 323.593 141.773 320.776C141.426 317.958 138.158 269.979 138.158 269.979L144.637 288.893H144.647Z" fill="url(#paint67_linear_1781_9590)"/>
<path d="M152.564 197.836L149.587 200.231L158.715 202.259L142.233 207.274C142.233 207.274 138.984 225.239 137.914 231.522C136.834 237.795 131.622 256.483 131.622 256.483L139.012 283.999L143.21 277.388L140.092 242.556L162.621 193.948L152.564 197.836Z" fill="url(#paint68_linear_1781_9590)"/>
<path d="M190.184 174.331C190.184 174.331 185.845 173.824 170.576 180.792C166.491 182.652 149.596 198.391 149.596 198.391L159.532 199.34L145.248 204.505C145.248 204.505 141.942 225.513 141.567 227.194C140.186 233.41 133.321 254.521 134.129 257.564C134.946 260.607 137.745 274.468 137.745 274.468L150.695 329.293L151.324 361.466C151.324 361.466 154.987 331.612 154.808 329.668C154.63 327.724 146.103 294.152 143.717 261.555C147.427 250.483 166.923 198.804 171.609 191.977C181.469 177.637 190.175 174.331 190.175 174.331H190.184Z" fill="url(#paint69_linear_1781_9590)"/>
<path d="M157.212 225.411C157.212 225.411 168.209 198.468 169.42 196.111C174.444 186.279 182.408 180.841 184.756 179.019C187.592 176.812 190.634 176.061 190.634 176.061L190.569 173.948C187.028 175.225 186.831 175.132 183.6 177.291C182.52 178.015 173.27 183.555 167.87 194.89C161.888 207.455 157.221 225.411 157.221 225.411H157.212Z" fill="url(#paint70_linear_1781_9590)"/>
<path d="M179.91 184.335L182.136 183.837C182.136 183.837 180.849 190.486 184.869 193.951C188.888 197.426 199.801 200.478 210.957 200.769C222.536 201.069 230.772 198.769 235.693 195.829C240.614 192.89 242.849 188.185 242.849 188.185L242.417 188.739C242.417 188.739 242.567 194.693 236.228 197.745C229.889 200.797 220.808 204.798 205.398 202.844C189.977 200.891 186.014 198.6 182.399 194.928C178.783 191.246 179.91 184.344 179.91 184.344V184.335Z" fill="url(#paint71_linear_1781_9590)"/>
<path d="M160.856 186.598C160.856 186.598 157.766 187.217 154.677 188.034C151.888 188.776 148.958 189.697 147.915 190.551C146.948 191.34 144.703 195.275 142.487 199.435C141.323 201.445 140.468 203.248 139.82 204.45C139.088 205.812 138.036 207.99 136.881 210.432C133.716 217.175 129.8 225.984 129.8 225.984L132.814 229.317C132.814 229.317 138.533 216.029 142.694 206.432C145.276 200.487 149.258 194.852 151.906 191.425C155.249 189.518 160.847 186.607 160.847 186.607L160.856 186.598Z" fill="url(#paint72_linear_1781_9590)"/>
<path d="M142.252 222.049C143.191 222.415 151.831 244.841 161.889 268.403C172.266 292.716 184.033 318.176 182.803 317.903C180.389 317.377 133.124 308.071 132.025 307.526C131.499 307.263 123.874 287.889 115.215 266.731C107.89 248.813 97.0437 228.191 94.0386 220.293C94.0574 219.739 95.4284 218.34 95.6726 218.105C96.0952 217.682 107.562 218.227 118.605 219.269C130.194 220.359 141.275 221.673 142.252 222.049Z" fill="url(#paint73_linear_1781_9590)"/>
<path d="M140.628 224.208C139.651 223.832 128.57 222.518 116.981 221.428C105.928 220.395 94.3298 219.55 94.0481 220.264C93.7945 220.893 100.894 238.013 108.67 256.898C122.691 254.156 136.195 249.62 149.699 245.178C144.731 233.064 141.219 224.433 140.637 224.208H140.628Z" fill="url(#paint74_linear_1781_9590)"/>
<path d="M160.264 270.573C156.414 261.549 152.77 252.702 149.69 245.189C136.185 249.631 122.681 254.167 108.66 256.909C110.294 260.872 111.957 264.92 113.591 268.902C122.249 290.06 129.875 309.433 130.401 309.696C131.499 310.241 178.764 319.548 181.178 320.074C182.408 320.336 170.641 294.877 160.264 270.573Z" fill="url(#paint75_linear_1781_9590)"/>
<path d="M228.03 318.409L231.42 340.149C236.209 340.619 242.379 341.201 249.601 342.008C248.493 334.345 250.362 328.091 248.746 320.296C237.205 320.447 228.03 318.399 228.03 318.399V318.409Z" fill="#F7D9AB"/>
<path d="M265.584 248.652C265.584 248.652 270.881 268.467 272.233 270.58C273.576 272.693 290.386 314.21 290.386 314.21C290.386 314.21 331.706 339.05 332.289 330.588C332.862 322.127 326.194 306.078 313.591 265.105C306.82 243.092 297.561 200.363 281.361 196.71C281.361 196.71 263.283 220.563 265.594 248.652H265.584Z" fill="url(#paint76_linear_1781_9590)"/>
<path d="M231.42 340.148C231.42 340.148 241.468 341.332 249.638 342.28C249.563 341.782 249.497 341.275 249.432 340.778C243.703 340.693 237.702 340.496 231.42 340.148Z" fill="url(#paint77_linear_1781_9590)"/>
<path d="M228.03 318.411C232.415 321.322 239.787 323.698 247.864 325.21C247.591 323.078 248.333 322.496 247.864 320.318C237.721 320.731 228.03 318.411 228.03 318.411Z" fill="url(#paint78_linear_1781_9590)"/>
<path d="M203.388 306.876L177.299 304.763C177.299 304.763 164.133 300.547 162.039 300.49C159.353 300.415 156.076 302.425 159.513 305.242C162.941 308.05 172.397 313.159 175.196 314.023C177.882 314.849 190.381 318.352 190.381 318.352L203.378 317.404V306.886L203.388 306.876Z" fill="#F7D9AB"/>
<path d="M192.653 306.014C197.555 306.981 203.96 306.558 208.937 307.601C209.998 307.826 228.414 318.635 228.414 318.635L231.419 340.15C231.419 340.15 220.075 339.915 216.112 340.441C212.149 340.967 203.124 342.188 202.138 341.953C201.152 341.718 188.127 338.309 188.906 335.717C189.686 333.116 192.644 306.014 192.644 306.014H192.653Z" fill="#F7D9AB"/>
<path d="M195.114 310.165C201.979 311.884 198.852 316.617 194.072 315.593C184.841 313.612 184.305 313.452 178.342 311.517C174.942 310.409 174.219 306.719 182.173 307.479C190.053 308.231 193.884 309.855 195.124 310.165H195.114Z" fill="url(#paint79_linear_1781_9590)"/>
<path d="M163.729 303.828C163.908 303.105 160.367 300.635 159.531 300.87C158.799 301.077 157.465 302.852 157.71 303.302C158.226 304.27 161.006 305.622 161.992 305.631C162.987 305.641 163.532 304.645 163.729 303.819V303.828Z" fill="#FFE2BD"/>
<path d="M159.504 305.234C159.504 305.234 169.467 309.507 172.529 311.01C173.055 311.263 183.808 314.578 186.381 315.161C189.151 315.79 191.433 316.738 191.433 316.738C191.452 318.241 170.275 313.311 170.275 313.311C170.275 313.311 160.799 306.408 159.494 305.234H159.504Z" fill="url(#paint80_linear_1781_9590)"/>
<path d="M189.404 329.868C193.114 330.573 200.035 332.423 200.533 328.666C201.03 324.91 202.514 322.384 197.809 319.97C193.114 317.557 174.313 313.349 174.313 313.349L161.663 306.935C161.663 306.935 159.362 306.532 158.151 307.649C156.545 309.142 157.897 311.49 160.987 314.204C162.875 315.866 168.143 321.238 169.805 321.764C172.322 322.562 189.395 329.859 189.395 329.859L189.404 329.868Z" fill="#F7D9AB"/>
<path d="M174.266 315.602C177.769 316.127 188.606 319.555 191.32 320.569C194.616 321.809 195.743 325.847 191.32 325.847C187.554 325.847 175.834 321.17 173.561 320.09C170.519 318.635 171.129 315.132 174.266 315.592V315.602Z" fill="url(#paint81_linear_1781_9590)"/>
<path d="M162.715 310.973C163.034 310.306 160.198 307.188 159.343 307.254C158.602 307.31 156.949 308.757 157.08 309.245C157.371 310.287 159.719 312.165 160.668 312.372C161.607 312.588 162.349 311.733 162.715 310.973Z" fill="#FFE2BD"/>
<path d="M159.334 312.599C159.334 312.599 166.021 316.872 167.73 317.801C170.575 319.332 175.984 322.516 183.488 325.925C185.225 326.713 187.498 327.718 187.498 328.235C187.498 329.333 173.937 322.722 172.773 322.271C171.608 321.821 164.753 318.947 159.325 312.599H159.334Z" fill="url(#paint82_linear_1781_9590)"/>
<path d="M202.138 341.953C202.138 341.953 184.699 336.318 181.985 335.332C179.262 334.346 168.64 324.664 168.64 324.664C168.64 324.664 199.79 337.417 201.152 339.539C202.514 341.662 202.148 341.944 202.148 341.944L202.138 341.953Z" fill="#F7D9AB"/>
<path d="M169.289 325.48L174.407 329.735C174.407 329.735 183.591 333.491 184.54 332.204L169.289 325.49V325.48Z" fill="url(#paint83_linear_1781_9590)"/>
<path d="M201.152 340.15C203.622 339.915 200.786 334.591 200.044 333.642C199.302 332.694 189.413 329.858 189.413 329.858L163.588 316.738C163.588 316.738 159.569 316.372 160.555 319.415C161.541 322.458 170.115 326.439 170.115 326.439L201.152 340.141V340.15Z" fill="#F7D9AB"/>
<path d="M189.301 330.262C191.104 331.229 191.104 333.06 189.188 333.596C187.273 334.131 177.112 329.144 174.435 327.895C172.698 327.088 172.407 325.097 175.9 325.745C179.394 326.393 188.277 329.717 189.301 330.262Z" fill="url(#paint84_linear_1781_9590)"/>
<path d="M164.574 320.551C164.875 319.931 162.245 317.302 161.456 317.358C160.761 317.405 159.663 318.805 159.785 319.265C160.057 320.241 161.963 321.331 162.837 321.528C163.72 321.725 164.227 321.256 164.574 320.551Z" fill="#FFE2BD"/>
<path d="M160.386 300.69C160.386 300.69 161.588 300.258 162.734 300.455C163.279 300.549 175.055 303.742 177.29 304.399C179.525 305.057 206.562 306.653 208.928 307.592C211.295 308.541 226.734 317.65 226.734 317.65C226.734 317.65 211.642 310.729 207.952 309.827C204.261 308.926 177.121 306.146 176.257 305.874C175.384 305.601 164.574 301.206 160.377 300.69H160.386Z" fill="url(#paint85_linear_1781_9590)"/>
<path d="M159.87 306.925C159.87 306.925 160.705 306.765 161.663 306.944C168.331 310.165 173.684 313.123 174.322 313.264C174.961 313.414 194.56 318.307 194.851 318.41C194.851 318.41 174.369 314.644 173.271 314.429C172.172 314.222 162.762 308.23 159.87 306.916V306.925Z" fill="url(#paint86_linear_1781_9590)"/>
<path d="M161.653 316.954C161.653 316.954 162.79 316.39 164.63 316.954C165.241 317.141 179.177 324.664 179.177 324.664C179.177 324.664 164.104 317.846 161.653 316.954Z" fill="url(#paint87_linear_1781_9590)"/>
<path d="M181.986 335.339C181.986 335.339 200.148 341.706 202.073 342.091C203.998 342.476 215.728 340.899 217.174 340.457C218.62 340.025 231.448 340.147 231.448 340.147C231.448 340.147 221.785 335.151 218.742 335.33C212.535 335.696 203.5 339.969 202.186 339.518C200.871 339.058 181.986 335.33 181.986 335.33V335.339Z" fill="url(#paint88_linear_1781_9590)"/>
<path d="M109.825 242.812C112.388 244.633 109.327 248.296 108.679 249.817C108.425 250.399 109.402 253.358 109.599 255.734C109.665 256.457 111.393 260.561 111.393 260.561L105.636 266.439C105.636 266.439 102.096 255.921 102.237 254.081C102.378 252.24 102.237 247.582 103.026 246.624C104.594 244.709 107.965 241.487 109.834 242.812H109.825Z" fill="#F7D9AB"/>
<path d="M106.961 245.224C106.961 245.224 106.886 242.407 109.215 242.539C109.215 242.539 108.36 242.182 106.811 242.952C104.932 243.891 104.406 245.046 104.406 245.224C104.406 245.403 104.867 246.032 106.951 245.224H106.961Z" fill="#FFE2BD"/>
<path d="M109.994 242.942C109.994 242.942 110.727 243.421 110.849 244.417C110.942 245.177 111.018 245.938 108.745 249.817C108.745 249.817 109.215 252.512 109.515 255.714L111.722 261.593L108.67 264.711C108.67 264.711 105.599 256.362 105.336 255.339C105.073 254.315 107.271 249.817 107.271 249.817C107.271 249.817 111.018 246.586 109.985 242.942H109.994Z" fill="url(#paint89_linear_1781_9590)"/>
<path d="M103.899 245.628C103.899 245.628 103.336 246.126 102.847 246.877C102.359 247.628 102.049 254.277 102.199 255.15C102.35 256.024 104.096 261.837 105.186 265.049C104.275 261.658 102.969 255.601 102.913 255.15C102.875 254.831 103.044 248.182 103.176 247.3C103.251 246.774 103.899 245.628 103.899 245.628Z" fill="url(#paint90_linear_1781_9590)"/>
<path d="M111.731 261.255L109.609 255.733C109.609 255.733 109.224 251.009 108.754 249.816C108.754 249.816 108.942 255.179 108.679 255.939C108.679 255.939 110.971 261.189 110.971 261.752L111.731 261.255Z" fill="url(#paint91_linear_1781_9590)"/>
<path d="M127.311 302.652C127.311 302.652 122.287 289.391 121.62 288.884C120.953 288.387 130.889 280.733 131.903 279.108C132.917 277.493 132.579 274.385 127.48 276.967C122.381 279.55 114.962 283.222 114.567 282.696C114.023 281.973 119.019 276.939 121.432 275.145C123.846 273.352 129.79 268.412 129.987 266.994C130.156 265.782 129.264 263.463 124.4 265.933C122.55 266.872 120.352 268.327 118.164 269.389C114.605 271.126 110.313 273.173 111.111 271.727C112.398 269.398 117.291 264.336 119.037 261.979C121.573 258.561 123.451 255.631 120.484 254.983C116.868 254.194 107.289 263.97 105.834 265.238C104.378 266.506 102.096 270.055 101.955 272.488C101.814 274.92 104.885 278.028 104.885 278.028C104.885 278.028 104.087 279.907 105.345 282.179C106.604 284.452 108.388 285.701 109.036 286.433C109.693 287.166 109.336 289.382 111.309 291.27C113.281 293.157 116.38 295.956 116.38 295.956C116.38 295.956 119.667 302.924 127.311 302.661V302.652Z" fill="#F7D9AB"/>
<path d="M121.864 256.429C121.864 256.429 122.728 257.321 120.23 260.561C117.732 263.81 113.562 268.675 113.262 269.097C112.961 269.52 111.262 271.454 111.403 271.67C111.543 271.896 114.239 271.323 116.99 269.933C119.751 268.553 126.325 264.176 128.381 264.899C128.381 264.899 126.146 265.594 121.864 268.337C117.582 271.079 109.618 275.258 108.679 274.638C107.167 273.633 108.754 271.868 111.403 269.107C120.399 259.744 121.864 256.429 121.864 256.429Z" fill="url(#paint92_linear_1781_9590)"/>
<path d="M129.753 266.712C129.753 266.712 130.504 267.304 128.607 269.163C126.71 271.022 118.765 277.512 117.591 278.704C116.427 279.897 114.68 281.972 115.047 282.395C115.413 282.827 118.972 281.061 120.7 280.254C122.428 279.446 129.574 274.985 131.462 276.178C131.462 276.178 128.635 277.089 121.864 280.742C115.093 284.395 112.699 285.992 111.731 284.79C110.764 283.588 111.901 282.339 114.755 279.662C117.61 276.986 128.044 269.398 129.753 266.721V266.712Z" fill="url(#paint93_linear_1781_9590)"/>
<path d="M132.335 277.211C132.335 277.211 132.965 278.347 131.716 279.577C130.457 280.808 127.893 283.024 126.41 284.282C124.926 285.541 122.578 287.447 121.705 288.762C121.705 288.762 123.423 292.349 124.259 294.415C125.095 296.481 127.311 302.661 127.311 302.661C127.311 302.661 120.521 298.472 119.723 294.941C118.916 291.41 116.981 289.354 118.981 287.588C120.982 285.823 122.794 285.653 126.419 282.968C130.044 280.291 132.025 279.277 132.345 277.22L132.335 277.211Z" fill="url(#paint94_linear_1781_9590)"/>
<path d="M111.224 264.006C110.511 261.799 113.666 260.418 115.037 259.742C116.408 259.066 119.329 258.982 117.122 261.461C114.915 263.94 111.825 265.875 111.215 264.006H111.224Z" fill="url(#paint95_linear_1781_9590)"/>
<path d="M119.789 272.59C119.226 270.449 122.381 268.946 123.696 268.355C125.011 267.763 127.011 267.725 124.823 270.008C122.644 272.29 120.259 274.412 119.789 272.59Z" fill="url(#paint96_linear_1781_9590)"/>
<path d="M124.419 281.709C123.996 279.54 127.236 278.244 128.598 277.737C129.95 277.23 131.941 277.324 129.621 279.465C127.292 281.596 124.785 283.559 124.428 281.719L124.419 281.709Z" fill="url(#paint97_linear_1781_9590)"/>
<path d="M125.893 269.603C126.485 270.044 130.091 267.856 130.194 267.011C130.288 266.269 128.908 264.419 128.401 264.457C127.321 264.541 125.302 266.429 124.917 267.311C124.522 268.194 125.226 269.086 125.903 269.594L125.893 269.603Z" fill="#FFE2BD"/>
<path d="M128.739 280.198C129.274 280.601 132.561 278.61 132.655 277.84C132.739 277.164 131.593 275.596 131.124 275.633C130.138 275.709 128.194 277.324 127.837 278.122C127.48 278.93 128.119 279.737 128.729 280.207L128.739 280.198Z" fill="#FFE2BD"/>
<path d="M120.474 254.981C120.474 254.981 118.296 254.305 113.497 258.352C108.707 262.4 105.317 265.499 104.726 266.429C104.726 266.429 109.703 263.001 110.21 262.372C110.708 261.742 117.929 255.45 120.474 254.981Z" fill="url(#paint98_linear_1781_9590)"/>
<path d="M103.214 268.731C103.214 268.731 101.645 271.248 101.936 272.986C102.293 275.146 103.711 276.761 104.866 278.038C104.866 278.038 104.106 279.494 105.064 281.869C106.022 284.245 108.642 285.776 108.989 286.574C109.346 287.382 109.29 289.335 111.29 291.261C113.337 293.233 115.375 295.045 115.375 295.045C115.375 295.045 111.928 290.537 111.111 288.885C110.294 287.232 109.9 285.006 109.9 284.837C109.9 284.668 106.538 282.348 106.303 281.165C106.078 279.991 105.787 276.855 105.965 276.395C106.134 275.934 103.561 274.469 103.167 272.92C102.829 271.549 102.847 270.309 103.204 268.731H103.214Z" fill="url(#paint99_linear_1781_9590)"/>
<path d="M118.531 259.716C119.188 260.054 122.353 257.265 122.306 256.411C122.268 255.669 120.85 254.213 120.352 254.335C119.301 254.608 117.385 256.702 117.159 257.641C116.934 258.58 117.77 259.331 118.531 259.716Z" fill="#FFE2BD"/>
<path d="M238.773 319.93L242.68 320.118L245.628 341.895L241.243 341.304L238.773 319.93Z" fill="url(#paint100_linear_1781_9590)"/>
<path d="M288.499 310.126C288.499 310.126 273.501 319.489 251.517 318.653C250.033 318.597 242.774 318.54 241.083 318.484C242.745 326.504 242.764 334.111 243.901 341.999C257.48 343.53 279.906 345.061 295.636 342.995C320.484 339.726 331.894 334.89 332.317 331.444C333.472 322.071 288.499 310.135 288.499 310.135V310.126Z" fill="url(#paint101_linear_1781_9590)"/>
<path d="M331.857 324.963C331.857 324.963 331.003 328.691 322.673 332.682C315.413 336.157 283.39 341.284 243.722 340.721C243.938 343.858 243.732 344.562 243.722 345.492C248.089 345.999 286.855 345.952 303.637 342.759C326.927 338.326 332.167 333.697 332.449 331.931C332.74 330.175 331.857 324.963 331.857 324.963Z" fill="url(#paint102_linear_1781_9590)"/>
<path d="M301.336 316.99C285.052 296.715 274.337 264.786 274.337 264.786L274.309 264.805L265.575 244.529L258.494 275.952C258.494 275.952 263.312 279.905 266.383 282.572C268.13 277.558 271.576 271.406 271.576 271.406C274.234 279.896 290.386 314.201 290.386 314.201C290.386 314.201 302.876 318.897 301.346 316.99H301.336Z" fill="url(#paint103_linear_1781_9590)"/>
<path d="M288.498 310.126C284.207 312.07 252.521 316.681 240.999 318.043C241.477 320.287 241.834 322.504 242.107 324.701C267.265 329.406 308.351 328.026 311.065 323.555C314.671 317.611 289.945 309.478 288.508 310.126H288.498Z" fill="url(#paint104_linear_1781_9590)"/>
<path d="M286.845 199.632C286.845 199.632 290.874 202.506 294.077 208.76C297.279 215.014 318.869 293.749 317.695 303.844C316.521 313.939 285.427 259.688 281.38 248.597C277.342 237.506 264.194 183.526 286.845 199.632Z" fill="url(#paint105_linear_1781_9590)"/>
<path d="M218.874 248.875C216.526 259.759 211.427 272.296 200.232 280.034C203.679 279.048 206.9 277.32 209.886 274.785C215.446 270.08 218.564 264.088 219.24 256.801C219.493 254.04 219.371 251.401 218.874 248.884V248.875Z" fill="white"/>
<path d="M177.13 231.484C182.436 230.31 187.085 228.638 190.898 226.572C185.892 226.788 181.3 228.422 177.13 231.484Z" fill="white"/>
<path d="M199.706 227.324C202.88 229.888 206.862 232.236 211.492 234.274C208.168 230.79 204.233 228.489 199.706 227.324Z" fill="white"/>
<path d="M168.059 242.435C166.857 245.093 166.077 247.985 165.786 251.131C165.11 258.419 167.073 264.889 171.665 270.533C174.341 273.82 177.459 276.233 180.999 277.839C170.857 267.857 168.228 253.883 168.059 242.426V242.435Z" fill="white"/>
<path d="M216.112 248.452C216.817 245.165 217.277 242.047 217.549 239.324C214.722 238.469 212.093 237.464 209.642 236.394C205.425 234.544 201.8 232.403 198.908 230.064C197.715 229.106 196.626 228.111 195.696 227.097L195.18 227.05C194.109 227.867 192.888 228.609 191.583 229.313C188.118 231.201 183.882 232.722 179.046 233.793C176.642 234.328 174.097 234.75 171.439 235.051C171.233 237.53 171.101 240.347 171.139 243.353C171.289 253.795 173.684 266.511 182.924 275.601C185.047 277.686 187.498 279.621 190.4 281.245C193.705 280.128 196.579 278.597 199.133 276.832C209.332 269.779 213.971 258.378 216.112 248.461V248.452ZM198.241 271.544C197.02 272.408 195.724 273.179 194.382 273.827C193.668 274.174 192.935 274.484 192.193 274.766C191.846 274.897 191.348 275.179 190.973 275.151C190.634 275.122 190.193 274.747 189.902 274.578C187.329 273.009 185 271.009 183.084 268.68C182.727 268.239 182.38 267.779 182.051 267.319C179.196 263.327 177.487 258.604 176.651 253.786C176.379 252.227 176.191 250.649 176.069 249.062C175.853 245.935 175.909 242.78 176.172 239.662C176.191 239.437 176.379 239.221 176.604 239.202C178.323 239.005 180.041 238.742 181.741 238.385C183.018 238.122 184.286 237.812 185.545 237.427C186.709 237.079 187.864 236.676 188.982 236.206C189.141 236.14 189.301 236.075 189.461 236.009C190.55 235.539 191.611 235.004 192.625 234.394C193.086 234.121 193.518 233.83 193.95 233.52C194.194 233.342 194.391 233.145 194.71 233.154C194.823 233.154 194.954 233.173 195.076 233.192C195.236 233.21 195.349 233.276 195.424 233.379C196.203 234.243 197.067 235.023 197.988 235.746C202.016 238.911 206.862 240.986 211.727 242.479C211.943 242.545 212.084 242.799 212.065 243.015C212.008 243.503 211.962 244.001 211.896 244.489C211.511 247.663 210.9 250.837 209.971 253.899C209.492 255.495 208.938 257.064 208.28 258.594C206.749 262.163 204.665 265.515 201.988 268.314C200.852 269.507 199.603 270.596 198.241 271.554V271.544Z" fill="white"/>
<path d="M260.466 155.054C270.552 109.535 245.713 82.4894 240.848 75.9814C235.495 68.8066 225.776 62.3644 219.719 70.8257C219.719 70.8257 224.743 68.384 231.223 73.9905C258.945 107.507 254.888 128.346 248.483 154.199C242.013 180.344 225.466 185.34 241.769 216.734C235.505 178.56 253.423 186.824 260.466 155.054Z" fill="url(#paint106_linear_1781_9590)"/>
<path d="M255.574 118.504C255.574 118.504 258.767 135.107 256.898 151.166C255.038 167.149 242.67 176.888 242.67 176.888C242.67 176.888 251.085 167.131 254.015 148.396C255.179 140.911 255.574 118.513 255.574 118.513V118.504Z" fill="url(#paint107_linear_1781_9590)"/>
<path d="M170.322 177.899C132.523 138.945 172.266 108.124 188.719 88.7313C194.015 82.4863 202.815 64.2395 214.92 67.5076C218.028 68.3528 219.625 70.7475 219.822 70.9166C219.728 70.8414 217.108 69.3952 213.859 69.6488C210.299 69.9211 208.027 71.5458 204.214 76.1661C200.289 80.702 197.64 85.1627 192.926 92.0745C174.82 118.623 147.858 136.851 170.312 177.899H170.322Z" fill="url(#paint108_linear_1781_9590)"/>
</g>
</g>
<defs>
<filter id="filter0_d_1781_9590" x="6.32007" y="6.15039" width="361.93" height="361.93" filterUnits="userSpaceOnUse" color-interpolation-filters="sRGB">
<feFlood flood-opacity="0" result="BackgroundImageFix"/>
<feColorMatrix in="SourceAlpha" type="matrix" values="0 0 0 0 0 0 0 0 0 0 0 0 0 0 0 0 0 0 127 0" result="hardAlpha"/>
<feOffset dx="6" dy="7"/>
<feGaussianBlur stdDeviation="6"/>
<feColorMatrix type="matrix" values="0 0 0 0 0 0 0 0 0 0 0 0 0 0 0 0 0 0 0.25 0"/>
<feBlend mode="normal" in2="BackgroundImageFix" result="effect1_dropShadow_1781_9590"/>
<feBlend mode="normal" in="SourceGraphic" in2="effect1_dropShadow_1781_9590" result="shape"/>
</filter>
<linearGradient id="paint0_linear_1781_9590" x1="219.128" y1="58.094" x2="205.021" y2="165.39" gradientUnits="userSpaceOnUse">
<stop stop-color="#E0B163"/>
<stop offset="1" stop-color="#A3753D"/>
</linearGradient>
<linearGradient id="paint1_linear_1781_9590" x1="183.365" y1="261.488" x2="171.452" y2="169.138" gradientUnits="userSpaceOnUse">
<stop stop-color="#E0B163"/>
<stop offset="1" stop-color="#A3753D"/>
</linearGradient>
<linearGradient id="paint2_linear_1781_9590" x1="223.835" y1="284.649" x2="241.264" y2="123.157" gradientUnits="userSpaceOnUse">
<stop stop-color="#E0B163"/>
<stop offset="1" stop-color="#A3753D"/>
</linearGradient>
<linearGradient id="paint3_linear_1781_9590" x1="193.883" y1="167.477" x2="223.662" y2="199.895" gradientUnits="userSpaceOnUse">
<stop stop-color="#F0C499"/>
<stop offset="0.52" stop-color="#F1C69B"/>
<stop offset="0.85" stop-color="#F4CEA4"/>
<stop offset="1" stop-color="#F7D4AB"/>
</linearGradient>
<linearGradient id="paint4_linear_1781_9590" x1="190.09" y1="191.677" x2="216.911" y2="195.631" gradientUnits="userSpaceOnUse">
<stop stop-color="#F0C499"/>
<stop offset="0.52" stop-color="#F1C69B"/>
<stop offset="0.85" stop-color="#F4CEA4"/>
<stop offset="1" stop-color="#F7D4AB"/>
</linearGradient>
<linearGradient id="paint5_linear_1781_9590" x1="211.417" y1="190.662" x2="244.37" y2="185.515" gradientUnits="userSpaceOnUse">
<stop stop-color="#F0C499"/>
<stop offset="0.52" stop-color="#F1C69B"/>
<stop offset="0.85" stop-color="#F4CEA4"/>
<stop offset="1" stop-color="#F7D4AB"/>
</linearGradient>
<linearGradient id="paint6_linear_1781_9590" x1="208.75" y1="192.671" x2="175.364" y2="183.9" gradientUnits="userSpaceOnUse">
<stop stop-color="#F0C499"/>
<stop offset="0.52" stop-color="#F1C69B"/>
<stop offset="0.85" stop-color="#F4CEA4"/>
<stop offset="1" stop-color="#F7D4AB"/>
</linearGradient>
<linearGradient id="paint7_linear_1781_9590" x1="206.28" y1="156.863" x2="210.665" y2="175.448" gradientUnits="userSpaceOnUse">
<stop stop-color="#DBA379"/>
<stop offset="0.49" stop-color="#E3B086"/>
<stop offset="1" stop-color="#F0C499"/>
</linearGradient>
<linearGradient id="paint8_linear_1781_9590" x1="166.584" y1="122.623" x2="167.532" y2="156.139" gradientUnits="userSpaceOnUse">
<stop stop-color="#DBA379"/>
<stop offset="0.49" stop-color="#E3B086"/>
<stop offset="1" stop-color="#F0C499"/>
</linearGradient>
<linearGradient id="paint9_linear_1781_9590" x1="686.268" y1="-1332.07" x2="694.237" y2="-1357.55" gradientUnits="userSpaceOnUse">
<stop stop-color="#F7D4AB"/>
<stop offset="0.52" stop-color="#F5D1A8"/>
<stop offset="0.85" stop-color="#F2C99F"/>
<stop offset="1" stop-color="#F0C499"/>
</linearGradient>
<radialGradient id="paint10_radial_1781_9590" cx="0" cy="0" r="1" gradientUnits="userSpaceOnUse" gradientTransform="translate(644.629 43.9788) rotate(167.79) scale(13.1973 14.5764)">
<stop stop-color="#F9B38E"/>
<stop offset="0.61" stop-color="#F7C59E"/>
<stop offset="1" stop-color="#F7D4AB"/>
</radialGradient>
<linearGradient id="paint11_linear_1781_9590" x1="-228.83" y1="-1268.34" x2="-236.462" y2="-1293.74" gradientUnits="userSpaceOnUse">
<stop stop-color="#F7D4AB"/>
<stop offset="0.52" stop-color="#F5D1A8"/>
<stop offset="0.85" stop-color="#F2C99F"/>
<stop offset="1" stop-color="#F0C499"/>
</linearGradient>
<radialGradient id="paint12_radial_1781_9590" cx="0" cy="0" r="1" gradientUnits="userSpaceOnUse" gradientTransform="translate(-271.987 13.0402) rotate(15.2) scale(12.5955 12.9716)">
<stop stop-color="#F9B38E"/>
<stop offset="0.61" stop-color="#F7C59E"/>
<stop offset="1" stop-color="#F7D4AB"/>
</radialGradient>
<linearGradient id="paint13_linear_1781_9590" x1="233.534" y1="131.438" x2="240.815" y2="130.697" gradientUnits="userSpaceOnUse">
<stop stop-color="#FFD9B3"/>
<stop offset="1" stop-color="#F7D4AB"/>
</linearGradient>
<linearGradient id="paint14_linear_1781_9590" x1="173.675" y1="128.363" x2="180.885" y2="128.399" gradientUnits="userSpaceOnUse">
<stop stop-color="#FFD9B3"/>
<stop offset="1" stop-color="#F7D4AB"/>
</linearGradient>
<linearGradient id="paint15_linear_1781_9590" x1="194.486" y1="151.045" x2="189.549" y2="147.038" gradientUnits="userSpaceOnUse">
<stop stop-color="#F7D4AB"/>
<stop offset="0.52" stop-color="#F5D1A8"/>
<stop offset="0.85" stop-color="#F2C99F"/>
<stop offset="1" stop-color="#F0C499"/>
</linearGradient>
<linearGradient id="paint16_linear_1781_9590" x1="218.536" y1="145.311" x2="225.929" y2="140.847" gradientUnits="userSpaceOnUse">
<stop stop-color="#F7D4AB"/>
<stop offset="0.52" stop-color="#F5D1A8"/>
<stop offset="0.85" stop-color="#F2C99F"/>
<stop offset="1" stop-color="#F0C499"/>
</linearGradient>
<linearGradient id="paint17_linear_1781_9590" x1="222.588" y1="145.182" x2="200.915" y2="146.246" gradientUnits="userSpaceOnUse">
<stop stop-color="#E8D8D7"/>
<stop offset="0.14" stop-color="#EFE4E4"/>
<stop offset="0.39" stop-color="#FAF8F7"/>
<stop offset="0.57" stop-color="white"/>
<stop offset="1" stop-color="#E8D2D1"/>
</linearGradient>
<linearGradient id="paint18_linear_1781_9590" x1="675.311" y1="140.344" x2="709.47" y2="140.028" gradientUnits="userSpaceOnUse">
<stop stop-color="#E8D8D7"/>
<stop offset="0.04" stop-color="#EBDDDC"/>
<stop offset="0.21" stop-color="#F6F0EF"/>
<stop offset="0.38" stop-color="#FCFBFB"/>
<stop offset="0.57" stop-color="white"/>
<stop offset="0.69" stop-color="#FBF7F7"/>
<stop offset="0.87" stop-color="#F1E3E3"/>
<stop offset="1" stop-color="#E8D2D1"/>
</linearGradient>
<linearGradient id="paint19_linear_1781_9590" x1="197.898" y1="152.774" x2="222.343" y2="150.075" gradientUnits="userSpaceOnUse">
<stop stop-color="#F96E7E"/>
<stop offset="0.03" stop-color="#F9707F"/>
<stop offset="0.25" stop-color="#FD7985"/>
<stop offset="0.53" stop-color="#FF7D88"/>
<stop offset="0.76" stop-color="#FD7985"/>
<stop offset="1" stop-color="#F86D7D"/>
</linearGradient>
<linearGradient id="paint20_linear_1781_9590" x1="196.424" y1="143.687" x2="222.868" y2="143.816" gradientUnits="userSpaceOnUse">
<stop stop-color="#E8D8D7"/>
<stop offset="0.05" stop-color="#EADCDB"/>
<stop offset="0.31" stop-color="#F6EFEE"/>
<stop offset="0.48" stop-color="#FBF6F6"/>
<stop offset="1" stop-color="#E8D2D1"/>
</linearGradient>
<linearGradient id="paint21_linear_1781_9590" x1="200.443" y1="147.735" x2="219.167" y2="147.545" gradientUnits="userSpaceOnUse">
<stop stop-color="#F96E7E"/>
<stop offset="0.03" stop-color="#F9707F"/>
<stop offset="0.25" stop-color="#FD7985"/>
<stop offset="0.53" stop-color="#FF7D88"/>
<stop offset="0.76" stop-color="#FD7985"/>
<stop offset="1" stop-color="#F86D7D"/>
</linearGradient>
<linearGradient id="paint22_linear_1781_9590" x1="204.708" y1="159.253" x2="204.776" y2="164.323" gradientUnits="userSpaceOnUse">
<stop stop-color="#FFD9B3"/>
<stop offset="0.68" stop-color="#FCD7B0"/>
<stop offset="1" stop-color="#F7D4AB"/>
</linearGradient>
<linearGradient id="paint23_linear_1781_9590" x1="208.778" y1="169.073" x2="211.567" y2="194.72" gradientUnits="userSpaceOnUse">
<stop stop-color="#DBA379"/>
<stop offset="0.49" stop-color="#E3B086"/>
<stop offset="1" stop-color="#F0C499"/>
</linearGradient>
<linearGradient id="paint24_linear_1781_9590" x1="245.91" y1="231.843" x2="244.952" y2="265.351" gradientUnits="userSpaceOnUse">
<stop stop-color="#DBA379"/>
<stop offset="0.49" stop-color="#E3B086"/>
<stop offset="1" stop-color="#F0C499"/>
</linearGradient>
<linearGradient id="paint25_linear_1781_9590" x1="244.435" y1="115.778" x2="237.815" y2="189.216" gradientUnits="userSpaceOnUse">
<stop stop-color="#A3753D"/>
<stop offset="1" stop-color="#E0B163"/>
</linearGradient>
<linearGradient id="paint26_linear_1781_9590" x1="173.749" y1="136.7" x2="165.269" y2="72.2309" gradientUnits="userSpaceOnUse">
<stop stop-color="#A3753D"/>
<stop offset="1" stop-color="#E0B163"/>
</linearGradient>
<linearGradient id="paint27_linear_1781_9590" x1="181.32" y1="64.901" x2="193.266" y2="208.663" gradientUnits="userSpaceOnUse">
<stop stop-color="#E0B163"/>
<stop offset="1" stop-color="#A3753D"/>
</linearGradient>
<linearGradient id="paint28_linear_1781_9590" x1="154.027" y1="87.2842" x2="217.404" y2="97.2088" gradientUnits="userSpaceOnUse">
<stop stop-color="#E0B163"/>
<stop offset="1" stop-color="#F4C381"/>
</linearGradient>
<linearGradient id="paint29_linear_1781_9590" x1="272.103" y1="110.185" x2="230.346" y2="65.0278" gradientUnits="userSpaceOnUse">
<stop stop-color="#E0B163"/>
<stop offset="1" stop-color="#F4C381"/>
</linearGradient>
<linearGradient id="paint30_linear_1781_9590" x1="146.797" y1="81.736" x2="264.213" y2="81.736" gradientUnits="userSpaceOnUse">
<stop stop-color="#E0B163"/>
<stop offset="1" stop-color="#F4C381"/>
</linearGradient>
<linearGradient id="paint31_linear_1781_9590" x1="225.486" y1="136.732" x2="242.7" y2="139.941" gradientUnits="userSpaceOnUse">
<stop stop-color="#FFD9B3"/>
<stop offset="0.68" stop-color="#FCD7B0"/>
<stop offset="1" stop-color="#F7D4AB"/>
</linearGradient>
<linearGradient id="paint32_linear_1781_9590" x1="218.76" y1="104.988" x2="242.717" y2="104.988" gradientUnits="userSpaceOnUse">
<stop stop-color="#956134"/>
<stop offset="0.34" stop-color="#80552B"/>
<stop offset="0.68" stop-color="#744D26"/>
<stop offset="1" stop-color="#704B25"/>
</linearGradient>
<linearGradient id="paint33_linear_1781_9590" x1="172.932" y1="104.865" x2="197.067" y2="104.865" gradientUnits="userSpaceOnUse">
<stop stop-color="#704B25"/>
<stop offset="0.32" stop-color="#744D26"/>
<stop offset="0.66" stop-color="#80552B"/>
<stop offset="1" stop-color="#956134"/>
</linearGradient>
<linearGradient id="paint34_linear_1781_9590" x1="196.55" y1="114.305" x2="177.627" y2="121.649" gradientUnits="userSpaceOnUse">
<stop stop-color="#F0C499"/>
<stop offset="0.51" stop-color="#E3B086"/>
<stop offset="1" stop-color="#DBA379"/>
</linearGradient>
<linearGradient id="paint35_linear_1781_9590" x1="191.864" y1="119.096" x2="198.428" y2="119.096" gradientUnits="userSpaceOnUse">
<stop stop-color="white"/>
<stop offset="0.47" stop-color="#FCFCFC"/>
<stop offset="0.77" stop-color="#F5F3F3"/>
<stop offset="1" stop-color="#ECE7E7"/>
</linearGradient>
<linearGradient id="paint36_linear_1781_9590" x1="179.881" y1="118.898" x2="185.337" y2="118.898" gradientUnits="userSpaceOnUse">
<stop stop-color="white"/>
<stop offset="0.47" stop-color="#FCFCFC"/>
<stop offset="0.77" stop-color="#F5F3F3"/>
<stop offset="1" stop-color="#ECE7E7"/>
</linearGradient>
<linearGradient id="paint37_linear_1781_9590" x1="198.194" y1="127.385" x2="182.482" y2="116.229" gradientUnits="userSpaceOnUse">
<stop stop-color="#B89C8C"/>
<stop offset="1" stop-color="#715241"/>
</linearGradient>
<linearGradient id="paint38_linear_1781_9590" x1="209.989" y1="128.617" x2="193.667" y2="119.893" gradientUnits="userSpaceOnUse">
<stop stop-color="#B89C8C"/>
<stop offset="1" stop-color="#715241"/>
</linearGradient>
<radialGradient id="paint39_radial_1781_9590" cx="0" cy="0" r="1" gradientUnits="userSpaceOnUse" gradientTransform="translate(187.469 119.208) scale(4.47952)">
<stop stop-color="#2A3A3B"/>
<stop offset="1" stop-color="#1C2727"/>
</radialGradient>
<linearGradient id="paint40_linear_1781_9590" x1="173.937" y1="118.354" x2="198.438" y2="118.354" gradientUnits="userSpaceOnUse">
<stop stop-color="#391B13"/>
<stop offset="0.34" stop-color="#3D1C14"/>
<stop offset="0.71" stop-color="#492219"/>
<stop offset="1" stop-color="#5A2A1F"/>
</linearGradient>
<linearGradient id="paint41_linear_1781_9590" x1="187.169" y1="110.85" x2="198.306" y2="126.683" gradientUnits="userSpaceOnUse">
<stop stop-color="#DBA379"/>
<stop offset="0.49" stop-color="#E3B086"/>
<stop offset="1" stop-color="#F0C499"/>
</linearGradient>
<linearGradient id="paint42_linear_1781_9590" x1="207.998" y1="142.993" x2="207.951" y2="137.18" gradientUnits="userSpaceOnUse">
<stop stop-color="#F7D4AB"/>
<stop offset="0.52" stop-color="#F5D1A8"/>
<stop offset="0.85" stop-color="#F2C99F"/>
<stop offset="1" stop-color="#F0C499"/>
</linearGradient>
<linearGradient id="paint43_linear_1781_9590" x1="208.171" y1="136.974" x2="207.997" y2="125.734" gradientUnits="userSpaceOnUse">
<stop stop-color="#FFD9B3"/>
<stop offset="1" stop-color="#F7D4AB"/>
</linearGradient>
<linearGradient id="paint44_linear_1781_9590" x1="215.576" y1="136.15" x2="210.712" y2="138.554" gradientUnits="userSpaceOnUse">
<stop stop-color="#DBA379"/>
<stop offset="0.49" stop-color="#E3B086"/>
<stop offset="1" stop-color="#F0C499"/>
</linearGradient>
<linearGradient id="paint45_linear_1781_9590" x1="200.532" y1="136.4" x2="205.735" y2="138.523" gradientUnits="userSpaceOnUse">
<stop stop-color="#DBA379"/>
<stop offset="0.49" stop-color="#E3B086"/>
<stop offset="1" stop-color="#F0C499"/>
</linearGradient>
<linearGradient id="paint46_linear_1781_9590" x1="238.106" y1="113.768" x2="216.384" y2="122.211" gradientUnits="userSpaceOnUse">
<stop stop-color="#DBA379"/>
<stop offset="0.49" stop-color="#E3B086"/>
<stop offset="1" stop-color="#F0C499"/>
</linearGradient>
<linearGradient id="paint47_linear_1781_9590" x1="216.807" y1="118.689" x2="223.371" y2="118.689" gradientUnits="userSpaceOnUse">
<stop stop-color="white"/>
<stop offset="0.47" stop-color="#FCFCFC"/>
<stop offset="0.77" stop-color="#F5F3F3"/>
<stop offset="1" stop-color="#ECE7E7"/>
</linearGradient>
<linearGradient id="paint48_linear_1781_9590" x1="231.476" y1="118.501" x2="236.942" y2="118.501" gradientUnits="userSpaceOnUse">
<stop stop-color="white"/>
<stop offset="0.47" stop-color="#FCFCFC"/>
<stop offset="0.77" stop-color="#F5F3F3"/>
<stop offset="1" stop-color="#ECE7E7"/>
</linearGradient>
<linearGradient id="paint49_linear_1781_9590" x1="234.782" y1="124.313" x2="219.456" y2="114.734" gradientUnits="userSpaceOnUse">
<stop stop-color="#B89C8C"/>
<stop offset="1" stop-color="#715241"/>
</linearGradient>
<linearGradient id="paint50_linear_1781_9590" x1="247.487" y1="118.847" x2="227.578" y2="116.49" gradientUnits="userSpaceOnUse">
<stop stop-color="#B89C8C"/>
<stop offset="1" stop-color="#715241"/>
</linearGradient>
<radialGradient id="paint51_radial_1781_9590" cx="0" cy="0" r="1" gradientUnits="userSpaceOnUse" gradientTransform="translate(225.879 118.81) scale(4.47952)">
<stop stop-color="#2A3A3B"/>
<stop offset="1" stop-color="#1C2727"/>
</radialGradient>
<linearGradient id="paint52_linear_1781_9590" x1="216.816" y1="117.947" x2="241.317" y2="117.947" gradientUnits="userSpaceOnUse">
<stop stop-color="#5A2A1F"/>
<stop offset="0.29" stop-color="#492219"/>
<stop offset="0.66" stop-color="#3D1C14"/>
<stop offset="1" stop-color="#391B13"/>
</linearGradient>
<linearGradient id="paint53_linear_1781_9590" x1="227.804" y1="111.382" x2="211.464" y2="132.174" gradientUnits="userSpaceOnUse">
<stop stop-color="#DBA379"/>
<stop offset="0.49" stop-color="#E3B086"/>
<stop offset="1" stop-color="#F0C499"/>
</linearGradient>
<linearGradient id="paint54_linear_1781_9590" x1="168.81" y1="183.724" x2="253.291" y2="183.724" gradientUnits="userSpaceOnUse">
<stop stop-color="#272628"/>
<stop offset="0.25" stop-color="#2A292C"/>
<stop offset="1" stop-color="#333236"/>
</linearGradient>
<linearGradient id="paint55_linear_1781_9590" x1="134.435" y1="401.167" x2="146.168" y2="135.632" gradientUnits="userSpaceOnUse">
<stop stop-color="#F1F0F5"/>
<stop offset="1" stop-color="#E1E1E5"/>
</linearGradient>
<linearGradient id="paint56_linear_1781_9590" x1="164.881" y1="172.693" x2="235.22" y2="203.687" gradientUnits="userSpaceOnUse">
<stop stop-color="#F0C499"/>
<stop offset="0.52" stop-color="#F1C69B"/>
<stop offset="0.85" stop-color="#F4CEA4"/>
<stop offset="1" stop-color="#F7D4AB"/>
</linearGradient>
<linearGradient id="paint57_linear_1781_9590" x1="160.302" y1="167.607" x2="260.391" y2="217.074" gradientUnits="userSpaceOnUse">
<stop stop-color="#F0C999"/>
<stop offset="0.52" stop-color="#F1CB9B"/>
<stop offset="0.85" stop-color="#F4D3A4"/>
<stop offset="1" stop-color="#F7D9AB"/>
</linearGradient>
<linearGradient id="paint58_linear_1781_9590" x1="129.799" y1="212.892" x2="165.936" y2="212.892" gradientUnits="userSpaceOnUse">
<stop stop-color="#38373B"/>
<stop offset="1" stop-color="#333236"/>
</linearGradient>
<linearGradient id="paint59_linear_1781_9590" x1="246.467" y1="399.348" x2="256.395" y2="174.662" gradientUnits="userSpaceOnUse">
<stop stop-color="#F1F0F5"/>
<stop offset="1" stop-color="#E1E1E5"/>
</linearGradient>
<linearGradient id="paint60_linear_1781_9590" x1="147.763" y1="279.78" x2="119.871" y2="277.507" gradientUnits="userSpaceOnUse">
<stop stop-color="#272628"/>
<stop offset="0.25" stop-color="#2A292C"/>
<stop offset="1" stop-color="#333236"/>
</linearGradient>
<linearGradient id="paint61_linear_1781_9590" x1="254.785" y1="208.505" x2="261.039" y2="443.704" gradientUnits="userSpaceOnUse">
<stop stop-color="#38373B"/>
<stop offset="1" stop-color="#333236"/>
</linearGradient>
<linearGradient id="paint62_linear_1781_9590" x1="215.127" y1="275.579" x2="254.24" y2="351.74" gradientUnits="userSpaceOnUse">
<stop stop-color="#2B2A2D"/>
<stop offset="1" stop-color="#333236"/>
</linearGradient>
<linearGradient id="paint63_linear_1781_9590" x1="247.892" y1="242.577" x2="276.384" y2="349.315" gradientUnits="userSpaceOnUse">
<stop stop-color="#2B2A2D"/>
<stop offset="1" stop-color="#333236"/>
</linearGradient>
<linearGradient id="paint64_linear_1781_9590" x1="233.157" y1="356.877" x2="259.396" y2="193.379" gradientUnits="userSpaceOnUse">
<stop stop-color="#2B2A2D"/>
<stop offset="1" stop-color="#333236"/>
</linearGradient>
<linearGradient id="paint65_linear_1781_9590" x1="235.74" y1="303.936" x2="262.579" y2="161.052" gradientUnits="userSpaceOnUse">
<stop stop-color="#3A3A3E"/>
<stop offset="1" stop-color="#38373B"/>
</linearGradient>
<linearGradient id="paint66_linear_1781_9590" x1="226.433" y1="194.053" x2="248.371" y2="194.053" gradientUnits="userSpaceOnUse">
<stop stop-color="#2B2A2D"/>
<stop offset="1" stop-color="#333236"/>
</linearGradient>
<linearGradient id="paint67_linear_1781_9590" x1="129.245" y1="345.953" x2="154.827" y2="345.953" gradientUnits="userSpaceOnUse">
<stop stop-color="#38373B"/>
<stop offset="1" stop-color="#333236"/>
</linearGradient>
<linearGradient id="paint68_linear_1781_9590" x1="143.088" y1="287.398" x2="149.511" y2="188.285" gradientUnits="userSpaceOnUse">
<stop stop-color="#2B2A2D"/>
<stop offset="1" stop-color="#333236"/>
</linearGradient>
<linearGradient id="paint69_linear_1781_9590" x1="130.41" y1="369.975" x2="189.442" y2="81.6044" gradientUnits="userSpaceOnUse">
<stop stop-color="#3A3A3E"/>
<stop offset="1" stop-color="#38373B"/>
</linearGradient>
<linearGradient id="paint70_linear_1781_9590" x1="157.212" y1="199.68" x2="190.634" y2="199.68" gradientUnits="userSpaceOnUse">
<stop stop-color="#2B2A2D"/>
<stop offset="1" stop-color="#333236"/>
</linearGradient>
<linearGradient id="paint71_linear_1781_9590" x1="211.314" y1="186.635" x2="210.516" y2="212.085" gradientUnits="userSpaceOnUse">
<stop stop-color="#F1F0F5"/>
<stop offset="1" stop-color="#E1E1E5"/>
</linearGradient>
<linearGradient id="paint72_linear_1781_9590" x1="156.405" y1="183.226" x2="133.65" y2="229.242" gradientUnits="userSpaceOnUse">
<stop stop-color="#3F3E42"/>
<stop offset="0.32" stop-color="#39383C"/>
<stop offset="1" stop-color="#333236"/>
</linearGradient>
<linearGradient id="paint73_linear_1781_9590" x1="106.613" y1="199.811" x2="174.877" y2="344.846" gradientUnits="userSpaceOnUse">
<stop stop-color="#7F8393"/>
<stop offset="0.04" stop-color="#9094A6"/>
<stop offset="0.1" stop-color="#A6ABBF"/>
<stop offset="0.15" stop-color="#B4B9CE"/>
<stop offset="0.19" stop-color="#B9BED4"/>
<stop offset="0.21" stop-color="#B3B8CD"/>
<stop offset="0.36" stop-color="#848997"/>
<stop offset="0.51" stop-color="#5E626A"/>
<stop offset="0.65" stop-color="#404347"/>
<stop offset="0.78" stop-color="#2A2D2E"/>
<stop offset="0.9" stop-color="#1D201F"/>
<stop offset="1" stop-color="#191C1A"/>
</linearGradient>
<linearGradient id="paint74_linear_1781_9590" x1="125.32" y1="223.034" x2="73.9231" y2="367.186" gradientUnits="userSpaceOnUse">
<stop stop-color="#B9BED4"/>
<stop offset="0.32" stop-color="#7D818F"/>
<stop offset="0.64" stop-color="#474B50"/>
<stop offset="0.88" stop-color="#252928"/>
<stop offset="1" stop-color="#191C1A"/>
</linearGradient>
<linearGradient id="paint75_linear_1781_9590" x1="162.715" y1="237.104" x2="131.697" y2="326.826" gradientUnits="userSpaceOnUse">
<stop stop-color="#B9BED4"/>
<stop offset="0.32" stop-color="#7D818F"/>
<stop offset="0.64" stop-color="#474B50"/>
<stop offset="0.88" stop-color="#252928"/>
<stop offset="1" stop-color="#191C1A"/>
</linearGradient>
<linearGradient id="paint76_linear_1781_9590" x1="291.428" y1="196.419" x2="308.952" y2="411.501" gradientUnits="userSpaceOnUse">
<stop stop-color="#38373B"/>
<stop offset="1" stop-color="#333236"/>
</linearGradient>
<linearGradient id="paint77_linear_1781_9590" x1="237.824" y1="334.72" x2="242.989" y2="346.102" gradientUnits="userSpaceOnUse">
<stop stop-color="#F0C999"/>
<stop offset="1" stop-color="#F7D9AB"/>
</linearGradient>
<linearGradient id="paint78_linear_1781_9590" x1="237.534" y1="299.601" x2="238.144" y2="325.079" gradientUnits="userSpaceOnUse">
<stop stop-color="#FFDEB3"/>
<stop offset="0.68" stop-color="#FCDCB0"/>
<stop offset="1" stop-color="#F7D9AB"/>
</linearGradient>
<linearGradient id="paint79_linear_1781_9590" x1="198.655" y1="311.874" x2="174.294" y2="311.151" gradientUnits="userSpaceOnUse">
<stop stop-color="#FFDEB3"/>
<stop offset="0.68" stop-color="#FCDCB0"/>
<stop offset="1" stop-color="#F7D9AB"/>
</linearGradient>
<linearGradient id="paint80_linear_1781_9590" x1="190.823" y1="319.772" x2="158.517" y2="304.408" gradientUnits="userSpaceOnUse">
<stop stop-color="#F0C999"/>
<stop offset="0.59" stop-color="#F0CA9B"/>
<stop offset="0.85" stop-color="#F3D1A2"/>
<stop offset="1" stop-color="#F7D9AB"/>
</linearGradient>
<linearGradient id="paint81_linear_1781_9590" x1="195.555" y1="321.095" x2="171.195" y2="320.372" gradientUnits="userSpaceOnUse">
<stop stop-color="#FFDEB3"/>
<stop offset="0.68" stop-color="#FCDCB0"/>
<stop offset="1" stop-color="#F7D9AB"/>
</linearGradient>
<linearGradient id="paint82_linear_1781_9590" x1="187.15" y1="327.493" x2="154.732" y2="312.082" gradientUnits="userSpaceOnUse">
<stop stop-color="#F0C999"/>
<stop offset="0.59" stop-color="#F0CA9B"/>
<stop offset="0.85" stop-color="#F3D1A2"/>
<stop offset="1" stop-color="#F7D9AB"/>
</linearGradient>
<linearGradient id="paint83_linear_1781_9590" x1="184.399" y1="333.313" x2="151.483" y2="317.667" gradientUnits="userSpaceOnUse">
<stop stop-color="#F0C999"/>
<stop offset="0.59" stop-color="#F0CA9B"/>
<stop offset="0.85" stop-color="#F3D1A2"/>
<stop offset="1" stop-color="#F7D9AB"/>
</linearGradient>
<linearGradient id="paint84_linear_1781_9590" x1="196.438" y1="330.065" x2="172.087" y2="329.332" gradientUnits="userSpaceOnUse">
<stop stop-color="#FFDEB3"/>
<stop offset="0.68" stop-color="#FCDCB0"/>
<stop offset="1" stop-color="#F7D9AB"/>
</linearGradient>
<linearGradient id="paint85_linear_1781_9590" x1="189.987" y1="291.89" x2="196.354" y2="322.636" gradientUnits="userSpaceOnUse">
<stop stop-color="#FFDEB3"/>
<stop offset="0.68" stop-color="#FCDCB0"/>
<stop offset="1" stop-color="#F7D9AB"/>
</linearGradient>
<linearGradient id="paint86_linear_1781_9590" x1="159.231" y1="306.052" x2="193.818" y2="320.505" gradientUnits="userSpaceOnUse">
<stop stop-color="#FFDEB3"/>
<stop offset="0.68" stop-color="#FCDCB0"/>
<stop offset="1" stop-color="#F7D9AB"/>
</linearGradient>
<linearGradient id="paint87_linear_1781_9590" x1="161.362" y1="316.409" x2="179.402" y2="323.95" gradientUnits="userSpaceOnUse">
<stop stop-color="#FFDEB3"/>
<stop offset="0.68" stop-color="#FCDCB0"/>
<stop offset="1" stop-color="#F7D9AB"/>
</linearGradient>
<linearGradient id="paint88_linear_1781_9590" x1="228.274" y1="347.595" x2="170.05" y2="320.858" gradientUnits="userSpaceOnUse">
<stop stop-color="#F0C999"/>
<stop offset="1" stop-color="#F7D9AB"/>
</linearGradient>
<linearGradient id="paint89_linear_1781_9590" x1="105.317" y1="253.827" x2="111.731" y2="253.827" gradientUnits="userSpaceOnUse">
<stop stop-color="#F0C999"/>
<stop offset="0.52" stop-color="#F1CB9B"/>
<stop offset="0.85" stop-color="#F4D3A4"/>
<stop offset="1" stop-color="#F7D9AB"/>
</linearGradient>
<linearGradient id="paint90_linear_1781_9590" x1="103.082" y1="258.024" x2="112.698" y2="236.547" gradientUnits="userSpaceOnUse">
<stop stop-color="#FFDEB3"/>
<stop offset="1" stop-color="#F7D9AB"/>
</linearGradient>
<linearGradient id="paint91_linear_1781_9590" x1="111.788" y1="261.565" x2="107.308" y2="248.896" gradientUnits="userSpaceOnUse">
<stop stop-color="#DBA779"/>
<stop offset="0.48" stop-color="#E3B486"/>
<stop offset="1" stop-color="#F0C999"/>
</linearGradient>
<linearGradient id="paint92_linear_1781_9590" x1="108.087" y1="265.566" x2="128.381" y2="265.566" gradientUnits="userSpaceOnUse">
<stop stop-color="#F0C999"/>
<stop offset="0.52" stop-color="#F1CB9B"/>
<stop offset="0.85" stop-color="#F4D3A4"/>
<stop offset="1" stop-color="#F7D9AB"/>
</linearGradient>
<linearGradient id="paint93_linear_1781_9590" x1="111.393" y1="275.943" x2="131.462" y2="275.943" gradientUnits="userSpaceOnUse">
<stop stop-color="#F0C999"/>
<stop offset="0.52" stop-color="#F1CB9B"/>
<stop offset="0.85" stop-color="#F4D3A4"/>
<stop offset="1" stop-color="#F7D9AB"/>
</linearGradient>
<linearGradient id="paint94_linear_1781_9590" x1="118.099" y1="289.936" x2="132.495" y2="289.936" gradientUnits="userSpaceOnUse">
<stop stop-color="#F0C999"/>
<stop offset="0.52" stop-color="#F1CB9B"/>
<stop offset="0.85" stop-color="#F4D3A4"/>
<stop offset="1" stop-color="#F7D9AB"/>
</linearGradient>
<linearGradient id="paint95_linear_1781_9590" x1="112.192" y1="264.891" x2="116.755" y2="257.196" gradientUnits="userSpaceOnUse">
<stop stop-color="#FFDEB3"/>
<stop offset="1" stop-color="#F7D9AB"/>
</linearGradient>
<linearGradient id="paint96_linear_1781_9590" x1="120.116" y1="273.713" x2="125.023" y2="266.493" gradientUnits="userSpaceOnUse">
<stop stop-color="#FFDEB3"/>
<stop offset="1" stop-color="#F7D9AB"/>
</linearGradient>
<linearGradient id="paint97_linear_1781_9590" x1="124.647" y1="282.895" x2="130.021" y2="276.006" gradientUnits="userSpaceOnUse">
<stop stop-color="#FFDEB3"/>
<stop offset="1" stop-color="#F7D9AB"/>
</linearGradient>
<linearGradient id="paint98_linear_1781_9590" x1="104.726" y1="260.681" x2="120.474" y2="260.681" gradientUnits="userSpaceOnUse">
<stop stop-color="#F0C999"/>
<stop offset="0.52" stop-color="#F1CB9B"/>
<stop offset="0.85" stop-color="#F4D3A4"/>
<stop offset="1" stop-color="#F7D9AB"/>
</linearGradient>
<linearGradient id="paint99_linear_1781_9590" x1="101.373" y1="267.116" x2="113.44" y2="296.21" gradientUnits="userSpaceOnUse">
<stop stop-color="#FFDEB3"/>
<stop offset="1" stop-color="#F7D9AB"/>
</linearGradient>
<linearGradient id="paint100_linear_1781_9590" x1="243.534" y1="342.402" x2="240.482" y2="318.728" gradientUnits="userSpaceOnUse">
<stop stop-color="#F0C999"/>
<stop offset="1" stop-color="#F7D9AB"/>
</linearGradient>
<linearGradient id="paint101_linear_1781_9590" x1="241.083" y1="327.058" x2="332.336" y2="327.058" gradientUnits="userSpaceOnUse">
<stop stop-color="#38373B"/>
<stop offset="1" stop-color="#333236"/>
</linearGradient>
<linearGradient id="paint102_linear_1781_9590" x1="279.296" y1="316.511" x2="295.814" y2="352.92" gradientUnits="userSpaceOnUse">
<stop stop-color="#2B2A2D"/>
<stop offset="1" stop-color="#333236"/>
</linearGradient>
<linearGradient id="paint103_linear_1781_9590" x1="283.212" y1="244.388" x2="278.638" y2="318.333" gradientUnits="userSpaceOnUse">
<stop stop-color="#2B2A2D"/>
<stop offset="1" stop-color="#333236"/>
</linearGradient>
<linearGradient id="paint104_linear_1781_9590" x1="275.548" y1="292.997" x2="277.013" y2="353.879" gradientUnits="userSpaceOnUse">
<stop stop-color="#3F3E42"/>
<stop offset="0.32" stop-color="#39383C"/>
<stop offset="1" stop-color="#333236"/>
</linearGradient>
<linearGradient id="paint105_linear_1781_9590" x1="291.766" y1="86.9302" x2="300.951" y2="469.737" gradientUnits="userSpaceOnUse">
<stop stop-color="#3F3E42"/>
<stop offset="0.32" stop-color="#39383C"/>
<stop offset="1" stop-color="#333236"/>
</linearGradient>
<linearGradient id="paint106_linear_1781_9590" x1="231.824" y1="71.8118" x2="257.292" y2="205.634" gradientUnits="userSpaceOnUse">
<stop stop-color="#A3753D"/>
<stop offset="1" stop-color="#E0B163"/>
</linearGradient>
<linearGradient id="paint107_linear_1781_9590" x1="261.424" y1="60.6458" x2="248.878" y2="172.005" gradientUnits="userSpaceOnUse">
<stop stop-color="#A3753D"/>
<stop offset="1" stop-color="#E0B163"/>
</linearGradient>
<linearGradient id="paint108_linear_1781_9590" x1="200.392" y1="71.8087" x2="161.954" y2="165.287" gradientUnits="userSpaceOnUse">
<stop stop-color="#A3753D"/>
<stop offset="1" stop-color="#E0B163"/>
</linearGradient>
</defs>
</svg>
