<svg width="375" height="375" viewBox="0 0 375 375" fill="none" xmlns="http://www.w3.org/2000/svg">
<path d="M172.09 3.09961H172.08C79.3184 3.09961 4.12012 78.2979 4.12012 171.06V171.07C4.12012 263.831 79.3184 339.03 172.08 339.03H172.09C264.852 339.03 340.05 263.831 340.05 171.07V171.06C340.05 78.2979 264.852 3.09961 172.09 3.09961Z" fill="#0ACF83"/>
<g filter="url(#filter0_d_1103_5756)">
<path d="M181.29 12.1504H181.28C88.5183 12.1504 13.3201 87.3486 13.3201 180.11V180.12C13.3201 272.882 88.5183 348.08 181.28 348.08H181.29C274.052 348.08 349.25 272.882 349.25 180.12V180.11C349.25 87.3486 274.052 12.1504 181.29 12.1504Z" fill="white"/>
<path d="M181.29 12.1504H181.28C88.5183 12.1504 13.3201 87.3486 13.3201 180.11V180.12C13.3201 272.882 88.5183 348.08 181.28 348.08H181.29C274.052 348.08 349.25 272.882 349.25 180.12V180.11C349.25 87.3486 274.052 12.1504 181.29 12.1504Z" stroke="#E8E8E8" stroke-width="2" stroke-miterlimit="10"/>
</g>
<mask id="mask0_1103_5756" style="mask-type:alpha" maskUnits="userSpaceOnUse" x="12" y="17" width="336" height="336">
<circle cx="180" cy="185" r="168" fill="#C4C4C4"/>
</mask>
<g mask="url(#mask0_1103_5756)">
<path d="M134.656 298.135L150.95 300.499L161.938 303.452C161.938 303.452 157.505 317.607 155.257 319.699C152.998 321.79 142.199 324.322 142.199 324.322L134.656 298.135Z" fill="#C57D4E"/>
<path d="M321.914 225.614C322.786 228.567 327.471 244.645 327.755 246.694C328.049 248.743 340.025 270.665 340.908 272.419C341.78 274.174 356.393 291.251 356.97 292.428C357.559 293.605 349.375 317.722 347.631 319.477C345.877 321.232 319.97 312.1 319.97 312.1L292.982 254.292C292.982 254.292 321.032 222.65 321.914 225.614Z" fill="url(#paint0_linear_1103_5756)"/>
<path d="M206.271 202.169C206.271 202.169 215.579 199.195 219.812 196.179L219.896 174.458L265.437 176.413C265.437 176.413 266.845 194.624 267.223 196.39C267.601 198.155 279.882 202.159 279.882 202.159C279.882 202.159 267.78 224.837 241.957 226.056C221.966 227.001 205.64 209.231 206.26 202.159L206.271 202.169Z" fill="url(#paint1_linear_1103_5756)"/>
<path d="M211.828 203.588C211.828 203.588 217.879 202.411 221.01 199.437C221.01 199.437 228.322 207.424 231.242 208.569C237.041 210.85 253.083 208.927 253.356 208.685C253.629 208.443 261.151 204.397 265.826 198.46C270.595 202.285 275.606 203.325 275.606 203.325C275.606 203.325 263.525 213.351 256.087 215.999C248.639 218.647 229.393 221.39 211.828 203.588Z" fill="#C57D4E"/>
<path d="M308.131 271.106L318.195 215.179C305.284 209.273 278.317 201.392 278.317 201.392C278.317 201.392 270.805 223.124 243.229 224.647C215.642 226.171 206.723 201.392 206.723 201.392C177.224 208.201 160.436 214.78 160.436 214.78C161.445 216.808 167.464 249.71 170.301 266.777C170.301 266.777 171.981 376.224 175.595 458.213C183.558 458.213 234.068 459.758 246.086 458.822C257.873 457.898 304.79 456.889 317.817 453.999C315.663 389.465 306.965 276.287 308.142 271.096L308.131 271.106Z" fill="#27AE60"/>
<path d="M190.366 242.974C207.406 232.949 217.26 236.059 243.817 236.816C270.375 237.562 287.425 232.297 296.943 241.829C306.461 251.35 302.742 290.841 249.322 294.477C186.542 298.744 173.316 252.999 190.355 242.974H190.366Z" fill="url(#paint2_linear_1103_5756)"/>
<path d="M206.712 201.402C206.712 201.402 217.49 220.013 241.422 220.297C262.653 220.539 276.772 204.755 278.306 201.402L286.574 203.914C286.574 203.914 273.337 229.324 239.814 229.324C210.799 229.324 196.49 203.882 196.49 203.882C196.49 203.882 197.688 203.473 201.596 202.579C205.504 201.686 206.712 201.413 206.712 201.413V201.402Z" fill="url(#paint3_linear_1103_5756)"/>
<path d="M132.996 295.77C132.996 295.77 144.51 220.475 160.425 214.801C160.425 214.801 170.647 248.565 171.582 252.758C172.507 256.951 173.2 279.503 173.2 279.503L165.804 303.462C165.804 303.462 151.969 296.38 132.996 295.77Z" fill="#026C00"/>
<path d="M350.226 283.884C337.956 259.494 333.438 220.769 318.206 215.179C318.206 215.179 305.694 248.46 304.759 252.684C303.824 256.919 303.698 279.849 303.698 279.849L314.529 302.401C314.529 302.401 327.734 287.026 350.237 283.884H350.226Z" fill="#009022"/>
<path d="M148.764 328.326C150.088 327.244 154.469 322.735 155.519 321.38C156.58 320.014 165.373 300.741 169.912 286.039L165.027 287.1C165.027 287.1 157.263 313.855 155.519 316.125C153.775 318.395 150.015 321.075 150.015 321.075L148.754 328.326H148.764Z" fill="url(#paint4_linear_1103_5756)"/>
<path d="M162.316 306.447L164.565 300.857L134.656 294.1L137.797 300.037C137.797 300.037 147.672 300.857 162.316 306.447Z" fill="url(#paint5_linear_1103_5756)"/>
<path d="M165.804 303.463C165.804 303.463 146.527 295.15 132.996 295.77L134.32 288.341C134.32 288.341 149.006 286.397 168.893 293.459L165.804 303.463Z" fill="url(#paint6_linear_1103_5756)"/>
<path d="M312.774 273.114C313.037 267.502 314.109 259.263 313.268 256.993C312.438 254.734 312.585 262.048 309.99 272.914C308.541 279.009 306.482 286.922 303.624 296.79C301.66 303.568 311.745 349.449 311.745 349.449C311.745 349.449 311.619 338.772 311.293 326.887C311.135 321.37 311.703 296.212 312.785 273.103L312.774 273.114Z" fill="url(#paint7_linear_1103_5756)"/>
<path d="M171.319 297.703H173.61L206.05 297.588C207.983 297.588 209.559 295.99 209.548 294.067L209.349 233.926C209.349 231.993 207.752 230.416 205.83 230.427L166.613 230.553L171.319 297.703Z" fill="url(#paint8_linear_1103_5756)"/>
<path d="M169.229 275.562C168.966 269.919 167.895 261.638 168.725 259.357C169.554 257.077 169.407 264.444 172.002 275.362C173.452 281.478 175.511 289.433 178.379 299.364C180.343 306.173 172.181 356.132 172.181 356.132C172.181 356.132 171.099 339.391 171.435 327.443C171.592 321.905 170.3 298.786 169.229 275.562Z" fill="url(#paint9_linear_1103_5756)"/>
<path d="M118.057 298.398C118.057 298.398 104.442 292.702 103.854 291.535C103.276 290.38 96.4475 280.974 95.2604 278.978C95.1658 277.233 112.836 263.908 112.836 263.908L128.478 292.219L118.047 298.398H118.057Z" fill="#C57D4E"/>
<path d="M102.173 271.674C102.173 271.674 108.203 270.129 108.981 270.539C109.758 270.949 118.688 276.214 118.74 276.413C118.793 276.602 112.038 273.828 111.397 273.702C110.756 273.576 102.184 271.674 102.184 271.674H102.173Z" fill="url(#paint10_linear_1103_5756)"/>
<path d="M136.673 332.992C138.805 333.434 150.676 326.309 151.107 325.437C151.538 324.565 149.868 307.225 147.85 305.491C145.833 303.757 127.291 284.4 127.291 284.4L114.401 296.506C114.401 296.506 116.282 315.054 122.469 324.754C123.31 326.078 133.206 332.257 136.683 332.982L136.673 332.992Z" fill="#C57D4E"/>
<path d="M149.09 307.046C146.642 302.065 133.469 290.736 133.469 290.736L124.56 291.819C124.56 291.819 138.438 305.9 138.711 321.947C138.963 336.764 128.1 326.991 128.1 326.991C128.1 326.991 131.231 332.319 136.715 332.718C140.35 332.981 150.214 327.727 151.485 325.646C152.336 324.248 151.538 312.027 149.101 307.046H149.09Z" fill="url(#paint11_linear_1103_5756)"/>
<path d="M104.39 279.871C104.39 279.871 107.625 291.21 109.275 292.765C110.924 294.321 129.445 292.765 129.445 292.765L112.363 281.815L104.379 279.871H104.39Z" fill="url(#paint12_linear_1103_5756)"/>
<path d="M210.21 230.228C210.21 228.315 208.635 226.76 206.733 226.771L136.473 227.002L114.391 227.075C112.479 227.075 110.924 228.652 110.935 230.554L111.124 289.991C111.124 291.903 112.7 293.459 114.612 293.448L174.891 293.248L206.954 293.143C208.866 293.143 210.42 291.567 210.41 289.654L210.221 230.217L210.21 230.228Z" fill="url(#paint13_linear_1103_5756)"/>
<path d="M174.177 293.259L206.239 293.154C208.151 293.154 209.706 291.577 209.696 289.665L209.506 230.228C209.506 228.315 207.931 226.76 206.029 226.771L135.759 227.002L174.177 293.259Z" fill="url(#paint14_linear_1103_5756)"/>
<path d="M135.759 227.002L113.677 227.075C111.765 227.075 110.21 228.652 110.22 230.554L110.409 289.991C110.409 291.903 111.985 293.459 113.897 293.448L174.177 293.248L135.759 226.991V227.002Z" fill="url(#paint15_linear_1103_5756)"/>
<path d="M170.658 288.982L202.562 288.877C203.004 288.877 203.371 288.509 203.371 288.078L203.182 231.626C203.182 231.184 202.815 230.827 202.373 230.827L137.25 231.037L170.658 288.982Z" fill="url(#paint16_linear_1103_5756)"/>
<path d="M138.101 231.037L116.324 231.111C115.883 231.111 115.515 231.478 115.515 231.909L115.704 288.362C115.704 288.803 116.072 289.161 116.513 289.161L171.509 288.982L138.101 231.037Z" fill="url(#paint17_linear_1103_5756)"/>
<path d="M99.3261 248.734C99.3261 248.734 95.271 241.389 95.271 240.811C95.271 240.233 97.6242 236.25 99.9354 236.344C102.257 236.439 108.014 238.415 108.875 238.803C109.747 239.192 118.236 245.172 118.761 245.697C120.053 246.979 121.146 248.934 120.473 250.195C119.801 251.456 118.456 252.906 116.954 253.148C115.452 253.389 99.3156 248.745 99.3156 248.745L99.3261 248.734Z" fill="#C57D4E"/>
<path d="M98.5486 248.062C98.5486 248.062 94.6091 242.324 95.2604 240.811C96.1429 242.587 98.8848 243.333 102.026 244.562C103.045 244.961 109.264 248.167 114.044 250.584C116.723 251.939 119.16 251.918 119.16 251.918C119.16 251.918 118.078 253.137 116.965 253.137C116.313 253.137 98.5591 248.062 98.5591 248.062H98.5486Z" fill="url(#paint18_linear_1103_5756)"/>
<path d="M97.6768 265.453C97.6768 265.453 97.3512 251.739 97.2881 250.773C97.2566 250.258 98.6433 244.688 102.698 245.56C106.753 246.433 118.54 254.156 119.118 254.545C119.696 254.934 123.163 259.169 123.646 260.094C124.203 261.166 125.148 262.837 124.045 264.591C123.026 266.231 120.106 266.882 119.906 266.746C119.707 266.609 107.815 259.306 107.52 258.99C107.226 258.675 103.297 259.547 103.297 259.547L97.6663 265.464L97.6768 265.453Z" fill="#C57D4E"/>
<path d="M113.372 260.283C113.372 260.283 115.399 260.934 116.124 260.713C116.849 260.493 119.896 257.309 119.896 256.657C119.896 256.006 119.202 254.587 119.202 254.587C119.202 254.587 121.829 257.34 123.32 259.326C124.024 260.272 125.779 262.458 124.192 264.539C123.058 266.031 121.02 266.872 119.917 266.735C119.16 266.64 112.332 259.82 112.332 259.82L113.372 260.283Z" fill="url(#paint19_linear_1103_5756)"/>
<path d="M98.8114 250.657C98.969 249.112 101.543 246.023 102.604 246.117C103.665 246.212 115.252 252.78 115.935 253.946C116.607 255.102 113.519 258.486 112.794 258.486C112.069 258.486 98.6433 252.202 98.8114 250.657Z" fill="url(#paint20_linear_1103_5756)"/>
<path d="M96.8573 240.138C97.1724 239.003 98.4436 236.891 100.187 237.185C101.921 237.479 108.298 239.571 108.97 240.348C109.632 241.126 109.191 245.56 107.982 245.466C106.774 245.361 96.1744 242.66 96.8678 240.148L96.8573 240.138Z" fill="url(#paint21_linear_1103_5756)"/>
<path d="M116.954 245.687C117.616 245.687 119.675 247.536 119.706 247.904C119.78 248.692 118.561 251.204 117.385 251.571C116.849 251.74 114.244 250.373 114.055 249.743C113.866 249.112 116.03 245.687 116.954 245.687Z" fill="#D19160"/>
<path d="M97.3091 265.327C97.3091 265.327 97.4351 253.988 97.3406 251.907C100.156 254.703 113.813 260.241 114.391 260.629C114.969 261.018 122.154 265.59 123.121 265.59C123.121 265.59 121.881 266.788 119.959 266.756C118.877 266.735 97.3091 265.337 97.3091 265.337V265.327Z" fill="url(#paint22_linear_1103_5756)"/>
<path d="M100.292 261.481C100.292 261.481 103.665 257.446 104.158 257.362C105.262 257.151 111.145 261.113 111.743 261.481C109.306 261.649 100.303 261.481 100.303 261.481H100.292Z" fill="url(#paint23_linear_1103_5756)"/>
<path d="M122.7 260.23C123.278 260.399 124.455 262.122 124.339 262.448C124.119 263.057 122.501 265.548 121.871 265.695C121.24 265.842 119.643 264.518 119.444 264.234C119.255 263.94 121.955 260.02 122.69 260.241L122.7 260.23Z" fill="#D19160"/>
<path d="M107.531 258.98C108.739 259.179 122.68 268.585 123.373 269.415C124.308 270.55 125.884 275.31 125.884 276.182C125.884 277.055 125.285 280.47 123.415 280.785C121.534 281.111 117.29 275.794 116.712 275.31C116.135 274.827 110.283 271.359 109.495 270.865C108.697 270.382 104.253 271.926 104.253 271.926L95.271 270.865C95.271 270.865 95.7542 267.187 96.6262 265.842C97.4981 264.497 101.742 258.013 107.541 258.98H107.531Z" fill="#C57D4E"/>
<path d="M117.942 273.755C117.942 273.755 119.57 274.112 120.673 273.755C121.776 273.398 123.93 270.329 123.93 270.329C123.93 270.329 125.474 273.608 125.695 274.701C125.915 275.783 126.367 277.528 125.884 278.326C125.4 279.125 124.465 280.953 123.257 280.796C122.669 280.722 116.702 275.31 116.702 275.31L117.931 273.765L117.942 273.755Z" fill="url(#paint24_linear_1103_5756)"/>
<path d="M96.1956 269.835C96.3216 268.879 103.266 265.684 103.854 265.81C105.041 266.062 119.234 274.049 119.717 274.438C120.2 274.827 123.194 280.722 123.194 280.722C123.194 280.722 121.114 279.577 119.297 278.021C119.181 277.927 116.965 275.667 116.723 275.3C116.25 274.9 109.275 270.917 108.802 270.917C108.329 270.917 104.516 272 104.033 271.979C103.675 271.958 96.1325 270.466 96.2166 269.835H96.1956Z" fill="url(#paint25_linear_1103_5756)"/>
<path d="M95.271 278.978C95.271 278.978 100.66 281.458 101.679 281.615C102.835 281.71 109.18 281.783 109.947 282.361C110.714 282.939 116.03 284.967 116.418 285.062C116.807 285.157 120.915 288.341 121.398 289.013C121.881 289.686 124.728 288.183 124.823 287.689C124.917 287.195 124.707 282.288 124.045 281.384C123.026 279.997 114.002 274.133 112.647 273.755C111.292 273.366 102.121 271.432 101.637 271.432C101.154 271.432 96.0379 269.888 95.2605 270.854C94.4831 271.821 92.8443 275.678 95.2605 278.967L95.271 278.978Z" fill="#C57D4E"/>
<path d="M116.86 284.411C116.86 284.411 120.915 285.063 121.345 284.842C121.776 284.621 123.604 280.933 123.604 280.933C123.604 280.933 124.255 281.321 124.466 282.299C124.676 283.297 125.548 286.282 125.337 287.374C125.117 288.457 122.942 289.77 122.154 289.623C121.356 289.476 117.448 286.439 116.87 284.411H116.86Z" fill="url(#paint26_linear_1103_5756)"/>
<path d="M109.485 278.2C109.369 276.35 110.535 273.775 112.363 274.364C113.666 274.784 120.978 279.471 121.398 280.574C121.818 281.678 118.729 284.379 117.574 283.517C116.418 282.645 109.6 280.133 109.485 278.2Z" fill="url(#paint27_linear_1103_5756)"/>
<path d="M107.174 259.536C108.235 259.746 119.601 267.092 120.179 267.869C120.757 268.647 119.77 271.684 117.07 271.684C115.777 271.684 104.379 264.969 104.379 264.486C104.379 264.002 105.241 259.158 107.174 259.547V259.536Z" fill="url(#paint28_linear_1103_5756)"/>
<path d="M124.592 284.41C125.022 284.452 125.106 286.155 125.222 286.638C125.306 286.985 123.751 289.413 123.562 288.761C123.373 288.109 122.89 286.659 123.173 286.176C123.467 285.692 124.36 284.389 124.581 284.41H124.592Z" fill="#D19160"/>
<path d="M123.562 277.769C123.898 277.432 125.075 275.53 125.358 275.562C125.642 275.593 126.031 277.527 125.884 277.769C125.737 278.01 125.022 279.86 124.14 279.86C123.257 279.86 123.573 277.769 123.573 277.769H123.562Z" fill="#D19160"/>
<path d="M101.931 281.626L108.886 282.257L116.271 285.073C116.271 285.073 120.841 289.339 121.44 289.592C122.175 289.896 123.173 289.392 123.173 289.392C123.173 289.392 120.862 285.546 120.662 285.157C120.463 284.768 109.611 280.796 109.611 280.796L101.921 281.637L101.931 281.626Z" fill="url(#paint29_linear_1103_5756)"/>
<path d="M114.422 296.843C114.422 296.843 116.891 320.655 122.501 325.353C128.111 330.05 134.656 332.719 134.656 332.719C134.656 332.719 127.386 328.064 121.892 318.732C118.456 312.89 117.133 304.745 114.422 296.843Z" fill="url(#paint30_linear_1103_5756)"/>
<path d="M127.207 328.463C127.207 328.463 132.628 331.878 137.713 329.356C149.1 323.702 150.613 312.668 150.676 312.111C151.181 313.688 152.609 323.356 151.485 325.636C150.477 327.696 144.121 332.708 138.185 333.37C133.952 333.843 127.207 328.463 127.207 328.463Z" fill="url(#paint31_linear_1103_5756)"/>
<path d="M316.42 304.492L314.182 300.215C314.182 300.215 327.923 282.834 348.188 282.508L350.205 286.165C350.205 286.165 325.654 293.92 316.42 304.481V304.492Z" fill="url(#paint32_linear_1103_5756)"/>
<path d="M314.518 302.401C314.518 302.401 331.327 283.927 350.226 283.885L348.009 279.188C348.009 279.188 330.329 282.529 311.787 296.705L314.529 302.401H314.518Z" fill="url(#paint33_linear_1103_5756)"/>
<path d="M302.385 249.805C299.548 249.227 292.562 249.238 291.984 249.437C290.324 250.026 285.166 253.977 285.166 253.977L284.189 254.629C284.189 254.629 284.116 254.671 284.095 254.681L279.126 257.991C268.515 257.991 257.926 258.054 256.297 258.233C251.885 258.716 251.045 261.774 251.045 261.774C250.74 262.5 250.656 263.267 250.814 263.992C250.814 263.992 250.908 266.104 254.196 266.798C254.375 266.84 254.564 266.871 254.764 266.903C254.984 266.934 255.215 266.966 255.457 266.987C256.844 267.102 258.451 267.207 260.142 267.312C262.632 267.47 264.481 267.586 264.765 267.68C264.943 267.743 269.786 268.363 275.48 269.057C274.587 270.633 274.335 273.26 275.039 274.29C275.228 274.574 276.814 275.457 278.548 276.329C276.646 276.928 275.554 279.954 275.554 279.954C275.207 280.869 275.102 281.941 275.459 283.075C276.247 285.524 279.819 287.331 279.819 287.331H279.808C280.407 287.699 281.059 288.088 281.805 288.487L281.836 288.508C281.836 288.508 280.197 289.486 279.903 291.241C279.609 292.996 282.288 294.709 282.288 294.709C284.326 296.506 287.362 298.691 289.946 300.478C289.946 300.478 293.329 302.821 294.632 303.693C294.81 303.83 295.104 303.956 295.472 304.082C296.312 304.387 302.458 305.06 303.824 305.28L302.385 249.816V249.805Z" fill="url(#paint34_linear_1103_5756)"/>
<path d="M320.612 256.142C320.612 256.142 313.436 248.734 313.153 247.862C312.859 246.989 295.325 243.479 295.325 243.479L281.111 252.937L320.612 256.142Z" fill="#C57D4E"/>
<path d="M343.744 281.426C343.744 281.426 328.06 264.812 326.599 263.646C325.139 262.479 321.967 256.164 319.466 255.281C316.966 254.409 309.654 252.244 307.322 252.538C304.979 252.832 263.872 251.792 258.808 252.517C253.608 253.263 251.507 260.43 258.808 261.019C266.11 261.607 279.556 262.185 279.556 262.185C279.556 262.185 277.56 265.884 278.18 267.629C278.621 268.869 282.12 270.214 282.12 270.214C282.12 270.214 279.84 271.538 278.968 273.881C278.096 276.225 278.674 279.44 286.564 283.234C286.564 283.234 283.349 283.528 283.349 285.861C283.349 288.194 296.239 296.412 297.972 297.715C299.706 299.018 311.398 299.89 313.447 299.596C315.495 299.302 322.797 297.578 324.845 297.715C326.957 305.271 337.956 300.447 337.956 300.447L343.744 281.426Z" fill="#C57D4E"/>
<path d="M287.436 252.685C287.436 252.685 300.893 252.527 301.691 252.527C302.49 252.527 309.497 253.263 310.526 253.263C311.556 253.263 312.113 253.179 309.518 252.044C307.732 251.266 301.229 246.884 299.947 247.262C299.569 247.378 296.323 249.974 294.159 250.825C291.186 252.002 287.436 252.674 287.436 252.674V252.685Z" fill="url(#paint35_linear_1103_5756)"/>
<path d="M283.16 281.363C283.16 281.363 280.565 277.979 281.878 275.856C283.191 273.734 286.553 272.42 286.553 272.42C286.553 272.42 282.782 271.107 281.521 271.254C280.271 271.401 277.813 274.049 278.79 277.107C279.577 279.556 283.149 281.363 283.149 281.363H283.16Z" fill="url(#paint36_linear_1103_5756)"/>
<path d="M292.678 285.955L285.177 282.54C285.177 282.54 283.538 283.528 283.244 285.283C282.95 287.038 285.628 288.751 285.628 288.751C285.628 288.751 286.238 285.23 292.667 285.966L292.678 285.955Z" fill="url(#paint37_linear_1103_5756)"/>
<path d="M293.287 294.499C293.287 294.499 300.861 299.638 319.582 293.659C322.219 292.818 326.295 299.659 326.295 299.659C326.295 299.659 321.956 297.799 320.643 298.219C319.33 298.64 313.867 299.848 312.564 299.817C309.686 299.733 300.063 299.112 297.972 297.725C296.67 296.853 293.287 294.51 293.287 294.51V294.499Z" fill="url(#paint38_linear_1103_5756)"/>
<path d="M315.632 259.747C318.069 258.486 334.331 277.086 334.479 279.43C334.626 281.773 334.037 288.005 331.852 289.266C329.657 290.537 311.251 291.367 310.232 290.001C309.213 288.635 312.428 261.407 315.642 259.747H315.632Z" fill="url(#paint39_linear_1103_5756)"/>
<path d="M285.145 282.519C285.145 282.519 291.438 283.38 292.016 283.958C292.604 284.547 295.504 286.049 295.64 286.932C295.787 287.804 285.135 282.519 285.135 282.519H285.145Z" fill="url(#paint40_linear_1103_5756)"/>
<path d="M294.159 252.612C294.159 252.612 297.468 251.046 298.603 249.417C299.832 247.651 298.498 250.562 299.328 250.972C300.158 251.371 303.046 252.275 303.046 252.275L294.159 252.612Z" fill="url(#paint41_linear_1103_5756)"/>
<path d="M287.435 248.712C287.751 248.513 289.484 247.703 290.135 249.175C290.797 250.635 288.223 252.264 288.223 252.264H282.109L287.435 248.712Z" fill="#D19160"/>
<path d="M321.494 298.134C321.494 298.134 333.386 301.003 335.939 299.648C337.588 298.776 343.156 287.952 340.624 276.676C340.624 276.676 355.006 287.353 356.424 290.043C359.702 296.274 357.779 309.747 349.795 317.922C341.811 326.109 335.55 324.532 332.629 323.366C329.709 322.199 320.653 316.157 319.865 311.281C319.078 306.405 321.494 298.124 321.494 298.124V298.134Z" fill="url(#paint42_linear_1103_5756)"/>
<path d="M254.385 255.816C254.385 255.816 255.226 252.758 259.638 252.275C262.958 251.907 303.792 252.002 305.547 252.275C307.301 252.548 315.306 254.135 315.306 254.135C315.306 254.135 302.143 252.937 300.735 253.284C299.317 253.62 259.638 252.285 254.385 255.827V255.816Z" fill="url(#paint43_linear_1103_5756)"/>
<path d="M288.507 248.009C288.507 248.009 293.665 244.057 295.325 243.469C296.985 242.88 313.342 246.979 314.13 247.557C314.907 248.145 319.151 254.597 319.151 254.597C319.151 254.597 313.741 249.385 311.209 248.376C308.677 247.367 298.445 245.192 296.649 244.993C294.842 244.793 288.518 247.998 288.518 247.998L288.507 248.009Z" fill="url(#paint44_linear_1103_5756)"/>
<path d="M305.946 267.302C308.478 268.332 306.145 275.152 304.78 275.194C303.414 275.236 291.533 273.492 291.144 272.409C290.755 271.337 299.716 264.759 305.946 267.292V267.302Z" fill="url(#paint45_linear_1103_5756)"/>
<path d="M307.07 254.124C309.066 255.753 308.478 260.293 306.45 261.89C305.169 262.91 291.522 261.964 287.499 261.964C284.809 261.964 286.29 253.841 288.223 253.82C290.156 253.799 305.221 252.611 307.06 254.114L307.07 254.124Z" fill="url(#paint46_linear_1103_5756)"/>
<path d="M304.381 278.946C305.641 279.576 305.746 285.976 304.381 286.26C303.015 286.544 290.503 282.645 290.135 281.478C289.768 280.312 288.549 275.551 290.135 275.205C291.722 274.858 303.215 278.368 304.381 278.946Z" fill="url(#paint47_linear_1103_5756)"/>
<path d="M300.735 289.087C301.071 289.465 301.46 292.975 299.317 293.648C297.174 294.331 289.505 290.232 289.347 289.266C289.19 288.299 292.016 285.609 292.846 286.271C293.676 286.933 300.735 289.087 300.735 289.087Z" fill="url(#paint48_linear_1103_5756)"/>
<path d="M323.269 259.147C323.269 259.147 331.852 269.194 333.218 270.371C334.584 271.537 349.942 283.738 351.193 284.62C352.978 285.882 358.536 289.402 357.958 296.653C357.958 296.653 354.145 287.447 346.076 283.433C343.734 282.267 332.598 275.562 330.486 271.958C328.375 268.353 323.269 259.158 323.269 259.158V259.147Z" fill="url(#paint49_linear_1103_5756)"/>
<path d="M297.363 264.98C297.363 264.98 287.582 272.557 286.563 272.42C285.544 272.273 278.789 268.931 278.38 268.332C277.508 267.061 278.086 263.362 279.546 262.195L297.363 264.991V264.98Z" fill="url(#paint50_linear_1103_5756)"/>
<path d="M254.155 258.023C254.155 258.023 254.26 260.651 258.798 261.018C263.347 261.376 267.664 261.565 268.106 261.712C268.547 261.859 296.334 265.295 297.363 265.148C298.382 265.001 300.578 264.56 300.872 263.971C301.166 263.383 281.742 260.945 280.87 261.155C279.998 261.376 254.165 258.023 254.165 258.023H254.155Z" fill="url(#paint51_linear_1103_5756)"/>
<path d="M258.945 254.629C259.239 254.829 260.384 255.554 260.426 257.235C260.479 258.917 259.502 260.23 259.355 260.23C259.207 260.23 255.972 260.272 255.751 260.009C255.163 259.326 254.932 254.923 255.762 254.682C256.592 254.44 258.945 254.629 258.945 254.629Z" fill="#D19160"/>
<path d="M278.895 273.986C278.895 273.986 279.977 270.97 281.889 270.371C283.275 269.93 296.628 274.312 297.983 275.709C299.327 277.107 287.456 273.524 284.242 272.998C281.027 272.462 278.905 273.996 278.905 273.996L278.895 273.986Z" fill="url(#paint52_linear_1103_5756)"/>
<path d="M321.494 298.135C321.494 298.135 320.538 301.539 320.37 302.485C320.202 303.431 318.132 310.661 321.032 314.013C323.931 317.365 329.573 324.259 337.399 324.312C345.226 324.364 351.266 316.283 351.266 316.283C351.266 316.283 342.095 324.143 336.506 323.187C330.917 322.241 321.494 298.124 321.494 298.124V298.135Z" fill="url(#paint53_linear_1103_5756)"/>
<path d="M296.018 115.641C301.943 116.313 300.861 119.865 298.655 126.097C297.121 142.459 292.142 150.277 290.051 149.373C286.227 147.745 288.833 114.831 296.018 115.641Z" fill="url(#paint54_linear_1103_5756)"/>
<path d="M292.635 138.56C292.635 138.56 295.209 135.387 293.77 129.733C290.387 116.398 299.769 114.601 298.508 124.037C298.508 124.037 296.775 119.802 295.703 121.21C294.379 122.944 297.52 123.543 296.638 130.668C296.176 134.367 292.635 138.55 292.635 138.55V138.56Z" fill="url(#paint55_linear_1103_5756)"/>
<path d="M185.25 116.334C179.367 117.322 180.638 120.811 183.159 126.917C185.554 143.173 191.595 149.678 193.633 148.669C197.362 146.83 192.372 115.147 185.239 116.334H185.25Z" fill="url(#paint56_linear_1103_5756)"/>
<path d="M290.587 115.148C292.31 71.2003 274.262 52.9572 234.635 55.4163C234.635 55.4163 207.637 56.3831 200.892 71.3684C193.675 87.3941 191.605 101.455 192.141 122.104C193.265 165.221 200.861 166.44 207.479 174.795C211.975 180.469 224.014 192.166 227.88 194.267C234.152 197.683 253.293 197.178 259.249 193.364C264.481 190.011 270.984 181.836 278.579 171.884C284.777 163.761 290.681 162.016 290.009 138.771C289.599 124.605 290.104 127.359 290.587 115.148Z" fill="#C57D4E"/>
<path d="M263.662 153.493C272.192 154.313 286.595 158.453 288.99 143.815C291.249 130.006 289.295 123.186 285.072 122.062C274.703 119.309 262.769 125.645 257.936 129.239C246.643 137.636 248.544 152.054 263.662 153.504V153.493Z" fill="url(#paint57_radial_1103_5756)"/>
<path d="M243.964 183.779C241.002 183.79 233.574 185.828 233.795 186.921C234.457 190.252 241.327 190.809 244.29 190.788C247.252 190.778 253.251 190.011 253.377 187.163C253.419 186.049 246.937 183.758 243.975 183.769L243.964 183.779Z" fill="url(#paint58_linear_1103_5756)"/>
<path d="M222.302 127.925C220.716 127.074 202.363 119.918 195.766 122.765C191.091 124.783 192.068 138.014 195.062 152.642C198.371 168.814 213.215 156.645 218.72 153.598C232.051 146.221 234.677 134.588 222.313 127.925H222.302Z" fill="url(#paint59_radial_1103_5756)"/>
<path d="M252.106 107.319C249.416 109.862 247.862 124.574 250.32 126.045C265.658 135.198 282.424 123.607 282.424 123.607C286.133 95.1917 252.106 107.319 252.106 107.319Z" fill="url(#paint60_linear_1103_5756)"/>
<path d="M200.199 123.417C200.199 123.417 216.461 135.954 232.135 125.74C234.53 124.174 231.988 110.46 229.992 107.413C229.992 107.413 197.73 93.8356 200.188 123.417H200.199Z" fill="url(#paint61_linear_1103_5756)"/>
<path d="M237.566 55.3636C203.392 59.3463 193.612 77.0429 191.826 93.5415C191.248 98.901 192.54 134.693 192.772 139.738C193.969 128.073 197.93 123.975 199.873 118.142C202.993 109.157 205.178 105.416 205 93.3944C205.241 71.3893 226.925 68.0475 238.817 67.8268C264.24 67.3539 275.711 74.3212 276.048 92.1229C276.289 104.765 280.26 108.695 282.656 116.062C285.66 123.733 288.938 132.529 290.02 140.662C290.02 140.662 291.848 111.059 288.528 85.4709C286.952 73.3019 277.413 50.7082 237.556 55.3636H237.566Z" fill="url(#paint62_linear_1103_5756)"/>
<path d="M285.87 127.569C284.326 126.696 283.191 127.968 279.987 129.029C276.846 130.07 268.284 131.72 272.308 133.937C276.762 136.385 282.981 133.023 283.737 132.392C284.483 131.762 287.771 128.651 285.86 127.558L285.87 127.569Z" fill="url(#paint63_linear_1103_5756)"/>
<path d="M202.636 130.069C199.39 129.176 198.182 127.967 196.69 128.924C194.841 130.101 198.276 133.043 199.064 133.632C199.852 134.22 206.239 137.257 210.557 134.567C214.465 132.139 205.83 130.952 202.636 130.069Z" fill="url(#paint64_linear_1103_5756)"/>
<path d="M217.238 111.301C214.602 111.154 210.021 111.563 207.132 114.096C204.905 116.051 203.56 119.834 203.739 121.652C203.834 122.576 205.399 127.074 214.16 127.652C219.886 128.03 228.952 127.064 231.148 124.531C232.209 123.312 231.232 120.601 230.717 118.909C229.099 113.623 225.275 111.753 217.228 111.29L217.238 111.301Z" fill="url(#paint65_linear_1103_5756)"/>
<path d="M222.649 115.556C208.477 113.476 211.009 115.704 206.029 121.693C206.029 121.693 208.183 124.762 210.798 125.445C218.1 127.368 222.932 126.265 226.21 125.718C227.365 125.519 228.92 125.014 229.393 124.153C229.393 124.153 226.861 116.166 222.638 115.546L222.649 115.556Z" fill="url(#paint66_linear_1103_5756)"/>
<path d="M216.629 114.475C212.049 113.949 206.029 121.694 206.029 121.694C206.26 122.104 206.565 122.661 207.29 123.26C208.141 122.693 210.525 120.643 214.255 120.738C227.029 121.053 229.382 124.122 229.382 124.122C228.458 118.237 221.209 115.011 216.629 114.485V114.475Z" fill="#DDDDDD"/>
<path d="M218.363 116.292C214.476 116.481 211.04 118.594 211.524 122.734C211.629 123.617 211.734 124.72 212.7 125.876C213.415 126.097 216.24 126.643 218.342 126.612C220.233 126.58 222.554 126.423 224.603 126.002C224.771 125.824 225.569 124.037 225.664 122.419C225.905 118.142 222.25 116.103 218.363 116.292Z" fill="url(#paint67_linear_1103_5756)"/>
<path d="M216.997 116.02C212.511 116.02 211.544 121.064 211.544 121.064C217.627 119.698 225.653 122.22 225.653 122.22C225.632 116.913 221.892 116.03 216.986 116.02H216.997Z" fill="url(#paint68_linear_1103_5756)"/>
<path d="M218.383 116.881C215.999 116.923 214.097 118.94 214.129 121.389C214.16 123.837 216.125 125.781 218.51 125.739C220.894 125.687 222.785 123.68 222.754 121.231C222.722 118.783 220.758 116.839 218.383 116.881Z" fill="url(#paint69_radial_1103_5756)"/>
<path d="M221.188 120.916C220.253 121.41 219.854 122.534 220.285 123.438C220.726 124.352 221.829 124.688 222.754 124.205C223.689 123.721 224.088 122.597 223.647 121.683C223.205 120.779 222.102 120.432 221.178 120.916H221.188Z" fill="white"/>
<path d="M265.563 111.595C257.516 111.963 253.671 113.781 251.99 119.046C251.454 120.727 250.446 123.428 251.496 124.657C253.66 127.211 262.716 128.293 268.441 127.978C277.213 127.494 278.831 123.028 278.936 122.104C279.136 120.286 277.833 116.492 275.638 114.506C272.78 111.931 268.21 111.469 265.563 111.595Z" fill="url(#paint70_linear_1103_5756)"/>
<path d="M260.111 115.777C255.877 116.345 253.261 124.3 253.261 124.3C253.723 125.161 255.278 125.687 256.423 125.897C259.691 126.486 264.512 127.652 271.835 125.813C274.472 125.161 276.646 122.114 276.646 122.114C271.751 116.061 274.303 113.865 260.1 115.767L260.111 115.777Z" fill="url(#paint71_linear_1103_5756)"/>
<path d="M266.141 114.779C261.55 115.252 254.27 118.394 253.272 124.258C253.272 124.258 255.656 121.21 268.441 121.063C272.171 121.021 274.535 123.092 275.375 123.67C276.11 123.081 276.415 122.524 276.657 122.114C276.657 122.114 270.732 114.296 266.141 114.769V114.779Z" fill="#DDDDDD"/>
<path d="M264.386 116.576C260.499 116.335 256.823 118.331 257.012 122.608C257.075 124.237 257.905 126.023 258.073 126.202C258.735 126.433 262.443 126.875 264.334 126.927C266.435 126.99 269.219 126.444 269.944 126.234C270.921 125.088 271.036 123.985 271.152 123.102C271.688 118.962 268.273 116.818 264.397 116.576H264.386Z" fill="url(#paint72_linear_1103_5756)"/>
<path d="M265.763 116.313C260.857 116.271 257.106 117.101 257.022 122.408C257.022 122.408 265.08 119.981 271.141 121.431C271.141 121.431 270.238 116.366 265.752 116.313H265.763Z" fill="url(#paint73_linear_1103_5756)"/>
<path d="M264.365 117.164C261.991 117.091 260.006 119.014 259.943 121.452C259.88 123.9 261.75 125.939 264.134 126.012C266.519 126.086 268.505 124.152 268.568 121.714C268.631 119.266 266.75 117.227 264.376 117.164H264.365Z" fill="url(#paint74_radial_1103_5756)"/>
<path d="M268.578 120.927C267.654 120.433 266.551 120.758 266.099 121.662C265.647 122.566 266.036 123.701 266.96 124.195C267.885 124.699 268.988 124.363 269.44 123.459C269.881 122.566 269.492 121.431 268.568 120.927H268.578Z" fill="white"/>
<path d="M264.365 119.14C263.63 118.751 262.758 119.004 262.401 119.718C262.044 120.422 262.348 121.316 263.073 121.704C263.809 122.093 264.681 121.83 265.038 121.126C265.395 120.412 265.09 119.529 264.365 119.14Z" fill="white"/>
<path d="M273.411 115.861C269.292 113.36 261.403 113.213 257.316 116.187C253.429 119.025 253.272 124.289 253.272 124.289C253.272 124.289 255.352 119.434 258.934 118.468C260.31 118.1 261.466 117.574 264.533 117.574C266.656 117.574 268.011 117.459 271.415 119.077C274.114 120.359 276.657 122.125 276.657 122.125C276.657 122.125 275.89 117.364 273.411 115.851V115.861Z" fill="url(#paint75_linear_1103_5756)"/>
<path d="M271.309 125.876C269.376 126.349 266.635 127.106 262.348 126.801C262.348 126.801 265.605 128.072 271.845 126.454C275.196 125.582 276.646 122.146 276.646 122.146C276.646 122.146 274.398 125.119 271.309 125.876Z" fill="url(#paint76_linear_1103_5756)"/>
<path d="M217.333 119.129C216.598 119.508 216.282 120.401 216.629 121.105C216.976 121.82 217.848 122.093 218.583 121.704C219.319 121.326 219.634 120.443 219.287 119.728C218.94 119.014 218.068 118.741 217.333 119.129Z" fill="white"/>
<path d="M225.432 115.988C221.388 112.961 213.488 113.014 209.349 115.462C206.859 116.933 206.029 121.694 206.029 121.694C206.029 121.694 208.592 119.96 211.303 118.709C214.728 117.133 216.083 117.27 218.205 117.291C221.272 117.322 222.417 117.858 223.794 118.247C227.365 119.256 229.382 124.132 229.382 124.132C229.382 124.132 229.288 118.867 225.432 115.977V115.988Z" fill="url(#paint77_linear_1103_5756)"/>
<path d="M211.324 125.508C208.246 124.71 206.029 121.704 206.029 121.704C206.029 121.704 207.437 125.161 210.777 126.076C216.997 127.768 220.369 126.528 220.369 126.528C216.083 126.79 213.236 125.992 211.313 125.498L211.324 125.508Z" fill="url(#paint78_linear_1103_5756)"/>
<path d="M231.41 177.4C245.834 175.782 255.573 177.589 255.573 177.589C244.626 170.696 231.41 177.4 231.41 177.4Z" fill="url(#paint79_linear_1103_5756)"/>
<path d="M215.673 154.06C215.967 154.365 216.178 154.796 216.556 154.964C223.479 158.064 223.573 161.038 226.546 162.656C237.073 168.405 249.354 167.007 257.611 162.383C262.359 159.725 262.969 156.635 268.662 154.386C269.419 154.081 269.576 153.482 269.576 153.482C239.195 161.007 215.673 154.06 215.673 154.06Z" fill="#701D21"/>
<path d="M242.903 168.709C238.806 168.709 234.761 167.9 234.761 168.709C234.761 169.518 238.323 171.326 242.42 171.326C246.517 171.326 250.572 169.518 250.572 168.709C250.572 167.9 247 168.709 242.903 168.709Z" fill="url(#paint80_linear_1103_5756)"/>
<path d="M254.732 160.46C251.938 161.027 246.696 162.089 241.884 162.089C236.579 162.089 231.2 161.111 228.269 160.565C226.987 160.323 226.431 162.593 226.431 162.593C230.297 165.451 234.94 166.534 242.357 166.576C252.274 166.649 257.747 162.299 257.747 162.299C257.747 162.299 256.35 160.113 254.722 160.449L254.732 160.46Z" fill="url(#paint81_linear_1103_5756)"/>
<path d="M227.765 169.76C243.586 182.507 258.724 168.888 258.724 168.888C242.735 177.505 227.765 169.76 227.765 169.76Z" fill="url(#paint82_linear_1103_5756)"/>
<path d="M222.554 155.521C222.554 155.521 222.649 158.159 225.296 159.315C226.83 159.987 230.265 162.636 243.638 162.226C257.001 161.816 259.649 158.537 260.258 157.97C261.393 156.908 261.907 155.111 261.907 155.111C261.907 155.111 241.769 159.105 222.544 155.532L222.554 155.521Z" fill="url(#paint83_linear_1103_5756)"/>
<path d="M222.502 155.279C222.502 155.279 222.596 156.477 223.027 157.182C223.395 157.77 234.079 159.346 242.136 159.399C250.204 159.451 260.731 157.339 261.098 156.877C261.676 156.141 262.002 154.849 262.002 154.849C262.002 154.849 252.925 157.938 222.502 155.279Z" fill="#F4ECEB"/>
<path d="M214.024 153.22C214.024 153.22 215.967 154.365 215.673 154.06C215.673 154.06 239.184 161.017 269.576 153.482L271.226 152.642C254.732 155.437 214.024 153.22 214.024 153.22Z" fill="url(#paint84_linear_1103_5756)"/>
<path d="M188.748 130.395C191.427 116.891 181.961 115.609 183.716 124.962C183.716 124.962 185.218 120.643 186.374 121.988C187.781 123.649 184.682 124.416 185.933 131.488C186.594 135.166 190.345 139.149 190.345 139.149C190.345 139.149 187.613 136.122 188.748 130.395Z" fill="url(#paint85_linear_1103_5756)"/>
<path d="M274.062 169.382C269.587 174.983 267.601 185.566 267.601 185.566C269.891 182.665 285.187 166.377 287.414 161.049C291.102 152.243 290.398 130.952 290.398 130.952C288.328 162.846 278.527 163.771 274.052 169.382H274.062Z" fill="url(#paint86_linear_1103_5756)"/>
<path d="M192.519 133.264C192.519 133.264 192.467 155.458 197.215 162.93C201.501 169.666 215.032 183.085 216.839 184.788C216.839 184.788 216.367 177.001 211.46 171.778C206.554 166.555 194.358 160.197 192.519 133.264Z" fill="url(#paint87_linear_1103_5756)"/>
<path d="M228.847 103.987C223.059 101.644 214.906 102.033 208.362 103.609C205.83 104.218 202.468 110.156 202.468 110.156C202.468 110.156 205.389 108.086 212.112 107.77C217.848 107.497 223.342 108.443 228.196 108.401C230.769 108.38 231.053 104.891 228.858 103.998L228.847 103.987Z" fill="url(#paint88_linear_1103_5756)"/>
<path d="M273.81 103.136C267.612 101.717 259.102 101.381 253.345 103.819C251.16 104.744 251.496 108.233 254.07 108.212C258.924 108.18 264.397 107.161 270.133 107.35C276.856 107.571 279.84 109.767 279.84 109.767C279.84 109.767 276.352 103.724 273.81 103.146V103.136Z" fill="url(#paint89_linear_1103_5756)"/>
<path d="M253.692 46.9357C238.312 45.7061 224.056 47.1984 215.316 49.8466C207.111 52.3371 193.255 64.8214 191.332 79.8068C189.767 92.0283 188.706 118.3 188.706 118.3C188.706 118.3 191.668 122.703 192.519 133.264C192.519 133.264 193.486 123.365 195.828 114.717C197.993 106.751 200.209 104.271 199.968 98.5332C199.621 90.1788 204.527 74.626 207.405 72.9236C228.784 60.2922 265.952 65.6201 273.789 71.0846C277.151 73.428 281.269 91.2087 281.521 97.8291C281.762 104.019 285.051 107.108 287.215 114.895C289.284 122.304 290.419 130.942 290.419 130.942C290.419 130.942 291.385 118.962 293.549 116.787C293.371 109.157 292.982 88.2873 290.398 74.8887C288.843 66.8075 280.082 49.0374 253.703 46.9357H253.692Z" fill="url(#paint90_linear_1103_5756)"/>
<path d="M245.246 146.179C251.129 144.698 253.44 145.58 253.44 145.58C250.015 142.543 245.246 146.179 245.246 146.179Z" fill="url(#paint91_linear_1103_5756)"/>
<path d="M228.595 145.15C228.595 145.15 231.641 144.645 236.264 146.232C236.264 146.232 231.757 142.775 228.595 145.15Z" fill="url(#paint92_linear_1103_5756)"/>
<path d="M249.784 136.28C251.129 139.727 249.563 142.218 247.21 143.699C244.689 145.37 237.314 145.864 234.562 144.309C232.209 143.09 230.37 140.62 231.021 135.839C231.021 135.839 229.551 136.953 228.248 138.266C225.443 140.83 225.191 145.286 228.28 145.339C228.28 145.339 230.129 144.214 232.44 144.624C235.224 145.118 234.677 148.008 241.128 148.071C246.748 148.123 244.962 145.391 248.534 144.876C252.106 144.361 252.568 145.286 253.387 145.654C255.173 145.654 256.928 140.021 249.805 136.28H249.784Z" fill="url(#paint93_linear_1103_5756)"/>
<path d="M240.644 130.553C237.934 130.553 234.247 134.557 234.845 139.485C235.518 145.076 245.109 142.585 245.708 140.399C246.307 138.214 244.962 130.563 240.655 130.563L240.644 130.553Z" fill="url(#paint94_linear_1103_5756)"/>
<path d="M268.589 49.3419C253.692 43.6147 221.682 45.9581 211.87 51.0128C203.371 55.3844 198.171 63.6442 198.171 63.6442C212.416 49.7622 230.507 48.7954 251.328 49.9094C272.15 51.0233 282.834 60.2709 282.834 60.2709C282.834 60.2709 276.541 52.4104 268.599 49.3629L268.589 49.3419Z" fill="url(#paint95_linear_1103_5756)"/>
<path d="M274.335 66.8597C269.335 63.4549 219.665 58.9151 204.674 69.8021C196.932 75.4242 198.171 100.929 196.144 113.592C196.144 113.592 199.558 107.959 199.779 102.011C199.999 96.0633 203.382 75.151 208.582 72.5659C213.782 69.9808 241.748 57.7592 274.083 72.3242C277.413 73.8269 279.945 93.4676 281.552 100.403C283.16 107.339 284.935 109.178 286.112 111.511C286.112 111.511 282.361 87.0889 281.857 84.8505C281.342 82.6017 279.052 70.0648 274.346 66.8702L274.335 66.8597Z" fill="url(#paint96_linear_1103_5756)"/>
<path d="M259.281 181.278C256.392 184.325 252.621 183.779 249.091 177.211C249.091 177.211 250.604 185.261 251.843 185.912C253.083 186.564 257.852 188.518 260.636 184.515C263.42 180.511 271.52 166.429 269.965 155.111C269.965 155.111 269.377 170.601 259.271 181.288L259.281 181.278Z" fill="url(#paint97_linear_1103_5756)"/>
<path d="M225.947 181.362C219.718 174.269 215.778 155.111 215.778 155.111C214.339 168.888 223.111 180.511 225.895 184.515C228.679 188.518 233.448 186.564 234.688 185.912C235.928 185.261 237.44 177.211 237.44 177.211C232.86 184.788 228.721 184.515 225.947 181.362Z" fill="url(#paint98_linear_1103_5756)"/>
<path d="M271.478 151.97C270.249 151.087 253.366 151.234 249.08 150.152C246.664 149.542 236.442 149.511 234.394 150.152C232.345 150.793 216.02 151.602 214.024 152.537C212.017 153.483 212.185 178.599 214.129 182.119C219.823 192.491 232.671 197.483 244.931 197.672C261.35 197.924 271.341 181.278 271.341 181.278C271.341 181.278 273.705 175.646 273.316 164.202C272.959 153.746 272.423 152.642 271.478 151.97ZM268.473 166.587C265.889 175.719 262.527 181.541 258.724 183.779C257.012 184.788 254.585 185.534 252.61 183.779C250.635 182.024 249.784 174.942 247.347 174.605C244.91 174.269 238.974 174.448 238.302 175.204C237.209 176.455 236.957 178.641 235.749 181.278C233.448 186.312 226.473 184.799 224.823 182.014C224.445 181.383 220.894 177.59 217.942 166.598C215.957 159.231 215.663 154.061 215.663 154.061C216.251 153.231 231.41 153.914 233.059 153.914C234.709 153.914 249.826 154.008 251.412 154.008C252.999 154.008 269.335 153.273 269.566 153.483C270.291 154.155 270.206 160.429 268.463 166.587H268.473Z" fill="url(#paint99_linear_1103_5756)"/>
<path d="M243.575 197.398C229.498 197.398 217.627 186.963 217.627 186.963C217.627 186.963 226.809 199.973 243.607 199.899C260.09 199.825 266.624 187.289 266.624 187.289C266.624 187.289 257.758 197.398 243.575 197.398Z" fill="url(#paint100_linear_1103_5756)"/>
<path d="M271.425 111.385C263.031 111.533 254.606 112.646 250.141 113.571C249.143 113.781 247.641 115.431 247.179 115.515C242.651 114.874 240.718 115 236.012 115.515C235.497 115.421 233.889 113.75 232.734 113.508C228.164 112.562 219.97 111.522 211.755 111.385C202.552 111.228 194.263 113.613 194.095 113.676C193.727 113.792 194.463 120.917 194.83 121.264C195.062 121.484 195.976 122.167 196.658 122.661C198.266 127.222 199.715 131.909 201.943 132.413C209.401 134.095 228.164 133.863 230.192 132.623C232.219 131.383 234.929 121.852 236.537 119.33C237.178 118.321 246.023 118.1 246.632 119.33C247.977 122.01 251.339 130.911 253.377 132.151C255.404 133.391 273.768 134.095 281.227 132.413C283.454 131.909 284.904 127.222 286.511 122.661C287.194 122.157 288.108 121.474 288.339 121.264C288.706 120.906 289.452 113.792 289.074 113.676C288.896 113.624 280.607 111.228 271.415 111.385H271.425ZM228.479 131.32C226.441 132.56 206.365 132.298 203.771 131.352C201.764 130.616 197.982 117.922 201.186 116.766C213.362 112.352 233.017 115.81 233.06 118.079C233.102 120.738 230.528 130.08 228.49 131.32H228.479ZM279.43 131.352C276.835 132.298 257.295 132.245 255.257 131.005C253.219 129.765 250.11 120.749 250.152 118.079C250.194 115.799 269.849 112.352 282.025 116.766C285.229 117.932 281.447 130.627 279.441 131.352H279.43Z" fill="url(#paint101_linear_1103_5756)"/>
</g>
<defs>
<filter id="filter0_d_1103_5756" x="6.32007" y="6.15039" width="361.93" height="361.93" filterUnits="userSpaceOnUse" color-interpolation-filters="sRGB">
<feFlood flood-opacity="0" result="BackgroundImageFix"/>
<feColorMatrix in="SourceAlpha" type="matrix" values="0 0 0 0 0 0 0 0 0 0 0 0 0 0 0 0 0 0 127 0" result="hardAlpha"/>
<feOffset dx="6" dy="7"/>
<feGaussianBlur stdDeviation="6"/>
<feColorMatrix type="matrix" values="0 0 0 0 0 0 0 0 0 0 0 0 0 0 0 0 0 0 0.25 0"/>
<feBlend mode="normal" in2="BackgroundImageFix" result="effect1_dropShadow_1103_5756"/>
<feBlend mode="normal" in="SourceGraphic" in2="effect1_dropShadow_1103_5756" result="shape"/>
</filter>
<linearGradient id="paint0_linear_1103_5756" x1="292.993" y1="272.556" x2="357.002" y2="272.556" gradientUnits="userSpaceOnUse">
<stop stop-color="#C57D4E"/>
<stop offset="1" stop-color="#A9563F"/>
</linearGradient>
<linearGradient id="paint1_linear_1103_5756" x1="224.949" y1="195.99" x2="278.717" y2="206.755" gradientUnits="userSpaceOnUse">
<stop stop-color="#A9563F"/>
<stop offset="0.97" stop-color="#C47C4E"/>
<stop offset="1" stop-color="#C57D4E"/>
</linearGradient>
<linearGradient id="paint2_linear_1103_5756" x1="240.434" y1="298.334" x2="244.019" y2="216.104" gradientUnits="userSpaceOnUse">
<stop stop-color="#009022"/>
<stop offset="0.13" stop-color="#039024"/>
<stop offset="1" stop-color="#169132"/>
</linearGradient>
<linearGradient id="paint3_linear_1103_5756" x1="240.245" y1="192.796" x2="245.459" y2="237.415" gradientUnits="userSpaceOnUse">
<stop stop-color="#037F00"/>
<stop offset="0.33" stop-color="#028105"/>
<stop offset="0.77" stop-color="#018A16"/>
<stop offset="1" stop-color="#009022"/>
</linearGradient>
<linearGradient id="paint4_linear_1103_5756" x1="186.468" y1="278.757" x2="135.817" y2="328.415" gradientUnits="userSpaceOnUse">
<stop stop-color="#C57D4E"/>
<stop offset="1" stop-color="#A9563F"/>
</linearGradient>
<linearGradient id="paint5_linear_1103_5756" x1="161.402" y1="287.605" x2="140.396" y2="308.206" gradientUnits="userSpaceOnUse">
<stop stop-color="#C57D4E"/>
<stop offset="1" stop-color="#A9563F"/>
</linearGradient>
<linearGradient id="paint6_linear_1103_5756" x1="179.177" y1="345.277" x2="131.366" y2="259.518" gradientUnits="userSpaceOnUse">
<stop stop-color="#037F00"/>
<stop offset="0.33" stop-color="#028105"/>
<stop offset="0.77" stop-color="#018A16"/>
<stop offset="1" stop-color="#009022"/>
</linearGradient>
<linearGradient id="paint7_linear_1103_5756" x1="263.693" y1="239.749" x2="326.677" y2="321.498" gradientUnits="userSpaceOnUse">
<stop stop-color="#009022"/>
<stop offset="0.23" stop-color="#018A16"/>
<stop offset="0.67" stop-color="#028105"/>
<stop offset="1" stop-color="#037F00"/>
</linearGradient>
<linearGradient id="paint8_linear_1103_5756" x1="242.073" y1="293.657" x2="161.044" y2="248.481" gradientUnits="userSpaceOnUse">
<stop stop-color="#037F00"/>
<stop offset="0.33" stop-color="#028105"/>
<stop offset="0.77" stop-color="#018A16"/>
<stop offset="1" stop-color="#009022"/>
</linearGradient>
<linearGradient id="paint9_linear_1103_5756" x1="171.256" y1="359.904" x2="174.536" y2="249.752" gradientUnits="userSpaceOnUse">
<stop stop-color="#037F00"/>
<stop offset="0.33" stop-color="#028105"/>
<stop offset="0.77" stop-color="#018A16"/>
<stop offset="1" stop-color="#009022"/>
</linearGradient>
<linearGradient id="paint10_linear_1103_5756" x1="123.793" y1="288.025" x2="116.017" y2="279.884" gradientUnits="userSpaceOnUse">
<stop stop-color="#C57D4E"/>
<stop offset="1" stop-color="#A9563F"/>
</linearGradient>
<linearGradient id="paint11_linear_1103_5756" x1="151.832" y1="312.868" x2="113.288" y2="310.242" gradientUnits="userSpaceOnUse">
<stop stop-color="#C57D4E"/>
<stop offset="1" stop-color="#A9563F"/>
</linearGradient>
<linearGradient id="paint12_linear_1103_5756" x1="123.972" y1="279.388" x2="107.652" y2="295.398" gradientUnits="userSpaceOnUse">
<stop stop-color="#C57D4E"/>
<stop offset="1" stop-color="#A9563F"/>
</linearGradient>
<linearGradient id="paint13_linear_1103_5756" x1="267.139" y1="305.764" x2="155.572" y2="257.965" gradientUnits="userSpaceOnUse">
<stop stop-color="#6C6B73"/>
<stop offset="0.06" stop-color="#63636A"/>
<stop offset="0.33" stop-color="#434447"/>
<stop offset="0.58" stop-color="#2C2E2E"/>
<stop offset="0.81" stop-color="#1D201F"/>
<stop offset="1" stop-color="#191C1A"/>
</linearGradient>
<linearGradient id="paint14_linear_1103_5756" x1="202.573" y1="264.528" x2="105.002" y2="228.346" gradientUnits="userSpaceOnUse">
<stop stop-color="#6C6B73"/>
<stop offset="0.06" stop-color="#63636A"/>
<stop offset="0.33" stop-color="#434447"/>
<stop offset="0.58" stop-color="#2C2E2E"/>
<stop offset="0.81" stop-color="#1D201F"/>
<stop offset="1" stop-color="#191C1A"/>
</linearGradient>
<linearGradient id="paint15_linear_1103_5756" x1="217.291" y1="300.026" x2="136.224" y2="265.293" gradientUnits="userSpaceOnUse">
<stop stop-color="#6C6B73"/>
<stop offset="0.06" stop-color="#63636A"/>
<stop offset="0.33" stop-color="#434447"/>
<stop offset="0.58" stop-color="#2C2E2E"/>
<stop offset="0.81" stop-color="#1D201F"/>
<stop offset="1" stop-color="#191C1A"/>
</linearGradient>
<linearGradient id="paint16_linear_1103_5756" x1="140.56" y1="367.818" x2="180.251" y2="223.572" gradientUnits="userSpaceOnUse">
<stop stop-color="#CACFE8"/>
<stop offset="0.42" stop-color="#CFD3E6"/>
<stop offset="0.93" stop-color="#DEDEE1"/>
<stop offset="1" stop-color="#E1E1E1"/>
</linearGradient>
<linearGradient id="paint17_linear_1103_5756" x1="158.272" y1="365.968" x2="128.503" y2="209.319" gradientUnits="userSpaceOnUse">
<stop stop-color="#E1E1E1"/>
<stop offset="0.07" stop-color="#DEDEE1"/>
<stop offset="0.58" stop-color="#CFD3E6"/>
<stop offset="1" stop-color="#CACFE8"/>
</linearGradient>
<linearGradient id="paint18_linear_1103_5756" x1="110.052" y1="237.942" x2="103.535" y2="257.234" gradientUnits="userSpaceOnUse">
<stop stop-color="#A9563F"/>
<stop offset="1" stop-color="#C57D4E"/>
</linearGradient>
<linearGradient id="paint19_linear_1103_5756" x1="162.327" y1="281.289" x2="113.335" y2="257.678" gradientUnits="userSpaceOnUse">
<stop offset="0.17" stop-color="#A9563F"/>
<stop offset="0.72" stop-color="#BA6E48"/>
<stop offset="1" stop-color="#C57D4E"/>
</linearGradient>
<linearGradient id="paint20_linear_1103_5756" x1="101.312" y1="248.787" x2="114.172" y2="256.549" gradientUnits="userSpaceOnUse">
<stop stop-color="#CD8653"/>
<stop offset="1" stop-color="#C57D4E"/>
</linearGradient>
<linearGradient id="paint21_linear_1103_5756" x1="98.0339" y1="238.457" x2="106.796" y2="242.763" gradientUnits="userSpaceOnUse">
<stop stop-color="#CD8653"/>
<stop offset="1" stop-color="#C57D4E"/>
</linearGradient>
<linearGradient id="paint22_linear_1103_5756" x1="86.5306" y1="243.406" x2="112.917" y2="267.956" gradientUnits="userSpaceOnUse">
<stop stop-color="#C57D4E"/>
<stop offset="1" stop-color="#A9563F"/>
</linearGradient>
<linearGradient id="paint23_linear_1103_5756" x1="112.016" y1="264.329" x2="103.065" y2="259.707" gradientUnits="userSpaceOnUse">
<stop stop-color="#C57D4E"/>
<stop offset="1" stop-color="#A9563F"/>
</linearGradient>
<linearGradient id="paint24_linear_1103_5756" x1="124.76" y1="287.08" x2="119.819" y2="270.298" gradientUnits="userSpaceOnUse">
<stop offset="0.17" stop-color="#A9563F"/>
<stop offset="0.72" stop-color="#BA6E48"/>
<stop offset="1" stop-color="#C57D4E"/>
</linearGradient>
<linearGradient id="paint25_linear_1103_5756" x1="94.9349" y1="264.56" x2="125.763" y2="282.595" gradientUnits="userSpaceOnUse">
<stop stop-color="#C57D4E"/>
<stop offset="0.28" stop-color="#BA6E48"/>
<stop offset="0.83" stop-color="#A9563F"/>
</linearGradient>
<linearGradient id="paint26_linear_1103_5756" x1="122.238" y1="290.485" x2="120.378" y2="281.973" gradientUnits="userSpaceOnUse">
<stop stop-color="#A9563F"/>
<stop offset="1" stop-color="#C57D4E"/>
</linearGradient>
<linearGradient id="paint27_linear_1103_5756" x1="110.745" y1="276.466" x2="119.036" y2="281.718" gradientUnits="userSpaceOnUse">
<stop stop-color="#CD8653"/>
<stop offset="1" stop-color="#C57D4E"/>
</linearGradient>
<linearGradient id="paint28_linear_1103_5756" x1="106.27" y1="262.153" x2="117.334" y2="269.474" gradientUnits="userSpaceOnUse">
<stop stop-color="#CD8653"/>
<stop offset="1" stop-color="#C57D4E"/>
</linearGradient>
<linearGradient id="paint29_linear_1103_5756" x1="100.734" y1="275.384" x2="112.776" y2="284.502" gradientUnits="userSpaceOnUse">
<stop stop-color="#C57D4E"/>
<stop offset="1" stop-color="#A9563F"/>
</linearGradient>
<linearGradient id="paint30_linear_1103_5756" x1="135.286" y1="315.506" x2="105.566" y2="313.49" gradientUnits="userSpaceOnUse">
<stop stop-color="#C57D4E"/>
<stop offset="1" stop-color="#A9563F"/>
</linearGradient>
<linearGradient id="paint31_linear_1103_5756" x1="182.644" y1="284.747" x2="136.259" y2="330.235" gradientUnits="userSpaceOnUse">
<stop stop-color="#C57D4E"/>
<stop offset="1" stop-color="#A9563F"/>
</linearGradient>
<linearGradient id="paint32_linear_1103_5756" x1="356.288" y1="315.389" x2="329.355" y2="290.829" gradientUnits="userSpaceOnUse">
<stop stop-color="#C57D4E"/>
<stop offset="1" stop-color="#A9563F"/>
</linearGradient>
<linearGradient id="paint33_linear_1103_5756" x1="331.274" y1="311.397" x2="330.791" y2="273.765" gradientUnits="userSpaceOnUse">
<stop stop-color="#ED9D2B"/>
<stop offset="0.4" stop-color="#F0A228"/>
<stop offset="0.93" stop-color="#FCB322"/>
<stop offset="1" stop-color="#FEB621"/>
</linearGradient>
<linearGradient id="paint34_linear_1103_5756" x1="262.79" y1="239.233" x2="325.311" y2="320.383" gradientUnits="userSpaceOnUse">
<stop stop-color="#009022"/>
<stop offset="0.23" stop-color="#018A16"/>
<stop offset="0.67" stop-color="#028105"/>
<stop offset="1" stop-color="#037F00"/>
</linearGradient>
<linearGradient id="paint35_linear_1103_5756" x1="284.452" y1="252.674" x2="310.674" y2="249.671" gradientUnits="userSpaceOnUse">
<stop stop-color="#A9563F"/>
<stop offset="1" stop-color="#C57D4E"/>
</linearGradient>
<linearGradient id="paint36_linear_1103_5756" x1="273.442" y1="271.075" x2="283.571" y2="276.232" gradientUnits="userSpaceOnUse">
<stop stop-color="#A9563F"/>
<stop offset="1" stop-color="#C57D4E"/>
</linearGradient>
<linearGradient id="paint37_linear_1103_5756" x1="283.738" y1="279.566" x2="288.614" y2="287.068" gradientUnits="userSpaceOnUse">
<stop stop-color="#A9563F"/>
<stop offset="1" stop-color="#C57D4E"/>
</linearGradient>
<linearGradient id="paint38_linear_1103_5756" x1="236.652" y1="277.938" x2="333.988" y2="301.873" gradientUnits="userSpaceOnUse">
<stop stop-color="#A9563F"/>
<stop offset="1" stop-color="#C57D4E"/>
</linearGradient>
<linearGradient id="paint39_linear_1103_5756" x1="283.454" y1="256.153" x2="331.388" y2="286.152" gradientUnits="userSpaceOnUse">
<stop stop-color="#A9563F"/>
<stop offset="1" stop-color="#C57D4E"/>
</linearGradient>
<linearGradient id="paint40_linear_1103_5756" x1="281.721" y1="279.723" x2="297.922" y2="287.989" gradientUnits="userSpaceOnUse">
<stop stop-color="#A9563F"/>
<stop offset="1" stop-color="#C57D4E"/>
</linearGradient>
<linearGradient id="paint41_linear_1103_5756" x1="303.057" y1="244.793" x2="299.105" y2="251.56" gradientUnits="userSpaceOnUse">
<stop stop-color="#C57D4E"/>
<stop offset="1" stop-color="#A9563F"/>
</linearGradient>
<linearGradient id="paint42_linear_1103_5756" x1="365.228" y1="351.508" x2="330.417" y2="286.605" gradientUnits="userSpaceOnUse">
<stop stop-color="#A9563F"/>
<stop offset="1" stop-color="#C57D4E"/>
</linearGradient>
<linearGradient id="paint43_linear_1103_5756" x1="254.385" y1="253.925" x2="315.306" y2="253.925" gradientUnits="userSpaceOnUse">
<stop stop-color="#CD8653"/>
<stop offset="1" stop-color="#C57D4E"/>
</linearGradient>
<linearGradient id="paint44_linear_1103_5756" x1="288.507" y1="249.017" x2="319.141" y2="249.017" gradientUnits="userSpaceOnUse">
<stop stop-color="#CD8653"/>
<stop offset="1" stop-color="#C57D4E"/>
</linearGradient>
<linearGradient id="paint45_linear_1103_5756" x1="308.226" y1="272" x2="291.669" y2="268.691" gradientUnits="userSpaceOnUse">
<stop stop-color="#CD8653"/>
<stop offset="1" stop-color="#C57D4E"/>
</linearGradient>
<linearGradient id="paint46_linear_1103_5756" x1="309.423" y1="259.179" x2="285.849" y2="256.648" gradientUnits="userSpaceOnUse">
<stop stop-color="#CD8653"/>
<stop offset="1" stop-color="#C57D4E"/>
</linearGradient>
<linearGradient id="paint47_linear_1103_5756" x1="306.923" y1="283.874" x2="291.342" y2="278.423" gradientUnits="userSpaceOnUse">
<stop stop-color="#CD8653"/>
<stop offset="1" stop-color="#C57D4E"/>
</linearGradient>
<linearGradient id="paint48_linear_1103_5756" x1="300.777" y1="292.197" x2="290.649" y2="287.713" gradientUnits="userSpaceOnUse">
<stop stop-color="#CD8653"/>
<stop offset="1" stop-color="#C57D4E"/>
</linearGradient>
<linearGradient id="paint49_linear_1103_5756" x1="279.199" y1="239.444" x2="358.256" y2="288.917" gradientUnits="userSpaceOnUse">
<stop stop-color="#C57D4E"/>
<stop offset="1" stop-color="#CD8653"/>
</linearGradient>
<linearGradient id="paint50_linear_1103_5756" x1="261.477" y1="264.118" x2="293.361" y2="268.813" gradientUnits="userSpaceOnUse">
<stop stop-color="#A9563F"/>
<stop offset="1" stop-color="#C57D4E"/>
</linearGradient>
<linearGradient id="paint51_linear_1103_5756" x1="301.418" y1="265.422" x2="253.923" y2="258.627" gradientUnits="userSpaceOnUse">
<stop stop-color="#A9563F"/>
<stop offset="1" stop-color="#C57D4E"/>
</linearGradient>
<linearGradient id="paint52_linear_1103_5756" x1="282.025" y1="272.431" x2="297.521" y2="275.97" gradientUnits="userSpaceOnUse">
<stop stop-color="#A9563F"/>
<stop offset="1" stop-color="#C57D4E"/>
</linearGradient>
<linearGradient id="paint53_linear_1103_5756" x1="380.45" y1="355.953" x2="326.731" y2="306.958" gradientUnits="userSpaceOnUse">
<stop stop-color="#C57D4E"/>
<stop offset="1" stop-color="#A9563F"/>
</linearGradient>
<linearGradient id="paint54_linear_1103_5756" x1="288.297" y1="132.528" x2="300.42" y2="132.528" gradientUnits="userSpaceOnUse">
<stop stop-color="#A9563F"/>
<stop offset="1" stop-color="#C57D4E"/>
</linearGradient>
<linearGradient id="paint55_linear_1103_5756" x1="294.726" y1="176.244" x2="295.767" y2="123.691" gradientUnits="userSpaceOnUse">
<stop stop-color="#C57D4E"/>
<stop offset="1" stop-color="#A9563F"/>
</linearGradient>
<linearGradient id="paint56_linear_1103_5756" x1="181.047" y1="132.528" x2="194.915" y2="132.528" gradientUnits="userSpaceOnUse">
<stop stop-color="#C57D4E"/>
<stop offset="1" stop-color="#A9563F"/>
</linearGradient>
<radialGradient id="paint57_radial_1103_5756" cx="0" cy="0" r="1" gradientUnits="userSpaceOnUse" gradientTransform="translate(272.199 138.284) rotate(176.949) scale(21.2675 21.473)">
<stop stop-color="#CB784D"/>
<stop offset="1" stop-color="#C57D4E"/>
</radialGradient>
<linearGradient id="paint58_linear_1103_5756" x1="243.575" y1="183.59" x2="243.575" y2="192.344" gradientUnits="userSpaceOnUse">
<stop stop-color="#CD8845"/>
<stop offset="1" stop-color="#D59149"/>
</linearGradient>
<radialGradient id="paint59_radial_1103_5756" cx="0" cy="0" r="1" gradientUnits="userSpaceOnUse" gradientTransform="translate(209.362 140.702) rotate(-5.35167) scale(21.8071 22.0177)">
<stop stop-color="#CB784D"/>
<stop offset="1" stop-color="#C57D4E"/>
</radialGradient>
<linearGradient id="paint60_linear_1103_5756" x1="274.587" y1="129.313" x2="237.458" y2="84.9677" gradientUnits="userSpaceOnUse">
<stop stop-color="#C57D4E"/>
<stop offset="1" stop-color="#A9563F"/>
</linearGradient>
<linearGradient id="paint61_linear_1103_5756" x1="197.877" y1="132.056" x2="253.053" y2="90.6891" gradientUnits="userSpaceOnUse">
<stop stop-color="#C57D4E"/>
<stop offset="1" stop-color="#A9563F"/>
</linearGradient>
<linearGradient id="paint62_linear_1103_5756" x1="243.922" y1="140.389" x2="233.232" y2="49.4164" gradientUnits="userSpaceOnUse">
<stop stop-color="#C57D4E"/>
<stop offset="1" stop-color="#A9563F"/>
</linearGradient>
<linearGradient id="paint63_linear_1103_5756" x1="273.085" y1="133.117" x2="291.092" y2="128.433" gradientUnits="userSpaceOnUse">
<stop stop-color="#C57D4E"/>
<stop offset="1" stop-color="#CD8653"/>
</linearGradient>
<linearGradient id="paint64_linear_1103_5756" x1="212.248" y1="134.746" x2="190.291" y2="129.389" gradientUnits="userSpaceOnUse">
<stop stop-color="#C57D4E"/>
<stop offset="1" stop-color="#CD8653"/>
</linearGradient>
<linearGradient id="paint65_linear_1103_5756" x1="198.738" y1="131.414" x2="229.188" y2="113.4" gradientUnits="userSpaceOnUse">
<stop stop-color="#C57D4E"/>
<stop offset="1" stop-color="#A9563F"/>
</linearGradient>
<linearGradient id="paint66_linear_1103_5756" x1="229.404" y1="123.554" x2="210.21" y2="118.922" gradientUnits="userSpaceOnUse">
<stop stop-color="white"/>
<stop offset="0.47" stop-color="#FCFCFC"/>
<stop offset="0.77" stop-color="#F5F3F3"/>
<stop offset="1" stop-color="#ECE7E7"/>
</linearGradient>
<linearGradient id="paint67_linear_1103_5756" x1="226.641" y1="131.225" x2="214.503" y2="117.652" gradientUnits="userSpaceOnUse">
<stop stop-color="#72564C"/>
<stop offset="1" stop-color="#462C23"/>
</linearGradient>
<linearGradient id="paint68_linear_1103_5756" x1="241.17" y1="138.708" x2="220.49" y2="121.659" gradientUnits="userSpaceOnUse">
<stop stop-color="#72564C"/>
<stop offset="1" stop-color="#462C23"/>
</linearGradient>
<radialGradient id="paint69_radial_1103_5756" cx="0" cy="0" r="1" gradientUnits="userSpaceOnUse" gradientTransform="translate(222.849 124.074) scale(12.8707 12.995)">
<stop stop-color="#1F2B2C"/>
<stop offset="1" stop-color="#151D1D"/>
</radialGradient>
<linearGradient id="paint70_linear_1103_5756" x1="245.004" y1="132.234" x2="276.819" y2="113.422" gradientUnits="userSpaceOnUse">
<stop stop-color="#C57D4E"/>
<stop offset="1" stop-color="#A9563F"/>
</linearGradient>
<linearGradient id="paint71_linear_1103_5756" x1="276.142" y1="123.722" x2="257.82" y2="119.3" gradientUnits="userSpaceOnUse">
<stop stop-color="white"/>
<stop offset="0.47" stop-color="#FCFCFC"/>
<stop offset="0.77" stop-color="#F5F3F3"/>
<stop offset="1" stop-color="#ECE7E7"/>
</linearGradient>
<linearGradient id="paint72_linear_1103_5756" x1="259.859" y1="119.025" x2="276.535" y2="133.007" gradientUnits="userSpaceOnUse">
<stop stop-color="#462C23"/>
<stop offset="1" stop-color="#72564C"/>
</linearGradient>
<linearGradient id="paint73_linear_1103_5756" x1="263.304" y1="119.917" x2="275.655" y2="148.645" gradientUnits="userSpaceOnUse">
<stop stop-color="#462C23"/>
<stop offset="1" stop-color="#72564C"/>
</linearGradient>
<radialGradient id="paint74_radial_1103_5756" cx="0" cy="0" r="1" gradientUnits="userSpaceOnUse" gradientTransform="translate(268.801 124.38) scale(12.8706 12.995)">
<stop stop-color="#1F2B2C"/>
<stop offset="1" stop-color="#151D1D"/>
</radialGradient>
<linearGradient id="paint75_linear_1103_5756" x1="239.751" y1="119.571" x2="276.142" y2="118.741" gradientUnits="userSpaceOnUse">
<stop stop-color="#5A2A1F"/>
<stop offset="0.29" stop-color="#492219"/>
<stop offset="0.66" stop-color="#3D1C14"/>
<stop offset="1" stop-color="#391B13"/>
</linearGradient>
<linearGradient id="paint76_linear_1103_5756" x1="261.802" y1="204.912" x2="268.687" y2="132.98" gradientUnits="userSpaceOnUse">
<stop stop-color="#C57D4E"/>
<stop offset="1" stop-color="#A9563F"/>
</linearGradient>
<linearGradient id="paint77_linear_1103_5756" x1="207.216" y1="117.448" x2="245.571" y2="120.851" gradientUnits="userSpaceOnUse">
<stop stop-color="#391B13"/>
<stop offset="0.34" stop-color="#3D1C14"/>
<stop offset="0.71" stop-color="#492219"/>
<stop offset="1" stop-color="#5A2A1F"/>
</linearGradient>
<linearGradient id="paint78_linear_1103_5756" x1="207.857" y1="180.059" x2="212.608" y2="130.364" gradientUnits="userSpaceOnUse">
<stop stop-color="#C57D4E"/>
<stop offset="1" stop-color="#A9563F"/>
</linearGradient>
<linearGradient id="paint79_linear_1103_5756" x1="243.723" y1="166.776" x2="243.439" y2="180.08" gradientUnits="userSpaceOnUse">
<stop stop-color="#C57D4E"/>
<stop offset="1" stop-color="#A9563F"/>
</linearGradient>
<linearGradient id="paint80_linear_1103_5756" x1="234.761" y1="169.834" x2="250.572" y2="169.834" gradientUnits="userSpaceOnUse">
<stop stop-color="#C57D4E"/>
<stop offset="1" stop-color="#CD8653"/>
</linearGradient>
<linearGradient id="paint81_linear_1103_5756" x1="224.508" y1="163.097" x2="262.117" y2="163.738" gradientUnits="userSpaceOnUse">
<stop stop-color="#E8D8D7"/>
<stop offset="0.14" stop-color="#EFE4E4"/>
<stop offset="0.39" stop-color="#FAF8F7"/>
<stop offset="0.57" stop-color="white"/>
<stop offset="1" stop-color="#E8D2D1"/>
</linearGradient>
<linearGradient id="paint82_linear_1103_5756" x1="243.302" y1="166.754" x2="243.029" y2="180.069" gradientUnits="userSpaceOnUse">
<stop stop-color="#C57D4E"/>
<stop offset="1" stop-color="#A9563F"/>
</linearGradient>
<linearGradient id="paint83_linear_1103_5756" x1="241.947" y1="148.691" x2="242.557" y2="162.919" gradientUnits="userSpaceOnUse">
<stop stop-color="#E8D8D7"/>
<stop offset="0.4" stop-color="#EFE4E3"/>
<stop offset="1" stop-color="white"/>
</linearGradient>
<linearGradient id="paint84_linear_1103_5756" x1="243.481" y1="204.754" x2="242.472" y2="143.657" gradientUnits="userSpaceOnUse">
<stop stop-color="#C57D4E"/>
<stop offset="1" stop-color="#A9563F"/>
</linearGradient>
<linearGradient id="paint85_linear_1103_5756" x1="189.683" y1="151.623" x2="187.013" y2="129.523" gradientUnits="userSpaceOnUse">
<stop stop-color="#C57D4E"/>
<stop offset="1" stop-color="#A9563F"/>
</linearGradient>
<linearGradient id="paint86_linear_1103_5756" x1="266.866" y1="191.387" x2="291.976" y2="139.765" gradientUnits="userSpaceOnUse">
<stop stop-color="#C57D4E"/>
<stop offset="1" stop-color="#CD8653"/>
</linearGradient>
<linearGradient id="paint87_linear_1103_5756" x1="195.408" y1="178.104" x2="210.575" y2="146.918" gradientUnits="userSpaceOnUse">
<stop stop-color="#C57D4E"/>
<stop offset="1" stop-color="#A9563F"/>
</linearGradient>
<linearGradient id="paint88_linear_1103_5756" x1="203.35" y1="106.761" x2="241.328" y2="104.02" gradientUnits="userSpaceOnUse">
<stop stop-color="#1E100C"/>
<stop offset="0.07" stop-color="#23120E"/>
<stop offset="0.34" stop-color="#341B16"/>
<stop offset="0.64" stop-color="#3E211A"/>
<stop offset="1" stop-color="#42231C"/>
</linearGradient>
<linearGradient id="paint89_linear_1103_5756" x1="279.64" y1="105.374" x2="235.476" y2="108.105" gradientUnits="userSpaceOnUse">
<stop stop-color="#42231C"/>
<stop offset="0.36" stop-color="#3E211A"/>
<stop offset="0.66" stop-color="#341B16"/>
<stop offset="0.93" stop-color="#23120E"/>
<stop offset="1" stop-color="#1E100C"/>
</linearGradient>
<linearGradient id="paint90_linear_1103_5756" x1="237.251" y1="45.8322" x2="242.318" y2="135.051" gradientUnits="userSpaceOnUse">
<stop stop-color="#42231C"/>
<stop offset="0.51" stop-color="#2D1712"/>
<stop offset="1" stop-color="#1E100C"/>
</linearGradient>
<linearGradient id="paint91_linear_1103_5756" x1="247.505" y1="163.666" x2="249.207" y2="147.199" gradientUnits="userSpaceOnUse">
<stop stop-color="#C57D4E"/>
<stop offset="1" stop-color="#A9563F"/>
</linearGradient>
<linearGradient id="paint92_linear_1103_5756" x1="230.748" y1="162.058" x2="232.451" y2="145.465" gradientUnits="userSpaceOnUse">
<stop stop-color="#C57D4E"/>
<stop offset="1" stop-color="#A9563F"/>
</linearGradient>
<linearGradient id="paint93_linear_1103_5756" x1="240.161" y1="132.728" x2="240.939" y2="155.847" gradientUnits="userSpaceOnUse">
<stop stop-color="#C57D4E"/>
<stop offset="1" stop-color="#A9563F"/>
</linearGradient>
<linearGradient id="paint94_linear_1103_5756" x1="237.713" y1="126.948" x2="241.151" y2="142.301" gradientUnits="userSpaceOnUse">
<stop stop-color="#C57D4E"/>
<stop offset="1" stop-color="#CD8653"/>
</linearGradient>
<linearGradient id="paint95_linear_1103_5756" x1="240.308" y1="40.5987" x2="240.865" y2="102.158" gradientUnits="userSpaceOnUse">
<stop stop-color="#562F28"/>
<stop offset="0.13" stop-color="#502B24"/>
<stop offset="0.59" stop-color="#43231B"/>
<stop offset="1" stop-color="#3F2119"/>
</linearGradient>
<linearGradient id="paint96_linear_1103_5756" x1="242.378" y1="128.724" x2="232.644" y2="2.72577" gradientUnits="userSpaceOnUse">
<stop stop-color="#1E100C"/>
<stop offset="0.49" stop-color="#2D1712"/>
<stop offset="1" stop-color="#42231C"/>
</linearGradient>
<linearGradient id="paint97_linear_1103_5756" x1="255.646" y1="203.462" x2="262.71" y2="141.251" gradientUnits="userSpaceOnUse">
<stop stop-color="#1E100C"/>
<stop offset="0.49" stop-color="#2D1712"/>
<stop offset="1" stop-color="#42231C"/>
</linearGradient>
<linearGradient id="paint98_linear_1103_5756" x1="222.722" y1="200.404" x2="229.103" y2="144.277" gradientUnits="userSpaceOnUse">
<stop stop-color="#1E100C"/>
<stop offset="0.49" stop-color="#2D1712"/>
<stop offset="1" stop-color="#42231C"/>
</linearGradient>
<linearGradient id="paint99_linear_1103_5756" x1="242.231" y1="200.52" x2="243.723" y2="131.656" gradientUnits="userSpaceOnUse">
<stop stop-color="#42231C"/>
<stop offset="0.51" stop-color="#2D1712"/>
<stop offset="1" stop-color="#1E100C"/>
</linearGradient>
<linearGradient id="paint100_linear_1103_5756" x1="242.294" y1="200.666" x2="242.546" y2="221.873" gradientUnits="userSpaceOnUse">
<stop stop-color="#562F28"/>
<stop offset="0.13" stop-color="#502B24"/>
<stop offset="0.59" stop-color="#43231B"/>
<stop offset="1" stop-color="#3F2119"/>
</linearGradient>
<linearGradient id="paint101_linear_1103_5756" x1="241.453" y1="110.86" x2="242.568" y2="139.916" gradientUnits="userSpaceOnUse">
<stop stop-color="#1F1F23"/>
<stop offset="1" stop-color="#25262A"/>
</linearGradient>
</defs>
</svg>
