<svg width="48" height="52" viewBox="0 0 48 52" fill="none" xmlns="http://www.w3.org/2000/svg">
<path fill-rule="evenodd" clip-rule="evenodd" d="M24.0011 2C37.2541 2 48 12.7459 48 26.0011C48 39.2541 37.2541 50 23.9989 50C10.7459 50 0 39.2541 0 25.9989C0 12.7459 10.7459 2 24.0011 2ZM24.0011 41.652C26.0721 41.6763 28.1273 41.2894 30.0477 40.5136C31.9681 39.7379 33.7154 38.5887 35.1884 37.1328C36.6615 35.6768 37.8309 33.943 38.629 32.0318C39.4271 30.1206 39.838 28.07 39.8379 25.9989C39.8377 23.9278 39.4266 21.8772 38.6282 19.9661C37.8298 18.0551 36.6601 16.3214 35.1869 14.8657C33.7136 13.4099 31.9662 12.261 30.0457 11.4855C28.1252 10.7101 26.0699 10.3234 23.9989 10.348C19.8798 10.3967 15.9458 12.0671 13.0502 14.9971C10.1545 17.9272 8.53064 21.8806 8.53064 26C8.53064 30.1194 10.1545 34.0728 13.0502 37.0029C15.9458 39.9329 19.8798 41.6033 23.9989 41.652H24.0011ZM24.0011 33.6814C21.9641 33.6814 20.0106 32.8723 18.5703 31.4319C17.1299 29.9916 16.3207 28.038 16.3207 26.0011C16.3207 23.9641 17.1299 22.0106 18.5703 20.5703C20.0106 19.1299 21.9641 18.3207 24.0011 18.3207C26.038 18.3207 27.9916 19.1299 29.4319 20.5703C30.8723 22.0106 31.6814 23.9641 31.6814 26.0011C31.6814 28.038 30.8723 29.9916 29.4319 31.4319C27.9916 32.8723 26.038 33.6814 24.0011 33.6814Z" fill="#9CA3AF"/>
</svg>
