<svg width="156" height="52" viewBox="0 0 156 52" fill="none" xmlns="http://www.w3.org/2000/svg">
<path fill-rule="evenodd" clip-rule="evenodd" d="M107.435 19.2959C105.181 16.8288 102.369 15.5665 99.066 15.5665C95.8858 15.5665 92.7301 17.7878 90.7875 19.9844L90.7957 15.878L84.8615 15.8698L84.7959 49.5492V49.9918L90.7629 50L90.7875 39.4675C92.5908 41.4921 95.4431 42.6805 98.6152 42.6887C102.107 42.6887 105.041 41.4429 107.344 38.9921C109.664 36.525 110.844 33.0415 110.853 29.0498C110.861 24.9679 109.713 21.6893 107.435 19.2959ZM97.6398 21.1156C99.6643 21.1156 101.377 21.8778 102.73 23.3778C104.123 24.8286 104.836 26.7302 104.828 29.0334C104.82 31.353 104.131 33.4349 102.705 34.9512C101.345 36.402 99.6398 37.1397 97.6152 37.1397C95.6235 37.1397 93.9596 36.4102 92.5334 34.9349C91.1154 33.4103 90.4269 31.3366 90.4269 29.0088C90.4351 26.7056 91.1482 24.804 92.5498 23.3532C93.9596 21.845 95.6235 21.1156 97.6234 21.1156H97.6398Z" fill="#9CA3AF"/>
<path fill-rule="evenodd" clip-rule="evenodd" d="M113.877 20.8943L113.853 35.107C113.845 38.1725 114.689 40.361 116.345 41.6069C117.377 42.3855 118.689 42.779 120.246 42.779C121.443 42.779 123.32 42.2954 123.32 42.2954L122.787 37.1152C122.787 37.1152 121.418 37.5578 120.754 37.0824C120.123 36.6316 119.812 35.6644 119.812 34.2136L119.836 20.8943L125.361 20.9025L125.369 15.96L119.844 15.9518L119.861 8.85366L113.902 8.84546L113.886 15.9436L108.886 15.9354L113.877 20.8943Z" fill="#9CA3AF"/>
<path fill-rule="evenodd" clip-rule="evenodd" d="M64.9688 8.46838H35.5844L35.5762 14.3535H47.3218L47.2726 41.8281V42.3691L53.4855 42.3773L53.4609 14.3617L64.9688 14.3535V8.46838Z" fill="#9CA3AF"/>
<path fill-rule="evenodd" clip-rule="evenodd" d="M78.7553 19.4515C76.3209 16.9351 73.0096 15.5499 69.6162 15.6483C66.1819 15.6483 63.1574 16.8532 60.6246 19.2384C58.0673 21.6399 56.7641 24.9759 56.7559 29.1479C56.7477 33.3199 58.0427 36.6559 60.5919 39.0657C63.1246 41.4591 66.1573 42.6804 69.5916 42.6885C69.7228 42.6967 69.8539 42.6967 69.985 42.6967C73.1981 42.6967 76.3783 41.3197 78.7225 38.9264C80.4356 37.1641 82.4847 34.0494 82.4929 29.1971C82.5011 24.3448 80.4684 21.2219 78.7553 19.4515ZM76.8783 29.1889C76.8701 31.6069 76.157 33.6068 74.7472 35.1314C73.3456 36.6477 71.5998 37.4182 69.5588 37.4182C67.5589 37.41 65.8294 36.6395 64.4278 35.1068C63.059 33.615 62.3623 31.6069 62.3623 29.1561C62.3623 26.7054 63.0672 24.7054 64.4442 23.2137C65.8458 21.6973 67.5753 20.9268 69.5834 20.9268C71.6161 20.9268 73.362 21.7055 74.7636 23.2383C76.1734 24.7628 76.8865 26.7628 76.8783 29.1889Z" fill="#9CA3AF"/>
<path fill-rule="evenodd" clip-rule="evenodd" d="M132.139 25.0909C132.139 23.5745 132.935 20.2386 137.328 20.2386C138.885 20.2386 139.77 20.7631 140.516 21.3861C141.238 21.9844 141.598 23.4598 141.598 24.6811V25.2548L134.344 26.3859C128.599 27.263 125.304 30.353 125.287 34.8775C125.279 37.2217 126.131 39.2298 127.754 40.7052C129.353 42.156 131.541 42.9265 134.123 42.9347C137.377 42.9347 139.82 41.7626 141.565 39.3446C141.574 40.3692 141.574 41.4019 141.574 42.3609H147.623L147.664 24.9843C147.672 22.1483 146.746 19.4025 144.918 17.8944C143.115 16.4108 140.754 15.6485 137.336 15.6403H137.287C134.68 15.6403 131.918 16.3288 130.058 17.9435C127.869 19.8369 126.795 22.8368 126.795 25.1565L132.139 25.0909ZM134.885 37.7217C132.738 37.7135 131.344 36.4922 131.353 34.6152C131.361 32.6644 132.721 31.5251 135.631 31.0333L141.59 30.0252V30.0825C141.574 34.5824 138.828 37.7217 134.91 37.7217H134.885Z" fill="#9CA3AF"/>
<path fill-rule="evenodd" clip-rule="evenodd" d="M150.517 8.86987L150.46 42.1804V42.3279L155.812 42.3443L155.87 9.02561V8.87807L150.517 8.86987Z" fill="#9CA3AF"/>
<path fill-rule="evenodd" clip-rule="evenodd" d="M31.4827 21.2536L22.6387 12.385C22.5568 12.303 12.2702 2 12.2702 2L7.80307 6.4507L14.3357 12.9997L0 27.2862L19.2782 46.5971L23.6879 42.2038L17.0979 35.5974L31.4827 21.2536ZM13.098 30.7123C12.9669 30.7533 12.8357 30.7533 12.7046 30.7123C12.5734 30.6714 12.4669 30.614 12.2292 30.3763L9.63088 27.7698C9.40138 27.5403 9.33581 27.4255 9.29483 27.2944C9.25385 27.1633 9.25385 27.0321 9.29483 26.901C9.33581 26.7698 9.39319 26.6633 9.63088 26.4256L17.8192 18.2537C18.0487 18.0242 18.1634 17.9586 18.2946 17.9258C18.4257 17.8848 18.5569 17.8848 18.688 17.9258C18.8192 17.9668 18.9257 18.0242 19.1634 18.2619L21.7617 20.8683C21.9912 21.0978 22.0568 21.2126 22.0896 21.3437C22.1305 21.4749 22.1305 21.606 22.0896 21.7372C22.0486 21.8683 21.9912 21.9749 21.7535 22.2126L13.5652 30.3845C13.3439 30.614 13.2291 30.6714 13.098 30.7123Z" fill="#9CA3AF"/>
</svg>
