<svg width="161" height="52" viewBox="0 0 161 52" fill="none" xmlns="http://www.w3.org/2000/svg">
<path d="M43.9623 32.3147C41.3518 32.3147 38.9056 31.2094 36.6832 29.4102L37.2244 26.8703L37.2479 26.7762C37.7298 24.0719 39.2586 19.5326 43.9623 19.5326C47.4898 19.5326 50.3591 22.4019 50.3591 25.9294C50.3472 29.4454 47.4782 32.3147 43.9623 32.3147ZM43.9623 13.0535C37.9532 13.0535 33.2969 16.9575 31.4038 23.3779C28.511 19.0388 26.3237 13.8297 25.0421 9.44348H18.5747V26.2705C18.5747 29.5865 15.87 32.2909 12.554 32.2909C9.23789 32.2909 6.53358 29.5865 6.53358 26.2705V9.44348H0.0655034V26.2705C0.041974 33.1614 5.65107 38.8173 12.5417 38.8173C19.4327 38.8173 25.0418 33.1614 25.0418 26.2705V23.4485C26.2998 26.0706 27.8402 28.7163 29.71 31.0683L25.7471 49.6941H32.3676L35.2366 36.1832C37.753 37.7942 40.6459 38.8057 43.962 38.8057C51.0525 38.8057 56.8263 32.9967 56.8263 25.9059C56.8263 18.827 51.0525 13.0535 43.962 13.0535H43.9623Z" fill="#9CA3AF"/>
<path d="M76.5689 13.7827L80.7433 30.6097L85.3413 13.7827H90.8208L83.7539 38.1002H78.274L73.9352 21.1672L69.6077 38.0883H64.1281L57.0605 13.7711H62.5404L67.138 30.5981L71.3124 13.7711H76.5686V13.783L76.5689 13.7827ZM103.932 13.0536C96.818 13.0536 91.0561 18.8271 91.0561 25.9295C91.0561 33.0439 96.8296 38.8057 103.932 38.8057C111.046 38.8057 116.82 33.0439 116.82 25.9295C116.82 18.8155 111.046 13.0536 103.932 13.0536ZM103.932 33.5141C99.746 33.5141 96.3593 30.1275 96.3593 25.9414C96.3593 21.7551 99.7576 18.3687 103.932 18.3687C108.118 18.3687 111.505 21.7551 111.505 25.9414C111.505 30.1159 108.118 33.5141 103.932 33.5141ZM132.471 19.2271C128.791 19.2271 125.816 22.2137 125.816 25.8825V38.0883H120.3V13.7827H125.816V17.522C125.816 17.522 128.167 13.7708 133 13.7708H134.693V19.2271H132.471ZM150.98 24.989C154.895 22.7781 157.553 18.5802 157.553 13.7708H152.038C152.038 17.8276 148.746 21.1201 144.689 21.1201H143.948V2.04712H138.433V38.0879H143.948V26.6351H144.607C145.147 26.6351 145.853 26.988 146.17 27.4228L154.002 38.0883H160.61L150.98 24.989Z" fill="#9CA3AF"/>
</svg>
