<svg width="199" height="52" viewBox="0 0 199 52" fill="none" xmlns="http://www.w3.org/2000/svg">
<path fill-rule="evenodd" clip-rule="evenodd" d="M110.154 32.5358C110.154 32.9324 110.124 33.329 110.002 33.6645C109.731 34.4574 109.217 35.1442 108.532 35.6265C107.847 36.1087 107.026 36.3617 106.189 36.349C104.633 36.349 103.398 35.4643 103.398 33.573C103.398 30.7055 106.555 29.9124 110.154 29.9276V32.5358ZM115.798 27.533C115.798 22.8047 113.769 18.6254 106.936 18.6254C103.428 18.6254 100.637 19.6016 99.1115 20.4863L100.225 24.2994C101.953 23.2745 103.92 22.7222 105.929 22.6979C109.407 22.6979 109.971 24.6655 109.971 25.9162V26.2212C102.406 26.2212 97.6168 28.8294 97.6168 34.1679C97.6168 37.4319 100.057 40.4824 104.297 40.4824C106.89 40.4824 109.072 39.4453 110.383 37.7827H110.505C110.505 37.7827 111.375 41.3976 116.149 40.0096C115.889 38.4996 115.798 36.8981 115.798 34.9763V27.533ZM0 12.1736L5.73499 35.7084C6.65014 39.552 8.31268 40.9705 13.0867 40.0096L16.183 27.4567C16.9609 24.3299 17.4948 22.1183 17.9981 18.9305H18.0744C18.4404 22.1335 18.9438 24.3452 19.5844 27.472L21.4757 36.166C22.1316 39.1555 23.9161 41.0468 28.6139 40.0096L35.9657 12.1736H30.0172L27.5157 24.2079C26.8294 27.716 26.2193 30.4615 25.7464 33.6645H25.6702C25.2431 30.4767 24.694 27.8533 23.9924 24.4367L21.3994 12.1736H15.2069L12.4004 24.1164C11.6225 27.7465 10.8751 30.675 10.4175 33.7713H10.326C9.83794 30.8733 9.19733 27.1669 8.49571 23.6588L6.25358 12.1736H0ZM46.8408 32.5358C46.8408 32.9324 46.8103 33.329 46.6883 33.6645C46.4177 34.4574 45.903 35.1442 45.218 35.6265C44.5329 36.1087 43.7128 36.3617 42.8751 36.349C41.3194 36.349 40.0839 35.4643 40.0839 33.573C40.0839 30.7055 43.2412 29.9124 46.8408 29.9276V32.5358ZM52.4843 27.533C52.4843 22.8047 50.4709 18.6254 43.6378 18.6254C40.1297 18.6254 37.3232 19.6016 35.7979 20.4863L36.9113 24.2994C38.6398 23.2752 40.6069 22.7229 42.6158 22.6979C46.0934 22.6979 46.6578 24.6655 46.6578 25.9162V26.2212C39.0925 26.2212 34.3031 28.8294 34.3031 34.1679C34.3031 37.4319 36.7436 40.4824 40.9838 40.4824C43.5767 40.4824 45.7579 39.4453 47.0696 37.7827H47.1916C47.1916 37.7827 48.061 41.3976 52.8351 40.0096C52.5758 38.4996 52.4843 36.8981 52.4843 34.9763V27.533ZM61.224 34.0916V12.1888H55.5806V40.0249H61.224V34.1069V34.0916ZM133.155 12.1888V32.7189C133.155 35.5559 133.689 37.5387 134.833 38.7437C135.825 39.8113 137.457 40.4977 139.424 40.4977C141.102 40.4977 142.734 40.1926 143.512 39.8876L143.451 35.4643C142.871 35.6169 142.2 35.7236 141.3 35.7236C139.378 35.7236 138.723 34.5034 138.723 31.9562V24.1011H143.649V18.7627H138.723V12.1736H133.155V12.1888ZM118.559 19.0983V40.0096H124.385V29.3023C124.385 28.7227 124.431 28.2346 124.522 27.7618C124.949 25.5196 126.658 24.0859 129.129 24.0859C129.8 24.0859 130.288 24.1469 130.806 24.2384V18.7475C130.386 18.6578 129.956 18.6169 129.525 18.6254C127.344 18.6254 124.873 20.0287 123.836 23.0487H123.684V19.083H118.559V19.0983ZM64.5186 19.083V40.0096H70.1621V27.7465C70.1621 27.1669 70.2383 26.5568 70.4366 26.0382C70.8942 24.8028 72.0534 23.3538 73.8837 23.3538C76.1716 23.3538 77.2545 25.2908 77.2545 28.0821V40.0096H82.9285V27.594C82.9285 27.0449 83.0048 26.3738 83.1725 25.9009C83.3953 25.1642 83.8492 24.5187 84.4673 24.0599C85.0854 23.6012 85.8347 23.3536 86.6044 23.3538C88.9228 23.3538 90.0362 25.2603 90.0362 28.5396V40.0096H95.7255V27.6855C95.7255 21.2031 92.4156 18.6254 88.7093 18.6254C87.0467 18.6254 85.7502 19.0373 84.5758 19.7541C83.5844 20.3642 82.6845 21.2336 81.9218 22.3623H81.8303C81.3747 21.2222 80.5774 20.2509 79.5479 19.5819C78.5184 18.9128 77.307 18.5787 76.0801 18.6254C74.8556 18.553 73.6353 18.8246 72.5571 19.4095C71.479 19.9944 70.5859 20.8693 69.979 21.9353H69.9028V19.0983H64.5033" fill="#9CA3AF"/>
<path fill-rule="evenodd" clip-rule="evenodd" d="M174.185 18.1678C175.313 18.1678 176.228 17.5729 176.366 16.8255L177.464 4.25739C177.464 3.02193 176.015 2 174.185 2C172.354 2 170.905 3.02193 170.905 4.25739L172.019 16.8255C172.141 17.5882 173.071 18.1525 174.185 18.1525V18.1678ZM167.397 22.0877C167.961 21.1115 167.916 20.0133 167.321 19.5253L156.995 12.2955C155.927 11.6702 154.326 12.4175 153.41 14.0038C152.495 15.5901 152.648 17.3594 153.716 17.9695L165.155 23.2927C165.872 23.552 166.833 23.0486 167.397 22.0725V22.0877ZM180.972 22.0725C181.536 23.0486 182.497 23.552 183.229 23.2927L194.654 17.9695C195.721 17.3594 195.874 15.5901 194.974 14.0038C194.059 12.4175 192.442 11.6702 191.374 12.2955L181.048 19.5253C180.469 20.0133 180.423 21.1115 180.987 22.0877L180.972 22.0725ZM174.185 33.8322C175.313 33.8322 176.228 34.4271 176.366 35.1745L177.464 47.7426C177.464 48.9781 176.015 50 174.185 50C172.354 50 170.905 48.9781 170.905 47.7426L172.019 35.1745C172.141 34.4118 173.071 33.8475 174.185 33.8475V33.8322ZM180.972 29.9276C181.536 28.9514 182.497 28.448 183.229 28.7073L194.654 34.0305C195.721 34.6406 195.874 36.4252 194.974 37.9962C194.059 39.5825 192.442 40.3298 191.374 39.7045L181.048 32.4747C180.469 31.9867 180.423 30.8885 180.987 29.9276H180.972ZM167.397 29.9276C167.961 30.8885 167.916 31.9867 167.321 32.4747L156.995 39.7045C155.927 40.3146 154.326 39.5825 153.41 37.9962C152.495 36.4099 152.648 34.6406 153.716 34.0305L165.155 28.7073C165.872 28.448 166.833 28.9514 167.397 29.9276ZM197.063 38.6063H197.17C197.292 38.6063 197.399 38.5605 197.399 38.4538C197.399 38.3623 197.338 38.3012 197.186 38.3012H197.063V38.6063ZM197.063 39.1554H196.819V38.164L197.201 38.1335C197.399 38.1335 197.475 38.164 197.552 38.2097C197.613 38.2555 197.658 38.3317 197.658 38.4233C197.658 38.5453 197.567 38.6215 197.445 38.6673C197.536 38.6978 197.597 38.7893 197.628 38.9113C197.658 39.0639 197.674 39.1249 197.704 39.1554H197.46C197.43 39.1249 197.399 39.0334 197.369 38.9266C197.353 38.8198 197.292 38.7741 197.17 38.7741H197.048V39.1706L197.063 39.1554ZM197.216 37.8437C196.758 37.8437 196.438 38.2097 196.438 38.6521C196.438 39.0944 196.774 39.4452 197.216 39.4452C197.658 39.4452 197.979 39.0944 197.979 38.6521C197.985 38.5481 197.97 38.444 197.934 38.3461C197.899 38.2483 197.844 38.1587 197.772 38.083C197.701 38.0072 197.614 37.9469 197.519 37.9058C197.423 37.8646 197.32 37.8435 197.216 37.8437ZM197.216 37.6454C197.796 37.6454 198.238 38.0877 198.238 38.6521C198.238 39.2164 197.78 39.6587 197.216 39.6587C197.081 39.6628 196.947 39.6398 196.821 39.591C196.696 39.5423 196.581 39.4688 196.484 39.3749C196.388 39.281 196.311 39.1686 196.258 39.0445C196.206 38.9203 196.179 38.7869 196.179 38.6521C196.179 38.0877 196.636 37.6454 197.216 37.6454Z" fill="#9CA3AF"/>
</svg>
